<svg xmlns="http://www.w3.org/2000/svg" xmlns:xlink="http://www.w3.org/1999/xlink" preserveAspectRatio="xMidYMid" width="27" height="27" viewBox="0 0 27 27">
  <defs>
    <style>

      .cls-2 {
        fill: #393933;
      }
    </style>
  </defs>
  <path d="M13.500,27.000 C6.044,27.000 -0.000,20.956 -0.000,13.500 C-0.000,6.044 6.044,-0.000 13.500,-0.000 C20.956,-0.000 27.000,6.044 27.000,13.500 C27.000,20.956 20.956,27.000 13.500,27.000 ZM13.500,3.000 C7.701,3.000 3.000,7.701 3.000,13.500 C3.000,19.299 7.701,24.000 13.500,24.000 C19.299,24.000 24.000,19.299 24.000,13.500 C24.000,7.701 19.299,3.000 13.500,3.000 ZM13.500,20.000 C12.672,20.000 12.000,19.328 12.000,18.500 C12.000,17.672 12.672,17.000 13.500,17.000 C14.328,17.000 15.000,17.672 15.000,18.500 C15.000,19.328 14.328,20.000 13.500,20.000 ZM13.500,15.062 C12.672,15.062 12.000,14.391 12.000,13.562 C12.000,13.562 12.000,8.500 12.000,8.500 C12.000,7.671 12.672,7.000 13.500,7.000 C14.328,7.000 15.000,7.671 15.000,8.500 C15.000,8.500 15.000,13.562 15.000,13.562 C15.000,14.391 14.328,15.062 13.500,15.062 Z" id="path-1" class="cls-2" fill-rule="evenodd"/>
</svg>
