<svg xmlns="http://www.w3.org/2000/svg" xmlns:xlink="http://www.w3.org/1999/xlink" preserveAspectRatio="xMidYMid" width="232" height="60" viewBox="0 0 232 60">
  <defs>
    <style>

      .cls-2 {
        fill: #000000;
      }
    </style>
  </defs>
  <path d="M231.753,53.209 C231.753,53.209 231.331,56.682 231.331,56.682 C231.331,56.682 229.238,56.682 229.238,56.682 C229.238,56.682 229.616,53.572 229.616,53.572 C229.674,53.050 229.688,52.892 229.688,52.776 C229.688,52.558 229.645,52.254 229.427,52.038 C229.296,51.907 229.063,51.806 228.802,51.806 C228.468,51.806 228.191,51.937 228.003,52.124 C227.784,52.342 227.566,52.747 227.464,53.572 C227.464,53.572 227.086,56.682 227.086,56.682 C227.086,56.682 224.993,56.682 224.993,56.682 C224.993,56.682 225.385,53.499 225.385,53.499 C225.415,53.238 225.443,53.022 225.443,52.790 C225.443,52.587 225.429,52.269 225.211,52.052 C225.050,51.893 224.775,51.806 224.543,51.806 C224.295,51.806 223.990,51.893 223.742,52.139 C223.350,52.544 223.277,53.137 223.219,53.600 C223.219,53.600 222.841,56.682 222.841,56.682 C222.841,56.682 220.748,56.682 220.748,56.682 C220.748,56.682 221.547,50.229 221.547,50.229 C221.547,50.229 223.641,50.229 223.641,50.229 C223.641,50.229 223.524,50.982 223.524,50.982 C223.757,50.649 224.048,50.446 224.295,50.316 C224.455,50.244 224.833,50.070 225.400,50.070 C225.909,50.070 226.301,50.200 226.578,50.389 C226.708,50.475 227.058,50.736 227.246,51.256 C227.333,51.126 227.624,50.707 228.105,50.417 C228.555,50.142 229.050,50.070 229.485,50.070 C229.950,50.070 230.663,50.142 231.215,50.663 C232.000,51.416 231.856,52.399 231.753,53.209 ZM218.741,56.074 C217.972,56.812 216.939,56.898 216.198,56.898 C215.543,56.898 214.395,56.856 213.668,56.161 C213.232,55.756 212.970,55.105 212.970,54.425 C212.970,54.164 213.014,53.715 213.043,53.513 C213.043,53.513 213.436,50.229 213.436,50.229 C213.436,50.229 215.529,50.229 215.529,50.229 C215.529,50.229 215.150,53.441 215.150,53.441 C215.107,53.846 215.078,53.990 215.078,54.150 C215.078,54.498 215.209,54.729 215.354,54.859 C215.543,55.032 215.907,55.134 216.213,55.134 C216.547,55.134 216.939,55.018 217.171,54.772 C217.259,54.685 217.506,54.381 217.593,53.614 C217.593,53.614 218.000,50.229 218.000,50.229 C218.000,50.229 220.095,50.229 220.095,50.229 C220.095,50.229 219.686,53.715 219.686,53.715 C219.600,54.483 219.469,55.380 218.741,56.074 ZM207.173,53.860 C207.159,54.179 207.260,54.584 207.435,54.830 C207.710,55.206 208.103,55.279 208.438,55.279 C208.685,55.279 209.005,55.264 209.267,55.090 C209.456,54.960 209.630,54.714 209.718,54.511 C209.718,54.511 211.825,54.685 211.825,54.685 C211.563,55.336 211.113,55.944 210.647,56.291 C209.906,56.841 209.020,56.898 208.423,56.898 C207.624,56.898 206.664,56.797 205.894,56.031 C205.269,55.409 205.080,54.641 205.080,53.774 C205.080,52.356 205.661,51.416 206.199,50.910 C206.984,50.171 207.958,50.012 208.773,50.012 C209.878,50.012 210.706,50.360 211.200,50.837 C212.073,51.691 212.102,53.094 212.014,53.860 C212.014,53.860 207.173,53.860 207.173,53.860 ZM209.587,51.748 C209.355,51.561 208.990,51.488 208.729,51.488 C208.220,51.488 207.915,51.705 207.740,51.878 C207.580,52.052 207.435,52.298 207.377,52.587 C207.377,52.587 210.009,52.587 210.009,52.587 C209.980,52.283 209.819,51.937 209.587,51.748 ZM208.569,21.381 C207.518,21.381 206.739,21.752 206.129,22.392 C205.045,23.539 204.943,25.157 204.943,26.439 C204.943,26.439 204.943,32.541 204.943,32.541 C204.943,32.541 200.064,32.541 200.064,32.541 C200.064,32.541 200.064,17.503 200.064,17.503 C200.064,17.503 204.943,17.503 204.943,17.503 C204.943,17.503 204.943,19.864 204.943,19.864 C205.384,19.021 206.061,18.246 206.841,17.774 C207.654,17.267 208.501,17.133 209.449,17.133 C210.060,17.133 210.500,17.200 211.042,17.369 C211.042,17.369 210.770,21.921 210.770,21.921 C210.127,21.583 209.415,21.381 208.569,21.381 ZM201.489,54.092 C201.489,54.092 201.024,53.948 201.024,53.948 C200.675,53.846 200.239,53.673 199.933,53.369 C199.774,53.195 199.497,52.833 199.497,52.212 C199.497,51.590 199.759,51.054 200.109,50.707 C200.776,50.056 201.780,50.012 202.245,50.012 C202.725,50.012 203.496,50.056 204.382,50.663 C204.382,50.663 203.496,51.951 203.496,51.951 C203.205,51.733 202.783,51.517 202.274,51.517 C202.071,51.517 201.794,51.561 201.649,51.691 C201.561,51.763 201.504,51.893 201.504,52.008 C201.504,52.124 201.548,52.254 201.708,52.356 C201.751,52.384 201.852,52.428 202.216,52.529 C202.216,52.529 202.696,52.659 202.696,52.659 C203.016,52.747 203.452,52.892 203.815,53.268 C204.150,53.600 204.295,53.990 204.295,54.498 C204.295,55.293 203.961,55.814 203.684,56.088 C202.987,56.812 201.969,56.898 201.401,56.898 C200.850,56.898 200.297,56.841 199.716,56.581 C199.352,56.421 199.017,56.190 198.712,55.915 C198.712,55.915 199.599,54.511 199.599,54.511 C199.831,54.729 200.137,54.931 200.399,55.046 C200.472,55.076 200.850,55.250 201.300,55.250 C201.561,55.250 201.765,55.206 201.940,55.105 C202.114,55.004 202.202,54.888 202.202,54.685 C202.202,54.468 202.100,54.353 201.998,54.280 C201.867,54.193 201.663,54.150 201.489,54.092 ZM197.073,56.074 C196.303,56.812 195.270,56.898 194.530,56.898 C193.874,56.898 192.726,56.856 191.999,56.161 C191.563,55.756 191.302,55.105 191.302,54.425 C191.302,54.164 191.345,53.715 191.374,53.513 C191.374,53.513 191.767,50.229 191.767,50.229 C191.767,50.229 193.860,50.229 193.860,50.229 C193.860,50.229 193.482,53.441 193.482,53.441 C193.438,53.846 193.409,53.990 193.409,54.150 C193.409,54.498 193.540,54.729 193.686,54.859 C193.874,55.032 194.239,55.134 194.543,55.134 C194.877,55.134 195.270,55.018 195.503,54.772 C195.590,54.685 195.838,54.381 195.925,53.614 C195.925,53.614 196.332,50.229 196.332,50.229 C196.332,50.229 198.425,50.229 198.425,50.229 C198.425,50.229 198.018,53.715 198.018,53.715 C197.931,54.483 197.800,55.380 197.073,56.074 ZM186.988,28.462 C187.666,29.203 188.547,29.406 189.461,29.406 C189.902,29.406 190.579,29.372 191.190,29.001 C191.528,28.799 192.003,28.395 192.274,27.686 C192.274,27.686 196.847,27.990 196.847,27.990 C196.068,30.349 194.476,31.530 193.900,31.901 C192.443,32.844 190.884,33.047 189.292,33.047 C188.615,33.047 186.818,32.979 185.599,32.372 C184.819,32.002 183.972,31.227 183.430,30.586 C182.719,31.530 181.905,32.103 180.889,32.507 C179.669,32.979 178.585,33.047 177.264,33.047 C175.604,33.047 173.638,32.844 172.181,31.395 C171.369,30.586 170.860,29.473 170.860,28.024 C170.860,26.877 171.165,25.832 172.114,24.887 C173.130,23.876 174.858,23.135 177.434,23.135 C179.127,23.135 180.144,23.539 180.991,24.045 C180.991,24.045 180.991,23.741 180.991,23.741 C180.991,22.899 180.618,22.022 180.110,21.516 C179.534,20.943 178.483,20.572 177.162,20.572 C176.077,20.572 174.587,20.876 173.266,21.314 C173.266,21.314 173.266,17.605 173.266,17.605 C174.824,17.166 176.349,16.998 177.704,16.998 C180.956,16.998 182.413,18.145 183.295,19.594 C184.989,17.402 187.530,16.998 189.088,16.998 C191.800,16.998 193.764,17.976 194.985,19.291 C196.847,21.314 197.017,24.011 197.017,25.393 C197.017,25.393 197.017,25.866 197.017,25.866 C197.017,25.866 185.971,25.866 185.971,25.866 C186.005,26.877 186.412,27.854 186.988,28.462 ZM180.414,26.877 C179.838,26.304 178.856,26.102 178.076,26.102 C177.128,26.102 176.315,26.371 175.840,26.877 C175.569,27.147 175.400,27.484 175.400,27.922 C175.400,28.293 175.536,28.630 175.840,28.967 C176.349,29.473 177.230,29.743 178.043,29.743 C178.754,29.743 179.838,29.540 180.414,28.967 C180.618,28.765 180.855,28.428 180.855,27.922 C180.855,27.551 180.720,27.214 180.414,26.877 ZM192.443,22.966 C192.307,22.258 191.935,21.583 191.460,21.145 C190.749,20.505 189.869,20.370 189.292,20.370 C188.547,20.370 187.801,20.505 187.191,21.078 C186.649,21.550 186.276,22.325 186.108,22.966 C186.108,22.966 192.443,22.966 192.443,22.966 ZM172.527,51.185 C172.731,50.779 173.036,50.504 173.341,50.331 C173.749,50.114 174.199,50.070 174.431,50.070 C174.780,50.070 175.071,50.114 175.290,50.171 C175.290,50.171 174.882,52.110 174.882,52.110 C174.678,52.008 174.374,51.893 173.966,51.893 C173.442,51.893 173.095,52.096 172.891,52.283 C172.527,52.631 172.353,53.238 172.265,53.933 C172.265,53.933 171.916,56.682 171.916,56.682 C171.916,56.682 169.823,56.682 169.823,56.682 C169.823,56.682 170.623,50.229 170.623,50.229 C170.623,50.229 172.716,50.229 172.716,50.229 C172.716,50.229 172.527,51.185 172.527,51.185 ZM168.313,48.695 C167.629,48.695 167.092,48.160 167.092,47.481 C167.092,46.801 167.629,46.265 168.313,46.265 C168.996,46.265 169.534,46.801 169.534,47.481 C169.534,48.160 168.996,48.695 168.313,48.695 ZM161.002,33.047 C158.325,33.047 156.970,31.800 156.225,30.721 C156.225,30.721 156.225,32.541 156.225,32.541 C156.225,32.541 151.345,32.541 151.345,32.541 C151.345,32.541 151.345,7.962 151.345,7.962 C151.345,7.962 156.225,7.962 156.225,7.962 C156.225,7.962 156.225,19.190 156.225,19.190 C157.445,17.538 159.273,16.998 160.934,16.998 C163.001,16.998 164.864,17.774 166.186,19.021 C167.643,20.404 168.559,22.460 168.559,24.955 C168.559,27.281 167.744,29.439 166.186,30.991 C164.864,32.339 163.238,33.047 161.002,33.047 ZM162.357,22.190 C161.578,21.449 160.731,21.179 159.748,21.179 C158.698,21.179 157.784,21.482 157.004,22.291 C156.428,22.899 155.920,23.775 155.920,25.056 C155.920,26.304 156.462,27.214 157.038,27.753 C157.817,28.496 158.901,28.866 159.816,28.866 C160.664,28.866 161.612,28.529 162.357,27.821 C163.070,27.147 163.544,26.169 163.544,25.056 C163.544,23.843 163.070,22.864 162.357,22.190 ZM152.315,52.139 C152.315,52.356 152.300,52.674 152.212,53.369 C152.212,53.369 151.820,56.682 151.820,56.682 C151.820,56.682 149.727,56.682 149.727,56.682 C149.727,56.682 150.076,53.889 150.076,53.889 C150.163,53.224 150.163,52.949 150.163,52.848 C150.163,52.602 150.119,52.298 149.901,52.067 C149.669,51.836 149.349,51.792 149.131,51.792 C148.768,51.792 148.448,51.878 148.186,52.139 C147.808,52.529 147.721,53.152 147.677,53.499 C147.677,53.499 147.299,56.682 147.299,56.682 C147.299,56.682 145.206,56.682 145.206,56.682 C145.206,56.682 146.005,50.229 146.005,50.229 C146.005,50.229 148.098,50.229 148.098,50.229 C148.098,50.229 147.997,50.938 147.997,50.938 C148.245,50.677 148.520,50.475 148.797,50.331 C149.262,50.085 149.625,50.056 150.076,50.056 C150.613,50.056 151.268,50.128 151.762,50.605 C152.271,51.097 152.315,51.748 152.315,52.139 ZM146.706,21.381 C145.655,21.381 144.876,21.752 144.265,22.392 C143.181,23.539 143.080,25.157 143.080,26.439 C143.080,26.439 143.080,32.541 143.080,32.541 C143.080,32.541 138.201,32.541 138.201,32.541 C138.201,32.541 138.201,17.503 138.201,17.503 C138.201,17.503 143.080,17.503 143.080,17.503 C143.080,17.503 143.080,19.864 143.080,19.864 C143.521,19.021 144.199,18.246 144.978,17.774 C145.790,17.267 146.637,17.133 147.587,17.133 C148.196,17.133 148.637,17.200 149.178,17.369 C149.178,17.369 148.908,21.921 148.908,21.921 C148.264,21.583 147.552,21.381 146.706,21.381 ZM141.260,50.012 C142.365,50.012 143.193,50.360 143.687,50.837 C144.560,51.691 144.589,53.094 144.501,53.860 C144.501,53.860 139.660,53.860 139.660,53.860 C139.646,54.179 139.747,54.584 139.922,54.830 C140.197,55.206 140.590,55.279 140.925,55.279 C141.172,55.279 141.492,55.264 141.754,55.090 C141.943,54.960 142.117,54.714 142.205,54.511 C142.205,54.511 144.312,54.685 144.312,54.685 C144.050,55.336 143.600,55.944 143.134,56.291 C142.393,56.841 141.507,56.898 140.910,56.898 C140.112,56.898 139.151,56.797 138.381,56.031 C137.756,55.409 137.567,54.641 137.567,53.774 C137.567,52.356 138.148,51.416 138.686,50.910 C139.471,50.171 140.445,50.012 141.260,50.012 ZM142.496,52.587 C142.467,52.283 142.306,51.937 142.074,51.748 C141.842,51.561 141.477,51.488 141.216,51.488 C140.707,51.488 140.401,51.705 140.227,51.878 C140.067,52.052 139.922,52.298 139.864,52.587 C139.864,52.587 142.496,52.587 142.496,52.587 ZM133.470,56.898 C133.006,56.898 132.511,56.856 132.060,56.623 C131.785,56.480 131.479,56.247 131.217,55.886 C131.217,55.886 130.694,59.995 130.694,59.995 C130.694,59.995 128.600,59.995 128.600,59.995 C128.600,59.995 129.807,50.229 129.807,50.229 C129.807,50.229 131.900,50.229 131.900,50.229 C131.900,50.229 131.785,50.982 131.785,50.982 C132.047,50.663 132.351,50.446 132.598,50.316 C133.020,50.099 133.442,50.012 133.936,50.012 C134.939,50.012 135.550,50.389 135.899,50.721 C136.423,51.242 136.757,52.139 136.757,53.137 C136.757,54.366 136.306,55.394 135.666,56.031 C135.027,56.667 134.314,56.898 133.470,56.898 ZM134.154,52.182 C133.892,51.937 133.486,51.806 133.122,51.806 C132.613,51.806 132.221,51.980 131.900,52.298 C131.523,52.674 131.377,53.108 131.377,53.600 C131.377,53.904 131.450,54.324 131.770,54.656 C132.017,54.916 132.410,55.105 132.860,55.105 C133.282,55.105 133.718,54.945 134.023,54.656 C134.372,54.338 134.605,53.745 134.605,53.268 C134.605,52.862 134.415,52.414 134.154,52.182 ZM129.123,28.293 C129.123,28.293 120.584,28.293 120.584,28.293 C120.584,28.293 118.856,32.541 118.856,32.541 C118.856,32.541 113.436,32.541 113.436,32.541 C113.436,32.541 122.549,10.053 122.549,10.053 C122.549,10.053 127.327,10.053 127.327,10.053 C127.327,10.053 136.237,32.541 136.237,32.541 C136.237,32.541 130.817,32.541 130.817,32.541 C130.817,32.541 129.123,28.293 129.123,28.293 ZM124.921,16.762 C124.921,16.762 122.109,24.314 122.109,24.314 C122.109,24.314 127.700,24.314 127.700,24.314 C127.700,24.314 124.921,16.762 124.921,16.762 ZM122.177,6.344 C122.177,6.344 126.717,1.354 126.717,1.354 C126.717,1.354 129.936,3.781 129.936,3.781 C129.936,3.781 124.379,8.131 124.379,8.131 C124.379,8.131 122.177,6.344 122.177,6.344 ZM93.776,0.002 C93.776,0.002 95.827,0.002 95.827,0.002 C95.827,0.002 95.827,58.760 95.827,58.760 C95.827,58.760 93.776,58.760 93.776,58.760 C93.776,58.760 93.776,0.002 93.776,0.002 ZM50.810,15.558 C50.810,15.558 35.931,30.363 35.931,30.363 C35.931,30.363 28.107,22.577 28.107,22.577 C28.107,22.577 50.810,-0.016 50.810,-0.016 C50.810,-0.016 73.514,22.576 73.514,22.576 C73.514,22.576 65.690,30.364 65.690,30.364 C65.690,30.364 50.810,15.558 50.810,15.558 ZM37.583,58.758 C37.583,58.758 22.704,43.953 22.704,43.953 C22.704,43.953 7.824,58.759 7.824,58.759 C7.824,58.759 -0.000,50.972 -0.000,50.972 C-0.000,50.972 22.704,28.380 22.704,28.380 C22.704,28.380 45.407,50.973 45.407,50.973 C45.407,50.973 37.583,58.758 37.583,58.758 ZM123.281,46.815 C125.142,46.815 126.261,47.466 126.901,48.074 C127.729,48.869 128.267,50.085 128.267,51.502 C128.267,52.877 127.788,54.366 126.771,55.409 C125.548,56.653 124.022,56.898 122.758,56.898 C121.551,56.898 120.213,56.682 119.065,55.525 C118.395,54.844 117.698,53.730 117.698,52.153 C117.698,50.461 118.382,49.144 119.298,48.277 C120.534,47.104 122.030,46.815 123.281,46.815 ZM120.780,54.034 C121.434,54.700 122.219,54.844 122.902,54.844 C123.556,54.844 124.357,54.743 125.070,54.020 C125.593,53.484 125.970,52.646 125.970,51.647 C125.970,51.025 125.839,50.244 125.201,49.621 C124.560,49.000 123.790,48.869 123.193,48.869 C122.234,48.869 121.463,49.188 120.882,49.795 C120.315,50.389 119.995,51.198 119.995,52.008 C119.995,52.892 120.330,53.585 120.780,54.034 ZM162.791,47.032 C162.791,47.032 165.393,56.682 165.393,56.682 C165.393,56.682 163.097,56.682 163.097,56.682 C163.097,56.682 162.603,54.859 162.603,54.859 C162.603,54.859 158.939,54.859 158.939,54.859 C158.939,54.859 158.023,56.682 158.023,56.682 C158.023,56.682 155.610,56.682 155.610,56.682 C155.610,56.682 160.727,47.032 160.727,47.032 C160.727,47.032 162.791,47.032 162.791,47.032 ZM162.195,53.152 C162.195,53.152 161.410,49.751 161.410,49.751 C161.410,49.751 159.782,53.152 159.782,53.152 C159.782,53.152 162.195,53.152 162.195,53.152 ZM169.084,50.229 C169.084,50.229 168.283,56.682 168.283,56.682 C168.283,56.682 166.190,56.682 166.190,56.682 C166.190,56.682 166.991,50.229 166.991,50.229 C166.991,50.229 169.084,50.229 169.084,50.229 ZM182.757,47.032 C182.757,47.032 184.415,52.804 184.415,52.804 C184.415,52.804 187.555,47.032 187.555,47.032 C187.555,47.032 189.460,47.032 189.460,47.032 C189.460,47.032 189.808,56.682 189.808,56.682 C189.808,56.682 187.570,56.682 187.570,56.682 C187.570,56.682 187.512,50.924 187.512,50.924 C187.512,50.924 184.415,56.682 184.415,56.682 C184.415,56.682 183.571,56.682 183.571,56.682 C183.571,56.682 181.870,50.924 181.870,50.924 C181.870,50.924 180.388,56.682 180.388,56.682 C180.388,56.682 178.148,56.682 178.148,56.682 C178.148,56.682 180.911,47.032 180.911,47.032 C180.911,47.032 182.757,47.032 182.757,47.032 Z" id="path-1" class="cls-2" fill-rule="evenodd"/>
</svg>
