<svg xmlns="http://www.w3.org/2000/svg" xmlns:xlink="http://www.w3.org/1999/xlink" preserveAspectRatio="xMidYMid" width="205" height="40" viewBox="0 0 205 40">
  <defs>
    <style>

      .cls-2 {
        fill: #000000;
      }
    </style>
  </defs>
  <path d="M201.704,27.933 C201.704,27.933 201.704,22.658 201.704,22.658 C201.704,21.990 201.681,21.138 201.155,20.608 C200.903,20.355 200.491,20.147 199.896,20.147 C199.210,20.147 198.775,20.424 198.523,20.700 C197.974,21.253 197.883,21.990 197.883,22.658 C197.883,22.658 197.883,27.933 197.883,27.933 C197.883,27.933 194.587,27.933 194.587,27.933 C194.587,27.933 194.587,17.660 194.587,17.660 C194.587,17.660 197.883,17.660 197.883,17.660 C197.883,17.660 197.883,18.881 197.883,18.881 C198.889,17.591 200.080,17.383 201.041,17.383 C201.932,17.383 203.100,17.545 203.969,18.420 C204.930,19.388 204.999,20.608 204.999,21.437 C204.999,21.437 204.999,27.933 204.999,27.933 C204.999,27.933 201.704,27.933 201.704,27.933 ZM190.697,27.933 C190.697,27.933 187.402,27.933 187.402,27.933 C187.402,27.933 187.402,20.332 187.402,20.332 C187.402,20.332 186.212,20.332 186.212,20.332 C186.212,20.332 186.212,17.660 186.212,17.660 C186.212,17.660 187.402,17.660 187.402,17.660 C187.402,17.660 187.402,15.633 187.402,15.633 C187.402,14.482 187.516,13.168 188.546,12.063 C189.209,11.349 190.148,10.888 191.406,10.888 C192.138,10.888 192.734,11.027 193.283,11.234 C193.283,11.234 193.283,14.136 193.283,14.136 C192.916,13.905 192.436,13.744 192.024,13.744 C191.520,13.744 191.200,13.975 191.063,14.159 C190.697,14.642 190.697,15.449 190.697,15.933 C190.697,15.933 190.697,17.660 190.697,17.660 C190.697,17.660 193.306,17.660 193.306,17.660 C193.306,17.660 193.306,20.332 193.306,20.332 C193.306,20.332 190.697,20.332 190.697,20.332 C190.697,20.332 190.697,27.933 190.697,27.933 ZM181.268,26.689 C180.376,28.071 179.094,28.278 178.248,28.278 C176.783,28.278 175.548,27.910 174.426,26.712 C173.351,25.560 172.940,24.224 172.940,22.865 C172.940,21.138 173.580,19.664 174.518,18.719 C175.410,17.821 176.646,17.314 178.065,17.314 C178.935,17.314 180.330,17.522 181.268,18.811 C181.268,18.811 181.268,17.660 181.268,17.660 C181.268,17.660 184.563,17.660 184.563,17.660 C184.563,17.660 184.563,27.933 184.563,27.933 C184.563,27.933 181.268,27.933 181.268,27.933 C181.268,27.933 181.268,26.689 181.268,26.689 ZM180.719,20.884 C180.216,20.401 179.483,20.170 178.889,20.170 C178.179,20.170 177.516,20.470 177.081,20.907 C176.738,21.253 176.326,21.852 176.326,22.773 C176.326,23.694 176.715,24.294 177.012,24.616 C177.470,25.099 178.179,25.422 178.957,25.422 C179.621,25.422 180.239,25.146 180.673,24.708 C181.108,24.294 181.474,23.648 181.474,22.773 C181.474,22.036 181.200,21.346 180.719,20.884 ZM168.110,21.276 C168.110,21.276 168.980,21.552 168.980,21.552 C169.552,21.736 170.147,21.967 170.673,22.451 C171.268,23.003 171.474,23.625 171.474,24.409 C171.474,25.768 170.879,26.643 170.421,27.104 C169.414,28.116 168.179,28.278 167.103,28.278 C165.730,28.278 164.243,27.979 162.916,26.804 C162.916,26.804 164.312,24.570 164.312,24.570 C164.632,24.846 165.090,25.169 165.433,25.330 C165.891,25.560 166.371,25.653 166.806,25.653 C167.012,25.653 167.539,25.653 167.836,25.422 C168.041,25.261 168.179,25.008 168.179,24.754 C168.179,24.570 168.110,24.339 167.813,24.155 C167.584,24.017 167.287,23.925 166.806,23.787 C166.806,23.787 165.982,23.533 165.982,23.533 C165.387,23.349 164.769,23.027 164.335,22.589 C163.854,22.082 163.603,21.506 163.603,20.724 C163.603,19.733 163.992,18.904 164.587,18.351 C165.502,17.499 166.737,17.314 167.675,17.314 C169.186,17.314 170.238,17.706 171.062,18.189 C171.062,18.189 169.758,20.285 169.758,20.285 C169.254,19.986 168.591,19.710 167.950,19.710 C167.607,19.710 167.218,19.802 167.012,20.009 C166.898,20.125 166.806,20.308 166.806,20.470 C166.806,20.700 166.966,20.839 167.126,20.930 C167.355,21.069 167.698,21.138 168.110,21.276 ZM160.467,20.308 C159.758,20.308 159.232,20.562 158.820,20.999 C158.087,21.783 158.018,22.888 158.018,23.764 C158.018,23.764 158.018,27.933 158.018,27.933 C158.018,27.933 154.724,27.933 154.724,27.933 C154.724,27.933 154.724,17.660 154.724,17.660 C154.724,17.660 158.018,17.660 158.018,17.660 C158.018,17.660 158.018,19.272 158.018,19.272 C158.316,18.696 158.774,18.167 159.300,17.844 C159.850,17.499 160.421,17.407 161.062,17.407 C161.474,17.407 161.772,17.452 162.138,17.567 C162.138,17.567 161.954,20.677 161.954,20.677 C161.520,20.447 161.039,20.308 160.467,20.308 ZM148.864,26.689 C147.972,28.071 146.691,28.278 145.844,28.278 C144.380,28.278 143.144,27.910 142.023,26.712 C140.947,25.560 140.535,24.224 140.535,22.865 C140.535,21.138 141.176,19.664 142.114,18.719 C143.007,17.821 144.242,17.314 145.661,17.314 C146.530,17.314 147.926,17.522 148.864,18.811 C148.864,18.811 148.864,17.660 148.864,17.660 C148.864,17.660 152.159,17.660 152.159,17.660 C152.159,17.660 152.159,27.933 152.159,27.933 C152.159,27.933 148.864,27.933 148.864,27.933 C148.864,27.933 148.864,26.689 148.864,26.689 ZM148.316,20.884 C147.812,20.401 147.080,20.170 146.485,20.170 C145.776,20.170 145.112,20.470 144.677,20.907 C144.334,21.253 143.922,21.852 143.922,22.773 C143.922,23.694 144.311,24.294 144.608,24.616 C145.066,25.099 145.776,25.422 146.553,25.422 C147.217,25.422 147.835,25.146 148.269,24.708 C148.705,24.294 149.071,23.648 149.071,22.773 C149.071,22.036 148.796,21.346 148.316,20.884 ZM136.600,15.218 C135.524,15.218 134.678,14.366 134.678,13.283 C134.678,12.201 135.524,11.349 136.600,11.349 C137.675,11.349 138.522,12.201 138.522,13.283 C138.522,14.366 137.675,15.218 136.600,15.218 ZM125.889,25.146 C126.347,25.653 126.942,25.790 127.559,25.790 C127.857,25.790 128.315,25.768 128.726,25.515 C128.955,25.376 129.276,25.099 129.459,24.616 C129.459,24.616 132.548,24.823 132.548,24.823 C132.021,26.436 130.946,27.242 130.557,27.495 C129.573,28.140 128.521,28.278 127.445,28.278 C126.987,28.278 125.775,28.232 124.951,27.817 C124.425,27.564 123.853,27.034 123.486,26.597 C123.006,27.242 122.457,27.633 121.770,27.910 C120.947,28.232 120.214,28.278 119.322,28.278 C118.201,28.278 116.874,28.140 115.890,27.149 C115.341,26.597 114.997,25.837 114.997,24.846 C114.997,24.064 115.203,23.349 115.844,22.704 C116.530,22.013 117.697,21.506 119.436,21.506 C120.581,21.506 121.267,21.783 121.839,22.128 C121.839,22.128 121.839,21.921 121.839,21.921 C121.839,21.346 121.587,20.746 121.244,20.401 C120.855,20.009 120.146,19.756 119.253,19.756 C118.521,19.756 117.514,19.963 116.622,20.262 C116.622,20.262 116.622,17.729 116.622,17.729 C117.674,17.430 118.704,17.314 119.620,17.314 C121.816,17.314 122.800,18.097 123.395,19.088 C124.539,17.591 126.255,17.314 127.308,17.314 C129.138,17.314 130.466,17.982 131.289,18.881 C132.548,20.262 132.662,22.105 132.662,23.050 C132.662,23.050 132.662,23.372 132.662,23.372 C132.662,23.372 125.203,23.372 125.203,23.372 C125.226,24.064 125.500,24.731 125.889,25.146 ZM121.450,24.064 C121.061,23.672 120.398,23.533 119.871,23.533 C119.231,23.533 118.681,23.718 118.361,24.064 C118.178,24.247 118.064,24.478 118.064,24.777 C118.064,25.031 118.155,25.261 118.361,25.491 C118.704,25.837 119.299,26.021 119.848,26.021 C120.329,26.021 121.061,25.883 121.450,25.491 C121.587,25.353 121.748,25.123 121.748,24.777 C121.748,24.524 121.656,24.294 121.450,24.064 ZM129.573,21.391 C129.482,20.907 129.230,20.447 128.909,20.147 C128.429,19.710 127.834,19.618 127.445,19.618 C126.942,19.618 126.438,19.710 126.026,20.102 C125.660,20.424 125.409,20.954 125.294,21.391 C125.294,21.391 129.573,21.391 129.573,21.391 ZM108.338,28.278 C106.530,28.278 105.614,27.426 105.111,26.689 C105.111,26.689 105.111,27.933 105.111,27.933 C105.111,27.933 101.816,27.933 101.816,27.933 C101.816,27.933 101.816,11.142 101.816,11.142 C101.816,11.142 105.111,11.142 105.111,11.142 C105.111,11.142 105.111,18.811 105.111,18.811 C105.935,17.683 107.171,17.314 108.292,17.314 C109.687,17.314 110.946,17.844 111.838,18.696 C112.822,19.641 113.440,21.046 113.440,22.750 C113.440,24.339 112.891,25.813 111.838,26.873 C110.946,27.794 109.848,28.278 108.338,28.278 ZM109.253,20.862 C108.726,20.355 108.154,20.170 107.491,20.170 C106.781,20.170 106.164,20.378 105.637,20.930 C105.248,21.346 104.905,21.944 104.905,22.820 C104.905,23.672 105.271,24.294 105.660,24.662 C106.187,25.169 106.919,25.422 107.537,25.422 C108.109,25.422 108.749,25.192 109.253,24.708 C109.733,24.247 110.053,23.579 110.053,22.820 C110.053,21.990 109.733,21.322 109.253,20.862 ZM98.681,20.308 C97.971,20.308 97.445,20.562 97.033,20.999 C96.301,21.783 96.232,22.888 96.232,23.764 C96.232,23.764 96.232,27.933 96.232,27.933 C96.232,27.933 92.937,27.933 92.937,27.933 C92.937,27.933 92.937,17.660 92.937,17.660 C92.937,17.660 96.232,17.660 96.232,17.660 C96.232,17.660 96.232,19.272 96.232,19.272 C96.530,18.696 96.988,18.167 97.514,17.844 C98.063,17.499 98.635,17.407 99.276,17.407 C99.687,17.407 99.985,17.452 100.351,17.567 C100.351,17.567 100.168,20.677 100.168,20.677 C99.733,20.447 99.253,20.308 98.681,20.308 ZM86.804,25.031 C86.804,25.031 81.037,25.031 81.037,25.031 C81.037,25.031 79.870,27.933 79.870,27.933 C79.870,27.933 76.209,27.933 76.209,27.933 C76.209,27.933 82.365,12.569 82.365,12.569 C82.365,12.569 85.591,12.569 85.591,12.569 C85.591,12.569 91.609,27.933 91.609,27.933 C91.609,27.933 87.948,27.933 87.948,27.933 C87.948,27.933 86.804,25.031 86.804,25.031 ZM83.966,17.153 C83.966,17.153 82.067,22.313 82.067,22.313 C82.067,22.313 85.843,22.313 85.843,22.313 C85.843,22.313 83.966,17.153 83.966,17.153 ZM82.113,10.036 C82.113,10.036 85.179,6.626 85.179,6.626 C85.179,6.626 87.353,8.285 87.353,8.285 C87.353,8.285 83.600,11.257 83.600,11.257 C83.600,11.257 82.113,10.036 82.113,10.036 ZM63.091,0.012 C63.091,0.012 64.471,0.012 64.471,0.012 C64.471,0.012 64.471,40.000 64.471,40.000 C64.471,40.000 63.091,40.000 63.091,40.000 C63.091,40.000 63.091,0.012 63.091,0.012 ZM34.185,10.598 C34.185,10.598 24.174,20.675 24.174,20.675 C24.174,20.675 18.910,15.375 18.910,15.375 C18.910,15.375 34.185,-0.000 34.185,-0.000 C34.185,-0.000 49.459,15.375 49.459,15.375 C49.459,15.375 44.195,20.675 44.195,20.675 C44.195,20.675 34.185,10.598 34.185,10.598 ZM25.286,40.000 C25.286,40.000 15.276,29.923 15.276,29.923 C15.276,29.923 5.265,40.000 5.265,40.000 C5.265,40.000 0.001,34.700 0.001,34.700 C0.001,34.700 15.276,19.324 15.276,19.324 C15.276,19.324 30.550,34.701 30.550,34.701 C30.550,34.701 25.286,40.000 25.286,40.000 ZM138.247,33.207 C138.247,33.207 134.952,33.207 134.952,33.207 C134.952,33.207 134.952,17.660 134.952,17.660 C134.952,17.660 138.247,17.660 138.247,17.660 C138.247,17.660 138.247,33.207 138.247,33.207 Z" id="path-1" class="cls-2" fill-rule="evenodd"/>
</svg>
