<svg xmlns="http://www.w3.org/2000/svg" xmlns:xlink="http://www.w3.org/1999/xlink" preserveAspectRatio="xMidYMid" width="153" height="37" viewBox="0 0 153 37">
  <defs>
    <style>

      .cls-2 {
        fill: #040404;
      }
    </style>
  </defs>
  <path d="M151.702,32.813 C151.702,32.813 151.702,28.229 151.702,28.229 C151.702,27.375 151.594,26.248 150.368,26.248 C148.871,26.248 148.708,27.702 148.708,28.612 C148.708,28.612 148.708,32.813 148.708,32.813 C148.708,32.813 147.410,32.813 147.410,32.813 C147.410,32.813 147.410,28.339 147.410,28.339 C147.410,27.811 147.429,26.248 146.058,26.248 C144.580,26.248 144.417,27.793 144.417,28.702 C144.417,28.702 144.417,32.813 144.417,32.813 C144.417,32.813 143.119,32.813 143.119,32.813 C143.119,32.813 143.119,25.266 143.119,25.266 C143.119,25.266 144.417,25.266 144.417,25.266 C144.417,25.266 144.417,26.066 144.417,26.066 C144.832,25.448 145.481,25.084 146.275,25.084 C147.627,25.084 148.168,26.047 148.312,26.302 C149.033,25.156 150.061,25.084 150.566,25.084 C152.783,25.084 153.000,26.957 153.000,28.030 C153.000,28.030 153.000,32.813 153.000,32.813 C153.000,32.813 151.702,32.813 151.702,32.813 ZM140.856,13.271 C140.856,13.271 137.754,9.779 137.754,9.779 C137.754,9.779 137.754,13.271 137.754,13.271 C137.754,13.271 135.158,13.271 135.158,13.271 C135.158,13.271 135.158,0.013 135.158,0.013 C135.158,0.013 137.754,0.013 137.754,0.013 C137.754,0.013 137.754,8.143 137.754,8.143 C137.754,8.143 140.675,5.160 140.675,5.160 C140.675,5.160 144.083,5.160 144.083,5.160 C144.083,5.160 140.260,8.833 140.260,8.833 C140.260,8.833 144.353,13.271 144.353,13.271 C144.353,13.271 140.856,13.271 140.856,13.271 ZM136.098,29.666 C136.098,30.194 136.098,30.813 136.459,31.285 C136.658,31.539 137.055,31.867 137.775,31.867 C138.497,31.867 138.893,31.539 139.092,31.285 C139.453,30.813 139.453,30.194 139.453,29.666 C139.453,29.666 139.453,25.266 139.453,25.266 C139.453,25.266 140.750,25.266 140.750,25.266 C140.750,25.266 140.750,29.811 140.750,29.811 C140.750,30.739 140.660,31.430 140.065,32.085 C139.398,32.794 138.515,33.030 137.775,33.030 C137.036,33.030 136.153,32.794 135.486,32.085 C134.891,31.430 134.800,30.739 134.800,29.811 C134.800,29.811 134.800,25.266 134.800,25.266 C134.800,25.266 136.098,25.266 136.098,25.266 C136.098,25.266 136.098,29.666 136.098,29.666 ZM130.432,3.032 C130.432,3.032 132.290,0.267 132.290,0.267 C132.290,0.267 133.984,1.450 133.984,1.450 C133.984,1.450 131.604,3.905 131.604,3.905 C131.604,3.905 130.432,3.032 130.432,3.032 ZM132.920,13.271 C132.920,13.271 130.324,13.271 130.324,13.271 C130.324,13.271 130.324,5.160 130.324,5.160 C130.324,5.160 132.920,5.160 132.920,5.160 C132.920,5.160 132.920,13.271 132.920,13.271 ZM132.182,26.465 C132.651,27.139 132.922,28.302 132.886,29.302 C132.886,29.302 127.062,29.302 127.062,29.302 C127.080,30.867 128.144,31.867 129.442,31.867 C130.055,31.867 130.541,31.686 130.975,31.321 C131.317,31.030 131.587,30.648 131.750,30.284 C131.750,30.284 132.832,30.884 132.832,30.884 C132.615,31.303 132.290,31.758 131.912,32.104 C131.227,32.722 130.379,33.030 129.424,33.030 C127.621,33.030 125.728,31.885 125.728,29.085 C125.728,26.829 127.098,25.084 129.352,25.084 C130.812,25.084 131.732,25.811 132.182,26.465 ZM129.352,26.248 C128.252,26.248 127.350,27.084 127.153,28.212 C127.153,28.212 131.551,28.212 131.551,28.212 C131.335,27.030 130.452,26.248 129.352,26.248 ZM123.428,13.271 C123.428,13.271 119.353,5.160 119.353,5.160 C119.353,5.160 122.202,5.160 122.202,5.160 C122.202,5.160 124.239,9.506 124.239,9.506 C124.239,9.506 126.277,5.160 126.277,5.160 C126.277,5.160 129.125,5.160 129.125,5.160 C129.125,5.160 125.050,13.271 125.050,13.271 C125.050,13.271 123.428,13.271 123.428,13.271 ZM121.850,31.866 C122.698,31.866 123.076,31.230 123.076,30.667 C123.076,29.957 122.571,29.721 121.868,29.412 C120.967,29.012 120.390,28.721 120.047,28.302 C119.759,27.939 119.705,27.575 119.705,27.193 C119.705,25.866 120.625,25.084 121.887,25.084 C122.283,25.084 123.347,25.156 123.942,26.448 C123.942,26.448 122.878,27.011 122.878,27.011 C122.698,26.575 122.320,26.248 121.832,26.248 C121.364,26.248 120.930,26.521 120.930,27.102 C120.930,27.648 121.291,27.811 122.139,28.175 C123.221,28.630 123.725,28.975 124.014,29.339 C124.339,29.740 124.411,30.139 124.411,30.557 C124.411,32.139 123.275,33.031 121.832,33.031 C121.526,33.031 119.849,32.995 119.218,31.103 C119.218,31.103 120.336,30.631 120.336,30.631 C120.480,31.030 120.913,31.866 121.850,31.866 ZM115.647,12.289 C114.944,13.380 113.935,13.544 113.267,13.544 C112.113,13.544 111.140,13.252 110.256,12.307 C109.409,11.398 109.084,10.343 109.084,9.270 C109.084,7.906 109.589,6.742 110.328,5.997 C111.032,5.287 112.005,4.887 113.123,4.887 C113.808,4.887 114.908,5.050 115.647,6.069 C115.647,6.069 115.647,5.160 115.647,5.160 C115.647,5.160 118.243,5.160 118.243,5.160 C118.243,5.160 118.243,13.271 118.243,13.271 C118.243,13.271 115.647,13.271 115.647,13.271 C115.647,13.271 115.647,12.289 115.647,12.289 ZM115.214,7.705 C114.818,7.324 114.241,7.142 113.772,7.142 C113.213,7.142 112.690,7.378 112.348,7.724 C112.077,7.996 111.753,8.470 111.753,9.197 C111.753,9.925 112.059,10.397 112.294,10.652 C112.654,11.034 113.213,11.288 113.826,11.288 C114.349,11.288 114.836,11.070 115.178,10.724 C115.520,10.397 115.810,9.888 115.810,9.197 C115.810,8.615 115.593,8.069 115.214,7.705 ZM106.090,3.232 C105.242,3.232 104.575,2.559 104.575,1.704 C104.575,0.850 105.242,0.177 106.090,0.177 C106.937,0.177 107.604,0.850 107.604,1.704 C107.604,2.559 106.937,3.232 106.090,3.232 ZM100.138,13.271 C100.138,13.271 97.037,9.779 97.037,9.779 C97.037,9.779 97.037,13.271 97.037,13.271 C97.037,13.271 94.441,13.271 94.441,13.271 C94.441,13.271 94.441,0.013 94.441,0.013 C94.441,0.013 97.037,0.013 97.037,0.013 C97.037,0.013 97.037,8.143 97.037,8.143 C97.037,8.143 99.958,5.160 99.958,5.160 C99.958,5.160 103.366,5.160 103.366,5.160 C103.366,5.160 99.543,8.833 99.543,8.833 C99.543,8.833 103.636,13.271 103.636,13.271 C103.636,13.271 100.138,13.271 100.138,13.271 ZM83.861,17.435 C83.861,17.435 86.692,12.233 86.692,12.233 C86.692,12.233 82.852,5.160 82.852,5.160 C82.852,5.160 85.844,5.160 85.844,5.160 C85.844,5.160 88.117,9.561 88.117,9.561 C88.117,9.561 90.335,5.160 90.335,5.160 C90.335,5.160 93.255,5.160 93.255,5.160 C93.255,5.160 86.782,17.435 86.782,17.435 C86.782,17.435 83.861,17.435 83.861,17.435 ZM77.075,11.052 C77.472,11.488 78.012,11.561 78.410,11.561 C78.788,11.561 79.184,11.488 79.455,11.324 C79.491,11.307 79.798,11.106 80.014,10.652 C80.014,10.652 82.466,10.906 82.466,10.906 C82.106,12.052 81.384,12.652 80.916,12.944 C80.141,13.416 79.275,13.544 78.373,13.544 C77.165,13.544 76.102,13.325 75.164,12.380 C74.460,11.670 73.956,10.597 73.956,9.251 C73.956,8.087 74.371,6.888 75.182,6.051 C76.155,5.069 77.363,4.887 78.265,4.887 C79.167,4.887 80.465,5.050 81.456,6.105 C82.412,7.124 82.592,8.397 82.592,9.397 C82.592,9.397 82.592,9.669 82.592,9.669 C82.592,9.669 76.589,9.669 76.589,9.669 C76.589,10.106 76.751,10.688 77.075,11.052 ZM80.194,8.106 C80.176,8.033 80.050,7.523 79.671,7.161 C79.383,6.888 78.968,6.706 78.445,6.706 C77.778,6.706 77.381,6.979 77.129,7.233 C76.931,7.451 76.751,7.742 76.678,8.106 C76.678,8.106 80.194,8.106 80.194,8.106 ZM69.793,33.030 C66.223,33.030 63.573,30.303 63.573,26.792 C63.573,23.174 66.259,20.483 69.866,20.483 C70.587,20.483 71.975,20.574 73.418,21.683 C73.418,21.683 73.418,23.356 73.418,23.356 C73.038,22.973 72.462,22.520 71.849,22.228 C71.218,21.937 70.478,21.755 69.775,21.755 C66.999,21.755 64.943,24.011 64.943,26.811 C64.943,30.103 67.594,31.758 69.793,31.758 C70.605,31.758 71.398,31.521 72.029,31.194 C72.714,30.849 73.201,30.394 73.418,30.176 C73.418,30.176 73.418,31.848 73.418,31.848 C72.083,32.813 70.695,33.030 69.793,33.030 ZM70.010,13.271 C70.010,13.271 66.764,8.488 66.764,8.488 C66.764,8.488 66.764,13.271 66.764,13.271 C66.764,13.271 63.988,13.271 63.988,13.271 C63.988,13.271 63.988,1.141 63.988,1.141 C63.988,1.141 68.207,1.141 68.207,1.141 C69.739,1.141 70.695,1.650 71.272,2.196 C71.777,2.686 72.318,3.559 72.318,4.905 C72.318,5.668 72.156,6.615 71.380,7.378 C70.965,7.779 70.371,8.143 69.703,8.306 C69.703,8.306 73.399,13.271 73.399,13.271 C73.399,13.271 70.010,13.271 70.010,13.271 ZM68.946,3.704 C68.495,3.359 67.774,3.323 67.413,3.323 C67.413,3.323 66.764,3.323 66.764,3.323 C66.764,3.323 66.764,6.651 66.764,6.651 C66.764,6.651 67.395,6.651 67.395,6.651 C67.901,6.651 68.585,6.596 69.055,6.123 C69.252,5.923 69.505,5.542 69.505,4.942 C69.505,4.251 69.181,3.886 68.946,3.704 ZM50.926,0.341 C50.926,0.341 52.053,0.341 52.053,0.341 C52.053,0.341 52.053,33.042 52.053,33.042 C52.053,33.042 50.926,33.042 50.926,33.042 C50.926,33.042 50.926,0.341 50.926,0.341 ZM27.898,8.999 C27.898,8.999 19.729,17.239 19.729,17.239 C19.729,17.239 15.432,12.906 15.432,12.906 C15.432,12.906 27.898,0.332 27.898,0.332 C27.898,0.332 40.364,12.905 40.364,12.905 C40.364,12.905 36.069,17.239 36.069,17.239 C36.069,17.239 27.898,8.999 27.898,8.999 ZM20.636,33.042 C20.636,33.042 12.466,24.802 12.466,24.802 C12.466,24.802 4.296,33.042 4.296,33.042 C4.296,33.042 0.000,28.708 0.000,28.708 C0.000,28.708 12.466,16.135 12.466,16.135 C12.466,16.135 24.932,28.709 24.932,28.709 C24.932,28.709 20.636,33.042 20.636,33.042 ZM76.065,21.482 C76.569,21.482 76.984,21.901 76.984,22.410 C76.984,22.919 76.569,23.338 76.065,23.338 C75.560,23.338 75.145,22.919 75.145,22.410 C75.145,21.901 75.560,21.482 76.065,21.482 ZM76.714,32.813 C76.714,32.813 75.416,32.813 75.416,32.813 C75.416,32.813 75.416,25.266 75.416,25.266 C75.416,25.266 76.714,25.266 76.714,25.266 C76.714,25.266 76.714,32.813 76.714,32.813 ZM79.201,22.538 C79.201,22.538 80.499,22.538 80.499,22.538 C80.499,22.538 80.499,25.266 80.499,25.266 C80.499,25.266 81.797,25.266 81.797,25.266 C81.797,25.266 81.797,26.465 81.797,26.465 C81.797,26.465 80.499,26.465 80.499,26.465 C80.499,26.465 80.499,32.813 80.499,32.813 C80.499,32.813 79.201,32.813 79.201,32.813 C79.201,32.813 79.201,26.465 79.201,26.465 C79.201,26.465 78.407,26.465 78.407,26.465 C78.407,26.465 78.407,25.266 78.407,25.266 C78.407,25.266 79.201,25.266 79.201,25.266 C79.201,25.266 79.201,22.538 79.201,22.538 ZM84.065,25.266 C84.065,25.266 86.715,30.667 86.715,30.667 C86.715,30.667 89.150,25.266 89.150,25.266 C89.150,25.266 90.592,25.266 90.592,25.266 C90.592,25.266 85.093,36.996 85.093,36.996 C85.093,36.996 83.650,36.996 83.650,36.996 C83.650,36.996 86.030,32.104 86.030,32.104 C86.030,32.104 82.586,25.266 82.586,25.266 C82.586,25.266 84.065,25.266 84.065,25.266 ZM107.388,5.160 C107.388,5.160 107.388,17.435 107.388,17.435 C107.388,17.435 104.792,17.435 104.792,17.435 C104.792,17.435 104.792,5.160 104.792,5.160 C104.792,5.160 107.388,5.160 107.388,5.160 ZM102.685,30.249 C102.685,30.249 107.391,19.991 107.391,19.991 C107.391,19.991 109.266,32.813 109.266,32.813 C109.266,32.813 107.896,32.813 107.896,32.813 C107.896,32.813 106.760,24.375 106.760,24.375 C106.760,24.375 102.667,33.322 102.667,33.322 C102.667,33.322 98.628,24.375 98.628,24.375 C98.628,24.375 97.439,32.813 97.439,32.813 C97.439,32.813 96.068,32.813 96.068,32.813 C96.068,32.813 98.069,20.010 98.069,20.010 C98.069,20.010 102.685,30.249 102.685,30.249 ZM112.869,29.666 C112.869,30.194 112.869,30.813 113.230,31.285 C113.429,31.539 113.825,31.867 114.546,31.867 C115.267,31.867 115.664,31.539 115.862,31.285 C116.223,30.813 116.223,30.194 116.223,29.666 C116.223,29.666 116.223,25.266 116.223,25.266 C116.223,25.266 117.521,25.266 117.521,25.266 C117.521,25.266 117.521,29.811 117.521,29.811 C117.521,30.739 117.431,31.430 116.836,32.085 C116.168,32.794 115.285,33.030 114.546,33.030 C113.807,33.030 112.923,32.794 112.257,32.085 C111.661,31.430 111.571,30.739 111.571,29.811 C111.571,29.811 111.571,25.266 111.571,25.266 C111.571,25.266 112.869,25.266 112.869,25.266 C112.869,25.266 112.869,29.666 112.869,29.666 Z" id="path-1" class="cls-2" fill-rule="evenodd"/>
</svg>
