<svg xmlns="http://www.w3.org/2000/svg" xmlns:xlink="http://www.w3.org/1999/xlink" preserveAspectRatio="xMidYMid" width="35" height="35" viewBox="0 0 35 35">
  <defs>
    <style>

      .cls-2 {
        fill: #ffffff;
        filter: url(#outer-glow-1);
      }
    </style>

    <filter id="outer-glow-1" filterUnits="userSpaceOnUse">
      <feGaussianBlur stdDeviation="1.667" in="SourceAlpha"/>
      <feComposite/>
      <feComposite/>
      <feComposite result="outerGlowBlur"/>
      <feFlood flood-color="#000000" flood-opacity="0.15"/>
      <feComposite operator="in" in2="outerGlowBlur"/>
      <feComposite in="SourceGraphic" result="outerGlow"/>
    </filter>
  </defs>
  <path d="M17.513,30.500 C10.333,30.500 4.513,24.679 4.513,17.500 C4.513,10.320 10.333,4.500 17.513,4.500 C24.693,4.500 30.513,10.320 30.513,17.500 C30.513,24.679 24.693,30.500 17.513,30.500 ZM23.474,13.709 C23.718,13.465 23.718,13.069 23.474,12.824 C23.474,12.824 22.147,11.497 22.147,11.497 C21.902,11.253 21.506,11.253 21.262,11.497 C21.262,11.497 17.501,15.258 17.501,15.258 C17.501,15.258 13.740,11.497 13.740,11.497 C13.496,11.253 13.100,11.253 12.855,11.497 C12.855,11.497 11.528,12.824 11.528,12.824 C11.284,13.069 11.284,13.465 11.528,13.709 C11.528,13.709 15.289,17.470 15.289,17.470 C15.289,17.470 11.528,21.231 11.528,21.231 C11.284,21.475 11.284,21.871 11.528,22.116 C11.528,22.116 12.855,23.443 12.855,23.443 C13.100,23.687 13.496,23.687 13.740,23.443 C13.740,23.443 17.501,19.682 17.501,19.682 C17.501,19.682 21.262,23.443 21.262,23.443 C21.506,23.687 21.902,23.687 22.147,23.443 C22.147,23.443 23.474,22.116 23.474,22.116 C23.718,21.871 23.718,21.475 23.474,21.231 C23.474,21.231 19.713,17.470 19.713,17.470 C19.713,17.470 23.474,13.709 23.474,13.709 Z" id="path-1" class="cls-2" fill-rule="evenodd"/>
</svg>
