<svg xmlns="http://www.w3.org/2000/svg" xmlns:xlink="http://www.w3.org/1999/xlink" preserveAspectRatio="xMidYMid" width="34" height="22" viewBox="0 0 34 22">
  <defs>
    <style>

      .cls-2 {
        fill: #01b2ba;
      }
    </style>
  </defs>
  <path d="M12.501,5.746 C12.501,5.746 10.433,3.757 7.628,5.381 C5.118,6.932 5.561,9.769 5.561,9.769 C5.561,9.769 -0.015,10.853 -0.015,16.538 C0.110,22.214 6.041,22.272 6.041,22.272 C6.041,22.272 17.857,22.254 17.857,22.254 C17.857,22.254 12.374,17.298 12.374,17.298 C12.374,17.298 15.412,17.331 15.412,17.331 C15.412,17.331 15.413,11.327 15.413,11.327 C15.413,11.327 19.307,11.301 19.307,11.301 C19.307,11.301 19.335,17.315 19.335,17.315 C19.335,17.315 22.303,17.357 22.303,17.357 C22.303,17.357 17.857,22.272 17.857,22.272 C17.857,22.272 27.857,22.272 27.857,22.272 C27.857,22.272 33.377,22.277 34.152,16.877 C34.521,10.971 28.817,9.806 28.817,9.806 C28.817,9.806 29.466,1.063 21.456,0.066 C14.590,-0.635 12.501,5.746 12.501,5.746 Z" id="path-1" class="cls-2" fill-rule="evenodd"/>
</svg>
