<?xml version="1.0" encoding="utf-8"?>
<!-- Generator: Adobe Illustrator 18.0.0, SVG Export Plug-In . SVG Version: 6.00 Build 0)  -->
<!DOCTYPE svg PUBLIC "-//W3C//DTD SVG 1.1//EN" "http://www.w3.org/Graphics/SVG/1.1/DTD/svg11.dtd">
<svg version="1.1" id="All_glyphs" xmlns="http://www.w3.org/2000/svg" xmlns:xlink="http://www.w3.org/1999/xlink" x="0px" y="0px"
	 width="89.6px" height="88px" viewBox="0 0 89.6 88" enable-background="new 0 0 89.6 88" xml:space="preserve">
<path d="M4.8,21.9c0,7.5,2.5,12.9,7.4,16c4,2.6,8.7,3,11.1,3c0.6,0,1.1,0,1.4,0c0,0-0.8,5,2.9,10l-0.2,0C21,50.9,0,52.2,0,69.5
	C0,87.1,19.3,88,23.2,88c0.3,0,0.5,0,0.5,0c0,0,0.3,0,0.8,0c2.5,0,8.9-0.3,14.9-3.2C47.1,81,51,74.5,51,65.4c0-8.8-6-14.1-10.3-17.9
	c-2.7-2.3-5-4.4-5-6.3c0-2,1.7-3.5,3.8-5.4c3.4-3.1,6.7-7.5,6.7-15.8c0-7.3-0.9-12.2-6.8-15.3C40,4.4,42.2,4.1,43.2,4
	C46.4,3.6,51,3.1,51,0.5V0H28C27.8,0,4.8,0.9,4.8,21.9z M41.9,67c0.4,7-5.6,12.2-14.6,12.9c-9.2,0.7-16.7-3.5-17.2-10.5
	c-0.2-3.4,1.3-6.7,4.2-9.3c2.9-2.7,7-4.3,11.4-4.6c0.5,0,1-0.1,1.5-0.1C35.7,55.4,41.5,60.4,41.9,67z M35.9,17.1
	c2.3,7.9-1.2,16.2-6.6,17.8c-0.6,0.2-1.3,0.3-1.9,0.3c-5,0-9.9-5-11.7-12c-1-3.9-0.9-7.3,0.2-10.6c1.2-3.2,3.2-5.4,5.8-6.1
	c0.6-0.2,1.3-0.3,1.9-0.3C29.6,6.2,33.5,8.7,35.9,17.1z M74.6,34.4v-15h-9.5v15h-15v9.5h15v15h9.5v-15h15v-9.5H74.6z"/>
</svg>
