<svg xmlns="http://www.w3.org/2000/svg" xmlns:xlink="http://www.w3.org/1999/xlink" preserveAspectRatio="xMidYMid" width="26" height="26" viewBox="0 0 26 26">
  <defs>
    <style>

      .cls-2 {
        fill: #a29762;
      }
    </style>
  </defs>
  <path d="M13.010,25.989 C5.831,25.989 0.010,20.169 0.010,12.989 C0.010,5.810 5.831,-0.011 13.010,-0.011 C20.190,-0.011 26.010,5.810 26.010,12.989 C26.010,20.169 20.190,25.989 13.010,25.989 ZM9.936,12.105 C9.936,12.281 9.904,12.718 9.940,12.981 C9.940,12.981 11.245,11.410 11.245,11.410 C11.515,11.114 11.827,10.907 11.987,10.963 C12.147,11.019 12.234,11.207 12.182,11.382 C12.182,11.382 10.022,18.536 10.022,18.536 C9.773,19.373 10.244,20.194 11.390,20.381 C13.069,20.381 14.067,19.245 15.049,17.773 C15.049,17.597 15.107,17.133 15.072,16.871 C15.072,16.871 13.766,18.442 13.766,18.442 C13.496,18.737 13.160,18.944 13.000,18.888 C12.852,18.836 12.767,18.672 12.796,18.509 C12.796,18.509 14.971,11.320 14.971,11.320 C15.152,10.407 14.661,9.577 13.621,9.471 C12.528,9.471 10.917,10.633 9.936,12.105 ZM14.758,5.453 C13.932,5.453 13.262,6.054 13.262,6.941 C13.262,7.827 13.932,8.428 14.758,8.428 C15.584,8.428 16.254,7.827 16.254,6.941 C16.254,6.054 15.584,5.453 14.758,5.453 Z" id="path-1" class="cls-2" fill-rule="evenodd"/>
</svg>
