<svg xmlns="http://www.w3.org/2000/svg" xmlns:xlink="http://www.w3.org/1999/xlink" preserveAspectRatio="xMidYMid" width="27" height="27" viewBox="0 0 27 27">
  <defs>
    <style>

      .cls-2 {
        fill: #a29762;
      }
    </style>
  </defs>
  <path d="M12.999,25.986 C5.820,25.986 -0.001,20.166 -0.001,12.986 C-0.001,5.807 5.820,-0.014 12.999,-0.014 C20.179,-0.014 25.999,5.807 25.999,12.986 C25.999,20.166 20.179,25.986 12.999,25.986 ZM12.895,2.513 C7.096,2.513 2.395,7.214 2.395,13.013 C2.395,18.812 7.096,23.513 12.895,23.513 C18.694,23.513 23.395,18.812 23.395,13.013 C23.395,7.214 18.694,2.513 12.895,2.513 ZM15.929,15.596 C15.929,15.596 11.960,15.596 11.960,15.596 C11.413,15.596 10.970,15.153 10.970,14.607 C10.970,14.607 10.970,8.585 10.970,8.585 C10.970,8.038 11.413,7.595 11.960,7.595 C12.506,7.595 12.949,8.038 12.949,8.585 C12.949,8.585 12.949,13.617 12.949,13.617 C12.949,13.617 15.929,13.617 15.929,13.617 C16.475,13.617 16.919,14.060 16.919,14.607 C16.919,15.153 16.475,15.596 15.929,15.596 Z" id="path-1" class="cls-2" fill-rule="evenodd"/>
</svg>
