<svg xmlns="http://www.w3.org/2000/svg" xmlns:xlink="http://www.w3.org/1999/xlink" preserveAspectRatio="xMidYMid" width="27" height="27" viewBox="0 0 27 27">
  <defs>
    <style>

      .cls-2 {
        fill: #a29762;
      }
    </style>
  </defs>
  <path d="M12.999,25.986 C5.820,25.986 -0.000,20.166 -0.000,12.986 C-0.000,5.807 5.820,-0.014 12.999,-0.014 C20.179,-0.014 25.999,5.807 25.999,12.986 C25.999,20.166 20.179,25.986 12.999,25.986 ZM12.895,2.513 C7.096,2.513 2.395,7.214 2.395,13.013 C2.395,18.812 7.096,23.513 12.895,23.513 C18.694,23.513 23.395,18.812 23.395,13.013 C23.395,7.214 18.694,2.513 12.895,2.513 ZM17.559,16.320 C17.559,16.320 16.025,13.855 16.025,13.855 C16.025,13.855 15.300,13.855 15.300,13.855 C15.300,13.855 15.300,16.320 15.300,16.320 C15.300,16.320 13.938,16.320 13.938,16.320 C13.938,16.320 13.938,9.895 13.938,9.895 C13.938,9.895 15.810,9.895 15.810,9.895 C16.683,9.895 17.329,10.054 17.748,10.372 C18.166,10.690 18.376,11.173 18.376,11.820 C18.376,12.198 18.272,12.534 18.064,12.829 C17.856,13.123 17.561,13.354 17.181,13.521 C18.147,14.966 18.777,15.898 19.070,16.320 C19.070,16.320 17.559,16.320 17.559,16.320 ZM16.686,11.205 C16.477,11.076 16.152,11.012 15.713,11.012 C15.713,11.012 15.300,11.012 15.300,11.012 C15.300,11.012 15.300,12.748 15.300,12.748 C15.300,12.748 15.739,12.748 15.739,12.748 C16.170,12.748 16.488,12.676 16.693,12.532 C16.898,12.389 17.001,12.163 17.001,11.855 C17.001,11.551 16.896,11.334 16.686,11.205 ZM11.582,16.320 C11.582,16.320 9.899,13.613 9.899,13.613 C9.899,13.613 9.323,14.026 9.323,14.026 C9.323,14.026 9.323,16.320 9.323,16.320 C9.323,16.320 7.961,16.320 7.961,16.320 C7.961,16.320 7.961,9.895 7.961,9.895 C7.961,9.895 9.323,9.895 9.323,9.895 C9.323,9.895 9.323,12.835 9.323,12.835 C9.323,12.835 9.859,12.080 9.859,12.080 C9.859,12.080 11.600,9.895 11.600,9.895 C11.600,9.895 13.111,9.895 13.111,9.895 C13.111,9.895 10.870,12.739 10.870,12.739 C10.870,12.739 13.129,16.320 13.129,16.320 C13.129,16.320 11.582,16.320 11.582,16.320 Z" id="path-1" class="cls-2" fill-rule="evenodd"/>
</svg>
