<svg xmlns="http://www.w3.org/2000/svg" xmlns:xlink="http://www.w3.org/1999/xlink" preserveAspectRatio="xMidYMid" width="275" height="40" viewBox="0 0 275 40">
  <defs>
    <style>

      .cls-2 {
        fill: #000000;
      }
    </style>
  </defs>
  <path d="M271.643,26.577 C271.643,26.577 271.643,21.302 271.643,21.302 C271.643,20.634 271.620,19.782 271.084,19.252 C270.828,18.999 270.408,18.791 269.802,18.791 C269.103,18.791 268.660,19.068 268.403,19.344 C267.844,19.897 267.751,20.634 267.751,21.302 C267.751,21.302 267.751,26.577 267.751,26.577 C267.751,26.577 264.394,26.577 264.394,26.577 C264.394,26.577 264.394,16.304 264.394,16.304 C264.394,16.304 267.751,16.304 267.751,16.304 C267.751,16.304 267.751,17.525 267.751,17.525 C268.776,16.235 269.989,16.027 270.968,16.027 C271.876,16.027 273.066,16.189 273.951,17.064 C274.930,18.032 275.000,19.252 275.000,20.081 C275.000,20.081 275.000,26.577 275.000,26.577 C275.000,26.577 271.643,26.577 271.643,26.577 ZM259.871,13.863 C258.776,13.863 257.913,13.010 257.913,11.927 C257.913,10.845 258.776,9.993 259.871,9.993 C260.967,9.993 261.829,10.845 261.829,11.927 C261.829,13.010 260.967,13.863 259.871,13.863 ZM249.684,31.851 C248.308,31.851 246.653,31.644 245.347,30.539 C244.695,29.985 244.019,29.110 243.786,27.821 C243.786,27.821 247.446,27.821 247.446,27.821 C247.585,28.351 247.912,28.650 248.192,28.834 C248.587,29.088 249.147,29.179 249.637,29.179 C250.592,29.179 251.082,28.834 251.315,28.627 C251.968,28.005 251.991,26.922 251.991,26.485 C251.991,26.485 251.991,25.310 251.991,25.310 C251.595,25.955 250.802,26.853 248.891,26.853 C247.282,26.853 246.047,26.347 245.091,25.402 C244.252,24.549 243.576,23.306 243.576,21.532 C243.576,19.782 244.228,18.331 245.114,17.432 C245.744,16.788 246.956,15.958 248.891,15.958 C250.779,15.958 251.618,16.948 251.991,17.502 C251.991,17.502 251.991,16.304 251.991,16.304 C251.991,16.304 255.348,16.304 255.348,16.304 C255.348,16.304 255.348,25.955 255.348,25.955 C255.348,27.406 255.277,29.041 254.066,30.331 C252.784,31.690 250.825,31.851 249.684,31.851 ZM251.478,19.483 C250.989,19.045 250.266,18.838 249.660,18.838 C248.914,18.838 248.238,19.114 247.818,19.506 C247.306,19.990 247.026,20.795 247.026,21.417 C247.026,22.086 247.282,22.776 247.748,23.260 C248.215,23.744 248.844,23.997 249.637,23.997 C250.523,23.997 251.105,23.652 251.455,23.329 C251.968,22.845 252.271,22.131 252.271,21.371 C252.271,20.565 251.921,19.897 251.478,19.483 ZM238.120,21.302 C238.120,20.634 238.097,19.782 237.561,19.252 C237.305,18.999 236.885,18.791 236.279,18.791 C235.580,18.791 235.136,19.068 234.880,19.344 C234.321,19.897 234.228,20.634 234.228,21.302 C234.228,21.302 234.228,26.577 234.228,26.577 C234.228,26.577 230.870,26.577 230.870,26.577 C230.870,26.577 230.870,16.304 230.870,16.304 C230.870,16.304 234.228,16.304 234.228,16.304 C234.228,16.304 234.228,17.525 234.228,17.525 C235.253,16.235 236.466,16.027 237.445,16.027 C238.353,16.027 239.542,16.189 240.428,17.064 C241.407,18.032 241.477,19.252 241.477,20.081 C241.477,20.081 241.477,26.577 241.477,26.577 C241.477,26.577 238.120,26.577 238.120,26.577 C238.120,26.577 238.120,21.302 238.120,21.302 ZM226.348,13.863 C225.252,13.863 224.390,13.010 224.390,11.927 C224.390,10.845 225.252,9.993 226.348,9.993 C227.443,9.993 228.306,10.845 228.306,11.927 C228.306,13.010 227.443,13.863 226.348,13.863 ZM218.468,21.302 C218.468,20.634 218.444,19.782 217.909,19.252 C217.652,18.999 217.232,18.791 216.626,18.791 C215.927,18.791 215.484,19.068 215.228,19.344 C214.668,19.897 214.575,20.634 214.575,21.302 C214.575,21.302 214.575,26.577 214.575,26.577 C214.575,26.577 211.219,26.577 211.219,26.577 C211.219,26.577 211.219,16.304 211.219,16.304 C211.219,16.304 214.575,16.304 214.575,16.304 C214.575,16.304 214.575,17.525 214.575,17.525 C215.601,16.235 216.813,16.027 217.792,16.027 C218.701,16.027 219.890,16.189 220.776,17.064 C221.755,18.032 221.825,19.252 221.825,20.081 C221.825,20.081 221.825,26.577 221.825,26.577 C221.825,26.577 218.468,26.577 218.468,26.577 C218.468,26.577 218.468,21.302 218.468,21.302 ZM197.627,31.851 C197.627,31.851 201.287,25.264 201.287,25.264 C201.287,25.264 196.322,16.304 196.322,16.304 C196.322,16.304 200.192,16.304 200.192,16.304 C200.192,16.304 203.128,21.878 203.128,21.878 C203.128,21.878 205.996,16.304 205.996,16.304 C205.996,16.304 209.772,16.304 209.772,16.304 C209.772,16.304 201.404,31.851 201.404,31.851 C201.404,31.851 197.627,31.851 197.627,31.851 ZM201.660,13.609 C201.660,13.609 204.527,10.108 204.527,10.108 C204.527,10.108 206.718,11.605 206.718,11.605 C206.718,11.605 203.175,14.715 203.175,14.715 C203.175,14.715 201.660,13.609 201.660,13.609 ZM192.148,19.920 C192.148,19.920 193.034,20.196 193.034,20.196 C193.617,20.380 194.223,20.611 194.759,21.095 C195.365,21.647 195.575,22.269 195.575,23.053 C195.575,24.412 194.969,25.286 194.503,25.748 C193.477,26.761 192.218,26.922 191.122,26.922 C189.724,26.922 188.208,26.623 186.856,25.448 C186.856,25.448 188.279,23.213 188.279,23.213 C188.605,23.490 189.071,23.812 189.421,23.974 C189.887,24.204 190.376,24.297 190.820,24.297 C191.029,24.297 191.566,24.297 191.868,24.066 C192.078,23.905 192.218,23.652 192.218,23.398 C192.218,23.213 192.148,22.983 191.845,22.799 C191.612,22.661 191.309,22.569 190.820,22.431 C190.820,22.431 189.980,22.177 189.980,22.177 C189.374,21.993 188.745,21.671 188.302,21.233 C187.812,20.726 187.556,20.150 187.556,19.368 C187.556,18.377 187.952,17.548 188.558,16.995 C189.491,16.143 190.749,15.958 191.705,15.958 C193.244,15.958 194.316,16.350 195.155,16.833 C195.155,16.833 193.826,18.929 193.826,18.929 C193.313,18.630 192.638,18.354 191.985,18.354 C191.635,18.354 191.239,18.446 191.029,18.653 C190.913,18.769 190.820,18.953 190.820,19.114 C190.820,19.344 190.982,19.483 191.146,19.574 C191.379,19.713 191.728,19.782 192.148,19.920 ZM182.030,19.920 C182.030,19.920 182.916,20.196 182.916,20.196 C183.499,20.380 184.105,20.611 184.641,21.095 C185.247,21.647 185.457,22.269 185.457,23.053 C185.457,24.412 184.851,25.286 184.385,25.748 C183.359,26.761 182.100,26.922 181.005,26.922 C179.606,26.922 178.090,26.623 176.739,25.448 C176.739,25.448 178.161,23.213 178.161,23.213 C178.487,23.490 178.954,23.812 179.303,23.974 C179.769,24.204 180.259,24.297 180.702,24.297 C180.912,24.297 181.448,24.297 181.751,24.066 C181.960,23.905 182.100,23.652 182.100,23.398 C182.100,23.213 182.030,22.983 181.727,22.799 C181.494,22.661 181.192,22.569 180.702,22.431 C180.702,22.431 179.862,22.177 179.862,22.177 C179.256,21.993 178.627,21.671 178.184,21.233 C177.695,20.726 177.438,20.150 177.438,19.368 C177.438,18.377 177.835,17.548 178.441,16.995 C179.373,16.143 180.632,15.958 181.587,15.958 C183.126,15.958 184.198,16.350 185.038,16.833 C185.038,16.833 183.709,18.929 183.709,18.929 C183.196,18.630 182.520,18.354 181.867,18.354 C181.518,18.354 181.121,18.446 180.912,18.653 C180.795,18.769 180.702,18.953 180.702,19.114 C180.702,19.344 180.865,19.483 181.028,19.574 C181.261,19.713 181.611,19.782 182.030,19.920 ZM171.353,21.371 C171.353,20.841 171.353,19.920 170.910,19.368 C170.630,19.022 170.187,18.814 169.698,18.814 C169.138,18.814 168.672,19.068 168.392,19.436 C167.949,19.990 167.880,20.795 167.880,21.464 C167.880,21.464 167.880,26.577 167.880,26.577 C167.880,26.577 164.523,26.577 164.523,26.577 C164.523,26.577 164.523,21.233 164.523,21.233 C164.523,20.542 164.499,19.736 163.987,19.229 C163.637,18.884 163.217,18.814 162.868,18.814 C162.424,18.814 162.029,18.929 161.702,19.229 C161.072,19.828 161.049,20.980 161.049,21.325 C161.049,21.325 161.049,26.577 161.049,26.577 C161.049,26.577 157.693,26.577 157.693,26.577 C157.693,26.577 157.693,16.304 157.693,16.304 C157.693,16.304 161.049,16.304 161.049,16.304 C161.049,16.304 161.049,17.502 161.049,17.502 C161.912,16.211 163.170,16.051 163.963,16.051 C164.406,16.051 165.222,16.096 165.921,16.511 C166.457,16.811 166.900,17.317 167.180,17.939 C167.436,17.525 167.833,17.041 168.508,16.626 C169.232,16.189 169.907,16.051 170.724,16.051 C171.982,16.051 173.008,16.419 173.637,17.018 C174.639,17.962 174.710,19.344 174.710,20.081 C174.710,20.081 174.710,26.577 174.710,26.577 C174.710,26.577 171.353,26.577 171.353,26.577 C171.353,26.577 171.353,21.371 171.353,21.371 ZM151.723,25.333 C150.815,26.715 149.509,26.922 148.647,26.922 C147.155,26.922 145.896,26.554 144.754,25.356 C143.658,24.204 143.239,22.868 143.239,21.509 C143.239,19.782 143.892,18.307 144.847,17.363 C145.756,16.465 147.015,15.958 148.460,15.958 C149.346,15.958 150.768,16.166 151.723,17.455 C151.723,17.455 151.723,16.304 151.723,16.304 C151.723,16.304 155.080,16.304 155.080,16.304 C155.080,16.304 155.080,26.577 155.080,26.577 C155.080,26.577 151.723,26.577 151.723,26.577 C151.723,26.577 151.723,25.333 151.723,25.333 ZM151.164,19.528 C150.651,19.045 149.905,18.814 149.299,18.814 C148.577,18.814 147.901,19.114 147.458,19.551 C147.108,19.897 146.689,20.496 146.689,21.417 C146.689,22.338 147.085,22.938 147.388,23.260 C147.854,23.744 148.577,24.066 149.369,24.066 C150.045,24.066 150.675,23.790 151.117,23.352 C151.561,22.938 151.934,22.292 151.934,21.417 C151.934,20.680 151.654,19.990 151.164,19.528 ZM147.668,13.609 C147.668,13.609 150.535,10.108 150.535,10.108 C150.535,10.108 152.726,11.605 152.726,11.605 C152.726,11.605 149.183,14.715 149.183,14.715 C149.183,14.715 147.668,13.609 147.668,13.609 ZM137.783,21.302 C137.783,20.634 137.760,19.782 137.224,19.252 C136.967,18.999 136.547,18.791 135.941,18.791 C135.242,18.791 134.799,19.068 134.543,19.344 C133.984,19.897 133.890,20.634 133.890,21.302 C133.890,21.302 133.890,26.577 133.890,26.577 C133.890,26.577 130.534,26.577 130.534,26.577 C130.534,26.577 130.534,16.304 130.534,16.304 C130.534,16.304 133.890,16.304 133.890,16.304 C133.890,16.304 133.890,17.525 133.890,17.525 C134.916,16.235 136.128,16.027 137.107,16.027 C138.017,16.027 139.205,16.189 140.091,17.064 C141.070,18.032 141.140,19.252 141.140,20.081 C141.140,20.081 141.140,26.577 141.140,26.577 C141.140,26.577 137.783,26.577 137.783,26.577 C137.783,26.577 137.783,21.302 137.783,21.302 ZM124.472,25.333 C123.959,26.070 123.026,26.922 121.185,26.922 C119.646,26.922 118.527,26.438 117.618,25.517 C116.546,24.458 115.987,22.983 115.987,21.394 C115.987,19.690 116.616,18.285 117.618,17.340 C118.527,16.488 119.809,15.958 121.231,15.958 C122.373,15.958 123.632,16.326 124.472,17.455 C124.472,17.455 124.472,9.785 124.472,9.785 C124.472,9.785 127.828,9.785 127.828,9.785 C127.828,9.785 127.828,26.577 127.828,26.577 C127.828,26.577 124.472,26.577 124.472,26.577 C124.472,26.577 124.472,25.333 124.472,25.333 ZM123.935,19.574 C123.399,19.022 122.770,18.814 122.047,18.814 C121.371,18.814 120.788,18.999 120.253,19.506 C119.762,19.966 119.436,20.634 119.436,21.464 C119.436,22.223 119.762,22.891 120.253,23.352 C120.765,23.836 121.418,24.066 122.000,24.066 C122.630,24.066 123.376,23.812 123.912,23.306 C124.308,22.938 124.681,22.316 124.681,21.464 C124.681,20.588 124.332,19.990 123.935,19.574 ZM110.531,21.302 C110.531,20.634 110.508,19.782 109.971,19.252 C109.715,18.999 109.295,18.791 108.689,18.791 C107.990,18.791 107.547,19.068 107.290,19.344 C106.731,19.897 106.638,20.634 106.638,21.302 C106.638,21.302 106.638,26.577 106.638,26.577 C106.638,26.577 103.281,26.577 103.281,26.577 C103.281,26.577 103.281,16.304 103.281,16.304 C103.281,16.304 106.638,16.304 106.638,16.304 C106.638,16.304 106.638,17.525 106.638,17.525 C107.663,16.235 108.876,16.027 109.855,16.027 C110.764,16.027 111.953,16.189 112.839,17.064 C113.818,18.032 113.887,19.252 113.887,20.081 C113.887,20.081 113.887,26.577 113.887,26.577 C113.887,26.577 110.531,26.577 110.531,26.577 C110.531,26.577 110.531,21.302 110.531,21.302 ZM97.312,25.333 C96.403,26.715 95.098,26.922 94.236,26.922 C92.744,26.922 91.485,26.554 90.343,25.356 C89.247,24.204 88.827,22.868 88.827,21.509 C88.827,19.782 89.480,18.307 90.436,17.363 C91.345,16.465 92.604,15.958 94.049,15.958 C94.935,15.958 96.357,16.166 97.312,17.455 C97.312,17.455 97.312,16.304 97.312,16.304 C97.312,16.304 100.669,16.304 100.669,16.304 C100.669,16.304 100.669,26.577 100.669,26.577 C100.669,26.577 97.312,26.577 97.312,26.577 C97.312,26.577 97.312,25.333 97.312,25.333 ZM96.753,19.528 C96.240,19.045 95.494,18.814 94.889,18.814 C94.165,18.814 93.490,19.114 93.046,19.551 C92.697,19.897 92.278,20.496 92.278,21.417 C92.278,22.338 92.673,22.938 92.977,23.260 C93.443,23.744 94.165,24.066 94.958,24.066 C95.634,24.066 96.264,23.790 96.706,23.352 C97.149,22.938 97.522,22.292 97.522,21.417 C97.522,20.680 97.243,19.990 96.753,19.528 ZM79.293,11.213 C79.293,11.213 82.882,11.213 82.882,11.213 C82.882,11.213 82.882,23.582 82.882,23.582 C82.882,23.582 87.708,23.582 87.708,23.582 C87.708,23.582 87.708,26.577 87.708,26.577 C87.708,26.577 79.293,26.577 79.293,26.577 C79.293,26.577 79.293,11.213 79.293,11.213 ZM64.273,0.010 C64.273,0.010 65.679,0.010 65.679,0.010 C65.679,0.010 65.679,39.999 65.679,39.999 C65.679,39.999 64.273,39.999 64.273,39.999 C64.273,39.999 64.273,0.010 64.273,0.010 ZM34.824,10.597 C34.824,10.597 24.626,20.673 24.626,20.673 C24.626,20.673 19.264,15.375 19.264,15.375 C19.264,15.375 34.824,-0.002 34.824,-0.002 C34.824,-0.002 50.386,15.374 50.386,15.374 C50.386,15.374 45.023,20.674 45.023,20.674 C45.023,20.674 34.824,10.597 34.824,10.597 ZM25.759,39.998 C25.759,39.998 15.561,29.922 15.561,29.922 C15.561,29.922 5.362,39.999 5.362,39.999 C5.362,39.999 -0.000,34.699 -0.000,34.699 C-0.000,34.699 15.561,19.324 15.561,19.324 C15.561,19.324 31.122,34.700 31.122,34.700 C31.122,34.700 25.759,39.998 25.759,39.998 ZM228.027,26.577 C228.027,26.577 224.670,26.577 224.670,26.577 C224.670,26.577 224.670,16.304 224.670,16.304 C224.670,16.304 228.027,16.304 228.027,16.304 C228.027,16.304 228.027,26.577 228.027,26.577 ZM261.550,26.577 C261.550,26.577 258.193,26.577 258.193,26.577 C258.193,26.577 258.193,16.304 258.193,16.304 C258.193,16.304 261.550,16.304 261.550,16.304 C261.550,16.304 261.550,26.577 261.550,26.577 Z" id="path-1" class="cls-2" fill-rule="evenodd"/>
</svg>
