<svg xmlns="http://www.w3.org/2000/svg" xmlns:xlink="http://www.w3.org/1999/xlink" preserveAspectRatio="xMidYMid" width="206" height="40" viewBox="0 0 206 40">
  <defs>
    <style>

      .cls-2 {
        fill: #393933;
      }
    </style>
  </defs>
  <path d="M203.197,14.477 C203.197,14.477 203.197,9.997 203.197,9.997 C203.197,9.429 203.177,8.706 202.730,8.256 C202.515,8.041 202.165,7.865 201.659,7.865 C201.075,7.865 200.705,8.099 200.490,8.334 C200.023,8.803 199.945,9.429 199.945,9.997 C199.945,9.997 199.945,14.477 199.945,14.477 C199.945,14.477 197.142,14.477 197.142,14.477 C197.142,14.477 197.142,5.752 197.142,5.752 C197.142,5.752 199.945,5.752 199.945,5.752 C199.945,5.752 199.945,6.789 199.945,6.789 C200.802,5.693 201.814,5.517 202.632,5.517 C203.392,5.517 204.384,5.654 205.124,6.397 C205.942,7.219 206.000,8.256 206.000,8.960 C206.000,8.960 206.000,14.477 206.000,14.477 C206.000,14.477 203.197,14.477 203.197,14.477 ZM193.706,14.477 C193.706,14.477 190.902,14.477 190.902,14.477 C190.902,14.477 190.902,8.021 190.902,8.021 C190.902,8.021 189.890,8.021 189.890,8.021 C189.890,8.021 189.890,5.752 189.890,5.752 C189.890,5.752 190.902,5.752 190.902,5.752 C190.902,5.752 190.902,4.030 190.902,4.030 C190.902,3.052 191.000,1.936 191.876,0.998 C192.441,0.391 193.239,-0.000 194.310,-0.000 C194.933,-0.000 195.439,0.117 195.906,0.293 C195.906,0.293 195.906,2.758 195.906,2.758 C195.594,2.562 195.186,2.426 194.835,2.426 C194.407,2.426 194.135,2.622 194.018,2.778 C193.706,3.188 193.706,3.874 193.706,4.284 C193.706,4.284 193.706,5.752 193.706,5.752 C193.706,5.752 195.926,5.752 195.926,5.752 C195.926,5.752 195.926,8.021 195.926,8.021 C195.926,8.021 193.706,8.021 193.706,8.021 C193.706,8.021 193.706,14.477 193.706,14.477 ZM185.487,13.421 C184.727,14.595 183.637,14.771 182.917,14.771 C181.671,14.771 180.619,14.458 179.665,13.440 C178.750,12.462 178.400,11.327 178.400,10.173 C178.400,8.706 178.944,7.454 179.743,6.652 C180.502,5.888 181.554,5.458 182.761,5.458 C183.501,5.458 184.689,5.634 185.487,6.730 C185.487,6.730 185.487,5.752 185.487,5.752 C185.487,5.752 188.290,5.752 188.290,5.752 C188.290,5.752 188.290,14.477 188.290,14.477 C188.290,14.477 185.487,14.477 185.487,14.477 C185.487,14.477 185.487,13.421 185.487,13.421 ZM185.019,8.491 C184.591,8.080 183.968,7.884 183.462,7.884 C182.858,7.884 182.294,8.139 181.924,8.510 C181.631,8.803 181.281,9.312 181.281,10.095 C181.281,10.877 181.612,11.386 181.865,11.660 C182.255,12.071 182.858,12.345 183.520,12.345 C184.085,12.345 184.611,12.110 184.981,11.738 C185.350,11.386 185.662,10.838 185.662,10.095 C185.662,9.469 185.429,8.882 185.019,8.491 ZM174.309,8.823 C174.309,8.823 175.048,9.058 175.048,9.058 C175.535,9.215 176.041,9.410 176.489,9.821 C176.996,10.291 177.171,10.819 177.171,11.484 C177.171,12.638 176.664,13.381 176.275,13.773 C175.418,14.634 174.367,14.771 173.452,14.771 C172.284,14.771 171.018,14.517 169.889,13.519 C169.889,13.519 171.077,11.621 171.077,11.621 C171.349,11.855 171.739,12.129 172.030,12.267 C172.420,12.462 172.829,12.541 173.199,12.541 C173.374,12.541 173.822,12.541 174.075,12.345 C174.250,12.208 174.367,11.993 174.367,11.777 C174.367,11.621 174.309,11.425 174.056,11.269 C173.861,11.151 173.608,11.073 173.199,10.955 C173.199,10.955 172.498,10.741 172.498,10.741 C171.992,10.584 171.466,10.310 171.096,9.938 C170.687,9.508 170.473,9.019 170.473,8.353 C170.473,7.512 170.804,6.808 171.310,6.338 C172.089,5.615 173.140,5.458 173.939,5.458 C175.223,5.458 176.119,5.791 176.821,6.202 C176.821,6.202 175.710,7.982 175.710,7.982 C175.282,7.727 174.717,7.493 174.172,7.493 C173.881,7.493 173.549,7.571 173.374,7.747 C173.276,7.845 173.199,8.001 173.199,8.139 C173.199,8.334 173.335,8.451 173.471,8.529 C173.666,8.647 173.958,8.706 174.309,8.823 ZM163.960,14.771 C162.890,14.771 161.449,14.614 160.456,13.636 C159.657,12.853 159.502,11.973 159.502,11.014 C159.502,11.014 159.502,5.752 159.502,5.752 C159.502,5.752 162.305,5.752 162.305,5.752 C162.305,5.752 162.305,10.564 162.305,10.564 C162.305,10.955 162.344,11.562 162.792,11.973 C162.987,12.149 163.337,12.384 163.960,12.384 C164.486,12.384 164.895,12.208 165.148,11.973 C165.557,11.581 165.615,10.995 165.615,10.564 C165.615,10.564 165.615,5.752 165.615,5.752 C165.615,5.752 168.419,5.752 168.419,5.752 C168.419,5.752 168.419,10.838 168.419,10.838 C168.419,11.836 168.322,12.775 167.445,13.636 C166.453,14.614 164.992,14.771 163.960,14.771 ZM152.556,18.957 C151.407,18.957 150.025,18.781 148.935,17.842 C148.390,17.373 147.825,16.629 147.631,15.533 C147.631,15.533 150.687,15.533 150.687,15.533 C150.804,15.983 151.077,16.238 151.310,16.395 C151.641,16.610 152.108,16.688 152.517,16.688 C153.316,16.688 153.724,16.395 153.919,16.219 C154.465,15.690 154.484,14.771 154.484,14.399 C154.484,14.399 154.484,13.401 154.484,13.401 C154.153,13.949 153.491,14.712 151.894,14.712 C150.551,14.712 149.519,14.282 148.720,13.479 C148.020,12.755 147.455,11.699 147.455,10.193 C147.455,8.706 148.000,7.473 148.740,6.710 C149.266,6.162 150.278,5.458 151.894,5.458 C153.471,5.458 154.172,6.299 154.484,6.769 C154.484,6.769 154.484,5.752 154.484,5.752 C154.484,5.752 157.288,5.752 157.288,5.752 C157.288,5.752 157.288,13.949 157.288,13.949 C157.288,15.181 157.229,16.571 156.217,17.666 C155.146,18.820 153.511,18.957 152.556,18.957 ZM154.055,8.451 C153.647,8.080 153.043,7.904 152.537,7.904 C151.914,7.904 151.349,8.139 150.999,8.471 C150.571,8.882 150.337,9.567 150.337,10.095 C150.337,10.662 150.551,11.249 150.940,11.660 C151.330,12.071 151.855,12.286 152.517,12.286 C153.257,12.286 153.744,11.993 154.036,11.719 C154.465,11.308 154.718,10.701 154.718,10.055 C154.718,9.371 154.425,8.803 154.055,8.451 ZM148.798,27.186 C149.226,27.186 149.693,27.342 150.044,27.518 C150.044,27.518 149.382,28.790 149.382,28.790 C149.070,28.575 148.778,28.516 148.564,28.516 C147.999,28.516 147.649,28.750 147.435,29.024 C147.201,29.338 146.967,29.886 146.967,31.216 C146.967,31.216 146.967,35.500 146.967,35.500 C146.967,35.500 145.565,35.500 145.565,35.500 C145.565,35.500 145.565,27.381 145.565,27.381 C145.565,27.381 146.967,27.381 146.967,27.381 C146.967,27.381 146.967,28.262 146.967,28.262 C147.104,28.046 147.707,27.186 148.798,27.186 ZM141.015,14.771 C139.321,14.771 137.997,14.145 137.218,13.362 C136.342,12.481 135.914,11.229 135.914,10.114 C135.914,8.999 136.342,7.747 137.218,6.867 C137.997,6.084 139.321,5.458 141.015,5.458 C142.709,5.458 144.032,6.084 144.812,6.867 C145.688,7.747 146.116,8.999 146.116,10.114 C146.116,11.229 145.688,12.481 144.812,13.362 C144.032,14.145 142.709,14.771 141.015,14.771 ZM142.592,8.471 C142.183,8.060 141.657,7.845 141.015,7.845 C140.372,7.845 139.846,8.060 139.438,8.471 C139.029,8.882 138.795,9.410 138.795,10.114 C138.795,10.917 139.107,11.425 139.438,11.758 C139.788,12.110 140.294,12.384 141.034,12.384 C141.657,12.384 142.183,12.169 142.592,11.758 C143.001,11.347 143.234,10.819 143.234,10.114 C143.234,9.410 143.001,8.882 142.592,8.471 ZM143.137,4.304 C142.300,4.304 141.599,3.600 141.599,2.758 C141.599,1.917 142.300,1.212 143.137,1.212 C143.974,1.212 144.675,1.917 144.675,2.758 C144.675,3.600 143.974,4.304 143.137,4.304 ZM138.893,4.304 C138.056,4.304 137.354,3.600 137.354,2.758 C137.354,1.917 138.056,1.212 138.893,1.212 C139.730,1.212 140.431,1.917 140.431,2.758 C140.431,3.600 139.730,4.304 138.893,4.304 ZM133.966,35.500 C133.966,35.500 130.733,31.803 130.733,31.803 C130.733,31.803 130.383,32.155 130.383,32.155 C130.383,32.155 130.383,35.500 130.383,35.500 C130.383,35.500 128.981,35.500 128.981,35.500 C128.981,35.500 128.981,21.238 128.981,21.238 C128.981,21.238 130.383,21.238 130.383,21.238 C130.383,21.238 130.383,30.394 130.383,30.394 C130.383,30.394 133.343,27.381 133.343,27.381 C133.343,27.381 135.173,27.381 135.173,27.381 C135.173,27.381 131.708,30.864 131.708,30.864 C131.708,30.864 135.796,35.500 135.796,35.500 C135.796,35.500 133.966,35.500 133.966,35.500 ZM131.823,8.823 C131.823,8.823 132.562,9.058 132.562,9.058 C133.049,9.215 133.555,9.410 134.003,9.821 C134.510,10.291 134.685,10.819 134.685,11.484 C134.685,12.638 134.178,13.381 133.789,13.773 C132.932,14.634 131.881,14.771 130.966,14.771 C129.798,14.771 128.532,14.517 127.403,13.519 C127.403,13.519 128.591,11.621 128.591,11.621 C128.863,11.855 129.253,12.129 129.544,12.267 C129.934,12.462 130.343,12.541 130.713,12.541 C130.888,12.541 131.336,12.541 131.589,12.345 C131.764,12.208 131.881,11.993 131.881,11.777 C131.881,11.621 131.823,11.425 131.570,11.269 C131.375,11.151 131.122,11.073 130.713,10.955 C130.713,10.955 130.012,10.741 130.012,10.741 C129.506,10.584 128.980,10.310 128.610,9.938 C128.201,9.508 127.987,9.019 127.987,8.353 C127.987,7.512 128.318,6.808 128.824,6.338 C129.603,5.615 130.654,5.458 131.453,5.458 C132.737,5.458 133.633,5.791 134.335,6.202 C134.335,6.202 133.225,7.982 133.225,7.982 C132.796,7.727 132.231,7.493 131.686,7.493 C131.394,7.493 131.063,7.571 130.888,7.747 C130.791,7.845 130.713,8.001 130.713,8.139 C130.713,8.334 130.849,8.451 130.985,8.529 C131.180,8.647 131.472,8.706 131.823,8.823 ZM125.385,8.001 C124.782,8.001 124.334,8.217 123.983,8.589 C123.360,9.253 123.301,10.193 123.301,10.936 C123.301,10.936 123.301,14.477 123.301,14.477 C123.301,14.477 120.498,14.477 120.498,14.477 C120.498,14.477 120.498,5.752 120.498,5.752 C120.498,5.752 123.301,5.752 123.301,5.752 C123.301,5.752 123.301,7.121 123.301,7.121 C123.554,6.632 123.944,6.182 124.392,5.908 C124.859,5.615 125.346,5.536 125.891,5.536 C126.242,5.536 126.495,5.576 126.806,5.673 C126.806,5.673 126.651,8.314 126.651,8.314 C126.281,8.119 125.872,8.001 125.385,8.001 ZM123.165,27.381 C123.165,27.381 119.193,36.029 119.193,36.029 C119.193,36.029 115.221,27.381 115.221,27.381 C115.221,27.381 116.779,27.381 116.779,27.381 C116.779,27.381 119.193,32.860 119.193,32.860 C119.193,32.860 121.607,27.381 121.607,27.381 C121.607,27.381 123.165,27.381 123.165,27.381 ZM115.460,13.421 C114.701,14.595 113.611,14.771 112.890,14.771 C111.644,14.771 110.593,14.458 109.638,13.440 C108.724,12.462 108.373,11.327 108.373,10.173 C108.373,8.706 108.918,7.454 109.716,6.652 C110.476,5.888 111.527,5.458 112.735,5.458 C113.474,5.458 114.662,5.634 115.460,6.730 C115.460,6.730 115.460,5.752 115.460,5.752 C115.460,5.752 118.264,5.752 118.264,5.752 C118.264,5.752 118.264,14.477 118.264,14.477 C118.264,14.477 115.460,14.477 115.460,14.477 C115.460,14.477 115.460,13.421 115.460,13.421 ZM114.993,8.491 C114.565,8.080 113.942,7.884 113.435,7.884 C112.831,7.884 112.267,8.139 111.897,8.510 C111.605,8.803 111.255,9.312 111.255,10.095 C111.255,10.877 111.585,11.386 111.839,11.660 C112.228,12.071 112.831,12.345 113.494,12.345 C114.059,12.345 114.584,12.110 114.954,11.738 C115.324,11.386 115.635,10.838 115.635,10.095 C115.635,9.469 115.402,8.882 114.993,8.491 ZM101.836,18.957 C100.687,18.957 99.305,18.781 98.215,17.842 C97.669,17.373 97.104,16.629 96.910,15.533 C96.910,15.533 99.967,15.533 99.967,15.533 C100.084,15.983 100.356,16.238 100.590,16.395 C100.921,16.610 101.388,16.688 101.797,16.688 C102.595,16.688 103.004,16.395 103.199,16.219 C103.744,15.690 103.764,14.771 103.764,14.399 C103.764,14.399 103.764,13.401 103.764,13.401 C103.432,13.949 102.771,14.712 101.174,14.712 C99.831,14.712 98.798,14.282 98.000,13.479 C97.299,12.755 96.735,11.699 96.735,10.193 C96.735,8.706 97.280,7.473 98.020,6.710 C98.545,6.162 99.558,5.458 101.174,5.458 C102.751,5.458 103.452,6.299 103.764,6.769 C103.764,6.769 103.764,5.752 103.764,5.752 C103.764,5.752 106.567,5.752 106.567,5.752 C106.567,5.752 106.567,13.949 106.567,13.949 C106.567,15.181 106.509,16.571 105.496,17.666 C104.425,18.820 102.790,18.957 101.836,18.957 ZM103.335,8.451 C102.926,8.080 102.323,7.904 101.816,7.904 C101.193,7.904 100.629,8.139 100.278,8.471 C99.850,8.882 99.616,9.567 99.616,10.095 C99.616,10.662 99.831,11.249 100.220,11.660 C100.609,12.071 101.135,12.286 101.797,12.286 C102.537,12.286 103.024,11.993 103.316,11.719 C103.744,11.308 103.997,10.701 103.997,10.055 C103.997,9.371 103.705,8.803 103.335,8.451 ZM94.505,8.001 C93.902,8.001 93.454,8.217 93.104,8.589 C92.481,9.253 92.422,10.193 92.422,10.936 C92.422,10.936 92.422,14.477 92.422,14.477 C92.422,14.477 89.618,14.477 89.618,14.477 C89.618,14.477 89.618,5.752 89.618,5.752 C89.618,5.752 92.422,5.752 92.422,5.752 C92.422,5.752 92.422,7.121 92.422,7.121 C92.675,6.632 93.064,6.182 93.512,5.908 C93.980,5.615 94.466,5.536 95.011,5.536 C95.362,5.536 95.615,5.576 95.927,5.673 C95.927,5.673 95.771,8.314 95.771,8.314 C95.401,8.119 94.992,8.001 94.505,8.001 ZM92.298,27.381 C92.298,27.381 86.359,40.000 86.359,40.000 C86.359,40.000 84.801,40.000 84.801,40.000 C84.801,40.000 87.371,34.738 87.371,34.738 C87.371,34.738 83.653,27.381 83.653,27.381 C83.653,27.381 85.249,27.381 85.249,27.381 C85.249,27.381 88.111,33.192 88.111,33.192 C88.111,33.192 90.740,27.381 90.740,27.381 C90.740,27.381 92.298,27.381 92.298,27.381 ZM82.742,14.771 C81.048,14.771 79.724,14.145 78.946,13.362 C78.070,12.481 77.641,11.229 77.641,10.114 C77.641,8.999 78.070,7.747 78.946,6.867 C79.724,6.084 81.048,5.458 82.742,5.458 C84.436,5.458 85.760,6.084 86.539,6.867 C87.415,7.747 87.844,8.999 87.844,10.114 C87.844,11.229 87.415,12.481 86.539,13.362 C85.760,14.145 84.436,14.771 82.742,14.771 ZM84.320,8.471 C83.911,8.060 83.385,7.845 82.742,7.845 C82.100,7.845 81.574,8.060 81.165,8.471 C80.757,8.882 80.523,9.410 80.523,10.114 C80.523,10.917 80.835,11.425 81.165,11.758 C81.516,12.110 82.022,12.384 82.762,12.384 C83.385,12.384 83.911,12.169 84.320,11.758 C84.728,11.347 84.962,10.819 84.962,10.114 C84.962,9.410 84.728,8.882 84.320,8.471 ZM71.684,14.477 C71.684,14.477 66.797,14.477 66.797,14.477 C66.797,14.477 66.797,1.428 66.797,1.428 C66.797,1.428 70.769,1.428 70.769,1.428 C71.470,1.428 73.067,1.467 74.079,2.426 C74.916,3.228 75.014,4.324 75.014,4.891 C75.014,5.400 74.936,5.986 74.586,6.554 C74.254,7.101 73.806,7.375 73.495,7.512 C74.118,7.610 74.819,7.923 75.287,8.393 C75.715,8.823 76.123,9.567 76.123,10.721 C76.123,12.032 75.617,12.853 75.111,13.362 C74.040,14.399 72.483,14.477 71.684,14.477 ZM71.782,4.108 C71.353,3.776 70.769,3.776 70.224,3.776 C70.224,3.776 69.757,3.776 69.757,3.776 C69.757,3.776 69.757,6.730 69.757,6.730 C69.757,6.730 70.243,6.730 70.243,6.730 C70.653,6.730 71.334,6.671 71.762,6.358 C72.035,6.162 72.288,5.771 72.288,5.204 C72.288,4.636 72.015,4.284 71.782,4.108 ZM72.716,9.449 C72.190,8.960 71.178,8.960 70.575,8.960 C70.575,8.960 69.757,8.960 69.757,8.960 C69.757,8.960 69.757,12.129 69.757,12.129 C69.757,12.129 70.477,12.129 70.477,12.129 C71.236,12.129 72.152,12.110 72.697,11.601 C72.969,11.347 73.125,10.975 73.125,10.505 C73.125,9.977 72.911,9.625 72.716,9.449 ZM54.050,1.331 C54.050,1.331 55.233,1.331 55.233,1.331 C55.233,1.331 55.233,35.529 55.233,35.529 C55.233,35.529 54.050,35.529 54.050,35.529 C54.050,35.529 54.050,1.331 54.050,1.331 ZM29.286,10.384 C29.286,10.384 20.710,19.001 20.710,19.001 C20.710,19.001 16.200,14.470 16.200,14.470 C16.200,14.470 29.286,1.321 29.286,1.321 C29.286,1.321 42.372,14.469 42.372,14.469 C42.372,14.469 37.862,19.002 37.862,19.002 C37.862,19.002 29.286,10.384 29.286,10.384 ZM21.662,35.528 C21.662,35.528 13.086,26.911 13.086,26.911 C13.086,26.911 4.509,35.529 4.509,35.529 C4.509,35.529 -0.000,30.996 -0.000,30.996 C-0.000,30.996 13.086,17.847 13.086,17.847 C13.086,17.847 26.172,30.997 26.172,30.997 C26.172,30.997 21.662,35.528 21.662,35.528 ZM72.288,23.175 C73.047,23.684 73.709,24.681 73.709,26.070 C73.709,28.066 72.405,29.533 70.438,29.670 C70.438,29.670 74.566,35.500 74.566,35.500 C74.566,35.500 72.813,35.500 72.813,35.500 C72.813,35.500 68.861,29.788 68.861,29.788 C68.861,29.788 68.491,29.788 68.491,29.788 C68.491,29.788 68.491,35.500 68.491,35.500 C68.491,35.500 67.050,35.500 67.050,35.500 C67.050,35.500 67.050,22.451 67.050,22.451 C67.050,22.451 69.134,22.451 69.134,22.451 C70.010,22.451 71.314,22.510 72.288,23.175 ZM68.491,28.496 C68.491,28.496 69.406,28.496 69.406,28.496 C71.198,28.496 72.269,27.636 72.269,26.110 C72.269,25.386 72.054,24.662 71.236,24.192 C70.653,23.860 69.990,23.821 69.367,23.821 C69.367,23.821 68.491,23.821 68.491,23.821 C68.491,23.821 68.491,28.496 68.491,28.496 ZM79.158,27.186 C80.735,27.186 81.728,27.968 82.214,28.672 C82.721,29.396 83.013,30.648 82.974,31.724 C82.974,31.724 76.685,31.724 76.685,31.724 C76.704,33.407 77.853,34.483 79.255,34.483 C79.917,34.483 80.442,34.288 80.910,33.896 C81.280,33.583 81.572,33.172 81.747,32.781 C81.747,32.781 82.916,33.426 82.916,33.426 C82.682,33.877 82.331,34.366 81.923,34.738 C81.183,35.403 80.267,35.735 79.236,35.735 C77.289,35.735 75.244,34.503 75.244,31.490 C75.244,29.064 76.724,27.186 79.158,27.186 ZM81.533,30.550 C81.300,29.279 80.346,28.438 79.158,28.438 C77.970,28.438 76.996,29.338 76.783,30.550 C76.783,30.550 81.533,30.550 81.533,30.550 ZM95.228,30.394 C95.228,30.394 98.188,27.381 98.188,27.381 C98.188,27.381 100.018,27.381 100.018,27.381 C100.018,27.381 96.552,30.864 96.552,30.864 C96.552,30.864 100.641,35.500 100.641,35.500 C100.641,35.500 98.811,35.500 98.811,35.500 C98.811,35.500 95.579,31.803 95.579,31.803 C95.579,31.803 95.228,32.155 95.228,32.155 C95.228,32.155 95.228,35.500 95.228,35.500 C95.228,35.500 93.826,35.500 93.826,35.500 C93.826,35.500 93.826,21.238 93.826,21.238 C93.826,21.238 95.228,21.238 95.228,21.238 C95.228,21.238 95.228,30.394 95.228,30.394 ZM102.824,23.312 C103.369,23.312 103.817,23.762 103.817,24.309 C103.817,24.858 103.369,25.307 102.824,25.307 C102.279,25.307 101.831,24.858 101.831,24.309 C101.831,23.762 102.279,23.312 102.824,23.312 ZM103.525,40.000 C103.525,40.000 102.123,40.000 102.123,40.000 C102.123,40.000 102.123,27.381 102.123,27.381 C102.123,27.381 103.525,27.381 103.525,27.381 C103.525,27.381 103.525,40.000 103.525,40.000 ZM109.526,27.186 C111.083,27.186 111.921,28.046 112.291,28.536 C112.291,28.536 112.291,27.381 112.291,27.381 C112.291,27.381 113.693,27.381 113.693,27.381 C113.693,27.381 113.693,35.500 113.693,35.500 C113.693,35.500 112.291,35.500 112.291,35.500 C112.291,35.500 112.291,34.366 112.291,34.366 C111.823,34.972 110.947,35.735 109.526,35.735 C107.482,35.735 105.593,34.288 105.593,31.431 C105.593,28.634 107.462,27.186 109.526,27.186 ZM109.682,34.483 C111.395,34.483 112.369,33.055 112.369,31.450 C112.369,29.358 110.928,28.438 109.682,28.438 C108.299,28.438 107.034,29.455 107.034,31.431 C107.034,33.172 108.007,34.483 109.682,34.483 ZM127.682,22.979 C127.682,22.979 125.288,25.855 125.288,25.855 C125.288,25.855 124.373,25.444 124.373,25.444 C124.373,25.444 126.183,22.451 126.183,22.451 C126.183,22.451 127.682,22.979 127.682,22.979 ZM126.086,35.500 C126.086,35.500 124.684,35.500 124.684,35.500 C124.684,35.500 124.684,27.381 124.684,27.381 C124.684,27.381 126.086,27.381 126.086,27.381 C126.086,27.381 126.086,35.500 126.086,35.500 ZM138.365,32.116 C138.365,32.684 138.365,33.348 138.755,33.857 C138.969,34.131 139.397,34.483 140.176,34.483 C140.955,34.483 141.383,34.131 141.597,33.857 C141.987,33.348 141.987,32.684 141.987,32.116 C141.987,32.116 141.987,27.381 141.987,27.381 C141.987,27.381 143.389,27.381 143.389,27.381 C143.389,27.381 143.389,32.272 143.389,32.272 C143.389,33.270 143.291,34.014 142.649,34.718 C141.928,35.481 140.974,35.735 140.176,35.735 C139.378,35.735 138.424,35.481 137.703,34.718 C137.061,34.014 136.963,33.270 136.963,32.272 C136.963,32.272 136.963,27.381 136.963,27.381 C136.963,27.381 138.365,27.381 138.365,27.381 C138.365,27.381 138.365,32.116 138.365,32.116 Z" id="path-1" class="cls-2" fill-rule="evenodd"/>
</svg>
