<svg xmlns="http://www.w3.org/2000/svg" xmlns:xlink="http://www.w3.org/1999/xlink" preserveAspectRatio="xMidYMid" width="226" height="45" viewBox="0 0 226 45">
  <defs>
    <style>

      .cls-2 {
        fill: #393933;
      }
    </style>
  </defs>
  <path d="M222.785,16.701 C222.785,16.701 222.785,11.533 222.785,11.533 C222.785,10.878 222.763,10.043 222.250,9.525 C222.004,9.276 221.602,9.073 221.021,9.073 C220.352,9.073 219.927,9.344 219.681,9.615 C219.146,10.156 219.056,10.878 219.056,11.533 C219.056,11.533 219.056,16.701 219.056,16.701 C219.056,16.701 215.842,16.701 215.842,16.701 C215.842,16.701 215.842,6.636 215.842,6.636 C215.842,6.636 219.056,6.636 219.056,6.636 C219.056,6.636 219.056,7.832 219.056,7.832 C220.039,6.568 221.200,6.365 222.138,6.365 C223.008,6.365 224.147,6.523 224.996,7.380 C225.933,8.328 226.000,9.525 226.000,10.337 C226.000,10.337 226.000,16.701 226.000,16.701 C226.000,16.701 222.785,16.701 222.785,16.701 ZM212.045,16.701 C212.045,16.701 208.830,16.701 208.830,16.701 C208.830,16.701 208.830,9.254 208.830,9.254 C208.830,9.254 207.669,9.254 207.669,9.254 C207.669,9.254 207.669,6.636 207.669,6.636 C207.669,6.636 208.830,6.636 208.830,6.636 C208.830,6.636 208.830,4.649 208.830,4.649 C208.830,3.521 208.941,2.234 209.946,1.151 C210.593,0.451 211.509,0.000 212.737,0.000 C213.451,0.000 214.032,0.136 214.568,0.339 C214.568,0.339 214.568,3.182 214.568,3.182 C214.211,2.956 213.742,2.799 213.340,2.799 C212.849,2.799 212.536,3.025 212.402,3.205 C212.045,3.679 212.045,4.469 212.045,4.943 C212.045,4.943 212.045,6.636 212.045,6.636 C212.045,6.636 214.590,6.636 214.590,6.636 C214.590,6.636 214.590,9.254 214.590,9.254 C214.590,9.254 212.045,9.254 212.045,9.254 C212.045,9.254 212.045,16.701 212.045,16.701 ZM202.844,15.483 C201.974,16.837 200.723,17.040 199.897,17.040 C198.468,17.040 197.263,16.679 196.169,15.505 C195.119,14.377 194.718,13.068 194.718,11.736 C194.718,10.043 195.342,8.599 196.258,7.674 C197.129,6.793 198.334,6.297 199.719,6.297 C200.567,6.297 201.929,6.500 202.844,7.764 C202.844,7.764 202.844,6.636 202.844,6.636 C202.844,6.636 206.060,6.636 206.060,6.636 C206.060,6.636 206.060,16.701 206.060,16.701 C206.060,16.701 202.844,16.701 202.844,16.701 C202.844,16.701 202.844,15.483 202.844,15.483 ZM202.309,9.795 C201.818,9.321 201.103,9.095 200.523,9.095 C199.831,9.095 199.183,9.389 198.759,9.818 C198.424,10.156 198.022,10.743 198.022,11.646 C198.022,12.548 198.402,13.136 198.692,13.451 C199.138,13.925 199.831,14.241 200.589,14.241 C201.237,14.241 201.840,13.971 202.264,13.542 C202.689,13.136 203.046,12.504 203.046,11.646 C203.046,10.924 202.778,10.247 202.309,9.795 ZM190.006,10.179 C190.006,10.179 190.854,10.450 190.854,10.450 C191.412,10.630 191.993,10.856 192.506,11.330 C193.087,11.871 193.288,12.481 193.288,13.249 C193.288,14.580 192.707,15.437 192.261,15.889 C191.278,16.882 190.072,17.040 189.023,17.040 C187.683,17.040 186.233,16.747 184.937,15.595 C184.937,15.595 186.299,13.406 186.299,13.406 C186.612,13.677 187.059,13.993 187.393,14.151 C187.840,14.377 188.309,14.467 188.733,14.467 C188.934,14.467 189.447,14.467 189.738,14.241 C189.938,14.084 190.072,13.835 190.072,13.587 C190.072,13.406 190.006,13.181 189.715,13.000 C189.492,12.865 189.202,12.774 188.733,12.639 C188.733,12.639 187.929,12.391 187.929,12.391 C187.349,12.210 186.746,11.894 186.322,11.466 C185.853,10.969 185.607,10.404 185.607,9.637 C185.607,8.667 185.987,7.855 186.567,7.312 C187.460,6.477 188.666,6.297 189.581,6.297 C191.055,6.297 192.082,6.680 192.886,7.154 C192.886,7.154 191.613,9.208 191.613,9.208 C191.122,8.915 190.475,8.644 189.849,8.644 C189.514,8.644 189.135,8.734 188.934,8.937 C188.822,9.051 188.733,9.231 188.733,9.389 C188.733,9.615 188.889,9.750 189.046,9.840 C189.269,9.976 189.604,10.043 190.006,10.179 ZM179.800,15.483 C178.930,16.837 177.679,17.040 176.853,17.040 C175.424,17.040 174.219,16.679 173.124,15.505 C172.075,14.377 171.674,13.068 171.674,11.736 C171.674,10.043 172.298,8.599 173.214,7.674 C174.085,6.793 175.290,6.297 176.675,6.297 C177.523,6.297 178.885,6.500 179.800,7.764 C179.800,7.764 179.800,6.636 179.800,6.636 C179.800,6.636 183.015,6.636 183.015,6.636 C183.015,6.636 183.015,16.701 183.015,16.701 C183.015,16.701 179.800,16.701 179.800,16.701 C179.800,16.701 179.800,15.483 179.800,15.483 ZM179.265,9.795 C178.773,9.321 178.059,9.095 177.479,9.095 C176.787,9.095 176.139,9.389 175.715,9.818 C175.379,10.156 174.978,10.743 174.978,11.646 C174.978,12.548 175.358,13.136 175.648,13.451 C176.094,13.925 176.787,14.241 177.545,14.241 C178.193,14.241 178.796,13.971 179.220,13.542 C179.644,13.136 180.002,12.504 180.002,11.646 C180.002,10.924 179.734,10.247 179.265,9.795 ZM171.739,32.063 C171.382,31.815 171.047,31.747 170.801,31.747 C170.154,31.747 169.752,32.019 169.506,32.334 C169.239,32.695 168.971,33.328 168.971,34.862 C168.971,34.862 168.971,39.805 168.971,39.805 C168.971,39.805 167.363,39.805 167.363,39.805 C167.363,39.805 167.363,30.439 167.363,30.439 C167.363,30.439 168.971,30.439 168.971,30.439 C168.971,30.439 168.971,31.454 168.971,31.454 C169.127,31.206 169.819,30.213 171.069,30.213 C171.561,30.213 172.097,30.393 172.498,30.596 C172.498,30.596 171.739,32.063 171.739,32.063 ZM166.358,15.483 C165.867,16.205 164.974,17.040 163.210,17.040 C161.736,17.040 160.665,16.566 159.794,15.664 C158.767,14.625 158.231,13.181 158.231,11.623 C158.231,9.953 158.834,8.577 159.794,7.651 C160.665,6.816 161.893,6.297 163.254,6.297 C164.349,6.297 165.554,6.658 166.358,7.764 C166.358,7.764 166.358,0.248 166.358,0.248 C166.358,0.248 169.573,0.248 169.573,0.248 C169.573,0.248 169.573,16.701 169.573,16.701 C169.573,16.701 166.358,16.701 166.358,16.701 C166.358,16.701 166.358,15.483 166.358,15.483 ZM165.845,9.840 C165.331,9.299 164.728,9.095 164.036,9.095 C163.389,9.095 162.830,9.276 162.317,9.773 C161.848,10.224 161.536,10.878 161.536,11.691 C161.536,12.435 161.848,13.090 162.317,13.542 C162.808,14.015 163.433,14.241 163.991,14.241 C164.594,14.241 165.309,13.993 165.822,13.497 C166.202,13.136 166.559,12.526 166.559,11.691 C166.559,10.833 166.225,10.247 165.845,9.840 ZM158.565,35.900 C158.565,36.555 158.565,37.323 159.012,37.909 C159.258,38.225 159.749,38.631 160.642,38.631 C161.535,38.631 162.026,38.225 162.272,37.909 C162.718,37.323 162.718,36.555 162.718,35.900 C162.718,35.900 162.718,30.439 162.718,30.439 C162.718,30.439 164.326,30.439 164.326,30.439 C164.326,30.439 164.326,36.081 164.326,36.081 C164.326,37.232 164.214,38.089 163.477,38.902 C162.651,39.782 161.557,40.076 160.642,40.076 C159.726,40.076 158.632,39.782 157.806,38.902 C157.069,38.089 156.958,37.232 156.958,36.081 C156.958,36.081 156.958,30.439 156.958,30.439 C156.958,30.439 158.565,30.439 158.565,30.439 C158.565,30.439 158.565,35.900 158.565,35.900 ZM153.006,11.533 C153.006,10.878 152.983,10.043 152.470,9.525 C152.224,9.276 151.822,9.073 151.242,9.073 C150.572,9.073 150.148,9.344 149.902,9.615 C149.366,10.156 149.277,10.878 149.277,11.533 C149.277,11.533 149.277,16.701 149.277,16.701 C149.277,16.701 146.061,16.701 146.061,16.701 C146.061,16.701 146.061,6.636 146.061,6.636 C146.061,6.636 149.277,6.636 149.277,6.636 C149.277,6.636 149.277,7.832 149.277,7.832 C150.259,6.568 151.421,6.365 152.358,6.365 C153.229,6.365 154.368,6.523 155.216,7.380 C156.154,8.328 156.221,9.525 156.221,10.337 C156.221,10.337 156.221,16.701 156.221,16.701 C156.221,16.701 153.006,16.701 153.006,16.701 C153.006,16.701 153.006,11.533 153.006,11.533 ZM133.043,21.870 C133.043,21.870 136.549,15.415 136.549,15.415 C136.549,15.415 131.793,6.636 131.793,6.636 C131.793,6.636 135.500,6.636 135.500,6.636 C135.500,6.636 138.313,12.097 138.313,12.097 C138.313,12.097 141.059,6.636 141.059,6.636 C141.059,6.636 144.676,6.636 144.676,6.636 C144.676,6.636 136.660,21.870 136.660,21.870 C136.660,21.870 133.043,21.870 133.043,21.870 ZM127.728,11.600 C127.728,11.082 127.728,10.179 127.304,9.637 C127.035,9.299 126.612,9.095 126.143,9.095 C125.606,9.095 125.160,9.344 124.892,9.705 C124.468,10.247 124.401,11.037 124.401,11.691 C124.401,11.691 124.401,16.701 124.401,16.701 C124.401,16.701 121.186,16.701 121.186,16.701 C121.186,16.701 121.186,11.466 121.186,11.466 C121.186,10.788 121.164,9.999 120.673,9.502 C120.337,9.164 119.936,9.095 119.601,9.095 C119.176,9.095 118.797,9.208 118.484,9.502 C117.881,10.089 117.859,11.217 117.859,11.556 C117.859,11.556 117.859,16.701 117.859,16.701 C117.859,16.701 114.644,16.701 114.644,16.701 C114.644,16.701 114.644,6.636 114.644,6.636 C114.644,6.636 117.859,6.636 117.859,6.636 C117.859,6.636 117.859,7.809 117.859,7.809 C118.685,6.545 119.891,6.387 120.650,6.387 C121.074,6.387 121.856,6.432 122.525,6.839 C123.039,7.132 123.463,7.628 123.731,8.238 C123.977,7.832 124.356,7.358 125.004,6.951 C125.696,6.523 126.343,6.387 127.125,6.387 C128.330,6.387 129.313,6.748 129.916,7.335 C130.876,8.260 130.943,9.615 130.943,10.337 C130.943,10.337 130.943,16.701 130.943,16.701 C130.943,16.701 127.728,16.701 127.728,16.701 C127.728,16.701 127.728,11.600 127.728,11.600 ZM109.441,10.179 C109.441,10.179 110.289,10.450 110.289,10.450 C110.848,10.630 111.428,10.856 111.942,11.330 C112.522,11.871 112.723,12.481 112.723,13.249 C112.723,14.580 112.142,15.437 111.696,15.889 C110.713,16.882 109.508,17.040 108.458,17.040 C107.119,17.040 105.667,16.747 104.372,15.595 C104.372,15.595 105.735,13.406 105.735,13.406 C106.047,13.677 106.493,13.993 106.829,14.151 C107.275,14.377 107.744,14.467 108.168,14.467 C108.369,14.467 108.882,14.467 109.173,14.241 C109.374,14.084 109.508,13.835 109.508,13.587 C109.508,13.406 109.441,13.181 109.150,13.000 C108.927,12.865 108.637,12.774 108.168,12.639 C108.168,12.639 107.364,12.391 107.364,12.391 C106.784,12.210 106.181,11.894 105.757,11.466 C105.288,10.969 105.043,10.404 105.043,9.637 C105.043,8.667 105.422,7.855 106.002,7.312 C106.895,6.477 108.101,6.297 109.016,6.297 C110.490,6.297 111.517,6.680 112.321,7.154 C112.321,7.154 111.048,9.208 111.048,9.208 C110.557,8.915 109.910,8.644 109.285,8.644 C108.950,8.644 108.570,8.734 108.369,8.937 C108.258,9.051 108.168,9.231 108.168,9.389 C108.168,9.615 108.324,9.750 108.481,9.840 C108.704,9.976 109.039,10.043 109.441,10.179 ZM99.103,44.996 C99.103,44.996 97.317,44.996 97.317,44.996 C97.317,44.996 100.264,38.924 100.264,38.924 C100.264,38.924 95.999,30.439 95.999,30.439 C95.999,30.439 97.830,30.439 97.830,30.439 C97.830,30.439 101.112,37.141 101.112,37.141 C101.112,37.141 104.127,30.439 104.127,30.439 C104.127,30.439 105.913,30.439 105.913,30.439 C105.913,30.439 99.103,44.996 99.103,44.996 ZM97.092,17.040 C95.150,17.040 93.631,16.318 92.739,15.415 C91.734,14.399 91.242,12.955 91.242,11.668 C91.242,10.382 91.734,8.937 92.739,7.922 C93.631,7.019 95.150,6.297 97.092,6.297 C99.035,6.297 100.553,7.019 101.446,7.922 C102.451,8.937 102.942,10.382 102.942,11.668 C102.942,12.955 102.451,14.399 101.446,15.415 C100.553,16.318 99.035,17.040 97.092,17.040 ZM98.901,9.773 C98.432,9.299 97.829,9.051 97.092,9.051 C96.355,9.051 95.753,9.299 95.284,9.773 C94.815,10.247 94.547,10.856 94.547,11.668 C94.547,12.594 94.905,13.181 95.284,13.564 C95.686,13.971 96.266,14.287 97.115,14.287 C97.829,14.287 98.432,14.038 98.901,13.564 C99.370,13.090 99.638,12.481 99.638,11.668 C99.638,10.856 99.370,10.247 98.901,9.773 ZM95.485,3.995 C95.485,3.995 98.231,0.564 98.231,0.564 C98.231,0.564 100.330,2.031 100.330,2.031 C100.330,2.031 96.936,5.078 96.936,5.078 C96.936,5.078 95.485,3.995 95.485,3.995 ZM94.011,31.928 C94.592,32.763 94.927,34.207 94.882,35.449 C94.882,35.449 87.671,35.449 87.671,35.449 C87.692,37.390 89.010,38.631 90.618,38.631 C91.376,38.631 91.979,38.406 92.515,37.954 C92.939,37.593 93.274,37.119 93.476,36.668 C93.476,36.668 94.815,37.413 94.815,37.413 C94.547,37.932 94.145,38.496 93.676,38.924 C92.828,39.692 91.779,40.076 90.595,40.076 C88.363,40.076 86.018,38.654 86.018,35.178 C86.018,32.380 87.715,30.213 90.506,30.213 C92.315,30.213 93.453,31.115 94.011,31.928 ZM90.506,31.657 C89.144,31.657 88.028,32.695 87.782,34.094 C87.782,34.094 93.230,34.094 93.230,34.094 C92.962,32.628 91.868,31.657 90.506,31.657 ZM87.402,4.243 C86.353,4.243 85.527,3.408 85.527,2.347 C85.527,1.286 86.353,0.451 87.402,0.451 C88.452,0.451 89.278,1.286 89.278,2.347 C89.278,3.408 88.452,4.243 87.402,4.243 ZM78.314,33.215 C78.314,33.215 77.890,33.215 77.890,33.215 C77.890,33.215 77.890,39.805 77.890,39.805 C77.890,39.805 76.238,39.805 76.238,39.805 C76.238,39.805 76.238,24.751 76.238,24.751 C76.238,24.751 78.627,24.751 78.627,24.751 C79.631,24.751 81.127,24.818 82.243,25.586 C83.114,26.173 83.874,27.324 83.874,28.926 C83.874,31.228 82.377,32.921 80.122,33.079 C80.122,33.079 84.856,39.805 84.856,39.805 C84.856,39.805 82.846,39.805 82.846,39.805 C82.846,39.805 78.314,33.215 78.314,33.215 ZM82.221,28.971 C82.221,28.136 81.975,27.301 81.038,26.759 C80.368,26.376 79.609,26.331 78.894,26.331 C78.894,26.331 77.890,26.331 77.890,26.331 C77.890,26.331 77.890,31.725 77.890,31.725 C77.890,31.725 78.939,31.725 78.939,31.725 C80.993,31.725 82.221,30.732 82.221,28.971 ZM75.947,1.647 C75.947,1.647 79.386,1.647 79.386,1.647 C79.386,1.647 79.386,13.767 79.386,13.767 C79.386,13.767 84.007,13.767 84.007,13.767 C84.007,13.767 84.007,16.701 84.007,16.701 C84.007,16.701 75.947,16.701 75.947,16.701 C75.947,16.701 75.947,1.647 75.947,1.647 ZM61.561,0.617 C61.561,0.617 62.908,0.617 62.908,0.617 C62.908,0.617 62.908,39.800 62.908,39.800 C62.908,39.800 61.561,39.800 61.561,39.800 C61.561,39.800 61.561,0.617 61.561,0.617 ZM33.355,10.990 C33.355,10.990 23.587,20.864 23.587,20.864 C23.587,20.864 18.451,15.671 18.451,15.671 C18.451,15.671 33.355,0.605 33.355,0.605 C33.355,0.605 48.260,15.671 48.260,15.671 C48.260,15.671 43.124,20.864 43.124,20.864 C43.124,20.864 33.355,10.990 33.355,10.990 ZM24.672,39.800 C24.672,39.800 14.904,29.926 14.904,29.926 C14.904,29.926 5.136,39.800 5.136,39.800 C5.136,39.800 -0.000,34.607 -0.000,34.607 C-0.000,34.607 14.904,19.541 14.904,19.541 C14.904,19.541 29.809,34.607 29.809,34.607 C29.809,34.607 24.672,39.800 24.672,39.800 ZM89.010,21.870 C89.010,21.870 85.795,21.870 85.795,21.870 C85.795,21.870 85.795,6.636 85.795,6.636 C85.795,6.636 89.010,6.636 89.010,6.636 C89.010,6.636 89.010,21.870 89.010,21.870 ZM109.218,33.914 C109.218,33.914 112.612,30.439 112.612,30.439 C112.612,30.439 114.710,30.439 114.710,30.439 C114.710,30.439 110.736,34.456 110.736,34.456 C110.736,34.456 115.425,39.805 115.425,39.805 C115.425,39.805 113.326,39.805 113.326,39.805 C113.326,39.805 109.620,35.539 109.620,35.539 C109.620,35.539 109.218,35.945 109.218,35.945 C109.218,35.945 109.218,39.805 109.218,39.805 C109.218,39.805 107.611,39.805 107.611,39.805 C107.611,39.805 107.611,23.352 107.611,23.352 C107.611,23.352 109.218,23.352 109.218,23.352 C109.218,23.352 109.218,33.914 109.218,33.914 ZM117.837,25.744 C118.462,25.744 118.976,26.263 118.976,26.895 C118.976,27.527 118.462,28.046 117.837,28.046 C117.212,28.046 116.699,27.527 116.699,26.895 C116.699,26.263 117.212,25.744 117.837,25.744 ZM118.641,44.996 C118.641,44.996 117.033,44.996 117.033,44.996 C117.033,44.996 117.033,30.439 117.033,30.439 C117.033,30.439 118.641,30.439 118.641,30.439 C118.641,30.439 118.641,44.996 118.641,44.996 ZM125.608,30.213 C127.394,30.213 128.353,31.206 128.778,31.770 C128.778,31.770 128.778,30.439 128.778,30.439 C128.778,30.439 130.385,30.439 130.385,30.439 C130.385,30.439 130.385,39.805 130.385,39.805 C130.385,39.805 128.778,39.805 128.778,39.805 C128.778,39.805 128.778,38.496 128.778,38.496 C128.242,39.195 127.237,40.076 125.608,40.076 C123.263,40.076 121.097,38.406 121.097,35.110 C121.097,31.883 123.241,30.213 125.608,30.213 ZM125.786,38.631 C127.751,38.631 128.867,36.983 128.867,35.133 C128.867,32.718 127.215,31.657 125.786,31.657 C124.201,31.657 122.750,32.831 122.750,35.110 C122.750,37.119 123.866,38.631 125.786,38.631 ZM136.638,36.758 C136.638,36.758 139.407,30.439 139.407,30.439 C139.407,30.439 141.193,30.439 141.193,30.439 C141.193,30.439 136.638,40.414 136.638,40.414 C136.638,40.414 132.083,30.439 132.083,30.439 C132.083,30.439 133.869,30.439 133.869,30.439 C133.869,30.439 136.638,36.758 136.638,36.758 ZM146.329,25.360 C146.329,25.360 143.583,28.678 143.583,28.678 C143.583,28.678 142.533,28.204 142.533,28.204 C142.533,28.204 144.610,24.751 144.610,24.751 C144.610,24.751 146.329,25.360 146.329,25.360 ZM144.498,39.805 C144.498,39.805 142.891,39.805 142.891,39.805 C142.891,39.805 142.891,30.439 142.891,30.439 C142.891,30.439 144.498,30.439 144.498,30.439 C144.498,30.439 144.498,39.805 144.498,39.805 ZM149.143,33.914 C149.143,33.914 152.536,30.439 152.536,30.439 C152.536,30.439 154.635,30.439 154.635,30.439 C154.635,30.439 150.661,34.456 150.661,34.456 C150.661,34.456 155.350,39.805 155.350,39.805 C155.350,39.805 153.251,39.805 153.251,39.805 C153.251,39.805 149.544,35.539 149.544,35.539 C149.544,35.539 149.143,35.945 149.143,35.945 C149.143,35.945 149.143,39.805 149.143,39.805 C149.143,39.805 147.535,39.805 147.535,39.805 C147.535,39.805 147.535,23.352 147.535,23.352 C147.535,23.352 149.143,23.352 149.143,23.352 C149.143,23.352 149.143,33.914 149.143,33.914 Z" id="path-1" class="cls-2" fill-rule="evenodd"/>
</svg>
