<?xml version="1.0" encoding="utf-8"?>
<!-- Generator: Adobe Illustrator 18.0.0, SVG Export Plug-In . SVG Version: 6.00 Build 0)  -->
<!DOCTYPE svg PUBLIC "-//W3C//DTD SVG 1.1//EN" "http://www.w3.org/Graphics/SVG/1.1/DTD/svg11.dtd">
<svg version="1.1" id="Layer_1" xmlns="http://www.w3.org/2000/svg" xmlns:xlink="http://www.w3.org/1999/xlink" x="0px" y="0px"
	 width="120.1px" height="25.6px" viewBox="0 0 120.1 25.6" enable-background="new 0 0 120.1 25.6" xml:space="preserve">
<g>
	<polygon fill="#464547" points="41.7,2 44.7,9.4 45.4,9.4 48.4,2 48.4,9.4 49.2,9.4 49.2,0.5 48.2,0.5 45.1,8.4 41.9,0.5 40.9,0.5 
		40.9,9.4 41.7,9.4 	"/>
	<path fill="#464547" d="M53.6,9.5c1.7,0,2.5-0.6,2.5-1.9V7.5h-0.7l0,0.1c0,0.8-0.6,1.1-1.8,1.1c-1.7,0-1.9-0.7-2-2.4l4.6,0l0-0.1
		c0-2-0.2-3.4-2.7-3.4c-2.5,0-2.7,1.4-2.7,3.3C50.8,8.4,51.2,9.5,53.6,9.5 M53.5,3.6c1.4,0,1.9,0.5,1.9,2h-3.8
		C51.6,4.1,52.1,3.6,53.5,3.6"/>
	<path fill="#464547" d="M61.7,6l0,3.4h0.8l0-3.6c0-1.1,0-1.8-0.6-2.3c-0.4-0.4-1-0.6-1.8-0.6c-0.9,0-1.6,0.3-2,0.8l0-0.7l-0.8,0
		l0,6.4h0.8v-3c0-0.9,0-1.8,0.5-2.3c0.3-0.3,0.8-0.5,1.4-0.5c0.6,0,1,0.1,1.2,0.3C61.7,4.3,61.7,4.9,61.7,6"/>
	<path fill="#464547" d="M66.6,2.9c-0.9,0-1.6,0.3-2,0.8V3h-0.8l0,6.4h0.8l0-3c0-0.9,0-1.8,0.5-2.3c0.3-0.3,0.8-0.5,1.4-0.5
		c0.6,0,1,0.1,1.2,0.3c0.4,0.3,0.4,0.9,0.4,2v3.4h0.8V5.8c0-1.1,0-1.8-0.6-2.3C68,3.1,67.4,2.9,66.6,2.9"/>
	<path fill="#464547" d="M70.9,1.5c0.3,0,0.5-0.2,0.5-0.5c0-0.3-0.2-0.5-0.5-0.5c-0.3,0-0.5,0.2-0.5,0.5C70.4,1.3,70.6,1.5,70.9,1.5
		"/>
	<rect x="70.5" y="3" fill="#464547" width="0.8" height="6.4"/>
	<path fill="#464547" d="M77.3,6v3.4l0.8,0l0-3.6c0-1.1,0-1.8-0.6-2.3c-0.4-0.4-1-0.6-1.8-0.6c-0.9,0-1.6,0.3-2,0.8l0-0.7H73v6.4
		l0.8,0l0-3c0-0.9,0-1.8,0.5-2.3c0.3-0.3,0.8-0.5,1.4-0.5c0.6,0,1,0.1,1.2,0.3C77.3,4.3,77.3,4.9,77.3,6"/>
	<path fill="#464547" d="M84.1,3.7C83.7,3.1,83,2.9,82,2.9c-2.4,0-2.6,1.4-2.6,3.2c0,1.9,0.2,3.3,2.6,3.3c0.9,0,1.6-0.3,2-0.8
		c0,0.1,0,0.1,0,0.2c0,0.5,0,1.1-0.2,1.5c-0.3,0.5-0.8,0.8-1.8,0.8c-1.2,0-1.7-0.4-1.7-1.2V9.9l-0.8,0l0,0.1c0,0.9,0.4,1.9,2.5,1.9
		c1.3,0,2.1-0.4,2.5-1.2c0.2-0.5,0.3-1.1,0.3-2l0-5.7l-0.8,0V3.7z M82,3.6c1.6,0,2.1,0.6,2.1,2.5c0,1.9-0.5,2.5-2.1,2.5
		c-1.7,0-1.7-1-1.7-2.5C80.2,4.6,80.3,3.6,82,3.6"/>
	<path fill="#464547" d="M89.1,2.9c-1.2,0-2.7,0.2-2.7,1.9l0,0.1l0.7,0V4.8c0-1,0.9-1.2,1.9-1.2c1.8,0,1.8,0.5,1.8,1.7l0,0.2h-2.1
		c-1.5,0-2.5,0.3-2.5,2c0,1.3,0.7,2,2.4,2c1,0,1.8-0.3,2.2-0.8v0.7h0.7l0-3.7l0-0.3c0-0.8,0-1.5-0.5-2C90.7,3.1,90.1,2.9,89.1,2.9
		 M88.7,6.3h2.1c0,0.9-0.1,1.6-0.5,2c-0.3,0.3-0.9,0.5-1.7,0.5c-1.2,0-1.6-0.3-1.6-1.2C87,6.4,87.5,6.3,88.7,6.3"/>
	<path fill="#464547" d="M96,2.9c-0.8,0-1.4,0.2-1.8,0.7l0-0.6h-0.8v6.4h0.8v-3c0-0.9,0-1.8,0.5-2.4c0.3-0.3,0.7-0.4,1.2-0.4
		c1,0,1.3,0.3,1.3,1.1v0.1H98V4.8C98,3.5,97.3,2.9,96,2.9"/>
	<polygon fill="#464547" points="104.1,3 103,3 99.8,5.5 99.8,0.2 99,0.2 99,9.4 99.8,9.4 99.8,6.4 103,9.4 104.1,9.4 100.4,6 	"/>
	<path fill="#464547" d="M107.2,2.9c-2.6,0-2.8,1.4-2.8,3.3c0,1.9,0.2,3.3,2.8,3.3c2.6,0,2.8-1.4,2.8-3.3
		C109.9,4.3,109.7,2.9,107.2,2.9 M107.2,8.7c-1.9,0-2-0.8-2-2.5c0-1.7,0.1-2.6,2-2.6c1.9,0,2,0.9,2,2.6
		C109.2,7.9,109.1,8.8,107.2,8.7"/>
	<path fill="#464547" d="M114,2.9c-0.8,0-1.4,0.2-1.8,0.7V3h-0.8v6.4h0.8l0-3c0-0.9,0-1.8,0.5-2.4c0.3-0.3,0.7-0.4,1.2-0.4
		c1,0,1.3,0.3,1.3,1.1v0.1l0.7,0V4.8C116,3.5,115.3,2.9,114,2.9"/>
	<path fill="#464547" d="M46.2,18.5c0.6-0.3,0.9-0.9,0.9-1.9c0-2.4-1.4-2.4-2.9-2.4l-3.2,0l0,8.9h0.8l0-4.1l2,0
		c2.4,0,2.5,0.1,2.5,2.1l0,2.1h0.8v-2.1c0-0.1,0-0.2,0-0.2C47.1,20,47.1,18.9,46.2,18.5 M46.3,16.6c0,0.7-0.2,1.1-0.5,1.4
		c-0.3,0.2-0.8,0.2-1.4,0.2l-2.7,0v-3.3l2.4,0C45.5,14.9,46.3,15,46.3,16.6"/>
	<path fill="#464547" d="M50.9,16.5c-2.5,0-2.7,1.4-2.7,3.3c0,2.2,0.4,3.3,2.7,3.3c1.7,0,2.5-0.6,2.5-1.9l0-0.1l-0.7,0v0.1
		c0,0.8-0.6,1.1-1.8,1.1c-1.7,0-2-0.7-2-2.4h4.6v-0.1C53.6,17.9,53.4,16.5,50.9,16.5 M49,19.3c0-1.5,0.5-2,1.9-2
		c1.4,0,1.9,0.5,1.9,2H49z"/>
	<polygon fill="#464547" points="57,21.9 55,16.6 54.2,16.6 56.6,22.9 55.6,25.5 56.4,25.5 59.7,16.6 58.8,16.6 	"/>
	<polygon fill="#464547" points="65.9,23 62.2,19.6 65.9,16.6 64.8,16.6 61.6,19.2 61.6,13.8 60.8,13.8 60.8,23 61.6,23 61.6,20.1 
		64.8,23 	"/>
	<path fill="#464547" d="M67.6,14.1c-0.3,0-0.5,0.2-0.5,0.5c0,0.3,0.2,0.5,0.5,0.5c0.3,0,0.5-0.2,0.5-0.5
		C68.1,14.3,67.9,14.1,67.6,14.1"/>
	<path fill="#464547" d="M72.3,16.5c-1.2,0-2.7,0.2-2.7,1.9l0,0.1h0.7l0-0.1c0-1,0.9-1.2,1.9-1.2c1.8,0,1.8,0.5,1.8,1.7l0,0.2h-2.1
		c-1.5,0-2.5,0.3-2.5,2c0,1.3,0.8,2,2.4,2c1,0,1.8-0.3,2.2-0.8V23h0.7v-3.7l0-0.3c0-0.8,0-1.5-0.5-2C73.9,16.7,73.2,16.5,72.3,16.5
		 M71.8,19.9H74c0,0.9-0.1,1.6-0.5,2c-0.3,0.3-0.9,0.5-1.7,0.5c-1.2,0-1.6-0.3-1.6-1.2C70.2,20.1,70.7,19.9,71.8,19.9"/>
	<polygon fill="#464547" points="78.5,22 76.5,16.6 75.6,16.6 78.1,23 78.9,23 81.3,16.6 80.5,16.6 	"/>
	<polygon fill="#464547" points="82.3,15.6 83.2,15.6 84.6,14 83.7,14 	"/>
	<rect x="82.7" y="16.6" fill="#464547" width="0.8" height="6.4"/>
	<polygon fill="#464547" points="90.6,16.6 89.5,16.6 86.4,19.2 86.4,13.8 85.6,13.8 85.6,23 86.4,23 86.4,20.1 89.5,23.1 
		90.7,23.1 87,19.6 	"/>
	<path fill="#464547" d="M96,19.7c0,0.9,0,1.8-0.5,2.3c-0.3,0.3-0.8,0.5-1.4,0.5c-0.6,0-1-0.1-1.2-0.3c-0.4-0.3-0.4-0.9-0.4-2l0-3.4
		l-0.8,0l0,3.6c0,1.1,0,1.8,0.5,2.3c0.4,0.4,1,0.6,1.8,0.6c0.9,0,1.6-0.3,2-0.8l0,0.7h0.8l0-6.4H96V19.7z"/>
	<path fill="#464547" d="M100.8,16.5c-0.8,0-1.4,0.2-1.8,0.7l0-0.6h-0.8l0,6.4h0.8l0-3c0-0.9,0-1.8,0.5-2.4c0.3-0.3,0.7-0.4,1.2-0.4
		c1,0,1.3,0.3,1.3,1.1v0.1h0.7l0-0.1C102.9,17.2,102.2,16.5,100.8,16.5"/>
	<path fill="#464547" d="M67.2,16.6v6.8c0,0.4,0,0.7-0.3,1c-0.3,0.3-0.7,0.4-1.2,0.4c-0.2,0-0.3,0-0.4,0v0.7c0.1,0,0.3,0,0.4,0
		c1.4,0,2.2-0.7,2.2-2l0-7H67.2z"/>
	<path fill="#464547" d="M118.2,7.6V3.7h1.7l0-0.7l-1.7,0V0.6l-0.8,0V3l-1.1,0v0.7h1.1l0,3.9c0,1.3,0.6,1.9,2.1,1.9
		c0.2,0,0.5,0,0.7-0.1V8.7c-0.2,0-0.4,0.1-0.6,0.1C118.5,8.8,118.2,8.5,118.2,7.6"/>
	<path fill="#20C4F4" d="M14.7,13.9c0,0.4-0.2,0.7-0.6,0.5l-5.9-2.5c-0.4-0.2-0.6-0.6-0.6-1L6.8,0.6C6.7,0.1,7-0.1,7.4,0l6.9,2.6
		c0.3,0.1,0.5,0.4,0.5,0.9L14.7,13.9z"/>
	<path fill="#007DC5" d="M2.7,22.6c0.1,0.5,0.3,0.8,0.7,0.8c0.4,0,3.1-0.2,3.5-0.3c0.4,0,0.6-0.6,0.5-1.2c0-0.6-1.7-21.2-1.7-21.2
		C5.7,0.2,5.4,0.1,5,0.3L0.6,2.8C0.2,3-0.1,3.5,0,4L2.7,22.6z"/>
	<path fill="#007DC5" d="M15.8,13.9c0,0.4,0.2,0.7,0.6,0.5l5.9-2.5c0.4-0.2,0.6-0.6,0.6-1l0.8-10.3c0.1-0.4-0.2-0.7-0.6-0.5
		l-6.9,2.6c-0.3,0.1-0.5,0.4-0.5,0.9L15.8,13.9z"/>
	<path fill="#20C4F4" d="M27.7,22.6c-0.1,0.5-0.3,0.8-0.7,0.8c-0.4,0-3.1-0.2-3.5-0.3c-0.4,0-0.6-0.6-0.5-1.2
		c0.1-0.6,1.7-21.2,1.7-21.2c0.1-0.5,0.4-0.6,0.8-0.4l4.4,2.5C30.3,3,30.5,3.5,30.4,4L27.7,22.6z"/>
	<path fill-rule="evenodd" clip-rule="evenodd" fill="#464547" d="M117,13.5l-3.2,0l0,5.9c0.2,1.7,1.7,3.2,3.1,3.9
		c1.5-0.7,3-2.2,3.2-3.9l0-5.9L117,13.5z M115,13.7h1v1h-1V13.7z M114.9,18l-0.5-0.3l-0.5,0.3v-0.5l0.5-0.3l0.5,0.3V18z M114.9,17.1
		l-0.5-0.3l-0.5,0.3v-0.5l0.5-0.3l0.5,0.3L114.9,17.1z M114.9,16.1l-0.5-0.3l-0.5,0.3v-0.5l0.5-0.3l0.5,0.3V16.1z M116,22.6
		c-0.3-0.2-0.7-0.6-1-0.8l0-6.7l1,0L116,22.6z M116,15l-1,0l0-0.2h1V15z M117.8,18l-0.5-0.3L117,18l-0.4-0.3l-0.5,0.3v-0.5l0.5-0.3
		l0.4,0.3l0.4-0.3l0.5,0.3V18z M117.8,17.1l-0.5-0.3L117,17l-0.4-0.3l-0.5,0.3v-0.5l0.5-0.3l0.4,0.3l0.4-0.3l0.5,0.3L117.8,17.1z
		 M117.8,16.1l-0.5-0.3L117,16l-0.4-0.3l-0.5,0.3v-0.5l0.5-0.3l0.4,0.3l0.4-0.3l0.5,0.3L117.8,16.1z M118.9,21.8
		c-0.2,0.3-0.7,0.7-1,0.8l0-7.5h1L118.9,21.8z M118.9,15l-1,0v-0.2h1V15z M118.9,14.6h-1v-1l1,0V14.6z M120,18l-0.5-0.3L119,18
		l0-0.5l0.5-0.3l0.5,0.3L120,18z M120,17.1l-0.5-0.3l-0.5,0.3v-0.5l0.5-0.3l0.5,0.3V17.1z M120,16.1l-0.5-0.3l-0.5,0.3v-0.5l0.5-0.3
		l0.5,0.3L120,16.1z"/>
</g>
</svg>
