<?xml version="1.0" encoding="utf-8"?>
<!-- Generator: Adobe Illustrator 18.0.0, SVG Export Plug-In . SVG Version: 6.00 Build 0)  -->
<!DOCTYPE svg PUBLIC "-//W3C//DTD SVG 1.1//EN" "http://www.w3.org/Graphics/SVG/1.1/DTD/svg11.dtd">
<svg version="1.1" id="Layer_1" xmlns="http://www.w3.org/2000/svg" xmlns:xlink="http://www.w3.org/1999/xlink" x="0px" y="0px"
	 width="6.3px" height="9.8px" viewBox="0 0 6.3 9.8" enable-background="new 0 0 6.3 9.8" xml:space="preserve">
<g>
	<path fill-rule="evenodd" clip-rule="evenodd" fill="#464547" d="M3.2,0L0,0l0,5.9c0.2,1.7,1.7,3.2,3.1,3.9c1.5-0.7,3-2.2,3.2-3.9
		l0-5.9L3.2,0z M1.2,0.1h1v1h-1V0.1z M1.1,4.5L0.6,4.2L0.1,4.5V4l0.5-0.3L1.1,4V4.5z M1.1,3.5L0.6,3.2L0.1,3.5V3l0.5-0.3L1.1,3
		L1.1,3.5z M1.1,2.5L0.6,2.2L0.1,2.5V2.1l0.5-0.3l0.5,0.3V2.5z M2.2,9.1c-0.3-0.2-0.7-0.6-1-0.8l0-6.7l1,0L2.2,9.1z M2.2,1.5l-1,0
		l0-0.2h1V1.5z M4,4.5L3.5,4.2L3.1,4.4L2.8,4.2L2.3,4.5V4l0.5-0.3L3.1,4l0.4-0.3L4,4V4.5z M4,3.5L3.5,3.2L3.2,3.5L2.8,3.2L2.3,3.5V3
		l0.5-0.3L3.1,3l0.4-0.3L4,3L4,3.5z M4,2.5L3.5,2.2L3.2,2.5L2.8,2.2L2.3,2.5V2.1l0.5-0.3L3.1,2l0.4-0.3L4,2.1L4,2.5z M5.1,8.2
		c-0.2,0.3-0.7,0.7-1,0.8l0-7.5h1L5.1,8.2z M5.1,1.5l-1,0V1.2h1V1.5z M5.1,1.1h-1v-1l1,0V1.1z M6.2,4.5L5.7,4.2L5.2,4.5l0-0.5
		l0.5-0.3L6.2,4L6.2,4.5z M6.2,3.5L5.7,3.2L5.2,3.5V3l0.5-0.3L6.2,3V3.5z M6.2,2.5L5.7,2.2L5.2,2.5V2.1l0.5-0.3l0.5,0.3L6.2,2.5z"/>
</g>
</svg>
