<svg xmlns="http://www.w3.org/2000/svg" xmlns:xlink="http://www.w3.org/1999/xlink" preserveAspectRatio="xMidYMid" width="16" height="16" viewBox="0 0 16 16">
  <defs>
    <style>

      .cls-2 {
        fill: #393933;
      }
    </style>
  </defs>
  <path d="M15.169,14.752 C15.169,14.752 14.190,15.731 14.190,15.731 C13.919,16.001 13.481,16.001 13.211,15.731 C13.211,15.731 8.570,11.087 8.570,11.087 C7.853,11.428 6.703,11.932 5.793,11.932 C2.523,11.932 0.003,8.969 0.003,5.700 C0.003,2.430 2.523,-0.009 5.793,-0.009 C9.062,-0.009 12.025,2.430 12.025,5.700 C12.025,7.055 11.289,8.533 10.576,9.462 C10.576,9.462 15.169,13.773 15.169,13.773 C15.439,14.043 15.439,14.482 15.169,14.752 ZM6.048,1.916 C3.832,1.916 2.036,3.713 2.036,5.928 C2.036,8.144 3.832,9.941 6.048,9.941 C8.264,9.941 10.061,8.144 10.061,5.928 C10.061,3.713 8.264,1.916 6.048,1.916 Z" id="path-1" class="cls-2" fill-rule="evenodd"/>
</svg>
