<svg xmlns="http://www.w3.org/2000/svg" xmlns:xlink="http://www.w3.org/1999/xlink" preserveAspectRatio="xMidYMid" width="214" height="34" viewBox="0 0 214 34">
  <defs>
    <style>

      .cls-2 {
        fill: #000000;
      }
    </style>
  </defs>
  <path d="M211.312,33.722 C211.312,33.722 211.312,29.514 211.312,29.514 C211.312,29.086 211.312,28.341 210.957,27.894 C210.733,27.615 210.379,27.447 209.987,27.447 C209.539,27.447 209.165,27.652 208.941,27.950 C208.587,28.397 208.531,29.049 208.531,29.589 C208.531,29.589 208.531,33.722 208.531,33.722 C208.531,33.722 205.843,33.722 205.843,33.722 C205.843,33.722 205.843,29.403 205.843,29.403 C205.843,28.844 205.824,28.192 205.414,27.783 C205.134,27.503 204.797,27.447 204.518,27.447 C204.163,27.447 203.846,27.540 203.584,27.783 C203.080,28.267 203.061,29.198 203.061,29.477 C203.061,29.477 203.061,33.722 203.061,33.722 C203.061,33.722 200.374,33.722 200.374,33.722 C200.374,33.722 200.374,25.418 200.374,25.418 C200.374,25.418 203.061,25.418 203.061,25.418 C203.061,25.418 203.061,26.386 203.061,26.386 C203.752,25.343 204.760,25.213 205.395,25.213 C205.750,25.213 206.403,25.250 206.963,25.586 C207.392,25.828 207.747,26.237 207.971,26.740 C208.176,26.405 208.494,26.014 209.035,25.679 C209.614,25.325 210.155,25.213 210.808,25.213 C211.816,25.213 212.637,25.511 213.141,25.995 C213.944,26.759 214.000,27.876 214.000,28.472 C214.000,28.472 214.000,33.722 214.000,33.722 C214.000,33.722 211.312,33.722 211.312,33.722 ZM194.007,34.001 C192.980,34.001 191.599,33.853 190.647,32.921 C189.881,32.177 189.732,31.339 189.732,30.426 C189.732,30.426 189.732,25.418 189.732,25.418 C189.732,25.418 192.420,25.418 192.420,25.418 C192.420,25.418 192.420,29.998 192.420,29.998 C192.420,30.371 192.457,30.948 192.887,31.339 C193.074,31.506 193.410,31.730 194.007,31.730 C194.511,31.730 194.903,31.562 195.145,31.339 C195.538,30.967 195.594,30.408 195.594,29.998 C195.594,29.998 195.594,25.418 195.594,25.418 C195.594,25.418 198.282,25.418 198.282,25.418 C198.282,25.418 198.282,30.259 198.282,30.259 C198.282,31.208 198.189,32.102 197.348,32.921 C196.396,33.853 194.996,34.001 194.007,34.001 ZM182.339,31.451 C182.750,31.897 183.310,31.972 183.720,31.972 C184.112,31.972 184.523,31.897 184.803,31.730 C184.840,31.711 185.158,31.506 185.382,31.041 C185.382,31.041 187.921,31.301 187.921,31.301 C187.547,32.475 186.800,33.089 186.315,33.387 C185.512,33.871 184.616,34.001 183.683,34.001 C182.432,34.001 181.331,33.778 180.360,32.810 C179.632,32.083 179.110,30.985 179.110,29.607 C179.110,28.415 179.539,27.187 180.379,26.330 C181.387,25.325 182.638,25.138 183.571,25.138 C184.504,25.138 185.849,25.306 186.875,26.386 C187.865,27.429 188.051,28.732 188.051,29.756 C188.051,29.756 188.051,30.035 188.051,30.035 C188.051,30.035 181.835,30.035 181.835,30.035 C181.835,30.483 182.003,31.078 182.339,31.451 ZM185.569,28.434 C185.550,28.360 185.419,27.838 185.027,27.466 C184.728,27.187 184.299,27.001 183.758,27.001 C183.067,27.001 182.657,27.280 182.395,27.540 C182.190,27.764 182.003,28.062 181.928,28.434 C181.928,28.434 185.569,28.434 185.569,28.434 ZM175.170,28.341 C175.170,28.341 175.880,28.565 175.880,28.565 C176.346,28.713 176.832,28.900 177.261,29.291 C177.746,29.737 177.914,30.240 177.914,30.873 C177.914,31.972 177.429,32.679 177.056,33.052 C176.234,33.871 175.226,34.001 174.349,34.001 C173.229,34.001 172.015,33.759 170.933,32.810 C170.933,32.810 172.072,31.003 172.072,31.003 C172.333,31.227 172.706,31.487 172.986,31.618 C173.360,31.804 173.752,31.879 174.107,31.879 C174.274,31.879 174.704,31.879 174.946,31.692 C175.114,31.562 175.226,31.358 175.226,31.153 C175.226,31.003 175.170,30.817 174.928,30.669 C174.741,30.557 174.498,30.483 174.107,30.371 C174.107,30.371 173.434,30.166 173.434,30.166 C172.949,30.017 172.445,29.756 172.090,29.403 C171.698,28.993 171.493,28.527 171.493,27.894 C171.493,27.094 171.810,26.424 172.296,25.977 C173.042,25.288 174.050,25.138 174.815,25.138 C176.048,25.138 176.906,25.455 177.579,25.846 C177.579,25.846 176.514,27.540 176.514,27.540 C176.103,27.299 175.562,27.075 175.040,27.075 C174.760,27.075 174.442,27.149 174.274,27.317 C174.181,27.411 174.107,27.559 174.107,27.690 C174.107,27.876 174.237,27.988 174.368,28.062 C174.554,28.174 174.834,28.229 175.170,28.341 ZM165.052,34.001 C164.025,34.001 162.644,33.853 161.692,32.921 C160.926,32.177 160.777,31.339 160.777,30.426 C160.777,30.426 160.777,25.418 160.777,25.418 C160.777,25.418 163.465,25.418 163.465,25.418 C163.465,25.418 163.465,29.998 163.465,29.998 C163.465,30.371 163.502,30.948 163.932,31.339 C164.118,31.506 164.455,31.730 165.052,31.730 C165.556,31.730 165.948,31.562 166.190,31.339 C166.582,30.967 166.639,30.408 166.639,29.998 C166.639,29.998 166.639,25.418 166.639,25.418 C166.639,25.418 169.327,25.418 169.327,25.418 C169.327,25.418 169.327,30.259 169.327,30.259 C169.327,31.208 169.233,32.102 168.393,32.921 C167.441,33.853 166.041,34.001 165.052,34.001 ZM155.082,26.312 C155.082,26.312 151.965,33.722 151.965,33.722 C151.965,33.722 150.957,33.722 150.957,33.722 C150.957,33.722 147.839,26.312 147.839,26.312 C147.839,26.312 146.850,33.722 146.850,33.722 C146.850,33.722 143.975,33.722 143.975,33.722 C143.975,33.722 145.972,21.303 145.972,21.303 C145.972,21.303 148.362,21.303 148.362,21.303 C148.362,21.303 151.461,28.732 151.461,28.732 C151.461,28.732 154.559,21.303 154.559,21.303 C154.559,21.303 156.949,21.303 156.949,21.303 C156.949,21.303 158.946,33.722 158.946,33.722 C158.946,33.722 156.071,33.722 156.071,33.722 C156.071,33.722 155.082,26.312 155.082,26.312 ZM132.494,31.451 C132.904,31.897 133.464,31.972 133.875,31.972 C134.267,31.972 134.677,31.897 134.957,31.730 C134.995,31.711 135.312,31.506 135.537,31.041 C135.537,31.041 138.075,31.301 138.075,31.301 C137.702,32.475 136.955,33.089 136.470,33.387 C135.667,33.871 134.771,34.001 133.838,34.001 C132.587,34.001 131.485,33.778 130.515,32.810 C129.787,32.083 129.264,30.985 129.264,29.607 C129.264,28.415 129.693,27.187 130.534,26.330 C131.542,25.325 132.792,25.138 133.726,25.138 C134.659,25.138 136.003,25.306 137.030,26.386 C138.019,27.429 138.206,28.732 138.206,29.756 C138.206,29.756 138.206,30.035 138.206,30.035 C138.206,30.035 131.989,30.035 131.989,30.035 C131.989,30.483 132.158,31.078 132.494,31.451 ZM135.723,28.434 C135.704,28.360 135.574,27.838 135.182,27.466 C134.883,27.187 134.453,27.001 133.912,27.001 C133.222,27.001 132.811,27.280 132.550,27.540 C132.344,27.764 132.158,28.062 132.083,28.434 C132.083,28.434 135.723,28.434 135.723,28.434 ZM128.125,13.568 C128.125,13.568 125.027,10.048 125.027,10.048 C125.027,10.048 124.691,10.384 124.691,10.384 C124.691,10.384 124.691,13.568 124.691,13.568 C124.691,13.568 123.347,13.568 123.347,13.568 C123.347,13.568 123.347,-0.005 123.347,-0.005 C123.347,-0.005 124.691,-0.005 124.691,-0.005 C124.691,-0.005 124.691,8.708 124.691,8.708 C124.691,8.708 127.528,5.841 127.528,5.841 C127.528,5.841 129.283,5.841 129.283,5.841 C129.283,5.841 125.960,9.155 125.960,9.155 C125.960,9.155 129.881,13.568 129.881,13.568 C129.881,13.568 128.125,13.568 128.125,13.568 ZM124.372,25.213 C125.381,25.213 126.202,25.511 126.706,25.995 C127.508,26.759 127.565,27.876 127.565,28.472 C127.565,28.472 127.565,33.722 127.565,33.722 C127.565,33.722 124.877,33.722 124.877,33.722 C124.877,33.722 124.877,29.514 124.877,29.514 C124.877,29.086 124.877,28.341 124.522,27.894 C124.297,27.615 123.943,27.447 123.551,27.447 C123.103,27.447 122.730,27.652 122.505,27.950 C122.151,28.397 122.095,29.049 122.095,29.589 C122.095,29.589 122.095,33.722 122.095,33.722 C122.095,33.722 119.407,33.722 119.407,33.722 C119.407,33.722 119.407,29.403 119.407,29.403 C119.407,28.844 119.388,28.192 118.978,27.783 C118.698,27.503 118.362,27.447 118.082,27.447 C117.727,27.447 117.410,27.540 117.148,27.783 C116.644,28.267 116.625,29.198 116.625,29.477 C116.625,29.477 116.625,33.722 116.625,33.722 C116.625,33.722 113.937,33.722 113.937,33.722 C113.937,33.722 113.937,25.418 113.937,25.418 C113.937,25.418 116.625,25.418 116.625,25.418 C116.625,25.418 116.625,26.386 116.625,26.386 C117.316,25.343 118.324,25.213 118.959,25.213 C119.314,25.213 119.967,25.250 120.527,25.586 C120.956,25.828 121.311,26.237 121.535,26.740 C121.740,26.405 122.058,26.014 122.599,25.679 C123.178,25.325 123.719,25.213 124.372,25.213 ZM120.808,13.568 C120.808,13.568 119.464,13.568 119.464,13.568 C119.464,13.568 119.464,5.841 119.464,5.841 C119.464,5.841 120.808,5.841 120.808,5.841 C120.808,5.841 120.808,13.568 120.808,13.568 ZM119.165,3.997 C119.165,3.997 120.902,1.149 120.902,1.149 C120.902,1.149 122.339,1.651 122.339,1.651 C122.339,1.651 120.043,4.388 120.043,4.388 C120.043,4.388 119.165,3.997 119.165,3.997 ZM110.429,5.841 C110.429,5.841 111.922,5.841 111.922,5.841 C111.922,5.841 114.236,11.054 114.236,11.054 C114.236,11.054 116.551,5.841 116.551,5.841 C116.551,5.841 118.045,5.841 118.045,5.841 C118.045,5.841 114.236,14.070 114.236,14.070 C114.236,14.070 110.429,5.841 110.429,5.841 ZM111.884,21.880 C111.884,22.755 111.193,23.445 110.316,23.445 C109.439,23.445 108.748,22.755 108.748,21.880 C108.748,21.005 109.439,20.317 110.316,20.317 C111.193,20.317 111.884,21.005 111.884,21.880 ZM107.665,12.488 C107.217,13.065 106.377,13.791 105.015,13.791 C103.054,13.791 101.244,12.413 101.244,9.695 C101.244,7.032 103.036,5.655 105.015,5.655 C106.508,5.655 107.310,6.474 107.665,6.939 C107.665,6.939 107.665,5.841 107.665,5.841 C107.665,5.841 109.009,5.841 109.009,5.841 C109.009,5.841 109.009,13.568 109.009,13.568 C109.009,13.568 107.665,13.568 107.665,13.568 C107.665,13.568 107.665,12.488 107.665,12.488 ZM105.164,6.846 C103.838,6.846 102.625,7.814 102.625,9.695 C102.625,11.352 103.558,12.599 105.164,12.599 C106.807,12.599 107.740,11.240 107.740,9.714 C107.740,7.721 106.358,6.846 105.164,6.846 ZM99.582,23.445 C98.704,23.445 98.014,22.755 98.014,21.880 C98.014,21.005 98.704,20.317 99.582,20.317 C100.459,20.317 101.150,21.005 101.150,21.880 C101.150,22.755 100.459,23.445 99.582,23.445 ZM98.518,3.867 C97.995,3.867 97.566,3.439 97.566,2.917 C97.566,2.396 97.995,1.968 98.518,1.968 C99.041,1.968 99.470,2.396 99.470,2.917 C99.470,3.439 99.041,3.867 98.518,3.867 ZM95.568,27.559 C94.989,27.559 94.560,27.764 94.224,28.118 C93.626,28.751 93.570,29.644 93.570,30.352 C93.570,30.352 93.570,33.722 93.570,33.722 C93.570,33.722 90.882,33.722 90.882,33.722 C90.882,33.722 90.882,25.418 90.882,25.418 C90.882,25.418 93.570,25.418 93.570,25.418 C93.570,25.418 93.570,26.721 93.570,26.721 C93.813,26.256 94.187,25.828 94.616,25.567 C95.064,25.288 95.531,25.213 96.053,25.213 C96.389,25.213 96.632,25.250 96.931,25.343 C96.931,25.343 96.781,27.857 96.781,27.857 C96.427,27.671 96.035,27.559 95.568,27.559 ZM94.747,13.568 C94.747,13.568 91.648,10.048 91.648,10.048 C91.648,10.048 91.312,10.384 91.312,10.384 C91.312,10.384 91.312,13.568 91.312,13.568 C91.312,13.568 89.968,13.568 89.968,13.568 C89.968,13.568 89.968,-0.005 89.968,-0.005 C89.968,-0.005 91.312,-0.005 91.312,-0.005 C91.312,-0.005 91.312,8.708 91.312,8.708 C91.312,8.708 94.149,5.841 94.149,5.841 C94.149,5.841 95.904,5.841 95.904,5.841 C95.904,5.841 92.581,9.155 92.581,9.155 C92.581,9.155 96.501,13.568 96.501,13.568 C96.501,13.568 94.747,13.568 94.747,13.568 ZM86.103,32.717 C85.375,33.834 84.329,34.001 83.639,34.001 C82.444,34.001 81.436,33.703 80.521,32.735 C79.644,31.804 79.308,30.724 79.308,29.626 C79.308,28.229 79.831,27.038 80.596,26.274 C81.324,25.548 82.332,25.138 83.489,25.138 C84.199,25.138 85.337,25.306 86.103,26.349 C86.103,26.349 86.103,25.418 86.103,25.418 C86.103,25.418 88.791,25.418 88.791,25.418 C88.791,25.418 88.791,33.722 88.791,33.722 C88.791,33.722 86.103,33.722 86.103,33.722 C86.103,33.722 86.103,32.717 86.103,32.717 ZM85.655,28.024 C85.244,27.633 84.647,27.447 84.161,27.447 C83.583,27.447 83.041,27.690 82.687,28.043 C82.407,28.322 82.071,28.807 82.071,29.551 C82.071,30.296 82.388,30.780 82.631,31.041 C83.004,31.432 83.583,31.692 84.217,31.692 C84.759,31.692 85.263,31.469 85.617,31.115 C85.972,30.780 86.271,30.259 86.271,29.551 C86.271,28.956 86.047,28.397 85.655,28.024 ZM81.362,17.850 C81.362,17.850 83.825,12.841 83.825,12.841 C83.825,12.841 80.260,5.841 80.260,5.841 C80.260,5.841 81.791,5.841 81.791,5.841 C81.791,5.841 84.535,11.370 84.535,11.370 C84.535,11.370 87.055,5.841 87.055,5.841 C87.055,5.841 88.549,5.841 88.549,5.841 C88.549,5.841 82.855,17.850 82.855,17.850 C82.855,17.850 81.362,17.850 81.362,17.850 ZM75.761,12.599 C76.395,12.599 76.899,12.413 77.347,12.041 C77.702,11.743 77.982,11.352 78.150,10.979 C78.150,10.979 79.270,11.594 79.270,11.594 C79.046,12.022 78.710,12.488 78.318,12.841 C77.609,13.474 76.731,13.791 75.742,13.791 C73.875,13.791 71.915,12.618 71.915,9.750 C71.915,7.442 73.334,5.655 75.667,5.655 C77.180,5.655 78.131,6.399 78.598,7.069 C79.083,7.758 79.364,8.950 79.326,9.974 C79.326,9.974 73.297,9.974 73.297,9.974 C73.315,11.575 74.417,12.599 75.761,12.599 ZM77.945,8.857 C77.721,7.647 76.806,6.846 75.667,6.846 C74.529,6.846 73.596,7.703 73.390,8.857 C73.390,8.857 77.945,8.857 77.945,8.857 ZM69.264,13.568 C69.264,13.568 65.474,8.131 65.474,8.131 C65.474,8.131 65.120,8.131 65.120,8.131 C65.120,8.131 65.120,13.568 65.120,13.568 C65.120,13.568 63.738,13.568 63.738,13.568 C63.738,13.568 63.738,1.149 63.738,1.149 C63.738,1.149 65.736,1.149 65.736,1.149 C66.576,1.149 67.826,1.204 68.760,1.838 C69.488,2.322 70.122,3.272 70.122,4.593 C70.122,6.492 68.872,7.889 66.986,8.019 C66.986,8.019 70.944,13.568 70.944,13.568 C70.944,13.568 69.264,13.568 69.264,13.568 ZM68.741,4.631 C68.741,3.942 68.536,3.253 67.752,2.806 C67.192,2.490 66.557,2.452 65.960,2.452 C65.960,2.452 65.120,2.452 65.120,2.452 C65.120,2.452 65.120,6.902 65.120,6.902 C65.120,6.902 65.997,6.902 65.997,6.902 C67.714,6.902 68.741,6.083 68.741,4.631 ZM67.304,21.303 C67.304,21.303 70.402,28.732 70.402,28.732 C70.402,28.732 73.501,21.303 73.501,21.303 C73.501,21.303 75.890,21.303 75.890,21.303 C75.890,21.303 77.888,33.722 77.888,33.722 C77.888,33.722 75.013,33.722 75.013,33.722 C75.013,33.722 74.024,26.312 74.024,26.312 C74.024,26.312 70.906,33.722 70.906,33.722 C70.906,33.722 69.898,33.722 69.898,33.722 C69.898,33.722 66.781,26.312 66.781,26.312 C66.781,26.312 65.791,33.722 65.791,33.722 C65.791,33.722 62.917,33.722 62.917,33.722 C62.917,33.722 64.914,21.303 64.914,21.303 C64.914,21.303 67.304,21.303 67.304,21.303 ZM51.468,1.404 C51.468,1.404 52.594,1.404 52.594,1.404 C52.594,1.404 52.594,33.729 52.594,33.729 C52.594,33.729 51.468,33.729 51.468,33.729 C51.468,33.729 51.468,1.404 51.468,1.404 ZM27.887,9.962 C27.887,9.962 19.720,18.107 19.720,18.107 C19.720,18.107 15.426,13.824 15.426,13.824 C15.426,13.824 27.887,1.394 27.887,1.394 C27.887,1.394 40.348,13.823 40.348,13.823 C40.348,13.823 36.053,18.107 36.053,18.107 C36.053,18.107 27.887,9.962 27.887,9.962 ZM20.627,33.728 C20.627,33.728 12.461,25.583 12.461,25.583 C12.461,25.583 4.294,33.728 4.294,33.728 C4.294,33.728 -0.001,29.444 -0.001,29.444 C-0.001,29.444 12.461,17.016 12.461,17.016 C12.461,17.016 24.921,29.445 24.921,29.445 C24.921,29.445 20.627,33.728 20.627,33.728 ZM99.190,17.850 C99.190,17.850 97.846,17.850 97.846,17.850 C97.846,17.850 97.846,5.841 97.846,5.841 C97.846,5.841 99.190,5.841 99.190,5.841 C99.190,5.841 99.190,17.850 99.190,17.850 ZM100.926,33.722 C100.926,33.722 98.238,33.722 98.238,33.722 C98.238,33.722 98.238,25.418 98.238,25.418 C98.238,25.418 100.926,25.418 100.926,25.418 C100.926,25.418 100.926,33.722 100.926,33.722 ZM103.278,22.737 C103.278,22.737 105.966,22.737 105.966,22.737 C105.966,22.737 105.966,25.418 105.966,25.418 C105.966,25.418 107.627,25.418 107.627,25.418 C107.627,25.418 107.627,27.578 107.627,27.578 C107.627,27.578 105.966,27.578 105.966,27.578 C105.966,27.578 105.966,33.722 105.966,33.722 C105.966,33.722 103.278,33.722 103.278,33.722 C103.278,33.722 103.278,27.578 103.278,27.578 C103.278,27.578 102.344,27.578 102.344,27.578 C102.344,27.578 102.344,25.418 102.344,25.418 C102.344,25.418 103.278,25.418 103.278,25.418 C103.278,25.418 103.278,22.737 103.278,22.737 ZM111.660,33.722 C111.660,33.722 108.972,33.722 108.972,33.722 C108.972,33.722 108.972,25.418 108.972,25.418 C108.972,25.418 111.660,25.418 111.660,25.418 C111.660,25.418 111.660,33.722 111.660,33.722 Z" id="path-1" class="cls-2" fill-rule="evenodd"/>
</svg>
