<svg xmlns="http://www.w3.org/2000/svg" xmlns:xlink="http://www.w3.org/1999/xlink" preserveAspectRatio="xMidYMid" width="271" height="38" viewBox="0 0 271 38">
  <defs>
    <style>

      .cls-2 {
        fill: #000000;
      }
    </style>
  </defs>
  <path d="M264.292,38.001 C264.292,38.001 261.265,38.001 261.265,38.001 C261.265,38.001 264.199,32.675 264.199,32.675 C264.199,32.675 260.219,25.429 260.219,25.429 C260.219,25.429 263.320,25.429 263.320,25.429 C263.320,25.429 265.675,29.936 265.675,29.936 C265.675,29.936 267.973,25.429 267.973,25.429 C267.973,25.429 271.000,25.429 271.000,25.429 C271.000,25.429 264.292,38.001 264.292,38.001 ZM256.162,29.471 C256.162,28.893 256.144,28.223 255.714,27.813 C255.471,27.571 255.060,27.440 254.668,27.440 C254.088,27.440 253.752,27.701 253.603,27.850 C253.061,28.372 253.042,29.173 253.042,29.583 C253.042,29.583 253.042,33.736 253.042,33.736 C253.042,33.736 250.352,33.736 250.352,33.736 C250.352,33.736 250.352,20.158 250.352,20.158 C250.352,20.158 253.042,20.158 253.042,20.158 C253.042,20.158 253.042,26.416 253.042,26.416 C253.378,26.006 253.734,25.727 254.051,25.559 C254.612,25.261 255.079,25.206 255.677,25.206 C256.331,25.206 257.302,25.299 258.031,26.043 C258.797,26.807 258.853,27.831 258.853,28.465 C258.853,28.465 258.853,33.736 258.853,33.736 C258.853,33.736 256.162,33.736 256.162,33.736 C256.162,33.736 256.162,29.471 256.162,29.471 ZM244.446,34.015 C242.783,34.015 242.073,33.178 241.793,32.786 C241.793,32.786 241.793,38.001 241.793,38.001 C241.793,38.001 239.102,38.001 239.102,38.001 C239.102,38.001 239.102,25.429 239.102,25.429 C239.102,25.429 241.793,25.429 241.793,25.429 C241.793,25.429 241.793,26.416 241.793,26.416 C242.671,25.280 243.755,25.149 244.390,25.149 C245.884,25.149 246.819,25.802 247.342,26.323 C248.089,27.068 248.594,28.204 248.594,29.564 C248.594,30.998 248.089,32.079 247.268,32.898 C246.445,33.717 245.548,34.015 244.446,34.015 ZM245.193,28.036 C244.801,27.664 244.278,27.459 243.736,27.459 C242.989,27.459 242.502,27.813 242.241,28.074 C241.811,28.502 241.606,29.098 241.606,29.601 C241.606,30.122 241.811,30.663 242.203,31.073 C242.596,31.464 243.157,31.706 243.736,31.706 C244.240,31.706 244.782,31.501 245.175,31.128 C245.604,30.718 245.828,30.086 245.828,29.545 C245.828,28.930 245.567,28.391 245.193,28.036 ZM234.317,32.730 C233.589,33.848 232.542,34.015 231.851,34.015 C230.655,34.015 229.646,33.717 228.730,32.749 C227.852,31.817 227.516,30.737 227.516,29.638 C227.516,28.241 228.039,27.049 228.806,26.286 C229.534,25.559 230.543,25.149 231.702,25.149 C232.412,25.149 233.551,25.317 234.317,26.360 C234.317,26.360 234.317,25.429 234.317,25.429 C234.317,25.429 237.008,25.429 237.008,25.429 C237.008,25.429 237.008,33.736 237.008,33.736 C237.008,33.736 234.317,33.736 234.317,33.736 C234.317,33.736 234.317,32.730 234.317,32.730 ZM233.869,28.036 C233.458,27.645 232.860,27.459 232.374,27.459 C231.795,27.459 231.253,27.701 230.898,28.055 C230.618,28.334 230.281,28.819 230.281,29.564 C230.281,30.309 230.599,30.793 230.842,31.054 C231.216,31.445 231.795,31.706 232.430,31.706 C232.972,31.706 233.477,31.483 233.832,31.128 C234.187,30.793 234.486,30.272 234.486,29.564 C234.486,28.968 234.261,28.409 233.869,28.036 ZM225.721,27.571 C225.142,27.571 224.713,27.776 224.376,28.129 C223.778,28.763 223.722,29.657 223.722,30.365 C223.722,30.365 223.722,33.736 223.722,33.736 C223.722,33.736 221.032,33.736 221.032,33.736 C221.032,33.736 221.032,25.429 221.032,25.429 C221.032,25.429 223.722,25.429 223.722,25.429 C223.722,25.429 223.722,26.733 223.722,26.733 C223.965,26.267 224.339,25.838 224.769,25.578 C225.217,25.299 225.684,25.224 226.208,25.224 C226.544,25.224 226.787,25.261 227.086,25.354 C227.086,25.354 226.936,27.869 226.936,27.869 C226.581,27.683 226.189,27.571 225.721,27.571 ZM214.398,38.001 C213.296,38.001 211.969,37.834 210.923,36.940 C210.400,36.493 209.858,35.785 209.671,34.742 C209.671,34.742 212.604,34.742 212.604,34.742 C212.716,35.171 212.978,35.412 213.202,35.562 C213.520,35.767 213.969,35.841 214.361,35.841 C215.127,35.841 215.519,35.562 215.706,35.394 C216.229,34.891 216.248,34.015 216.248,33.662 C216.248,33.662 216.248,32.711 216.248,32.711 C215.930,33.233 215.295,33.960 213.763,33.960 C212.474,33.960 211.483,33.550 210.717,32.786 C210.044,32.097 209.503,31.091 209.503,29.657 C209.503,28.241 210.026,27.068 210.736,26.341 C211.240,25.820 212.212,25.149 213.763,25.149 C215.277,25.149 215.949,25.950 216.248,26.398 C216.248,26.398 216.248,25.429 216.248,25.429 C216.248,25.429 218.939,25.429 218.939,25.429 C218.939,25.429 218.939,33.233 218.939,33.233 C218.939,34.407 218.883,35.729 217.911,36.772 C216.884,37.871 215.314,38.001 214.398,38.001 ZM215.837,27.999 C215.445,27.645 214.865,27.478 214.380,27.478 C213.782,27.478 213.240,27.701 212.904,28.018 C212.493,28.409 212.268,29.061 212.268,29.564 C212.268,30.104 212.474,30.663 212.847,31.054 C213.221,31.445 213.725,31.650 214.361,31.650 C215.071,31.650 215.538,31.371 215.818,31.110 C216.229,30.718 216.472,30.141 216.472,29.526 C216.472,28.875 216.192,28.334 215.837,27.999 ZM203.335,34.015 C201.710,34.015 200.439,33.419 199.691,32.675 C198.851,31.836 198.440,30.644 198.440,29.583 C198.440,28.521 198.851,27.329 199.691,26.491 C200.439,25.745 201.710,25.149 203.335,25.149 C204.961,25.149 206.231,25.745 206.979,26.491 C207.820,27.329 208.230,28.521 208.230,29.583 C208.230,30.644 207.820,31.836 206.979,32.675 C206.231,33.419 204.961,34.015 203.335,34.015 ZM204.848,28.018 C204.456,27.626 203.952,27.422 203.335,27.422 C202.719,27.422 202.214,27.626 201.822,28.018 C201.429,28.409 201.205,28.912 201.205,29.583 C201.205,30.346 201.504,30.830 201.822,31.147 C202.158,31.483 202.643,31.743 203.354,31.743 C203.952,31.743 204.456,31.538 204.848,31.147 C205.241,30.756 205.465,30.253 205.465,29.583 C205.465,28.912 205.241,28.409 204.848,28.018 ZM196.029,33.736 C196.029,33.736 193.338,33.736 193.338,33.736 C193.338,33.736 193.338,27.590 193.338,27.590 C193.338,27.590 192.404,27.590 192.404,27.590 C192.404,27.590 192.404,25.429 192.404,25.429 C192.404,25.429 193.338,25.429 193.338,25.429 C193.338,25.429 193.338,22.747 193.338,22.747 C193.338,22.747 196.029,22.747 196.029,22.747 C196.029,22.747 196.029,25.429 196.029,25.429 C196.029,25.429 197.691,25.429 197.691,25.429 C197.691,25.429 197.691,27.590 197.691,27.590 C197.691,27.590 196.029,27.590 196.029,27.590 C196.029,27.590 196.029,33.736 196.029,33.736 ZM186.685,34.015 C185.060,34.015 183.790,33.419 183.042,32.675 C182.201,31.836 181.790,30.644 181.790,29.583 C181.790,28.521 182.201,27.329 183.042,26.491 C183.790,25.745 185.060,25.149 186.685,25.149 C188.311,25.149 189.582,25.745 190.329,26.491 C191.170,27.329 191.581,28.521 191.581,29.583 C191.581,30.644 191.170,31.836 190.329,32.675 C189.582,33.419 188.311,34.015 186.685,34.015 ZM188.199,28.018 C187.806,27.626 187.302,27.422 186.685,27.422 C186.069,27.422 185.565,27.626 185.172,28.018 C184.780,28.409 184.556,28.912 184.556,29.583 C184.556,30.346 184.854,30.830 185.172,31.147 C185.508,31.483 185.994,31.743 186.704,31.743 C187.302,31.743 187.806,31.538 188.199,31.147 C188.591,30.756 188.816,30.253 188.816,29.583 C188.816,28.912 188.591,28.409 188.199,28.018 ZM177.621,29.471 C177.621,28.893 177.603,28.223 177.173,27.813 C176.930,27.571 176.519,27.440 176.127,27.440 C175.547,27.440 175.211,27.701 175.062,27.850 C174.520,28.372 174.501,29.173 174.501,29.583 C174.501,29.583 174.501,33.736 174.501,33.736 C174.501,33.736 171.811,33.736 171.811,33.736 C171.811,33.736 171.811,20.158 171.811,20.158 C171.811,20.158 174.501,20.158 174.501,20.158 C174.501,20.158 174.501,26.416 174.501,26.416 C174.837,26.006 175.193,25.727 175.510,25.559 C176.071,25.261 176.538,25.206 177.136,25.206 C177.790,25.206 178.761,25.299 179.490,26.043 C180.256,26.807 180.312,27.831 180.312,28.465 C180.312,28.465 180.312,33.736 180.312,33.736 C180.312,33.736 177.621,33.736 177.621,33.736 C177.621,33.736 177.621,29.471 177.621,29.471 ZM165.999,29.378 C165.999,29.378 164.242,29.378 164.242,29.378 C164.242,29.378 164.242,33.736 164.242,33.736 C164.242,33.736 161.365,33.736 161.365,33.736 C161.365,33.736 161.365,21.313 161.365,21.313 C161.365,21.313 165.756,21.313 165.756,21.313 C166.840,21.313 168.035,21.462 169.026,22.337 C170.091,23.268 170.240,24.498 170.240,25.354 C170.240,26.919 169.642,27.795 169.175,28.279 C168.185,29.285 166.877,29.378 165.999,29.378 ZM166.821,24.125 C166.391,23.715 165.775,23.659 165.214,23.659 C165.214,23.659 164.242,23.659 164.242,23.659 C164.242,23.659 164.242,27.030 164.242,27.030 C164.242,27.030 165.270,27.030 165.270,27.030 C165.662,27.030 166.354,27.012 166.821,26.565 C167.083,26.304 167.288,25.876 167.288,25.336 C167.288,24.814 167.101,24.386 166.821,24.125 ZM153.516,33.736 C153.516,33.736 150.826,33.736 150.826,33.736 C150.826,33.736 150.826,27.590 150.826,27.590 C150.826,27.590 149.854,27.590 149.854,27.590 C149.854,27.590 149.854,25.429 149.854,25.429 C149.854,25.429 150.826,25.429 150.826,25.429 C150.826,25.429 150.826,23.790 150.826,23.790 C150.826,22.858 150.919,21.797 151.760,20.903 C152.302,20.325 153.068,19.953 154.095,19.953 C154.693,19.953 155.180,20.065 155.628,20.232 C155.628,20.232 155.628,22.579 155.628,22.579 C155.329,22.393 154.936,22.262 154.600,22.262 C154.189,22.262 153.927,22.449 153.815,22.598 C153.516,22.989 153.516,23.641 153.516,24.032 C153.516,24.032 153.516,25.429 153.516,25.429 C153.516,25.429 155.646,25.429 155.646,25.429 C155.646,25.429 155.646,27.590 155.646,27.590 C155.646,27.590 153.516,27.590 153.516,27.590 C153.516,27.590 153.516,33.736 153.516,33.736 ZM144.023,34.015 C142.398,34.015 141.127,33.419 140.380,32.675 C139.539,31.836 139.128,30.644 139.128,29.583 C139.128,28.521 139.539,27.329 140.380,26.491 C141.127,25.745 142.398,25.149 144.023,25.149 C145.649,25.149 146.919,25.745 147.667,26.491 C148.507,27.329 148.919,28.521 148.919,29.583 C148.919,30.644 148.507,31.836 147.667,32.675 C146.919,33.419 145.649,34.015 144.023,34.015 ZM145.537,28.018 C145.144,27.626 144.640,27.422 144.023,27.422 C143.407,27.422 142.902,27.626 142.510,28.018 C142.118,28.409 141.893,28.912 141.893,29.583 C141.893,30.346 142.192,30.830 142.510,31.147 C142.846,31.483 143.332,31.743 144.042,31.743 C144.640,31.743 145.144,31.538 145.537,31.147 C145.929,30.756 146.153,30.253 146.153,29.583 C146.153,28.912 145.929,28.409 145.537,28.018 ZM130.382,29.526 C130.382,29.098 130.382,28.353 130.027,27.906 C129.802,27.626 129.447,27.459 129.055,27.459 C128.606,27.459 128.233,27.664 128.008,27.962 C127.654,28.409 127.598,29.061 127.598,29.601 C127.598,29.601 127.598,33.736 127.598,33.736 C127.598,33.736 124.907,33.736 124.907,33.736 C124.907,33.736 124.907,29.415 124.907,29.415 C124.907,28.856 124.888,28.204 124.477,27.795 C124.197,27.515 123.861,27.459 123.580,27.459 C123.225,27.459 122.908,27.552 122.646,27.795 C122.141,28.279 122.123,29.210 122.123,29.490 C122.123,29.490 122.123,33.736 122.123,33.736 C122.123,33.736 119.432,33.736 119.432,33.736 C119.432,33.736 119.432,25.429 119.432,25.429 C119.432,25.429 122.123,25.429 122.123,25.429 C122.123,25.429 122.123,26.398 122.123,26.398 C122.814,25.354 123.823,25.224 124.458,25.224 C124.814,25.224 125.468,25.261 126.028,25.597 C126.458,25.838 126.813,26.248 127.037,26.751 C127.243,26.416 127.560,26.025 128.102,25.690 C128.682,25.336 129.223,25.224 129.877,25.224 C130.886,25.224 131.708,25.522 132.213,26.006 C133.016,26.770 133.072,27.888 133.072,28.484 C133.072,28.484 133.072,33.736 133.072,33.736 C133.072,33.736 130.382,33.736 130.382,33.736 C130.382,33.736 130.382,29.526 130.382,29.526 ZM128.251,13.574 C128.251,13.574 125.149,10.053 125.149,10.053 C125.149,10.053 124.813,10.389 124.813,10.389 C124.813,10.389 124.813,13.574 124.813,13.574 C124.813,13.574 123.468,13.574 123.468,13.574 C123.468,13.574 123.468,-0.004 123.468,-0.004 C123.468,-0.004 124.813,-0.004 124.813,-0.004 C124.813,-0.004 124.813,8.713 124.813,8.713 C124.813,8.713 127.653,5.844 127.653,5.844 C127.653,5.844 129.410,5.844 129.410,5.844 C129.410,5.844 126.084,9.159 126.084,9.159 C126.084,9.159 130.008,13.574 130.008,13.574 C130.008,13.574 128.251,13.574 128.251,13.574 ZM120.927,13.574 C120.927,13.574 119.581,13.574 119.581,13.574 C119.581,13.574 119.581,5.844 119.581,5.844 C119.581,5.844 120.927,5.844 120.927,5.844 C120.927,5.844 120.927,13.574 120.927,13.574 ZM119.282,4.000 C119.282,4.000 121.020,1.150 121.020,1.150 C121.020,1.150 122.459,1.653 122.459,1.653 C122.459,1.653 120.160,4.391 120.160,4.391 C120.160,4.391 119.282,4.000 119.282,4.000 ZM110.537,5.844 C110.537,5.844 112.032,5.844 112.032,5.844 C112.032,5.844 114.349,11.059 114.349,11.059 C114.349,11.059 116.666,5.844 116.666,5.844 C116.666,5.844 118.160,5.844 118.160,5.844 C118.160,5.844 114.349,14.077 114.349,14.077 C114.349,14.077 110.537,5.844 110.537,5.844 ZM107.771,12.494 C107.322,13.071 106.482,13.798 105.118,13.798 C103.156,13.798 101.343,12.419 101.343,9.700 C101.343,7.036 103.137,5.658 105.118,5.658 C106.613,5.658 107.416,6.477 107.771,6.943 C107.771,6.943 107.771,5.844 107.771,5.844 C107.771,5.844 109.116,5.844 109.116,5.844 C109.116,5.844 109.116,13.574 109.116,13.574 C109.116,13.574 107.771,13.574 107.771,13.574 C107.771,13.574 107.771,12.494 107.771,12.494 ZM105.267,6.850 C103.940,6.850 102.726,7.818 102.726,9.700 C102.726,11.357 103.660,12.605 105.267,12.605 C106.912,12.605 107.846,11.245 107.846,9.718 C107.846,7.725 106.463,6.850 105.267,6.850 ZM98.615,3.870 C98.092,3.870 97.662,3.441 97.662,2.920 C97.662,2.399 98.092,1.970 98.615,1.970 C99.138,1.970 99.568,2.399 99.568,2.920 C99.568,3.441 99.138,3.870 98.615,3.870 ZM94.205,28.353 C94.205,28.353 94.914,28.577 94.914,28.577 C95.382,28.725 95.868,28.912 96.297,29.303 C96.783,29.750 96.951,30.253 96.951,30.886 C96.951,31.985 96.465,32.693 96.092,33.066 C95.270,33.885 94.261,34.015 93.382,34.015 C92.261,34.015 91.047,33.774 89.963,32.823 C89.963,32.823 91.103,31.017 91.103,31.017 C91.365,31.240 91.738,31.501 92.018,31.631 C92.392,31.817 92.785,31.892 93.140,31.892 C93.308,31.892 93.737,31.892 93.980,31.706 C94.149,31.576 94.261,31.371 94.261,31.166 C94.261,31.017 94.205,30.830 93.962,30.682 C93.775,30.570 93.532,30.495 93.140,30.384 C93.140,30.384 92.467,30.179 92.467,30.179 C91.981,30.029 91.476,29.769 91.121,29.415 C90.729,29.005 90.523,28.539 90.523,27.906 C90.523,27.105 90.841,26.434 91.327,25.988 C92.074,25.299 93.083,25.149 93.850,25.149 C95.083,25.149 95.942,25.466 96.615,25.857 C96.615,25.857 95.550,27.552 95.550,27.552 C95.139,27.310 94.597,27.087 94.074,27.087 C93.794,27.087 93.476,27.161 93.308,27.329 C93.214,27.422 93.140,27.571 93.140,27.701 C93.140,27.888 93.270,27.999 93.401,28.074 C93.588,28.186 93.868,28.241 94.205,28.353 ZM94.840,13.574 C94.840,13.574 91.738,10.053 91.738,10.053 C91.738,10.053 91.402,10.389 91.402,10.389 C91.402,10.389 91.402,13.574 91.402,13.574 C91.402,13.574 90.057,13.574 90.057,13.574 C90.057,13.574 90.057,-0.004 90.057,-0.004 C90.057,-0.004 91.402,-0.004 91.402,-0.004 C91.402,-0.004 91.402,8.713 91.402,8.713 C91.402,8.713 94.242,5.844 94.242,5.844 C94.242,5.844 95.998,5.844 95.998,5.844 C95.998,5.844 92.672,9.159 92.672,9.159 C92.672,9.159 96.596,13.574 96.596,13.574 C96.596,13.574 94.840,13.574 94.840,13.574 ZM81.442,17.858 C81.442,17.858 83.908,12.847 83.908,12.847 C83.908,12.847 80.339,5.844 80.339,5.844 C80.339,5.844 81.872,5.844 81.872,5.844 C81.872,5.844 84.618,11.376 84.618,11.376 C84.618,11.376 87.141,5.844 87.141,5.844 C87.141,5.844 88.636,5.844 88.636,5.844 C88.636,5.844 82.937,17.858 82.937,17.858 C82.937,17.858 81.442,17.858 81.442,17.858 ZM82.488,30.011 C82.488,30.384 82.525,30.961 82.955,31.352 C83.142,31.519 83.478,31.743 84.076,31.743 C84.581,31.743 84.973,31.576 85.216,31.352 C85.608,30.980 85.664,30.421 85.664,30.011 C85.664,30.011 85.664,25.429 85.664,25.429 C85.664,25.429 88.355,25.429 88.355,25.429 C88.355,25.429 88.355,30.272 88.355,30.272 C88.355,31.221 88.262,32.115 87.421,32.935 C86.468,33.867 85.066,34.015 84.076,34.015 C83.049,34.015 81.666,33.867 80.713,32.935 C79.947,32.190 79.797,31.352 79.797,30.439 C79.797,30.439 79.797,25.429 79.797,25.429 C79.797,25.429 82.488,25.429 82.488,25.429 C82.488,25.429 82.488,30.011 82.488,30.011 ZM75.836,12.605 C76.471,12.605 76.975,12.419 77.424,12.046 C77.779,11.748 78.059,11.357 78.227,10.985 C78.227,10.985 79.349,11.600 79.349,11.600 C79.124,12.028 78.788,12.494 78.396,12.847 C77.686,13.481 76.807,13.798 75.817,13.798 C73.949,13.798 71.987,12.624 71.987,9.755 C71.987,7.446 73.407,5.658 75.742,5.658 C77.256,5.658 78.209,6.403 78.676,7.073 C79.162,7.763 79.442,8.955 79.404,9.979 C79.404,9.979 73.369,9.979 73.369,9.979 C73.388,11.581 74.490,12.605 75.836,12.605 ZM78.022,8.861 C77.798,7.651 76.882,6.850 75.742,6.850 C74.603,6.850 73.668,7.707 73.463,8.861 C73.463,8.861 78.022,8.861 78.022,8.861 ZM69.332,13.574 C69.332,13.574 65.539,8.135 65.539,8.135 C65.539,8.135 65.184,8.135 65.184,8.135 C65.184,8.135 65.184,13.574 65.184,13.574 C65.184,13.574 63.802,13.574 63.802,13.574 C63.802,13.574 63.802,1.150 63.802,1.150 C63.802,1.150 65.801,1.150 65.801,1.150 C66.642,1.150 67.894,1.206 68.828,1.839 C69.557,2.324 70.192,3.274 70.192,4.596 C70.192,6.496 68.940,7.893 67.053,8.023 C67.053,8.023 71.014,13.574 71.014,13.574 C71.014,13.574 69.332,13.574 69.332,13.574 ZM68.809,4.633 C68.809,3.944 68.604,3.255 67.819,2.808 C67.258,2.492 66.623,2.454 66.025,2.454 C66.025,2.454 65.184,2.454 65.184,2.454 C65.184,2.454 65.184,6.906 65.184,6.906 C65.184,6.906 66.062,6.906 66.062,6.906 C67.782,6.906 68.809,6.086 68.809,4.633 ZM67.370,21.313 C67.370,21.313 70.472,28.744 70.472,28.744 C70.472,28.744 73.574,21.313 73.574,21.313 C73.574,21.313 75.966,21.313 75.966,21.313 C75.966,21.313 77.965,33.736 77.965,33.736 C77.965,33.736 75.087,33.736 75.087,33.736 C75.087,33.736 74.097,26.323 74.097,26.323 C74.097,26.323 70.977,33.736 70.977,33.736 C70.977,33.736 69.968,33.736 69.968,33.736 C69.968,33.736 66.847,26.323 66.847,26.323 C66.847,26.323 65.857,33.736 65.857,33.736 C65.857,33.736 62.979,33.736 62.979,33.736 C62.979,33.736 64.979,21.313 64.979,21.313 C64.979,21.313 67.370,21.313 67.370,21.313 ZM51.519,1.395 C51.519,1.395 52.646,1.395 52.646,1.395 C52.646,1.395 52.646,33.732 52.646,33.732 C52.646,33.732 51.519,33.732 51.519,33.732 C51.519,33.732 51.519,1.395 51.519,1.395 ZM27.915,9.956 C27.915,9.956 19.740,18.104 19.740,18.104 C19.740,18.104 15.442,13.819 15.442,13.819 C15.442,13.819 27.915,1.386 27.915,1.386 C27.915,1.386 40.388,13.819 40.388,13.819 C40.388,13.819 36.089,18.105 36.089,18.105 C36.089,18.105 27.915,9.956 27.915,9.956 ZM20.648,33.732 C20.648,33.732 12.474,25.584 12.474,25.584 C12.474,25.584 4.299,33.732 4.299,33.732 C4.299,33.732 0.000,29.446 0.000,29.446 C0.000,29.446 12.474,17.013 12.474,17.013 C12.474,17.013 24.947,29.447 24.947,29.447 C24.947,29.447 20.648,33.732 20.648,33.732 ZM99.288,17.858 C99.288,17.858 97.942,17.858 97.942,17.858 C97.942,17.858 97.942,5.844 97.942,5.844 C97.942,5.844 99.288,5.844 99.288,5.844 C99.288,5.844 99.288,17.858 99.288,17.858 ZM102.614,25.149 C103.548,25.149 104.893,25.317 105.921,26.398 C106.911,27.440 107.098,28.744 107.098,29.769 C107.098,29.769 107.098,30.048 107.098,30.048 C107.098,30.048 100.876,30.048 100.876,30.048 C100.876,30.495 101.044,31.091 101.380,31.464 C101.791,31.911 102.352,31.985 102.763,31.985 C103.155,31.985 103.567,31.911 103.847,31.743 C103.884,31.724 104.202,31.519 104.426,31.054 C104.426,31.054 106.967,31.315 106.967,31.315 C106.594,32.488 105.846,33.103 105.360,33.401 C104.557,33.885 103.660,34.015 102.726,34.015 C101.474,34.015 100.372,33.792 99.400,32.823 C98.671,32.097 98.148,30.998 98.148,29.620 C98.148,28.428 98.578,27.199 99.419,26.341 C100.427,25.336 101.679,25.149 102.614,25.149 ZM104.613,28.446 C104.594,28.372 104.463,27.850 104.071,27.478 C103.772,27.199 103.342,27.012 102.800,27.012 C102.109,27.012 101.698,27.292 101.436,27.552 C101.231,27.776 101.044,28.074 100.969,28.446 C100.969,28.446 104.613,28.446 104.613,28.446 ZM111.471,30.011 C111.471,30.384 111.509,30.961 111.939,31.352 C112.125,31.519 112.462,31.743 113.060,31.743 C113.564,31.743 113.957,31.576 114.199,31.352 C114.592,30.980 114.648,30.421 114.648,30.011 C114.648,30.011 114.648,25.429 114.648,25.429 C114.648,25.429 117.339,25.429 117.339,25.429 C117.339,25.429 117.339,30.272 117.339,30.272 C117.339,31.221 117.245,32.115 116.404,32.935 C115.451,33.867 114.050,34.015 113.060,34.015 C112.032,34.015 110.649,33.867 109.696,32.935 C108.930,32.190 108.781,31.352 108.781,30.439 C108.781,30.439 108.781,25.429 108.781,25.429 C108.781,25.429 111.471,25.429 111.471,25.429 C111.471,25.429 111.471,30.011 111.471,30.011 Z" id="path-1" class="cls-2" fill-rule="evenodd"/>
</svg>
