<svg xmlns="http://www.w3.org/2000/svg" xmlns:xlink="http://www.w3.org/1999/xlink" preserveAspectRatio="xMidYMid" width="22" height="22" viewBox="0 0 22 22">
  <defs>
    <style>

      .cls-2 {
        fill: #eb5a28;
      }
    </style>
  </defs>
  <path d="M21.500,22.000 C21.500,22.000 18.500,22.000 18.500,22.000 C18.224,22.000 18.000,21.776 18.000,21.500 C18.000,21.224 18.224,21.000 18.500,21.000 C18.500,21.000 21.000,21.000 21.000,21.000 C21.000,21.000 21.000,18.500 21.000,18.500 C21.000,18.224 21.224,18.000 21.500,18.000 C21.776,18.000 22.000,18.224 22.000,18.500 C22.000,18.500 22.000,21.500 22.000,21.500 C22.000,21.776 21.776,22.000 21.500,22.000 ZM21.500,16.000 C21.224,16.000 21.000,15.776 21.000,15.500 C21.000,15.500 21.000,12.500 21.000,12.500 C21.000,12.224 21.224,12.000 21.500,12.000 C21.776,12.000 22.000,12.224 22.000,12.500 C22.000,12.500 22.000,15.500 22.000,15.500 C22.000,15.776 21.776,16.000 21.500,16.000 ZM21.500,10.000 C21.224,10.000 21.000,9.776 21.000,9.500 C21.000,9.500 21.000,6.500 21.000,6.500 C21.000,6.224 21.224,6.000 21.500,6.000 C21.776,6.000 22.000,6.224 22.000,6.500 C22.000,6.500 22.000,9.500 22.000,9.500 C22.000,9.776 21.776,10.000 21.500,10.000 ZM21.500,4.000 C21.224,4.000 21.000,3.776 21.000,3.500 C21.000,3.500 21.000,1.000 21.000,1.000 C21.000,1.000 18.500,1.000 18.500,1.000 C18.224,1.000 18.000,0.776 18.000,0.500 C18.000,0.224 18.224,-0.000 18.500,-0.000 C18.500,-0.000 21.500,-0.000 21.500,-0.000 C21.776,-0.000 22.000,0.224 22.000,0.500 C22.000,0.500 22.000,3.500 22.000,3.500 C22.000,3.776 21.776,4.000 21.500,4.000 ZM15.500,22.000 C15.500,22.000 12.500,22.000 12.500,22.000 C12.224,22.000 12.000,21.776 12.000,21.500 C12.000,21.224 12.224,21.000 12.500,21.000 C12.500,21.000 15.500,21.000 15.500,21.000 C15.776,21.000 16.000,21.224 16.000,21.500 C16.000,21.776 15.776,22.000 15.500,22.000 ZM15.500,1.000 C15.500,1.000 12.500,1.000 12.500,1.000 C12.224,1.000 12.000,0.776 12.000,0.500 C12.000,0.224 12.224,-0.000 12.500,-0.000 C12.500,-0.000 15.500,-0.000 15.500,-0.000 C15.776,-0.000 16.000,0.224 16.000,0.500 C16.000,0.776 15.776,1.000 15.500,1.000 ZM14.937,10.000 C15.490,10.000 15.937,10.448 15.937,11.000 C15.937,11.552 15.490,12.000 14.937,12.000 C14.937,12.000 11.937,12.000 11.937,12.000 C11.937,12.000 11.937,15.000 11.937,15.000 C11.937,15.552 11.489,16.000 10.937,16.000 C10.385,16.000 9.937,15.552 9.937,15.000 C9.937,15.000 9.937,12.000 9.937,12.000 C9.937,12.000 6.937,12.000 6.937,12.000 C6.385,12.000 5.937,11.552 5.937,11.000 C5.937,10.448 6.385,10.000 6.937,10.000 C6.937,10.000 9.937,10.000 9.937,10.000 C9.937,10.000 9.937,7.000 9.937,7.000 C9.937,6.448 10.385,6.000 10.937,6.000 C11.489,6.000 11.937,6.448 11.937,7.000 C11.937,7.000 11.937,10.000 11.937,10.000 C11.937,10.000 14.937,10.000 14.937,10.000 ZM9.500,1.000 C9.500,1.000 6.500,1.000 6.500,1.000 C6.224,1.000 6.000,0.776 6.000,0.500 C6.000,0.224 6.224,-0.000 6.500,-0.000 C6.500,-0.000 9.500,-0.000 9.500,-0.000 C9.776,-0.000 10.000,0.224 10.000,0.500 C10.000,0.776 9.776,1.000 9.500,1.000 ZM3.500,22.000 C3.500,22.000 0.500,22.000 0.500,22.000 C0.224,22.000 -0.000,21.776 -0.000,21.500 C-0.000,21.500 -0.000,18.500 -0.000,18.500 C-0.000,18.224 0.224,18.000 0.500,18.000 C0.776,18.000 1.000,18.224 1.000,18.500 C1.000,18.500 1.000,21.000 1.000,21.000 C1.000,21.000 3.500,21.000 3.500,21.000 C3.776,21.000 4.000,21.224 4.000,21.500 C4.000,21.776 3.776,22.000 3.500,22.000 ZM3.500,1.000 C3.500,1.000 1.000,1.000 1.000,1.000 C1.000,1.000 1.000,3.500 1.000,3.500 C1.000,3.776 0.776,4.000 0.500,4.000 C0.224,4.000 -0.000,3.776 -0.000,3.500 C-0.000,3.500 -0.000,0.500 -0.000,0.500 C-0.000,0.224 0.224,-0.000 0.500,-0.000 C0.500,-0.000 3.500,-0.000 3.500,-0.000 C3.776,-0.000 4.000,0.224 4.000,0.500 C4.000,0.776 3.776,1.000 3.500,1.000 ZM0.500,6.000 C0.776,6.000 1.000,6.224 1.000,6.500 C1.000,6.500 1.000,9.500 1.000,9.500 C1.000,9.776 0.776,10.000 0.500,10.000 C0.224,10.000 -0.000,9.776 -0.000,9.500 C-0.000,9.500 -0.000,6.500 -0.000,6.500 C-0.000,6.224 0.224,6.000 0.500,6.000 ZM0.500,12.000 C0.776,12.000 1.000,12.224 1.000,12.500 C1.000,12.500 1.000,15.500 1.000,15.500 C1.000,15.776 0.776,16.000 0.500,16.000 C0.224,16.000 -0.000,15.776 -0.000,15.500 C-0.000,15.500 -0.000,12.500 -0.000,12.500 C-0.000,12.224 0.224,12.000 0.500,12.000 ZM6.500,21.000 C6.500,21.000 9.500,21.000 9.500,21.000 C9.776,21.000 10.000,21.224 10.000,21.500 C10.000,21.776 9.776,22.000 9.500,22.000 C9.500,22.000 6.500,22.000 6.500,22.000 C6.224,22.000 6.000,21.776 6.000,21.500 C6.000,21.224 6.224,21.000 6.500,21.000 Z" id="path-1" class="cls-2" fill-rule="evenodd"/>
</svg>
