<svg xmlns="http://www.w3.org/2000/svg" xmlns:xlink="http://www.w3.org/1999/xlink" preserveAspectRatio="xMidYMid" width="28" height="30" viewBox="0 0 28 30">
  <defs>
    <style>

      .cls-2 {
        fill: #ffffff;
      }
    </style>
  </defs>
  <path d="M18.705,18.712 C18.705,18.712 27.995,10.844 27.995,10.844 C27.995,10.844 27.995,29.796 27.995,29.796 C27.995,29.796 18.705,18.712 18.705,18.712 ZM9.935,17.875 C9.935,17.875 0.111,9.844 0.111,9.844 C0.111,9.844 14.000,0.011 14.000,0.011 C14.000,0.011 27.926,9.844 27.926,9.844 C27.926,9.844 18.139,17.842 18.139,17.842 C18.139,17.842 9.935,17.875 9.935,17.875 ZM0.004,29.796 C0.004,29.796 0.004,10.844 0.004,10.844 C0.004,10.844 9.295,18.712 9.295,18.712 C9.295,18.712 0.004,29.796 0.004,29.796 ZM17.594,18.906 C17.594,18.906 26.957,29.807 26.957,29.807 C26.957,29.807 1.080,29.807 1.080,29.807 C1.080,29.807 10.359,18.843 10.359,18.843 C10.359,18.843 17.594,18.906 17.594,18.906 Z" id="path-1" class="cls-2" fill-rule="evenodd"/>
</svg>
