<svg xmlns="http://www.w3.org/2000/svg" xmlns:xlink="http://www.w3.org/1999/xlink" preserveAspectRatio="xMidYMid" width="41" height="41" viewBox="0 0 41 41">
  <defs>
    <style>

      .cls-2 {
        fill: #ffffff;
        filter: url(#outer-glow-1);
      }
    </style>

    <filter id="outer-glow-1" filterUnits="userSpaceOnUse">
      <feGaussianBlur stdDeviation="1.667" in="SourceAlpha"/>
      <feComposite/>
      <feComposite/>
      <feComposite result="outerGlowBlur"/>
      <feFlood flood-color="#000000" flood-opacity="0.15"/>
      <feComposite operator="in" in2="outerGlowBlur"/>
      <feComposite in="SourceGraphic" result="outerGlow"/>
    </filter>
  </defs>
  <path d="M20.500,36.500 C11.663,36.500 4.500,29.337 4.500,20.500 C4.500,11.663 11.663,4.500 20.500,4.500 C29.337,4.500 36.500,11.663 36.500,20.500 C36.500,29.337 29.337,36.500 20.500,36.500 ZM20.500,7.000 C13.044,7.000 7.000,13.044 7.000,20.500 C7.000,27.956 13.044,34.000 20.500,34.000 C27.956,34.000 34.000,27.956 34.000,20.500 C34.000,13.044 27.956,7.000 20.500,7.000 ZM19.207,27.207 C18.816,27.598 18.184,27.598 17.793,27.207 C17.402,26.816 17.402,26.184 17.793,25.793 C17.793,25.793 23.086,20.500 23.086,20.500 C23.086,20.500 17.793,15.207 17.793,15.207 C17.402,14.816 17.402,14.184 17.793,13.793 C17.988,13.598 18.244,13.500 18.500,13.500 C18.756,13.500 19.012,13.598 19.207,13.793 C19.207,13.793 25.207,19.793 25.207,19.793 C25.598,20.183 25.598,20.816 25.207,21.207 C25.207,21.207 19.207,27.207 19.207,27.207 Z" id="path-1" class="cls-2" fill-rule="evenodd"/>
</svg>
