<svg xmlns="http://www.w3.org/2000/svg" xmlns:xlink="http://www.w3.org/1999/xlink" preserveAspectRatio="xMidYMid" width="273" height="32" viewBox="0 0 273 32">
  <defs>
    <style>

      .cls-2 {
        fill: #000000;
      }
    </style>
  </defs>
  <path d="M270.314,21.277 C270.314,21.277 270.314,17.054 270.314,17.054 C270.314,16.519 270.295,15.837 269.867,15.413 C269.661,15.210 269.325,15.044 268.840,15.044 C268.281,15.044 267.926,15.265 267.720,15.487 C267.273,15.929 267.198,16.519 267.198,17.054 C267.198,17.054 267.198,21.277 267.198,21.277 C267.198,21.277 264.511,21.277 264.511,21.277 C264.511,21.277 264.511,13.053 264.511,13.053 C264.511,13.053 267.198,13.053 267.198,13.053 C267.198,13.053 267.198,14.030 267.198,14.030 C268.019,12.997 268.989,12.831 269.773,12.831 C270.501,12.831 271.453,12.960 272.162,13.661 C272.945,14.436 273.001,15.413 273.001,16.077 C273.001,16.077 273.001,21.277 273.001,21.277 C273.001,21.277 270.314,21.277 270.314,21.277 ZM257.942,21.554 C256.318,21.554 255.050,20.963 254.303,20.226 C253.463,19.396 253.053,18.216 253.053,17.165 C253.053,16.113 253.463,14.933 254.303,14.104 C255.050,13.366 256.318,12.776 257.942,12.776 C259.565,12.776 260.834,13.366 261.580,14.104 C262.420,14.933 262.830,16.113 262.830,17.165 C262.830,18.216 262.420,19.396 261.580,20.226 C260.834,20.963 259.565,21.554 257.942,21.554 ZM259.453,15.616 C259.061,15.229 258.557,15.026 257.942,15.026 C257.326,15.026 256.822,15.229 256.430,15.616 C256.039,16.003 255.815,16.501 255.815,17.165 C255.815,17.921 256.113,18.400 256.430,18.714 C256.766,19.046 257.251,19.304 257.960,19.304 C258.557,19.304 259.061,19.101 259.453,18.714 C259.845,18.327 260.069,17.829 260.069,17.165 C260.069,16.501 259.845,16.003 259.453,15.616 ZM249.843,11.098 C248.966,11.098 248.276,10.415 248.276,9.549 C248.276,8.682 248.966,8.000 249.843,8.000 C250.720,8.000 251.410,8.682 251.410,9.549 C251.410,10.415 250.720,11.098 249.843,11.098 ZM245.495,21.277 C245.495,21.277 242.808,21.277 242.808,21.277 C242.808,21.277 242.808,15.192 242.808,15.192 C242.808,15.192 241.875,15.192 241.875,15.192 C241.875,15.192 241.875,13.053 241.875,13.053 C241.875,13.053 242.808,13.053 242.808,13.053 C242.808,13.053 242.808,10.397 242.808,10.397 C242.808,10.397 245.495,10.397 245.495,10.397 C245.495,10.397 245.495,13.053 245.495,13.053 C245.495,13.053 247.155,13.053 247.155,13.053 C247.155,13.053 247.155,15.192 247.155,15.192 C247.155,15.192 245.495,15.192 245.495,15.192 C245.495,15.192 245.495,21.277 245.495,21.277 ZM239.113,11.098 C238.236,11.098 237.545,10.415 237.545,9.549 C237.545,8.682 238.236,8.000 239.113,8.000 C239.989,8.000 240.680,8.682 240.680,9.549 C240.680,10.415 239.989,11.098 239.113,11.098 ZM231.741,21.554 C230.267,21.554 229.521,20.871 229.110,20.281 C229.110,20.281 229.110,21.277 229.110,21.277 C229.110,21.277 226.423,21.277 226.423,21.277 C226.423,21.277 226.423,7.834 226.423,7.834 C226.423,7.834 229.110,7.834 229.110,7.834 C229.110,7.834 229.110,13.974 229.110,13.974 C229.782,13.071 230.789,12.776 231.704,12.776 C232.842,12.776 233.868,13.200 234.596,13.882 C235.398,14.639 235.902,15.763 235.902,17.128 C235.902,18.400 235.454,19.580 234.596,20.429 C233.868,21.166 232.972,21.554 231.741,21.554 ZM232.487,15.616 C232.058,15.210 231.592,15.062 231.050,15.062 C230.472,15.062 229.968,15.229 229.539,15.671 C229.222,16.003 228.942,16.483 228.942,17.183 C228.942,17.866 229.240,18.364 229.558,18.659 C229.987,19.064 230.584,19.267 231.088,19.267 C231.554,19.267 232.077,19.082 232.487,18.695 C232.879,18.327 233.140,17.791 233.140,17.183 C233.140,16.519 232.879,15.985 232.487,15.616 ZM222.728,11.098 C221.851,11.098 221.161,10.415 221.161,9.549 C221.161,8.682 221.851,8.000 222.728,8.000 C223.605,8.000 224.295,8.682 224.295,9.549 C224.295,10.415 223.605,11.098 222.728,11.098 ZM216.420,17.054 C216.420,16.483 216.401,15.819 215.972,15.413 C215.729,15.173 215.319,15.044 214.927,15.044 C214.348,15.044 214.013,15.302 213.863,15.450 C213.322,15.966 213.304,16.759 213.304,17.165 C213.304,17.165 213.304,21.277 213.304,21.277 C213.304,21.277 210.617,21.277 210.617,21.277 C210.617,21.277 210.617,7.834 210.617,7.834 C210.617,7.834 213.304,7.834 213.304,7.834 C213.304,7.834 213.304,14.030 213.304,14.030 C213.639,13.624 213.994,13.348 214.311,13.181 C214.871,12.886 215.337,12.831 215.934,12.831 C216.588,12.831 217.558,12.923 218.286,13.661 C219.051,14.417 219.107,15.431 219.107,16.058 C219.107,16.058 219.107,21.277 219.107,21.277 C219.107,21.277 216.420,21.277 216.420,21.277 C216.420,21.277 216.420,17.054 216.420,17.054 ZM205.988,21.277 C205.988,21.277 203.711,18.622 203.711,18.622 C203.711,18.622 201.435,21.277 201.435,21.277 C201.435,21.277 197.964,21.277 197.964,21.277 C197.964,21.277 202.032,16.796 202.032,16.796 C202.032,16.796 198.729,13.053 198.729,13.053 C198.729,13.053 202.162,13.053 202.162,13.053 C202.162,13.053 203.711,14.952 203.711,14.952 C203.711,14.952 205.260,13.053 205.260,13.053 C205.260,13.053 208.694,13.053 208.694,13.053 C208.694,13.053 205.391,16.796 205.391,16.796 C205.391,16.796 209.458,21.277 209.458,21.277 C209.458,21.277 205.988,21.277 205.988,21.277 ZM190.107,8.977 C190.107,8.977 197.142,8.977 197.142,8.977 C197.142,8.977 197.142,11.374 197.142,11.374 C197.142,11.374 192.980,11.374 192.980,11.374 C192.980,11.374 192.980,13.753 192.980,13.753 C192.980,13.753 196.937,13.753 196.937,13.753 C196.937,13.753 196.937,16.150 196.937,16.150 C196.937,16.150 192.980,16.150 192.980,16.150 C192.980,16.150 192.980,18.879 192.980,18.879 C192.980,18.879 197.142,18.879 197.142,18.879 C197.142,18.879 197.142,21.277 197.142,21.277 C197.142,21.277 190.107,21.277 190.107,21.277 C190.107,21.277 190.107,8.977 190.107,8.977 ZM182.624,21.277 C182.624,21.277 179.937,21.277 179.937,21.277 C179.937,21.277 179.937,15.192 179.937,15.192 C179.937,15.192 179.003,15.192 179.003,15.192 C179.003,15.192 179.003,13.053 179.003,13.053 C179.003,13.053 179.937,13.053 179.937,13.053 C179.937,13.053 179.937,10.397 179.937,10.397 C179.937,10.397 182.624,10.397 182.624,10.397 C182.624,10.397 182.624,13.053 182.624,13.053 C182.624,13.053 184.284,13.053 184.284,13.053 C184.284,13.053 184.284,15.192 184.284,15.192 C184.284,15.192 182.624,15.192 182.624,15.192 C182.624,15.192 182.624,21.277 182.624,21.277 ZM175.084,17.054 C175.084,16.519 175.065,15.837 174.637,15.413 C174.431,15.210 174.095,15.044 173.610,15.044 C173.051,15.044 172.696,15.265 172.490,15.487 C172.043,15.929 171.968,16.519 171.968,17.054 C171.968,17.054 171.968,21.277 171.968,21.277 C171.968,21.277 169.281,21.277 169.281,21.277 C169.281,21.277 169.281,13.053 169.281,13.053 C169.281,13.053 171.968,13.053 171.968,13.053 C171.968,13.053 171.968,14.030 171.968,14.030 C172.789,12.997 173.760,12.831 174.543,12.831 C175.271,12.831 176.223,12.960 176.932,13.661 C177.715,14.436 177.771,15.413 177.771,16.077 C177.771,16.077 177.771,21.277 177.771,21.277 C177.771,21.277 175.084,21.277 175.084,21.277 C175.084,21.277 175.084,17.054 175.084,17.054 ZM161.891,19.027 C162.301,19.470 162.861,19.544 163.272,19.544 C163.663,19.544 164.074,19.470 164.354,19.304 C164.391,19.285 164.709,19.082 164.933,18.622 C164.933,18.622 167.470,18.879 167.470,18.879 C167.097,20.042 166.350,20.650 165.865,20.945 C165.063,21.424 164.167,21.554 163.235,21.554 C161.984,21.554 160.883,21.332 159.913,20.373 C159.185,19.654 158.663,18.566 158.663,17.201 C158.663,16.021 159.092,14.804 159.932,13.956 C160.939,12.960 162.189,12.776 163.123,12.776 C164.055,12.776 165.399,12.942 166.426,14.011 C167.414,15.044 167.601,16.335 167.601,17.349 C167.601,17.349 167.601,17.626 167.601,17.626 C167.601,17.626 161.387,17.626 161.387,17.626 C161.387,18.069 161.555,18.659 161.891,19.027 ZM165.119,16.040 C165.100,15.966 164.970,15.450 164.578,15.081 C164.279,14.804 163.850,14.620 163.309,14.620 C162.619,14.620 162.208,14.897 161.947,15.154 C161.742,15.376 161.555,15.671 161.480,16.040 C161.480,16.040 165.119,16.040 165.119,16.040 ZM154.277,17.109 C154.277,16.685 154.277,15.948 153.922,15.505 C153.698,15.229 153.344,15.062 152.952,15.062 C152.504,15.062 152.131,15.265 151.907,15.560 C151.552,16.003 151.497,16.648 151.497,17.183 C151.497,17.183 151.497,21.277 151.497,21.277 C151.497,21.277 148.810,21.277 148.810,21.277 C148.810,21.277 148.810,16.999 148.810,16.999 C148.810,16.445 148.791,15.800 148.380,15.394 C148.100,15.118 147.764,15.062 147.485,15.062 C147.130,15.062 146.813,15.154 146.551,15.394 C146.048,15.874 146.029,16.796 146.029,17.073 C146.029,17.073 146.029,21.277 146.029,21.277 C146.029,21.277 143.342,21.277 143.342,21.277 C143.342,21.277 143.342,13.053 143.342,13.053 C143.342,13.053 146.029,13.053 146.029,13.053 C146.029,13.053 146.029,14.011 146.029,14.011 C146.720,12.978 147.727,12.850 148.361,12.850 C148.716,12.850 149.369,12.886 149.929,13.218 C150.358,13.458 150.712,13.864 150.936,14.362 C151.142,14.030 151.459,13.643 152.000,13.311 C152.579,12.960 153.120,12.850 153.773,12.850 C154.781,12.850 155.601,13.145 156.105,13.624 C156.908,14.380 156.964,15.487 156.964,16.077 C156.964,16.077 156.964,21.277 156.964,21.277 C156.964,21.277 154.277,21.277 154.277,21.277 C154.277,21.277 154.277,17.109 154.277,17.109 ZM135.952,19.027 C136.362,19.470 136.922,19.544 137.333,19.544 C137.724,19.544 138.135,19.470 138.415,19.304 C138.452,19.285 138.770,19.082 138.994,18.622 C138.994,18.622 141.531,18.879 141.531,18.879 C141.158,20.042 140.411,20.650 139.926,20.945 C139.124,21.424 138.228,21.554 137.296,21.554 C136.045,21.554 134.944,21.332 133.974,20.373 C133.246,19.654 132.724,18.566 132.724,17.201 C132.724,16.021 133.153,14.804 133.993,13.956 C135.000,12.960 136.250,12.776 137.184,12.776 C138.116,12.776 139.460,12.942 140.486,14.011 C141.475,15.044 141.662,16.335 141.662,17.349 C141.662,17.349 141.662,17.626 141.662,17.626 C141.662,17.626 135.448,17.626 135.448,17.626 C135.448,18.069 135.616,18.659 135.952,19.027 ZM139.180,16.040 C139.162,15.966 139.031,15.450 138.639,15.081 C138.340,14.804 137.911,14.620 137.370,14.620 C136.680,14.620 136.269,14.897 136.008,15.154 C135.803,15.376 135.616,15.671 135.541,16.040 C135.541,16.040 139.180,16.040 139.180,16.040 ZM128.283,7.834 C128.283,7.834 130.970,7.834 130.970,7.834 C130.970,7.834 130.970,21.277 130.970,21.277 C130.970,21.277 128.283,21.277 128.283,21.277 C128.283,21.277 128.283,7.834 128.283,7.834 ZM125.390,21.277 C125.390,21.277 122.703,21.277 122.703,21.277 C122.703,21.277 122.703,15.192 122.703,15.192 C122.703,15.192 121.770,15.192 121.770,15.192 C121.770,15.192 121.770,13.053 121.770,13.053 C121.770,13.053 122.703,13.053 122.703,13.053 C122.703,13.053 122.703,10.397 122.703,10.397 C122.703,10.397 125.390,10.397 125.390,10.397 C125.390,10.397 125.390,13.053 125.390,13.053 C125.390,13.053 127.050,13.053 127.050,13.053 C127.050,13.053 127.050,15.192 127.050,15.192 C127.050,15.192 125.390,15.192 125.390,15.192 C125.390,15.192 125.390,21.277 125.390,21.277 ZM119.213,21.277 C119.213,21.277 116.526,21.277 116.526,21.277 C116.526,21.277 116.526,15.192 116.526,15.192 C116.526,15.192 115.593,15.192 115.593,15.192 C115.593,15.192 115.593,13.053 115.593,13.053 C115.593,13.053 116.526,13.053 116.526,13.053 C116.526,13.053 116.526,10.397 116.526,10.397 C116.526,10.397 119.213,10.397 119.213,10.397 C119.213,10.397 119.213,13.053 119.213,13.053 C119.213,13.053 120.873,13.053 120.873,13.053 C120.873,13.053 120.873,15.192 120.873,15.192 C120.873,15.192 119.213,15.192 119.213,15.192 C119.213,15.192 119.213,21.277 119.213,21.277 ZM109.061,19.027 C109.471,19.470 110.031,19.544 110.442,19.544 C110.834,19.544 111.244,19.470 111.524,19.304 C111.561,19.285 111.879,19.082 112.102,18.622 C112.102,18.622 114.640,18.879 114.640,18.879 C114.267,20.042 113.521,20.650 113.035,20.945 C112.233,21.424 111.338,21.554 110.404,21.554 C109.154,21.554 108.053,21.332 107.083,20.373 C106.355,19.654 105.833,18.566 105.833,17.201 C105.833,16.021 106.262,14.804 107.102,13.956 C108.109,12.960 109.359,12.776 110.293,12.776 C111.226,12.776 112.569,12.942 113.595,14.011 C114.584,15.044 114.771,16.335 114.771,17.349 C114.771,17.349 114.771,17.626 114.771,17.626 C114.771,17.626 108.557,17.626 108.557,17.626 C108.557,18.069 108.725,18.659 109.061,19.027 ZM112.289,16.040 C112.270,15.966 112.140,15.450 111.748,15.081 C111.449,14.804 111.020,14.620 110.479,14.620 C109.789,14.620 109.378,14.897 109.117,15.154 C108.912,15.376 108.725,15.671 108.651,16.040 C108.651,16.040 112.289,16.040 112.289,16.040 ZM100.943,13.679 C100.943,13.679 101.876,14.030 101.876,14.030 C102.417,14.233 103.089,14.509 103.574,14.970 C104.302,15.652 104.488,16.538 104.488,17.257 C104.488,18.529 104.041,19.636 103.387,20.300 C102.286,21.443 100.682,21.554 99.861,21.554 C98.965,21.554 98.181,21.424 97.398,21.037 C96.763,20.724 96.036,20.152 95.569,19.691 C95.569,19.691 97.062,17.663 97.062,17.663 C97.379,17.976 97.883,18.400 98.219,18.603 C98.704,18.898 99.208,19.046 99.786,19.046 C100.159,19.046 100.682,18.972 101.092,18.622 C101.335,18.419 101.540,18.087 101.540,17.626 C101.540,17.220 101.372,16.962 101.111,16.740 C100.775,16.464 100.010,16.187 99.655,16.058 C99.655,16.058 98.629,15.708 98.629,15.708 C98.051,15.505 97.379,15.247 96.894,14.731 C96.241,14.048 96.148,13.181 96.148,12.591 C96.148,11.503 96.483,10.581 97.230,9.825 C98.107,8.940 99.152,8.700 100.309,8.700 C101.167,8.700 102.548,8.848 104.003,9.918 C104.003,9.918 102.716,11.983 102.716,11.983 C101.783,11.153 100.981,11.098 100.626,11.098 C100.234,11.098 99.749,11.153 99.413,11.522 C99.226,11.706 99.096,11.983 99.096,12.296 C99.096,12.591 99.189,12.813 99.376,12.978 C99.674,13.255 100.103,13.366 100.943,13.679 ZM84.241,19.027 C84.652,19.470 85.212,19.544 85.623,19.544 C86.014,19.544 86.425,19.470 86.705,19.304 C86.742,19.285 87.059,19.082 87.283,18.622 C87.283,18.622 89.821,18.879 89.821,18.879 C89.448,20.042 88.701,20.650 88.216,20.945 C87.414,21.424 86.518,21.554 85.585,21.554 C84.335,21.554 83.234,21.332 82.264,20.373 C81.536,19.654 81.013,18.566 81.013,17.201 C81.013,16.021 81.443,14.804 82.282,13.956 C83.290,12.960 84.540,12.776 85.473,12.776 C86.406,12.776 87.750,12.942 88.776,14.011 C89.765,15.044 89.952,16.335 89.952,17.349 C89.952,17.349 89.952,17.626 89.952,17.626 C89.952,17.626 83.738,17.626 83.738,17.626 C83.738,18.069 83.906,18.659 84.241,19.027 ZM87.470,16.040 C87.451,15.966 87.320,15.450 86.928,15.081 C86.630,14.804 86.201,14.620 85.660,14.620 C84.969,14.620 84.559,14.897 84.298,15.154 C84.092,15.376 83.906,15.671 83.831,16.040 C83.831,16.040 87.470,16.040 87.470,16.040 ZM77.038,17.054 C77.038,16.483 77.019,15.819 76.590,15.413 C76.347,15.173 75.937,15.044 75.545,15.044 C74.966,15.044 74.631,15.302 74.481,15.450 C73.940,15.966 73.922,16.759 73.922,17.165 C73.922,17.165 73.922,21.277 73.922,21.277 C73.922,21.277 71.235,21.277 71.235,21.277 C71.235,21.277 71.235,7.834 71.235,7.834 C71.235,7.834 73.922,7.834 73.922,7.834 C73.922,7.834 73.922,14.030 73.922,14.030 C74.258,13.624 74.612,13.348 74.929,13.181 C75.489,12.886 75.956,12.831 76.553,12.831 C77.206,12.831 78.176,12.923 78.904,13.661 C79.669,14.417 79.725,15.431 79.725,16.058 C79.725,16.058 79.725,21.277 79.725,21.277 C79.725,21.277 77.038,21.277 77.038,21.277 C77.038,21.277 77.038,17.054 77.038,17.054 ZM67.838,21.277 C67.838,21.277 64.964,21.277 64.964,21.277 C64.964,21.277 64.964,11.374 64.964,11.374 C64.964,11.374 62.258,11.374 62.258,11.374 C62.258,11.374 62.258,8.977 62.258,8.977 C62.258,8.977 70.543,8.977 70.543,8.977 C70.543,8.977 70.543,11.374 70.543,11.374 C70.543,11.374 67.838,11.374 67.838,11.374 C67.838,11.374 67.838,21.277 67.838,21.277 ZM51.448,0.008 C51.448,0.008 52.574,0.008 52.574,0.008 C52.574,0.008 52.574,32.024 52.574,32.024 C52.574,32.024 51.448,32.024 51.448,32.024 C51.448,32.024 51.448,0.008 51.448,0.008 ZM27.875,8.484 C27.875,8.484 19.712,16.551 19.712,16.551 C19.712,16.551 15.420,12.309 15.420,12.309 C15.420,12.309 27.875,-0.002 27.875,-0.002 C27.875,-0.002 40.332,12.308 40.332,12.308 C40.332,12.308 36.039,16.552 36.039,16.552 C36.039,16.552 27.875,8.484 27.875,8.484 ZM20.619,32.023 C20.619,32.023 12.456,23.956 12.456,23.956 C12.456,23.956 4.292,32.024 4.292,32.024 C4.292,32.024 -0.001,27.780 -0.001,27.780 C-0.001,27.780 12.456,15.470 12.456,15.470 C12.456,15.470 24.911,27.781 24.911,27.781 C24.911,27.781 20.619,32.023 20.619,32.023 ZM224.072,21.277 C224.072,21.277 221.385,21.277 221.385,21.277 C221.385,21.277 221.385,13.053 221.385,13.053 C221.385,13.053 224.072,13.053 224.072,13.053 C224.072,13.053 224.072,21.277 224.072,21.277 ZM240.456,21.277 C240.456,21.277 237.769,21.277 237.769,21.277 C237.769,21.277 237.769,13.053 237.769,13.053 C237.769,13.053 240.456,13.053 240.456,13.053 C240.456,13.053 240.456,21.277 240.456,21.277 ZM251.187,21.277 C251.187,21.277 248.500,21.277 248.500,21.277 C248.500,21.277 248.500,13.053 248.500,13.053 C248.500,13.053 251.187,13.053 251.187,13.053 C251.187,13.053 251.187,21.277 251.187,21.277 Z" id="path-1" class="cls-2" fill-rule="evenodd"/>
</svg>
