<svg xmlns="http://www.w3.org/2000/svg" xmlns:xlink="http://www.w3.org/1999/xlink" preserveAspectRatio="xMidYMid" width="846" height="686" viewBox="0 0 846 686">
  <defs>
    <style>

      .cls-2 {
        fill: #ce9607;
        fill-opacity: 0.4;
      }
    </style>
  </defs>
  <path d="M754.646,365.019 C754.646,365.019 580.981,187.130 580.981,187.130 C580.981,187.130 407.306,365.030 407.306,365.030 C407.306,365.030 315.985,271.461 315.985,271.461 C315.985,271.461 580.981,0.012 580.981,0.012 C580.981,0.012 845.966,271.472 845.966,271.472 C845.966,271.472 754.646,365.019 754.646,365.019 ZM438.646,686.019 C438.646,686.019 264.981,508.130 264.981,508.130 C264.981,508.130 91.306,686.030 91.306,686.030 C91.306,686.030 -0.015,592.461 -0.015,592.461 C-0.015,592.461 264.981,321.012 264.981,321.012 C264.981,321.012 529.966,592.472 529.966,592.472 C529.966,592.472 438.646,686.019 438.646,686.019 Z" id="path-1" class="cls-2" fill-rule="evenodd"/>
</svg>
