<?xml version="1.0" encoding="utf-8"?>
<!-- Generator: Adobe Illustrator 18.0.0, SVG Export Plug-In . SVG Version: 6.00 Build 0)  -->
<!DOCTYPE svg PUBLIC "-//W3C//DTD SVG 1.1//EN" "http://www.w3.org/Graphics/SVG/1.1/DTD/svg11.dtd">
<svg version="1.1" id="All_glyphs" xmlns="http://www.w3.org/2000/svg" xmlns:xlink="http://www.w3.org/1999/xlink" x="0px" y="0px"
	 width="80px" height="90px" viewBox="0 0 80 90" enable-background="new 0 0 80 90" xml:space="preserve">
<g>
	<path d="M65,60c-3.4,0-6.6,1.2-9.1,3.1L29.8,47.5c0.1-0.8,0.2-1.6,0.2-2.5c0-0.8-0.1-1.7-0.2-2.5l26.1-15.7
		c2.5,1.9,5.7,3.1,9.1,3.1c8.3,0,15-6.7,15-15S73.3,0,65,0S50,6.7,50,15c0,0.8,0.1,1.7,0.2,2.5L24.1,33.1C21.6,31.2,18.4,30,15,30
		C6.7,30,0,36.7,0,45s6.7,15,15,15c3.4,0,6.6-1.2,9.1-3.1l26.1,15.7C50.1,73.3,50,74.2,50,75c0,8.3,6.7,15,15,15s15-6.7,15-15
		S73.3,60,65,60z"/>
</g>
</svg>
