<svg xmlns="http://www.w3.org/2000/svg" xmlns:xlink="http://www.w3.org/1999/xlink" preserveAspectRatio="xMidYMid" width="231" height="46" viewBox="0 0 231 46">
  <defs>
    <style>

      .cls-2 {
        fill: #000000;
      }
    </style>
  </defs>
  <path d="M230.263,6.560 C230.815,7.898 230.999,9.189 230.999,10.551 C230.999,12.166 230.723,14.404 229.160,15.949 C227.872,17.218 226.332,17.426 225.159,17.426 C223.688,17.426 222.286,17.103 221.021,15.904 C219.688,14.635 219.367,13.135 219.367,11.935 C219.367,10.367 219.987,9.121 220.723,8.359 C221.527,7.506 222.792,6.859 224.608,6.859 C225.941,6.859 226.792,7.182 227.642,7.944 C227.504,7.182 227.206,6.514 226.792,6.006 C226.424,5.545 225.873,5.083 225.344,4.783 C225.344,4.783 220.815,6.744 220.815,6.744 C220.815,6.744 220.079,5.152 220.079,5.152 C220.079,5.152 223.366,3.768 223.366,3.768 C222.355,3.445 221.321,3.306 220.217,3.330 C220.217,3.330 221.045,1.115 221.045,1.115 C223.872,1.184 225.367,1.830 226.332,2.338 C226.332,2.338 229.803,0.953 229.803,0.953 C229.803,0.953 230.608,2.615 230.608,2.615 C230.608,2.615 228.102,3.607 228.102,3.607 C228.999,4.345 229.734,5.268 230.263,6.560 ZM226.838,10.205 C226.447,9.812 225.826,9.535 225.159,9.535 C224.493,9.535 223.872,9.812 223.481,10.205 C223.067,10.620 222.769,11.289 222.769,12.074 C222.769,12.858 223.067,13.527 223.481,13.943 C223.872,14.334 224.493,14.611 225.159,14.611 C225.826,14.611 226.447,14.334 226.838,13.943 C227.251,13.527 227.551,12.858 227.551,12.074 C227.551,11.289 227.251,10.620 226.838,10.205 ZM215.412,4.345 C214.331,4.345 213.481,3.491 213.481,2.407 C213.481,1.322 214.331,0.469 215.412,0.469 C216.492,0.469 217.342,1.322 217.342,2.407 C217.342,3.491 216.492,4.345 215.412,4.345 ZM207.640,11.797 C207.640,11.128 207.617,10.274 207.089,9.744 C206.836,9.490 206.422,9.282 205.824,9.282 C205.135,9.282 204.698,9.559 204.445,9.836 C203.893,10.389 203.801,11.128 203.801,11.797 C203.801,11.797 203.801,17.080 203.801,17.080 C203.801,17.080 200.490,17.080 200.490,17.080 C200.490,17.080 200.490,6.791 200.490,6.791 C200.490,6.791 203.801,6.791 203.801,6.791 C203.801,6.791 203.801,8.013 203.801,8.013 C204.812,6.721 206.008,6.514 206.974,6.514 C207.870,6.514 209.043,6.675 209.917,7.551 C210.882,8.521 210.951,9.744 210.951,10.574 C210.951,10.574 210.951,17.080 210.951,17.080 C210.951,17.080 207.640,17.080 207.640,17.080 C207.640,17.080 207.640,11.797 207.640,11.797 ZM196.582,17.080 C196.582,17.080 193.271,17.080 193.271,17.080 C193.271,17.080 193.271,9.466 193.271,9.466 C193.271,9.466 192.076,9.466 192.076,9.466 C192.076,9.466 192.076,6.791 192.076,6.791 C192.076,6.791 193.271,6.791 193.271,6.791 C193.271,6.791 193.271,4.760 193.271,4.760 C193.271,3.607 193.386,2.291 194.421,1.184 C195.087,0.469 196.030,0.008 197.294,0.008 C198.030,0.008 198.628,0.146 199.180,0.353 C199.180,0.353 199.180,3.260 199.180,3.260 C198.812,3.030 198.329,2.868 197.915,2.868 C197.409,2.868 197.087,3.099 196.949,3.283 C196.582,3.768 196.582,4.576 196.582,5.060 C196.582,5.060 196.582,6.791 196.582,6.791 C196.582,6.791 199.203,6.791 199.203,6.791 C199.203,6.791 199.203,9.466 199.203,9.466 C199.203,9.466 196.582,9.466 196.582,9.466 C196.582,9.466 196.582,17.080 196.582,17.080 ZM187.108,15.834 C186.212,17.218 184.925,17.426 184.074,17.426 C182.603,17.426 181.361,17.057 180.235,15.857 C179.154,14.703 178.741,13.365 178.741,12.004 C178.741,10.274 179.384,8.797 180.327,7.851 C181.223,6.952 182.465,6.444 183.890,6.444 C184.764,6.444 186.166,6.652 187.108,7.944 C187.108,7.944 187.108,6.791 187.108,6.791 C187.108,6.791 190.419,6.791 190.419,6.791 C190.419,6.791 190.419,17.080 190.419,17.080 C190.419,17.080 187.108,17.080 187.108,17.080 C187.108,17.080 187.108,15.834 187.108,15.834 ZM186.557,10.020 C186.051,9.535 185.315,9.305 184.718,9.305 C184.005,9.305 183.338,9.605 182.902,10.043 C182.557,10.389 182.143,10.989 182.143,11.912 C182.143,12.835 182.534,13.435 182.832,13.758 C183.293,14.242 184.005,14.565 184.787,14.565 C185.454,14.565 186.074,14.289 186.511,13.850 C186.948,13.435 187.316,12.789 187.316,11.912 C187.316,11.174 187.040,10.482 186.557,10.020 ZM173.889,10.412 C173.889,10.412 174.763,10.689 174.763,10.689 C175.337,10.874 175.935,11.105 176.464,11.589 C177.061,12.143 177.268,12.766 177.268,13.550 C177.268,14.912 176.671,15.788 176.211,16.250 C175.199,17.264 173.958,17.426 172.877,17.426 C171.498,17.426 170.003,17.126 168.670,15.949 C168.670,15.949 170.073,13.711 170.073,13.711 C170.394,13.988 170.855,14.311 171.199,14.473 C171.659,14.703 172.142,14.796 172.579,14.796 C172.785,14.796 173.314,14.796 173.613,14.565 C173.820,14.404 173.958,14.150 173.958,13.896 C173.958,13.711 173.889,13.481 173.590,13.296 C173.360,13.158 173.062,13.066 172.579,12.927 C172.579,12.927 171.751,12.674 171.751,12.674 C171.153,12.489 170.532,12.166 170.096,11.728 C169.613,11.220 169.360,10.643 169.360,9.859 C169.360,8.867 169.751,8.037 170.349,7.482 C171.268,6.629 172.509,6.444 173.452,6.444 C174.969,6.444 176.027,6.836 176.855,7.321 C176.855,7.321 175.544,9.420 175.544,9.420 C175.038,9.121 174.372,8.844 173.728,8.844 C173.383,8.844 172.992,8.936 172.785,9.143 C172.671,9.259 172.579,9.443 172.579,9.605 C172.579,9.836 172.739,9.974 172.900,10.066 C173.130,10.205 173.475,10.274 173.889,10.412 ZM165.267,35.229 C165.267,35.229 170.095,40.697 170.095,40.697 C170.095,40.697 167.934,40.697 167.934,40.697 C167.934,40.697 164.117,36.336 164.117,36.336 C164.117,36.336 163.704,36.751 163.704,36.751 C163.704,36.751 163.704,40.697 163.704,40.697 C163.704,40.697 162.048,40.697 162.048,40.697 C162.048,40.697 162.048,23.878 162.048,23.878 C162.048,23.878 163.704,23.878 163.704,23.878 C163.704,23.878 163.704,34.675 163.704,34.675 C163.704,34.675 167.198,31.122 167.198,31.122 C167.198,31.122 169.359,31.122 169.359,31.122 C169.359,31.122 165.267,35.229 165.267,35.229 ZM163.381,15.834 C162.485,17.218 161.197,17.426 160.347,17.426 C158.875,17.426 157.634,17.057 156.507,15.857 C155.427,14.703 155.013,13.365 155.013,12.004 C155.013,10.274 155.657,8.797 156.600,7.851 C157.496,6.952 158.737,6.444 160.163,6.444 C161.037,6.444 162.439,6.652 163.381,7.944 C163.381,7.944 163.381,6.791 163.381,6.791 C163.381,6.791 166.692,6.791 166.692,6.791 C166.692,6.791 166.692,17.080 166.692,17.080 C166.692,17.080 163.381,17.080 163.381,17.080 C163.381,17.080 163.381,15.834 163.381,15.834 ZM162.830,10.020 C162.324,9.535 161.588,9.305 160.991,9.305 C160.278,9.305 159.611,9.605 159.174,10.043 C158.830,10.389 158.416,10.989 158.416,11.912 C158.416,12.835 158.807,13.435 159.105,13.758 C159.565,14.242 160.278,14.565 161.059,14.565 C161.726,14.565 162.347,14.289 162.783,13.850 C163.221,13.435 163.588,12.789 163.588,11.912 C163.588,11.174 163.312,10.482 162.830,10.020 ZM150.829,41.320 C150.829,41.320 146.139,31.122 146.139,31.122 C146.139,31.122 147.978,31.122 147.978,31.122 C147.978,31.122 150.829,37.582 150.829,37.582 C150.829,37.582 153.680,31.122 153.680,31.122 C153.680,31.122 155.519,31.122 155.519,31.122 C155.519,31.122 150.829,41.320 150.829,41.320 ZM152.714,22.363 C152.714,22.363 149.404,22.363 149.404,22.363 C149.404,22.363 149.404,6.791 149.404,6.791 C149.404,6.791 152.714,6.791 152.714,6.791 C152.714,6.791 152.714,22.363 152.714,22.363 ZM151.058,4.345 C149.978,4.345 149.128,3.491 149.128,2.407 C149.128,1.322 149.978,0.469 151.058,0.469 C152.139,0.469 152.989,1.322 152.989,2.407 C152.989,3.491 152.139,4.345 151.058,4.345 ZM143.287,11.797 C143.287,11.128 143.264,10.274 142.735,9.744 C142.483,9.490 142.069,9.282 141.471,9.282 C140.781,9.282 140.344,9.559 140.092,9.836 C139.540,10.389 139.448,11.128 139.448,11.797 C139.448,11.797 139.448,17.080 139.448,17.080 C139.448,17.080 136.138,17.080 136.138,17.080 C136.138,17.080 136.138,6.791 136.138,6.791 C136.138,6.791 139.448,6.791 139.448,6.791 C139.448,6.791 139.448,8.013 139.448,8.013 C140.459,6.721 141.655,6.514 142.621,6.514 C143.517,6.514 144.690,6.675 145.563,7.551 C146.529,8.521 146.598,9.744 146.598,10.574 C146.598,10.574 146.598,17.080 146.598,17.080 C146.598,17.080 143.287,17.080 143.287,17.080 C143.287,17.080 143.287,11.797 143.287,11.797 ZM139.472,30.892 C141.311,30.892 142.299,31.906 142.736,32.484 C142.736,32.484 142.736,31.122 142.736,31.122 C142.736,31.122 144.391,31.122 144.391,31.122 C144.391,31.122 144.391,40.697 144.391,40.697 C144.391,40.697 142.736,40.697 142.736,40.697 C142.736,40.697 142.736,39.359 142.736,39.359 C142.184,40.074 141.150,40.974 139.472,40.974 C137.057,40.974 134.827,39.267 134.827,35.898 C134.827,32.599 137.034,30.892 139.472,30.892 ZM139.655,39.497 C141.678,39.497 142.828,37.813 142.828,35.921 C142.828,33.453 141.126,32.368 139.655,32.368 C138.023,32.368 136.529,33.568 136.529,35.898 C136.529,37.951 137.678,39.497 139.655,39.497 ZM131.677,4.345 C130.597,4.345 129.746,3.491 129.746,2.407 C129.746,1.322 130.597,0.469 131.677,0.469 C132.758,0.469 133.609,1.322 133.609,2.407 C133.609,3.491 132.758,4.345 131.677,4.345 ZM126.826,40.697 C126.826,40.697 123.010,36.336 123.010,36.336 C123.010,36.336 122.596,36.751 122.596,36.751 C122.596,36.751 122.596,40.697 122.596,40.697 C122.596,40.697 120.941,40.697 120.941,40.697 C120.941,40.697 120.941,23.878 120.941,23.878 C120.941,23.878 122.596,23.878 122.596,23.878 C122.596,23.878 122.596,34.675 122.596,34.675 C122.596,34.675 126.090,31.122 126.090,31.122 C126.090,31.122 128.251,31.122 128.251,31.122 C128.251,31.122 124.159,35.229 124.159,35.229 C124.159,35.229 128.987,40.697 128.987,40.697 C128.987,40.697 126.826,40.697 126.826,40.697 ZM123.882,11.866 C123.882,11.335 123.882,10.412 123.445,9.859 C123.170,9.513 122.733,9.305 122.250,9.305 C121.698,9.305 121.239,9.559 120.963,9.928 C120.526,10.482 120.457,11.289 120.457,11.958 C120.457,11.958 120.457,17.080 120.457,17.080 C120.457,17.080 117.146,17.080 117.146,17.080 C117.146,17.080 117.146,11.728 117.146,11.728 C117.146,11.035 117.124,10.228 116.618,9.720 C116.273,9.375 115.859,9.305 115.514,9.305 C115.077,9.305 114.687,9.420 114.365,9.720 C113.744,10.320 113.721,11.474 113.721,11.820 C113.721,11.820 113.721,17.080 113.721,17.080 C113.721,17.080 110.411,17.080 110.411,17.080 C110.411,17.080 110.411,6.791 110.411,6.791 C110.411,6.791 113.721,6.791 113.721,6.791 C113.721,6.791 113.721,7.990 113.721,7.990 C114.572,6.698 115.813,6.537 116.595,6.537 C117.032,6.537 117.836,6.582 118.526,6.998 C119.055,7.298 119.491,7.805 119.767,8.428 C120.020,8.013 120.411,7.529 121.078,7.113 C121.790,6.675 122.457,6.537 123.262,6.537 C124.503,6.537 125.515,6.906 126.135,7.506 C127.124,8.451 127.193,9.836 127.193,10.574 C127.193,10.574 127.193,17.080 127.193,17.080 C127.193,17.080 123.882,17.080 123.882,17.080 C123.882,17.080 123.882,11.866 123.882,11.866 ZM110.870,31.122 C110.870,31.122 114.250,37.974 114.250,37.974 C114.250,37.974 117.353,31.122 117.353,31.122 C117.353,31.122 119.193,31.122 119.193,31.122 C119.193,31.122 112.181,46.003 112.181,46.003 C112.181,46.003 110.342,46.003 110.342,46.003 C110.342,46.003 113.376,39.797 113.376,39.797 C113.376,39.797 108.985,31.122 108.985,31.122 C108.985,31.122 110.870,31.122 110.870,31.122 ZM102.317,17.426 C100.317,17.426 98.754,16.687 97.834,15.765 C96.800,14.727 96.294,13.250 96.294,11.935 C96.294,10.620 96.800,9.143 97.834,8.105 C98.754,7.182 100.317,6.444 102.317,6.444 C104.317,6.444 105.880,7.182 106.800,8.105 C107.834,9.143 108.340,10.620 108.340,11.935 C108.340,13.250 107.834,14.727 106.800,15.765 C105.880,16.687 104.317,17.426 102.317,17.426 ZM104.179,9.997 C103.696,9.513 103.076,9.259 102.317,9.259 C101.558,9.259 100.938,9.513 100.455,9.997 C99.972,10.482 99.696,11.105 99.696,11.935 C99.696,12.881 100.064,13.481 100.455,13.873 C100.869,14.289 101.466,14.611 102.340,14.611 C103.076,14.611 103.696,14.357 104.179,13.873 C104.662,13.389 104.938,12.766 104.938,11.935 C104.938,11.105 104.662,10.482 104.179,9.997 ZM100.662,4.091 C100.662,4.091 103.490,0.584 103.490,0.584 C103.490,0.584 105.651,2.084 105.651,2.084 C105.651,2.084 102.156,5.199 102.156,5.199 C102.156,5.199 100.662,4.091 100.662,4.091 ZM92.638,33.822 C92.638,33.822 97.512,40.697 97.512,40.697 C97.512,40.697 95.443,40.697 95.443,40.697 C95.443,40.697 90.776,33.960 90.776,33.960 C90.776,33.960 90.339,33.960 90.339,33.960 C90.339,33.960 90.339,40.697 90.339,40.697 C90.339,40.697 88.638,40.697 88.638,40.697 C88.638,40.697 88.638,25.308 88.638,25.308 C88.638,25.308 91.098,25.308 91.098,25.308 C92.132,25.308 93.672,25.377 94.822,26.162 C95.718,26.762 96.500,27.939 96.500,29.576 C96.500,31.930 94.960,33.660 92.638,33.822 ZM93.580,27.361 C92.890,26.970 92.109,26.923 91.373,26.923 C91.373,26.923 90.339,26.923 90.339,26.923 C90.339,26.923 90.339,32.437 90.339,32.437 C90.339,32.437 91.419,32.437 91.419,32.437 C93.534,32.437 94.799,31.422 94.799,29.623 C94.799,28.769 94.546,27.915 93.580,27.361 ZM93.995,22.363 C93.995,22.363 90.684,22.363 90.684,22.363 C90.684,22.363 90.684,6.791 90.684,6.791 C90.684,6.791 93.995,6.791 93.995,6.791 C93.995,6.791 93.995,22.363 93.995,22.363 ZM92.339,4.345 C91.259,4.345 90.409,3.491 90.409,2.407 C90.409,1.322 91.259,0.469 92.339,0.469 C93.420,0.469 94.271,1.322 94.271,2.407 C94.271,3.491 93.420,4.345 92.339,4.345 ZM83.924,7.574 C83.924,7.574 85.074,8.013 85.074,8.013 C85.741,8.267 86.568,8.613 87.166,9.189 C88.062,10.043 88.292,11.151 88.292,12.051 C88.292,13.643 87.741,15.027 86.936,15.857 C85.579,17.287 83.602,17.426 82.591,17.426 C81.487,17.426 80.522,17.264 79.556,16.780 C78.775,16.388 77.878,15.672 77.303,15.096 C77.303,15.096 79.142,12.558 79.142,12.558 C79.533,12.950 80.154,13.481 80.568,13.735 C81.166,14.104 81.786,14.289 82.499,14.289 C82.959,14.289 83.602,14.196 84.108,13.758 C84.407,13.504 84.660,13.088 84.660,12.512 C84.660,12.004 84.453,11.681 84.131,11.404 C83.717,11.058 82.775,10.712 82.338,10.551 C82.338,10.551 81.074,10.113 81.074,10.113 C80.361,9.859 79.533,9.535 78.936,8.890 C78.131,8.037 78.016,6.952 78.016,6.213 C78.016,4.852 78.430,3.699 79.349,2.753 C80.430,1.645 81.717,1.346 83.143,1.346 C84.200,1.346 85.901,1.530 87.695,2.868 C87.695,2.868 86.108,5.452 86.108,5.452 C84.959,4.414 83.970,4.345 83.534,4.345 C83.051,4.345 82.453,4.414 82.039,4.875 C81.809,5.106 81.648,5.452 81.648,5.844 C81.648,6.213 81.763,6.490 81.993,6.698 C82.361,7.044 82.890,7.182 83.924,7.574 ZM63.387,0.637 C63.387,0.637 64.774,0.637 64.774,0.637 C64.774,0.637 64.774,40.692 64.774,40.692 C64.774,40.692 63.387,40.692 63.387,40.692 C63.387,40.692 63.387,0.637 63.387,0.637 ZM34.345,11.241 C34.345,11.241 24.288,21.334 24.288,21.334 C24.288,21.334 18.999,16.027 18.999,16.027 C18.999,16.027 34.345,0.625 34.345,0.625 C34.345,0.625 49.692,16.026 49.692,16.026 C49.692,16.026 44.403,21.335 44.403,21.335 C44.403,21.335 34.345,11.241 34.345,11.241 ZM25.405,40.691 C25.405,40.691 15.347,30.598 15.347,30.598 C15.347,30.598 5.289,40.692 5.289,40.692 C5.289,40.692 0.001,35.383 0.001,35.383 C0.001,35.383 15.347,19.982 15.347,19.982 C15.347,19.982 30.693,35.384 30.693,35.384 C30.693,35.384 25.405,40.691 25.405,40.691 ZM81.625,25.931 C81.625,25.931 78.798,29.323 78.798,29.323 C78.798,29.323 77.717,28.838 77.717,28.838 C77.717,28.838 79.855,25.308 79.855,25.308 C79.855,25.308 81.625,25.931 81.625,25.931 ZM79.740,40.697 C79.740,40.697 78.085,40.697 78.085,40.697 C78.085,40.697 78.085,31.122 78.085,31.122 C78.085,31.122 79.740,31.122 79.740,31.122 C79.740,31.122 79.740,40.697 79.740,40.697 ZM103.329,30.892 C105.191,30.892 106.363,31.814 106.938,32.645 C107.536,33.498 107.881,34.975 107.835,36.244 C107.835,36.244 100.410,36.244 100.410,36.244 C100.432,38.228 101.789,39.497 103.444,39.497 C104.226,39.497 104.846,39.267 105.398,38.805 C105.835,38.436 106.180,37.951 106.387,37.490 C106.387,37.490 107.766,38.251 107.766,38.251 C107.490,38.782 107.076,39.359 106.594,39.797 C105.720,40.582 104.639,40.974 103.421,40.974 C101.122,40.974 98.708,39.520 98.708,35.967 C98.708,33.107 100.455,30.892 103.329,30.892 ZM106.134,34.859 C105.858,33.361 104.731,32.368 103.329,32.368 C101.927,32.368 100.777,33.429 100.524,34.859 C100.524,34.859 106.134,34.859 106.134,34.859 ZM133.333,17.080 C133.333,17.080 130.022,17.080 130.022,17.080 C130.022,17.080 130.022,6.791 130.022,6.791 C130.022,6.791 133.333,6.791 133.333,6.791 C133.333,6.791 133.333,17.080 133.333,17.080 ZM131.471,26.324 C132.114,26.324 132.643,26.854 132.643,27.500 C132.643,28.146 132.114,28.677 131.471,28.677 C130.827,28.677 130.298,28.146 130.298,27.500 C130.298,26.854 130.827,26.324 131.471,26.324 ZM132.298,46.003 C132.298,46.003 130.643,46.003 130.643,46.003 C130.643,46.003 130.643,31.122 130.643,31.122 C130.643,31.122 132.298,31.122 132.298,31.122 C132.298,31.122 132.298,46.003 132.298,46.003 ZM160.807,25.931 C160.807,25.931 157.979,29.323 157.979,29.323 C157.979,29.323 156.899,28.838 156.899,28.838 C156.899,28.838 159.037,25.308 159.037,25.308 C159.037,25.308 160.807,25.931 160.807,25.931 ZM158.922,40.697 C158.922,40.697 157.267,40.697 157.267,40.697 C157.267,40.697 157.267,31.122 157.267,31.122 C157.267,31.122 158.922,31.122 158.922,31.122 C158.922,31.122 158.922,40.697 158.922,40.697 ZM217.067,17.080 C217.067,17.080 213.757,17.080 213.757,17.080 C213.757,17.080 213.757,6.791 213.757,6.791 C213.757,6.791 217.067,6.791 217.067,6.791 C217.067,6.791 217.067,17.080 217.067,17.080 Z" id="path-1" class="cls-2" fill-rule="evenodd"/>
</svg>
