<svg xmlns="http://www.w3.org/2000/svg" xmlns:xlink="http://www.w3.org/1999/xlink" preserveAspectRatio="xMidYMid" width="30" height="26" viewBox="0 0 30 26">
  <defs>
    <style>

      .cls-2 {
        fill: #ffffff;
        filter: url(#color-overlay-1);
      }
    </style>

    <filter id="color-overlay-1" filterUnits="userSpaceOnUse">
      <feFlood flood-color="#444444" flood-opacity="1"/>
      <feComposite operator="in" in2="SourceGraphic"/>
      <feBlend mode="normal" in2="SourceGraphic" result="colorOverlay"/>
    </filter>
  </defs>
  <path d="M27.766,19.996 C27.766,19.996 24.029,19.996 24.029,19.996 C24.029,19.996 24.036,25.097 24.036,25.097 C24.036,25.097 18.414,19.996 18.414,19.996 C18.414,19.996 14.105,19.996 14.105,19.996 C12.870,19.996 11.869,19.244 11.869,18.009 C11.869,18.009 21.877,17.954 22.814,17.954 C23.752,17.954 24.968,16.750 24.968,15.812 C24.968,14.875 24.968,4.904 24.968,4.904 C24.968,4.904 27.766,4.904 27.766,4.904 C29.001,4.904 30.003,5.842 30.003,7.077 C30.003,7.077 30.003,18.009 30.003,18.009 C30.003,19.244 29.001,19.996 27.766,19.996 ZM21.807,16.954 C21.807,16.954 11.671,16.954 11.671,16.954 C11.671,16.954 5.966,22.090 5.966,22.090 C5.966,22.090 5.965,16.954 5.965,16.954 C5.965,16.954 2.236,16.954 2.236,16.954 C1.001,16.954 -0.000,15.952 -0.000,14.717 C-0.000,14.717 -0.000,2.230 -0.000,2.230 C-0.000,0.995 1.001,-0.006 2.236,-0.006 C2.236,-0.006 21.807,-0.006 21.807,-0.006 C23.042,-0.006 24.044,0.995 24.044,2.230 C24.044,2.230 24.044,14.717 24.044,14.717 C24.044,15.952 23.042,16.954 21.807,16.954 Z" id="path-1" class="cls-2" fill-rule="evenodd"/>
</svg>
