<svg xmlns="http://www.w3.org/2000/svg" xmlns:xlink="http://www.w3.org/1999/xlink" preserveAspectRatio="xMidYMid" width="32" height="32" viewBox="0 0 32 32">
  <defs>
    <style>

      .cls-2 {
        fill: #a29762;
      }
    </style>
  </defs>
  <path d="M16.000,32.000 C7.163,32.000 -0.000,24.837 -0.000,16.000 C-0.000,7.163 7.163,0.000 16.000,0.000 C24.837,0.000 32.000,7.163 32.000,16.000 C32.000,24.837 24.837,32.000 16.000,32.000 ZM16.000,2.500 C8.544,2.500 2.500,8.544 2.500,16.000 C2.500,23.456 8.544,29.500 16.000,29.500 C23.456,29.500 29.500,23.456 29.500,16.000 C29.500,8.544 23.456,2.500 16.000,2.500 ZM21.293,18.707 C21.293,18.707 16.000,13.414 16.000,13.414 C16.000,13.414 10.707,18.707 10.707,18.707 C10.316,19.098 9.684,19.098 9.293,18.707 C9.098,18.512 9.000,18.256 9.000,18.000 C9.000,17.744 9.098,17.488 9.293,17.293 C9.293,17.293 15.293,11.293 15.293,11.293 C15.684,10.902 16.316,10.902 16.707,11.293 C16.707,11.293 22.707,17.293 22.707,17.293 C23.098,17.684 23.098,18.316 22.707,18.707 C22.316,19.098 21.684,19.098 21.293,18.707 Z" id="path-1" class="cls-2" fill-rule="evenodd"/>
</svg>
