<svg xmlns="http://www.w3.org/2000/svg" xmlns:xlink="http://www.w3.org/1999/xlink" preserveAspectRatio="xMidYMid" width="167" height="32" viewBox="0 0 167 32">
  <defs>
    <style>

      .cls-2 {
        fill: #000000;
      }
    </style>
  </defs>
  <path d="M164.310,21.277 C164.310,21.277 164.310,20.281 164.310,20.281 C163.899,20.871 163.152,21.553 161.676,21.553 C160.443,21.553 159.546,21.166 158.818,20.429 C157.958,19.580 157.510,18.400 157.510,17.128 C157.510,15.763 158.014,14.638 158.818,13.882 C159.546,13.200 160.574,12.775 161.713,12.775 C162.628,12.775 163.637,13.070 164.310,13.974 C164.310,13.974 164.310,7.834 164.310,7.834 C164.310,7.834 167.000,7.834 167.000,7.834 C167.000,7.834 167.000,21.277 167.000,21.277 C167.000,21.277 164.310,21.277 164.310,21.277 ZM163.880,15.671 C163.451,15.228 162.946,15.062 162.367,15.062 C161.825,15.062 161.358,15.210 160.928,15.616 C160.536,15.984 160.275,16.519 160.275,17.183 C160.275,17.791 160.536,18.326 160.928,18.695 C161.339,19.082 161.863,19.267 162.329,19.267 C162.834,19.267 163.432,19.064 163.862,18.659 C164.179,18.363 164.478,17.866 164.478,17.183 C164.478,16.482 164.198,16.003 163.880,15.671 ZM153.137,17.054 C153.137,16.519 153.118,15.837 152.689,15.413 C152.484,15.210 152.147,15.044 151.661,15.044 C151.101,15.044 150.746,15.265 150.540,15.486 C150.092,15.929 150.018,16.519 150.018,17.054 C150.018,17.054 150.018,21.277 150.018,21.277 C150.018,21.277 147.327,21.277 147.327,21.277 C147.327,21.277 147.327,13.052 147.327,13.052 C147.327,13.052 150.018,13.052 150.018,13.052 C150.018,13.052 150.018,14.030 150.018,14.030 C150.839,12.997 151.811,12.831 152.596,12.831 C153.324,12.831 154.277,12.960 154.987,13.661 C155.772,14.436 155.827,15.413 155.827,16.077 C155.827,16.077 155.827,21.277 155.827,21.277 C155.827,21.277 153.137,21.277 153.137,21.277 C153.137,21.277 153.137,17.054 153.137,17.054 ZM142.543,20.281 C141.815,21.388 140.768,21.553 140.077,21.553 C138.882,21.553 137.873,21.258 136.957,20.300 C136.079,19.377 135.743,18.308 135.743,17.220 C135.743,15.837 136.266,14.656 137.032,13.901 C137.760,13.181 138.769,12.775 139.928,12.775 C140.638,12.775 141.777,12.942 142.543,13.974 C142.543,13.974 142.543,13.052 142.543,13.052 C142.543,13.052 145.233,13.052 145.233,13.052 C145.233,13.052 145.233,21.277 145.233,21.277 C145.233,21.277 142.543,21.277 142.543,21.277 C142.543,21.277 142.543,20.281 142.543,20.281 ZM142.095,15.634 C141.684,15.247 141.086,15.062 140.600,15.062 C140.021,15.062 139.479,15.302 139.125,15.652 C138.844,15.929 138.508,16.408 138.508,17.146 C138.508,17.884 138.826,18.363 139.068,18.621 C139.442,19.009 140.021,19.267 140.656,19.267 C141.198,19.267 141.703,19.046 142.057,18.695 C142.413,18.363 142.712,17.847 142.712,17.146 C142.712,16.556 142.487,16.003 142.095,15.634 ZM131.296,7.834 C131.296,7.834 133.987,7.834 133.987,7.834 C133.987,7.834 133.987,21.277 133.987,21.277 C133.987,21.277 131.296,21.277 131.296,21.277 C131.296,21.277 131.296,7.834 131.296,7.834 ZM126.868,15.947 C126.868,15.947 127.578,16.169 127.578,16.169 C128.045,16.316 128.531,16.501 128.960,16.888 C129.446,17.331 129.614,17.828 129.614,18.456 C129.614,19.544 129.128,20.245 128.755,20.613 C127.933,21.425 126.924,21.553 126.046,21.553 C124.925,21.553 123.711,21.314 122.627,20.373 C122.627,20.373 123.767,18.584 123.767,18.584 C124.028,18.806 124.402,19.064 124.682,19.193 C125.056,19.377 125.448,19.451 125.803,19.451 C125.971,19.451 126.401,19.451 126.644,19.267 C126.812,19.138 126.924,18.935 126.924,18.732 C126.924,18.584 126.868,18.400 126.625,18.253 C126.438,18.142 126.196,18.068 125.803,17.958 C125.803,17.958 125.130,17.755 125.130,17.755 C124.645,17.607 124.140,17.349 123.786,16.998 C123.393,16.593 123.188,16.132 123.188,15.505 C123.188,14.712 123.505,14.048 123.991,13.606 C124.738,12.923 125.747,12.775 126.513,12.775 C127.746,12.775 128.605,13.089 129.278,13.476 C129.278,13.476 128.213,15.154 128.213,15.154 C127.802,14.915 127.260,14.694 126.737,14.694 C126.457,14.694 126.139,14.767 125.971,14.934 C125.878,15.026 125.803,15.173 125.803,15.302 C125.803,15.486 125.934,15.597 126.065,15.671 C126.251,15.782 126.532,15.837 126.868,15.947 ZM117.769,8.977 C117.769,8.977 120.646,8.977 120.646,8.977 C120.646,8.977 120.646,21.277 120.646,21.277 C120.646,21.277 117.769,21.277 117.769,21.277 C117.769,21.277 117.769,8.977 117.769,8.977 ZM102.149,25.500 C102.149,25.500 105.082,20.226 105.082,20.226 C105.082,20.226 101.103,13.052 101.103,13.052 C101.103,13.052 104.204,13.052 104.204,13.052 C104.204,13.052 106.559,17.515 106.559,17.515 C106.559,17.515 108.856,13.052 108.856,13.052 C108.856,13.052 111.883,13.052 111.883,13.052 C111.883,13.052 105.176,25.500 105.176,25.500 C105.176,25.500 102.149,25.500 102.149,25.500 ZM94.713,19.027 C95.124,19.470 95.684,19.544 96.095,19.544 C96.488,19.544 96.899,19.470 97.179,19.304 C97.216,19.285 97.534,19.082 97.758,18.621 C97.758,18.621 100.299,18.879 100.299,18.879 C99.925,20.042 99.178,20.650 98.692,20.945 C97.889,21.425 96.992,21.553 96.058,21.553 C94.806,21.553 93.704,21.332 92.732,20.373 C92.004,19.654 91.481,18.566 91.481,17.201 C91.481,16.021 91.911,14.804 92.751,13.956 C93.760,12.960 95.012,12.775 95.946,12.775 C96.880,12.775 98.225,12.942 99.253,14.011 C100.243,15.044 100.430,16.335 100.430,17.349 C100.430,17.349 100.430,17.626 100.430,17.626 C100.430,17.626 94.208,17.626 94.208,17.626 C94.208,18.068 94.377,18.659 94.713,19.027 ZM97.945,16.040 C97.926,15.966 97.795,15.449 97.403,15.081 C97.104,14.804 96.674,14.620 96.133,14.620 C95.441,14.620 95.030,14.896 94.769,15.154 C94.563,15.376 94.377,15.671 94.302,16.040 C94.302,16.040 97.945,16.040 97.945,16.040 ZM90.097,16.058 C90.097,17.349 89.873,19.138 88.603,20.373 C87.557,21.388 86.305,21.553 85.352,21.553 C84.157,21.553 83.017,21.295 81.989,20.337 C80.906,19.322 80.644,18.124 80.644,17.165 C80.644,15.911 81.149,14.915 81.746,14.306 C82.400,13.624 83.428,13.108 84.904,13.108 C85.987,13.108 86.678,13.366 87.370,13.974 C87.258,13.366 87.015,12.831 86.678,12.425 C86.380,12.057 85.931,11.687 85.502,11.448 C85.502,11.448 81.821,13.015 81.821,13.015 C81.821,13.015 81.223,11.743 81.223,11.743 C81.223,11.743 83.895,10.636 83.895,10.636 C83.073,10.378 82.232,10.268 81.335,10.286 C81.335,10.286 82.008,8.516 82.008,8.516 C84.306,8.571 85.520,9.088 86.305,9.493 C86.305,9.493 89.126,8.387 89.126,8.387 C89.126,8.387 89.780,9.715 89.780,9.715 C89.780,9.715 87.743,10.507 87.743,10.507 C88.472,11.097 89.070,11.835 89.499,12.868 C89.948,13.938 90.097,14.970 90.097,16.058 ZM86.716,15.782 C86.398,15.468 85.894,15.247 85.352,15.247 C84.810,15.247 84.306,15.468 83.988,15.782 C83.652,16.114 83.409,16.648 83.409,17.275 C83.409,17.902 83.652,18.437 83.988,18.769 C84.306,19.082 84.810,19.304 85.352,19.304 C85.894,19.304 86.398,19.082 86.716,18.769 C87.052,18.437 87.295,17.902 87.295,17.275 C87.295,16.648 87.052,16.114 86.716,15.782 ZM77.431,11.097 C76.553,11.097 75.861,10.415 75.861,9.548 C75.861,8.682 76.553,7.999 77.431,7.999 C78.309,7.999 79.000,8.682 79.000,9.548 C79.000,10.415 78.309,11.097 77.431,11.097 ZM67.547,21.277 C67.547,21.277 62.259,8.977 62.259,8.977 C62.259,8.977 65.361,8.977 65.361,8.977 C65.361,8.977 68.518,16.851 68.518,16.851 C68.518,16.851 71.676,8.977 71.676,8.977 C71.676,8.977 74.777,8.977 74.777,8.977 C74.777,8.977 69.490,21.277 69.490,21.277 C69.490,21.277 67.547,21.277 67.547,21.277 ZM51.511,0.008 C51.511,0.008 52.638,0.008 52.638,0.008 C52.638,0.008 52.638,32.024 52.638,32.024 C52.638,32.024 51.511,32.024 51.511,32.024 C51.511,32.024 51.511,0.008 51.511,0.008 ZM27.910,8.484 C27.910,8.484 19.737,16.551 19.737,16.551 C19.737,16.551 15.439,12.309 15.439,12.309 C15.439,12.309 27.910,-0.002 27.910,-0.002 C27.910,-0.002 40.381,12.308 40.381,12.308 C40.381,12.308 36.084,16.552 36.084,16.552 C36.084,16.552 27.910,8.484 27.910,8.484 ZM20.645,32.023 C20.645,32.023 12.472,23.956 12.472,23.956 C12.472,23.956 4.298,32.024 4.298,32.024 C4.298,32.024 0.000,27.780 0.000,27.780 C0.000,27.780 12.472,15.471 12.472,15.471 C12.472,15.471 24.943,27.781 24.943,27.781 C24.943,27.781 20.645,32.023 20.645,32.023 ZM78.776,21.277 C78.776,21.277 76.086,21.277 76.086,21.277 C76.086,21.277 76.086,13.052 76.086,13.052 C76.086,13.052 78.776,13.052 78.776,13.052 C78.776,13.052 78.776,21.277 78.776,21.277 Z" id="path-1" class="cls-2" fill-rule="evenodd"/>
</svg>
