<svg xmlns="http://www.w3.org/2000/svg" xmlns:xlink="http://www.w3.org/1999/xlink" preserveAspectRatio="xMidYMid" width="140" height="40" viewBox="0 0 140 40">
  <defs>
    <style>

      .cls-2 {
        fill: #000000;
      }
    </style>
  </defs>
  <path d="M131.606,31.851 C131.606,31.851 127.819,31.851 127.819,31.851 C127.819,31.851 131.488,25.264 131.488,25.264 C131.488,25.264 126.509,16.304 126.509,16.304 C126.509,16.304 130.390,16.304 130.390,16.304 C130.390,16.304 133.336,21.877 133.336,21.877 C133.336,21.877 136.211,16.304 136.211,16.304 C136.211,16.304 139.998,16.304 139.998,16.304 C139.998,16.304 131.606,31.851 131.606,31.851 ZM118.513,23.767 C119.027,24.319 119.729,24.412 120.243,24.412 C120.734,24.412 121.248,24.319 121.599,24.112 C121.645,24.089 122.043,23.835 122.324,23.260 C122.324,23.260 125.503,23.582 125.503,23.582 C125.035,25.034 124.100,25.793 123.493,26.162 C122.487,26.761 121.365,26.922 120.196,26.922 C118.630,26.922 117.251,26.645 116.035,25.448 C115.124,24.549 114.469,23.191 114.469,21.486 C114.469,20.012 115.007,18.492 116.058,17.432 C117.321,16.189 118.887,15.958 120.056,15.958 C121.225,15.958 122.908,16.166 124.194,17.502 C125.433,18.791 125.666,20.403 125.666,21.671 C125.666,21.671 125.666,22.016 125.666,22.016 C125.666,22.016 117.882,22.016 117.882,22.016 C117.882,22.569 118.092,23.306 118.513,23.767 ZM122.557,20.035 C122.534,19.943 122.371,19.298 121.879,18.837 C121.505,18.492 120.968,18.262 120.290,18.262 C119.425,18.262 118.910,18.607 118.583,18.929 C118.326,19.206 118.092,19.574 117.999,20.035 C117.999,20.035 122.557,20.035 122.557,20.035 ZM112.738,20.058 C112.738,21.671 112.457,23.905 110.868,25.448 C109.559,26.715 107.992,26.922 106.800,26.922 C105.304,26.922 103.878,26.600 102.592,25.402 C101.236,24.135 100.909,22.638 100.909,21.440 C100.909,19.874 101.540,18.630 102.288,17.870 C103.106,17.018 104.392,16.373 106.239,16.373 C107.595,16.373 108.460,16.695 109.325,17.455 C109.185,16.695 108.881,16.027 108.460,15.520 C108.086,15.060 107.525,14.600 106.987,14.300 C106.987,14.300 102.382,16.258 102.382,16.258 C102.382,16.258 101.634,14.668 101.634,14.668 C101.634,14.668 104.976,13.286 104.976,13.286 C103.948,12.964 102.896,12.826 101.774,12.849 C101.774,12.849 102.616,10.638 102.616,10.638 C105.491,10.706 107.011,11.351 107.992,11.858 C107.992,11.858 111.522,10.476 111.522,10.476 C111.522,10.476 112.340,12.135 112.340,12.135 C112.340,12.135 109.793,13.125 109.793,13.125 C110.704,13.862 111.452,14.784 111.990,16.074 C112.551,17.409 112.738,18.699 112.738,20.058 ZM108.507,19.713 C108.109,19.321 107.478,19.044 106.800,19.044 C106.122,19.044 105.491,19.321 105.093,19.713 C104.673,20.127 104.369,20.795 104.369,21.578 C104.369,22.361 104.673,23.029 105.093,23.444 C105.491,23.835 106.122,24.112 106.800,24.112 C107.478,24.112 108.109,23.835 108.507,23.444 C108.928,23.029 109.231,22.361 109.231,21.578 C109.231,20.795 108.928,20.127 108.507,19.713 ZM96.888,13.862 C95.790,13.862 94.925,13.010 94.925,11.927 C94.925,10.845 95.790,9.993 96.888,9.993 C97.987,9.993 98.852,10.845 98.852,11.927 C98.852,13.010 97.987,13.862 96.888,13.862 ZM84.520,26.576 C84.520,26.576 77.905,11.213 77.905,11.213 C77.905,11.213 81.785,11.213 81.785,11.213 C81.785,11.213 85.736,21.049 85.736,21.049 C85.736,21.049 89.687,11.213 89.687,11.213 C89.687,11.213 93.567,11.213 93.567,11.213 C93.567,11.213 86.951,26.576 86.951,26.576 C86.951,26.576 84.520,26.576 84.520,26.576 ZM64.456,0.010 C64.456,0.010 65.866,0.010 65.866,0.010 C65.866,0.010 65.866,39.999 65.866,39.999 C65.866,39.999 64.456,39.999 64.456,39.999 C64.456,39.999 64.456,0.010 64.456,0.010 ZM34.924,10.597 C34.924,10.597 24.697,20.673 24.697,20.673 C24.697,20.673 19.319,15.374 19.319,15.374 C19.319,15.374 34.924,-0.002 34.924,-0.002 C34.924,-0.002 50.529,15.374 50.529,15.374 C50.529,15.374 45.151,20.674 45.151,20.674 C45.151,20.674 34.924,10.597 34.924,10.597 ZM25.833,39.998 C25.833,39.998 15.606,29.922 15.606,29.922 C15.606,29.922 5.378,39.999 5.378,39.999 C5.378,39.999 0.000,34.699 0.000,34.699 C0.000,34.699 15.606,19.324 15.606,19.324 C15.606,19.324 31.210,34.699 31.210,34.699 C31.210,34.699 25.833,39.998 25.833,39.998 ZM98.571,26.576 C98.571,26.576 95.205,26.576 95.205,26.576 C95.205,26.576 95.205,16.304 95.205,16.304 C95.205,16.304 98.571,16.304 98.571,16.304 C98.571,16.304 98.571,26.576 98.571,26.576 Z" id="path-1" class="cls-2" fill-rule="evenodd"/>
</svg>
