<svg xmlns="http://www.w3.org/2000/svg" xmlns:xlink="http://www.w3.org/1999/xlink" preserveAspectRatio="xMidYMid" width="38" height="40" viewBox="0 0 38 40">
  <defs>
    <style>

      .cls-2 {
        fill: #1961c3;
      }
    </style>
  </defs>
  <path d="M26.839,27.407 C27.331,27.521 27.707,27.762 27.968,28.132 C28.228,28.502 28.301,28.929 28.185,29.413 C28.040,30.011 27.867,30.551 27.664,31.035 C27.172,32.373 26.477,33.597 25.579,34.707 C24.682,35.816 23.640,36.763 22.453,37.545 C21.265,38.328 19.977,38.933 18.587,39.360 C17.198,39.787 15.750,40.000 14.245,40.000 C12.276,40.000 10.430,39.644 8.707,38.933 C6.985,38.221 5.479,37.254 4.191,36.030 C2.902,34.806 1.882,33.376 1.129,31.740 C0.376,30.103 0.000,28.346 0.000,26.467 C0.000,25.073 0.217,23.721 0.652,22.412 C1.086,21.103 1.708,19.893 2.519,18.783 C3.330,17.673 4.299,16.692 5.429,15.838 C6.558,14.984 7.803,14.301 9.163,13.789 C9.627,13.646 10.083,13.668 10.531,13.853 C10.980,14.038 11.291,14.344 11.465,14.771 C11.639,15.197 11.624,15.624 11.422,16.051 C11.219,16.478 10.886,16.763 10.423,16.905 C9.381,17.303 8.440,17.823 7.600,18.463 C6.760,19.103 6.037,19.843 5.429,20.683 C4.821,21.523 4.350,22.433 4.017,23.415 C3.684,24.397 3.518,25.414 3.518,26.467 C3.518,27.891 3.800,29.221 4.365,30.459 C4.929,31.697 5.696,32.771 6.666,33.682 C7.636,34.593 8.773,35.319 10.075,35.859 C11.378,36.400 12.768,36.670 14.245,36.670 C15.374,36.670 16.467,36.507 17.523,36.179 C18.580,35.852 19.550,35.390 20.433,34.792 C21.316,34.194 22.098,33.483 22.778,32.657 C23.459,31.832 23.987,30.921 24.363,29.925 C24.537,29.527 24.667,29.114 24.754,28.687 C24.870,28.232 25.123,27.876 25.514,27.620 C25.905,27.364 26.347,27.293 26.839,27.407 ZM37.783,33.938 C37.927,34.223 38.000,34.521 38.000,34.835 C38.000,35.404 37.790,35.888 37.370,36.286 C36.950,36.685 36.451,36.884 35.872,36.884 C35.409,36.884 35.003,36.770 34.656,36.542 C34.308,36.315 34.048,36.016 33.874,35.646 C33.874,35.646 28.142,25.827 28.142,25.827 C28.142,25.827 18.283,25.827 18.283,25.827 C18.168,25.856 18.008,25.870 17.806,25.870 C17.111,25.870 16.503,25.663 15.982,25.251 C15.460,24.838 15.142,24.304 15.026,23.650 C15.026,23.650 12.638,12.337 12.638,12.337 C12.638,12.337 12.681,12.337 12.681,12.337 C12.652,12.252 12.638,12.138 12.638,11.996 C12.638,11.142 12.956,10.409 13.593,9.797 C14.230,9.185 15.012,8.879 15.938,8.879 C16.691,8.879 17.350,9.093 17.914,9.520 C18.479,9.947 18.862,10.487 19.065,11.142 C19.065,11.142 19.108,11.270 19.108,11.270 C19.108,11.327 19.116,11.362 19.130,11.377 C19.145,11.391 19.152,11.426 19.152,11.483 C19.152,11.483 19.543,13.447 19.543,13.447 C19.543,13.447 26.318,13.447 26.318,13.447 C26.607,13.447 26.868,13.518 27.099,13.661 C27.534,13.888 27.816,14.230 27.946,14.685 C28.077,15.140 28.026,15.567 27.794,15.966 C27.620,16.279 27.374,16.507 27.056,16.649 C26.737,16.791 26.404,16.848 26.057,16.820 C26.057,16.820 20.281,16.820 20.281,16.820 C20.281,16.820 21.150,21.003 21.150,21.003 C21.150,21.003 28.532,21.003 28.532,21.003 C29.112,21.003 29.633,21.145 30.096,21.430 C30.559,21.715 30.907,22.099 31.138,22.583 C31.138,22.583 37.783,33.938 37.783,33.938 C37.783,33.938 37.783,33.938 37.783,33.938 ZM14.809,7.983 C14.230,7.983 13.694,7.876 13.202,7.663 C12.710,7.449 12.283,7.165 11.921,6.809 C11.559,6.453 11.270,6.033 11.053,5.550 C10.835,5.066 10.727,4.539 10.727,3.970 C10.727,3.429 10.835,2.917 11.053,2.433 C11.270,1.950 11.559,1.530 11.921,1.174 C12.283,0.818 12.710,0.534 13.202,0.320 C13.694,0.107 14.230,0.000 14.809,0.000 C15.359,0.000 15.880,0.107 16.373,0.320 C16.865,0.534 17.299,0.818 17.675,1.174 C18.052,1.530 18.341,1.950 18.544,2.433 C18.747,2.917 18.848,3.429 18.848,3.970 C18.848,5.080 18.457,6.026 17.675,6.809 C16.894,7.592 15.938,7.983 14.809,7.983 Z" id="path-1" class="cls-2" fill-rule="evenodd"/>
</svg>
