<?xml version="1.0" encoding="UTF-8"?>
<!DOCTYPE svg PUBLIC "-//W3C//DTD SVG 1.1//EN" "http://www.w3.org/Graphics/SVG/1.1/DTD/svg11.dtd">
<!-- Creator: CorelDRAW 2019 (64-Bit) -->
<svg xmlns="http://www.w3.org/2000/svg" xml:space="preserve" width="1244.98mm" height="239.714mm" version="1.1" style="shape-rendering:geometricPrecision; text-rendering:geometricPrecision; image-rendering:optimizeQuality; fill-rule:evenodd; clip-rule:evenodd"
viewBox="0 0 124498.48 23971.4"
 xmlns:xlink="http://www.w3.org/1999/xlink"
 xmlns:xodm="http://www.corel.com/coreldraw/odm/2003">
 <defs>
  <style type="text/css">
   <![CDATA[
    .fil0 {fill:#FFFFFF}
    .fil2 {fill:#FFFFFF;fill-rule:nonzero}
    .fil1 {fill:#FFFFFF;fill-rule:nonzero}
   ]]>
  </style>
 </defs>
 <g id="Warstwa_x0020_1">
  <metadata id="CorelCorpID_0Corel-Layer"/>
  <g id="_2087078614112">
   <path class="fil0" d="M38144.93 176.33c0,0 830.89,0 830.89,0 0,0 0,23632.02 0,23632.02 0,0 -830.89,0 -830.89,0 0,0 0,-23632.02 0,-23632.02zm-17403.26 6256.52c0,0 -6026.64,5954.55 -6026.64,5954.55 0,0 -3168.75,-3130.92 -3168.75,-3130.92 0,0 9195.39,-9087.23 9195.39,-9087.23 0,0 9196.56,9086.64 9196.56,9086.64 0,0 -3169.33,3132.1 -3169.33,3132.1 0,0 -6027.23,-5955.14 -6027.23,-5955.14zm-5357.08 17374.91c0,0 -6026.64,-5954.54 -6026.64,-5954.54 0,0 -6027.23,5955.13 -6027.23,5955.13 0,0 -3168.74,-3132.11 -3168.74,-3132.11 0,0 9195.97,-9086.05 9195.97,-9086.05 0,0 9195.98,9086.64 9195.98,9086.64 0,0 -3169.34,3130.93 -3169.34,3130.93z"/>
   <path id="_1" class="fil1" d="M39094.01 176.33l-236.38 0 118.19 118.19 -2.38 0 -6.95 0 -11.21 0 -15.16 0 -18.82 0 -22.16 0 -25.2 0 -27.95 0 -30.37 0 -32.51 0 -34.33 0 -35.86 0 -37.07 0 -37.98 0 -38.6 0 -38.9 0 -38.89 0 -38.6 0 -37.98 0 -37.07 0 -35.86 0 -34.33 0 -32.51 0 -30.37 0 -27.95 0 -25.2 0 -22.16 0 -18.82 0 -15.16 0 -11.21 0 -6.95 0 -2.38 0 0 -236.38 2.38 0 6.95 0 11.21 0 15.16 0 18.82 0 22.16 0 25.2 0 27.95 0 30.37 0 32.51 0 34.33 0 35.86 0 37.07 0 37.98 0 38.6 0 38.89 0 38.9 0 38.6 0 37.98 0 37.07 0 35.86 0 34.33 0 32.51 0 30.37 0 27.95 0 25.2 0 22.16 0 18.82 0 15.16 0 11.21 0 6.95 0 2.38 0 118.19 118.19zm-118.19 -118.19l118.19 0 0 118.19 -118.19 -118.19zm0 23868.4l0 -236.38 -118.19 118.19 0 -67.79 0 -197.61 0 -318.77 0 -431.27 0 -535.12 0 -630.32 0 -716.87 0 -794.75 0 -863.99 0 -924.57 0 -976.49 0 -1019.77 0 -1054.38 0 -1080.35 0 -1097.65 0 -1106.31 0 -1106.31 0 -1097.65 0 -1080.35 0 -1054.38 0 -1019.77 0 -976.49 0 -924.57 0 -863.99 0 -794.75 0 -716.87 0 -630.32 0 -535.12 0 -431.27 0 -318.77 0 -197.61 0 -67.79 236.38 0 0 67.79 0 197.61 0 318.77 0 431.27 0 535.12 0 630.32 0 716.87 0 794.75 0 863.99 0 924.57 0 976.49 0 1019.77 0 1054.38 0 1080.35 0 1097.65 0 1106.31 0 1106.31 0 1097.65 0 1080.35 0 1054.38 0 1019.77 0 976.49 0 924.57 0 863.99 0 794.75 0 716.87 0 630.32 0 535.12 0 431.27 0 318.77 0 197.61 0 67.79 -118.19 118.19zm118.19 -118.19l0 118.19 -118.19 0 118.19 -118.19zm-1067.27 0l236.38 0 -118.19 -118.19 2.38 0 6.95 0 11.21 0 15.16 0 18.82 0 22.16 0 25.2 0 27.95 0 30.37 0 32.51 0 34.33 0 35.86 0 37.07 0 37.98 0 38.6 0 38.89 0 38.9 0 38.6 0 37.98 0 37.07 0 35.86 0 34.33 0 32.51 0 30.37 0 27.95 0 25.2 0 22.16 0 18.82 0 15.16 0 11.21 0 6.95 0 2.38 0 0 236.38 -2.38 0 -6.95 0 -11.21 0 -15.16 0 -18.82 0 -22.16 0 -25.2 0 -27.95 0 -30.37 0 -32.51 0 -34.33 0 -35.86 0 -37.07 0 -37.98 0 -38.6 0 -38.9 0 -38.89 0 -38.6 0 -37.98 0 -37.07 0 -35.86 0 -34.33 0 -32.51 0 -30.37 0 -27.95 0 -25.2 0 -22.16 0 -18.82 0 -15.16 0 -11.21 0 -6.95 0 -2.38 0 -118.19 -118.19zm118.19 118.19l-118.19 0 0 -118.19 118.19 118.19zm0 -23868.4l0 236.38 118.19 -118.19 0 67.79 0 197.61 0 318.77 0 431.27 0 535.12 0 630.32 0 716.87 0 794.75 0 863.99 0 924.57 0 976.49 0 1019.77 0 1054.38 0 1080.35 0 1097.65 0 1106.31 0 1106.31 0 1097.65 0 1080.35 0 1054.38 0 1019.77 0 976.49 0 924.57 0 863.99 0 794.75 0 716.87 0 630.32 0 535.12 0 431.27 0 318.77 0 197.61 0 67.79 -236.38 0 0 -67.79 0 -197.61 0 -318.77 0 -431.27 0 -535.12 0 -630.32 0 -716.87 0 -794.75 0 -863.99 0 -924.57 0 -976.49 0 -1019.77 0 -1054.38 0 -1080.35 0 -1097.65 0 -1106.31 0 -1106.31 0 -1097.65 0 -1080.35 0 -1054.38 0 -1019.77 0 -976.49 0 -924.57 0 -863.99 0 -794.75 0 -716.87 0 -630.32 0 -535.12 0 -431.27 0 -318.77 0 -197.61 0 -67.79 118.19 -118.19zm-118.19 118.19l0 -118.19 118.19 0 -118.19 118.19zm-23394.78 12295.14l166.14 -168.14 -166.14 -0.01 17.29 -17.08 50.39 -49.78 81.29 -80.33 109.99 -108.67 136.46 -134.82 160.75 -158.84 182.81 -180.61 202.68 -200.27 220.34 -217.7 235.78 -232.96 249.03 -246.05 260.06 -256.95 268.89 -265.67 275.51 -272.2 279.92 -276.58 282.13 -278.77 282.13 -278.74 279.92 -276.58 275.51 -272.22 268.89 -265.67 260.06 -256.95 249.03 -246.05 235.78 -232.96 220.34 -217.7 202.68 -200.25 182.81 -180.63 160.75 -158.82 136.46 -134.84 109.99 -108.67 81.29 -80.31 50.39 -49.8 17.29 -17.08 166.14 168.16 -17.29 17.08 -50.39 49.78 -81.29 80.33 -109.99 108.67 -136.46 134.82 -160.75 158.84 -182.81 180.61 -202.68 200.27 -220.34 217.7 -235.78 232.96 -249.03 246.05 -260.06 256.95 -268.89 265.67 -275.51 272.2 -279.92 276.58 -282.13 278.76 -282.13 278.75 -279.92 276.58 -275.51 272.22 -268.89 265.67 -260.06 256.95 -249.03 246.05 -235.78 232.96 -220.34 217.7 -202.68 200.25 -182.81 180.63 -160.75 158.82 -136.46 134.84 -109.99 108.67 -81.29 80.31 -50.39 49.8 -17.29 17.08 -166.14 -0.01zm166.14 0.01l-83.07 82.07 -83.07 -82.08 166.14 0.01zm-3334.9 -3299.07l166.16 168.14 -0.01 -168.14 9.08 8.97 26.51 26.18 42.74 42.24 57.83 57.14 71.75 70.9 84.52 83.51 96.12 94.97 106.57 105.3 115.85 114.46 123.97 122.5 130.93 129.37 136.74 135.09 141.38 139.7 144.86 143.14 147.18 145.42 148.34 146.56 148.35 146.57 147.18 145.43 144.86 143.14 141.38 139.68 136.74 135.11 130.93 129.37 123.97 122.5 115.85 114.46 106.57 105.3 96.12 94.97 84.52 83.51 71.75 70.9 57.83 57.14 42.74 42.22 26.49 26.18 9.1 8.99 -166.14 168.14 -9.08 -8.97 -26.51 -26.18 -42.74 -42.24 -57.83 -57.14 -71.75 -70.9 -84.52 -83.51 -96.12 -94.97 -106.57 -105.3 -115.85 -114.46 -123.97 -122.5 -130.93 -129.37 -136.74 -135.09 -141.38 -139.7 -144.86 -143.14 -147.18 -145.41 -148.35 -146.57 -148.34 -146.58 -147.18 -145.42 -144.86 -143.14 -141.38 -139.68 -136.74 -135.11 -130.93 -129.37 -123.97 -122.5 -115.85 -114.46 -106.57 -105.3 -96.12 -94.97 -84.52 -83.51 -71.75 -70.9 -57.83 -57.14 -42.74 -42.22 -26.49 -26.18 -9.1 -8.99 -0.01 -168.14zm0.01 168.14l-85.08 -84.07 85.07 -84.07 0.01 168.14zm9361.53 -9255.37l-166.14 168.14 166.15 0 -26.38 26.07 -76.89 75.98 -124.03 122.57 -167.81 165.85 -208.23 205.77 -245.26 242.38 -278.94 275.65 -309.24 305.61 -336.18 332.23 -359.76 355.52 -379.96 375.5 -396.8 392.13 -410.27 405.44 -420.37 415.42 -427.1 422.09 -430.48 425.4 -430.47 425.41 -427.1 422.09 -420.37 415.42 -410.27 405.44 -396.8 392.13 -379.96 375.5 -359.76 355.52 -336.18 332.23 -309.24 305.61 -278.94 275.65 -245.26 242.38 -208.23 205.77 -167.81 165.83 -124.03 122.59 -76.89 75.98 -26.38 26.07 -166.16 -168.14 26.38 -26.07 76.89 -75.98 124.03 -122.57 167.81 -165.85 208.23 -205.77 245.26 -242.38 278.94 -275.65 309.24 -305.61 336.18 -332.23 359.76 -355.52 379.96 -375.5 396.8 -392.13 410.27 -405.44 420.37 -415.42 427.1 -422.09 430.47 -425.41 430.48 -425.4 427.1 -422.09 420.37 -415.42 410.27 -405.44 396.8 -392.13 379.96 -375.5 359.76 -355.52 336.18 -332.23 309.24 -305.61 278.94 -275.65 245.26 -242.38 208.23 -205.77 167.81 -165.83 124.03 -122.59 76.89 -75.98 26.38 -26.07 166.15 0zm-166.15 0l83.07 -82.09 83.08 82.09 -166.15 0zm9362.72 9254.78l-166.16 -168.14 0.01 168.14 -26.38 -26.07 -76.9 -75.97 -124.05 -122.57 -167.83 -165.83 -208.25 -205.75 -245.3 -242.37 -278.97 -275.64 -309.28 -305.59 -336.23 -332.21 -359.8 -355.49 -380.01 -375.47 -396.85 -392.11 -410.32 -405.42 -420.42 -415.39 -427.16 -422.06 -430.53 -425.37 -430.53 -425.39 -427.16 -422.06 -420.42 -415.39 -410.32 -405.42 -396.85 -392.11 -380.01 -375.45 -359.8 -355.51 -336.23 -332.21 -309.28 -305.59 -278.97 -275.64 -245.3 -242.35 -208.25 -205.77 -167.83 -165.83 -124.05 -122.55 -76.9 -75.99 -26.38 -26.07 166.14 -168.14 26.38 26.07 76.9 75.97 124.05 122.57 167.83 165.83 208.25 205.75 245.3 242.37 278.97 275.64 309.28 305.59 336.23 332.21 359.8 355.49 380.01 375.47 396.85 392.11 410.32 405.42 420.42 415.39 427.16 422.06 430.53 425.37 430.53 425.39 427.16 422.06 420.42 415.39 410.32 405.42 396.85 392.11 380.01 375.45 359.8 355.51 336.23 332.21 309.28 305.59 278.97 275.64 245.3 242.35 208.25 205.77 167.83 165.83 124.05 122.55 76.9 75.99 26.38 26.07 0.01 168.14zm-0.01 -168.14l85.08 84.07 -85.07 84.07 -0.01 -168.14zm-3335.47 3300.24l166.14 -168.14 -166.15 0 9.09 -8.98 26.5 -26.18 42.75 -42.26 57.84 -57.16 71.77 -70.92 84.53 -83.55 96.14 -95.01 106.59 -105.33 115.87 -114.5 123.99 -122.55 130.96 -129.42 136.77 -135.16 141.4 -139.74 144.89 -143.18 147.21 -145.47 148.36 -146.63 148.37 -146.64 147.21 -145.48 144.89 -143.18 141.4 -139.74 136.77 -135.16 130.96 -129.42 123.99 -122.53 115.87 -114.52 106.59 -105.33 96.14 -95.01 84.53 -83.53 71.77 -70.94 57.84 -57.16 42.75 -42.24 26.5 -26.2 9.09 -8.98 166.16 168.14 -9.09 8.98 -26.5 26.18 -42.75 42.26 -57.84 57.16 -71.77 70.92 -84.53 83.55 -96.14 95.01 -106.59 105.33 -115.87 114.5 -123.99 122.55 -130.96 129.42 -136.77 135.16 -141.4 139.74 -144.89 143.18 -147.21 145.48 -148.37 146.62 -148.36 146.63 -147.21 145.49 -144.89 143.18 -141.4 139.74 -136.77 135.16 -130.96 129.42 -123.99 122.53 -115.87 114.52 -106.59 105.33 -96.14 95.01 -84.53 83.53 -71.77 70.94 -57.84 57.16 -42.75 42.24 -26.5 26.2 -9.09 8.98 -166.15 0zm166.15 0l-83.07 82.09 -83.08 -82.09 166.15 0zm-6027.24 -5955.13l-166.14 -168.16 166.14 0.01 17.29 17.07 50.4 49.81 81.3 80.32 109.99 108.67 136.48 134.86 160.76 158.83 182.84 180.66 202.69 200.27 220.36 217.71 235.81 232.99 249.05 246.07 260.08 256.97 268.92 265.7 275.54 272.25 279.95 276.61 282.15 278.77 282.16 278.79 279.95 276.61 275.54 272.23 268.92 265.7 260.08 256.97 249.05 246.07 235.81 232.99 220.36 217.73 202.69 200.27 182.84 180.64 160.76 158.85 136.48 134.84 109.99 108.67 81.3 80.34 50.4 49.79 17.29 17.09 -166.14 168.14 -17.29 -17.07 -50.4 -49.81 -81.3 -80.32 -109.99 -108.67 -136.48 -134.86 -160.76 -158.83 -182.84 -180.66 -202.69 -200.27 -220.36 -217.71 -235.81 -232.99 -249.05 -246.07 -260.08 -256.97 -268.92 -265.7 -275.54 -272.25 -279.95 -276.61 -282.16 -278.77 -282.15 -278.79 -279.95 -276.61 -275.54 -272.23 -268.92 -265.7 -260.08 -256.97 -249.05 -246.07 -235.81 -232.99 -220.36 -217.73 -202.69 -200.27 -182.84 -180.64 -160.76 -158.85 -136.48 -134.84 -109.99 -108.67 -81.3 -80.34 -50.4 -49.79 -17.29 -17.09 166.14 0.01zm-166.14 -168.16l83.06 -82.07 83.08 82.08 -166.14 -0.01zm-11217.58 11588.53l-166.14 -168.16 166.14 0 17.29 17.08 50.39 49.8 81.29 80.31 109.99 108.67 136.46 134.84 160.75 158.82 182.81 180.63 202.68 200.25 220.34 217.7 235.78 232.96 249.03 246.04 260.06 256.96 268.89 265.68 275.51 272.2 279.92 276.58 282.13 278.76 282.13 278.76 279.92 276.56 275.51 272.22 268.89 265.68 260.06 256.94 249.03 246.04 235.78 232.96 220.34 217.7 202.68 200.27 182.81 180.61 160.75 158.84 136.46 134.82 109.99 108.67 81.29 80.33 50.39 49.78 17.29 17.08 -166.14 168.16 -17.29 -17.08 -50.39 -49.8 -81.29 -80.31 -109.99 -108.67 -136.46 -134.84 -160.75 -158.82 -182.81 -180.63 -202.68 -200.25 -220.34 -217.7 -235.78 -232.96 -249.03 -246.04 -260.06 -256.96 -268.89 -265.68 -275.51 -272.2 -279.92 -276.58 -282.13 -278.76 -282.13 -278.76 -279.92 -276.56 -275.51 -272.22 -268.89 -265.68 -260.06 -256.94 -249.03 -246.04 -235.78 -232.96 -220.34 -217.7 -202.68 -200.27 -182.81 -180.61 -160.75 -158.84 -136.46 -134.82 -109.99 -108.67 -81.29 -80.33 -50.39 -49.78 -17.29 -17.08 166.14 0zm-166.14 -168.16l83.07 -82.08 83.07 82.08 -166.14 0zm-6027.25 6123.27l166.18 -168.12 -166.16 -0.02 17.29 -17.08 50.4 -49.79 81.3 -80.34 109.99 -108.67 136.48 -134.84 160.76 -158.85 182.84 -180.64 202.69 -200.27 220.36 -217.73 235.81 -232.98 249.05 -246.07 260.08 -256.98 268.92 -265.7 275.54 -272.24 279.95 -276.59 282.15 -278.78 282.16 -278.79 279.95 -276.61 275.54 -272.24 268.92 -265.7 260.08 -256.96 249.05 -246.09 235.81 -232.98 220.36 -217.71 202.69 -200.27 182.84 -180.66 160.76 -158.83 136.48 -134.86 109.99 -108.67 81.3 -80.32 50.4 -49.81 17.29 -17.08 166.14 168.16 -17.29 17.08 -50.4 49.79 -81.3 80.34 -109.99 108.67 -136.48 134.84 -160.76 158.85 -182.84 180.64 -202.69 200.27 -220.36 217.73 -235.81 232.98 -249.05 246.07 -260.08 256.98 -268.92 265.7 -275.54 272.24 -279.95 276.59 -282.16 278.79 -282.15 278.78 -279.95 276.61 -275.54 272.24 -268.92 265.7 -260.08 256.96 -249.05 246.09 -235.81 232.98 -220.36 217.71 -202.69 200.27 -182.84 180.66 -160.76 158.83 -136.48 134.86 -109.99 108.67 -81.3 80.32 -50.4 49.81 -17.29 17.08 -166.16 -0.02zm166.16 0.02l-83.09 82.09 -83.07 -82.11 166.16 0.02zm-3334.88 -3300.26l166.14 168.14 0.02 -168.13 9.09 8.98 26.5 26.2 42.73 42.24 57.84 57.16 71.75 70.93 84.52 83.54 96.11 95.01 106.58 105.33 115.84 114.51 123.98 122.54 130.93 129.42 136.74 135.16 141.38 139.74 144.86 143.19 147.18 145.48 148.34 146.63 148.34 146.62 147.18 145.48 144.86 143.19 141.38 139.74 136.74 135.16 130.93 129.42 123.98 122.54 115.84 114.51 106.56 105.33 96.13 95.01 84.52 83.54 71.75 70.93 57.82 57.16 42.75 42.24 26.5 26.2 9.09 8.98 -166.18 168.12 -9.09 -8.98 -26.5 -26.2 -42.73 -42.24 -57.84 -57.16 -71.75 -70.93 -84.52 -83.54 -96.11 -95.01 -106.58 -105.33 -115.84 -114.51 -123.98 -122.54 -130.93 -129.42 -136.74 -135.16 -141.38 -139.74 -144.86 -143.19 -147.18 -145.48 -148.34 -146.62 -148.34 -146.63 -147.18 -145.48 -144.86 -143.19 -141.38 -139.74 -136.74 -135.16 -130.93 -129.42 -123.98 -122.54 -115.84 -114.51 -106.56 -105.33 -96.13 -95.01 -84.52 -83.54 -71.75 -70.93 -57.82 -57.16 -42.75 -42.24 -26.5 -26.2 -9.09 -8.98 0.02 -168.13zm-0.02 168.13l-85.06 -84.07 85.08 -84.06 -0.02 168.13zm9362.13 -9254.18l-166.14 168.14 166.14 0 -26.38 26.07 -76.9 75.97 -124.04 122.56 -167.82 165.82 -208.23 205.74 -245.28 242.35 -278.96 275.62 -309.26 305.57 -336.21 332.18 -359.77 355.48 -379.99 375.44 -396.82 392.08 -410.3 405.39 -420.39 415.37 -427.14 422.03 -430.5 425.36 -430.49 425.35 -427.14 422.03 -420.39 415.37 -410.3 405.39 -396.82 392.08 -379.99 375.44 -359.77 355.48 -336.21 332.18 -309.26 305.57 -278.96 275.62 -245.28 242.35 -208.23 205.74 -167.82 165.82 -124.04 122.56 -76.9 75.99 -26.38 26.05 -166.14 -168.14 26.38 -26.07 76.9 -75.97 124.04 -122.56 167.82 -165.82 208.23 -205.74 245.28 -242.35 278.96 -275.62 309.26 -305.57 336.21 -332.18 359.77 -355.48 379.99 -375.44 396.82 -392.08 410.3 -405.39 420.39 -415.37 427.14 -422.03 430.49 -425.35 430.5 -425.36 427.14 -422.03 420.39 -415.37 410.3 -405.39 396.82 -392.08 379.99 -375.44 359.77 -355.48 336.21 -332.18 309.26 -305.57 278.96 -275.62 245.28 -242.35 208.23 -205.74 167.82 -165.82 124.04 -122.56 76.9 -75.99 26.38 -26.05 166.14 0zm-166.14 0l83.07 -82.08 83.07 82.08 -166.14 0zm9362.11 9254.79l-166.12 -168.16 -0.01 168.15 -26.38 -26.07 -76.9 -75.98 -124.04 -122.56 -167.82 -165.83 -208.23 -205.76 -245.28 -242.36 -278.96 -275.64 -309.26 -305.59 -336.21 -332.21 -359.78 -355.5 -379.98 -375.46 -396.83 -392.11 -410.29 -405.42 -420.4 -415.39 -427.13 -422.06 -430.5 -425.38 -430.5 -425.38 -427.13 -422.06 -420.4 -415.39 -410.29 -405.42 -396.83 -392.11 -379.98 -375.46 -359.78 -355.5 -336.21 -332.21 -309.26 -305.59 -278.96 -275.64 -245.28 -242.36 -208.23 -205.76 -167.82 -165.83 -124.04 -122.56 -76.9 -75.98 -26.38 -26.07 166.14 -168.14 26.38 26.07 76.9 75.98 124.04 122.56 167.82 165.83 208.23 205.76 245.28 242.36 278.96 275.64 309.26 305.59 336.21 332.21 359.78 355.5 379.98 375.46 396.83 392.11 410.29 405.42 420.4 415.39 427.13 422.06 430.5 425.38 430.5 425.38 427.13 422.06 420.4 415.39 410.29 405.42 396.83 392.11 379.98 375.46 359.78 355.5 336.21 332.21 309.26 305.59 278.96 275.64 245.28 242.36 208.23 205.76 167.82 165.83 124.04 122.56 76.9 75.98 26.38 26.07 -0.01 168.15zm0.01 -168.15l85.09 84.08 -85.1 84.07 0.01 -168.15zm-3335.48 3299.08l166.14 -168.16 -166.13 0 9.09 -8.98 26.5 -26.18 42.75 -42.23 57.84 -57.14 71.77 -70.9 84.53 -83.51 96.14 -94.97 106.59 -105.3 115.87 -114.46 124 -122.5 130.96 -129.37 136.76 -135.11 141.4 -139.69 144.89 -143.13 147.21 -145.42 148.37 -146.57 148.37 -146.58 147.21 -145.42 144.89 -143.13 141.4 -139.69 136.76 -135.11 130.96 -129.37 124 -122.5 115.87 -114.46 106.59 -105.3 96.14 -94.97 84.53 -83.51 71.77 -70.9 57.84 -57.14 42.75 -42.23 26.5 -26.18 9.09 -8.98 166.12 168.16 -9.09 8.98 -26.5 26.18 -42.75 42.23 -57.84 57.14 -71.77 70.9 -84.53 83.51 -96.14 94.97 -106.59 105.3 -115.87 114.46 -124 122.5 -130.96 129.37 -136.76 135.11 -141.4 139.69 -144.89 143.13 -147.21 145.42 -148.37 146.58 -148.37 146.57 -147.21 145.42 -144.89 143.13 -141.4 139.69 -136.76 135.11 -130.96 129.37 -124 122.5 -115.87 114.46 -106.59 105.3 -96.14 94.97 -84.53 83.51 -71.77 70.9 -57.84 57.14 -42.75 42.23 -26.5 26.18 -9.09 8.98 -166.13 0zm166.13 0l-83.07 82.06 -83.06 -82.06 166.13 0z"/>
   <path class="fil2" d="M46824.51 17610.44l5080.18 -11227.36 1672.16 0 5080.18 11227.36 -2070.3 0 -1114.77 -2595.83 -5478.31 0 -1098.85 2595.83 -2070.29 0zm5892.37 -9013.74l-2022.52 4793.53 4076.89 0 -2022.52 -4793.53 -31.85 0z"/>
   <path id="1" class="fil2" d="M63084.27 17769.69c-775.03,0 -1454.52,-156.6 -2038.44,-469.79 -583.93,-313.2 -1040.46,-745.84 -1369.58,-1297.92 -329.13,-552.08 -493.69,-1194.4 -493.69,-1926.96 0,-721.95 159.26,-1353.66 477.76,-1895.12 318.51,-541.46 756.46,-966.13 1313.84,-1274.02 557.39,-307.89 1202.36,-461.84 1934.93,-461.84 467.14,0 897.13,69.01 1289.95,207.03 392.83,138.02 727.26,371.59 1003.3,700.72 -148.64,-573.32 -382.21,-1077.62 -700.72,-1512.91 -318.5,-435.29 -674.17,-796.27 -1066.99,-1082.92l-2659.53 1210.32 -525.54 -1146.62 1847.34 -844.04c-180.49,-74.32 -395.48,-153.95 -644.98,-238.88 -249.49,-84.94 -512.26,-159.26 -788.3,-222.96l366.28 -1289.95c562.7,116.78 1074.96,262.77 1536.8,437.95 461.83,175.17 867.93,358.32 1218.28,549.42l2181.77 -987.37 525.54 1146.62 -1512.91 684.79c711.33,615.78 1263.41,1348.35 1656.24,2197.7 392.82,849.35 589.23,1773.02 589.23,2771 0,1496.99 -358.32,2662.19 -1074.96,3495.61 -716.64,833.43 -1738.51,1250.14 -3065.62,1250.14zm63.7 -1528.83c626.4,0 1112.12,-196.41 1457.17,-589.24 345.05,-392.82 517.57,-918.36 517.57,-1576.6 0,-658.25 -172.52,-1178.48 -517.57,-1560.69 -345.05,-382.2 -830.77,-573.31 -1457.17,-573.31 -605.16,0 -1082.92,191.11 -1433.28,573.31 -350.36,382.21 -525.54,902.44 -525.54,1560.69 0,679.48 172.53,1210.32 517.58,1592.53 345.05,382.21 825.46,573.31 1441.24,573.31z"/>
   <path id="2" class="fil2" d="M71413.21 17769.69c-562.69,0 -1064.34,-108.82 -1504.94,-326.47 -440.6,-217.64 -785.65,-512.26 -1035.15,-883.85 -249.49,-371.59 -374.24,-790.96 -374.24,-1258.1 0,-573.31 148.64,-1027.19 445.91,-1361.62 297.27,-334.43 780.34,-575.96 1449.2,-724.6 668.87,-148.64 1565.99,-222.96 2691.38,-222.96l557.39 0 0 -334.43c0,-530.84 -116.78,-913.05 -350.36,-1146.62 -233.57,-233.57 -626.39,-350.36 -1178.47,-350.36 -435.29,0 -881.2,66.36 -1337.73,199.07 -456.52,132.71 -918.36,337.08 -1385.5,613.12l-573.31 -1353.65c276.03,-191.1 602.5,-358.32 979.4,-501.65 376.9,-143.33 775.04,-254.8 1194.4,-334.43 419.37,-79.63 814.85,-119.44 1186.44,-119.44 1136.01,0 1980.05,262.77 2532.13,788.3 552.08,525.54 828.12,1340.39 828.12,2444.54l0 4713.9 -1863.27 0 0 -1242.18c-180.49,435.3 -467.14,777.69 -859.97,1027.19 -392.82,249.49 -859.96,374.24 -1401.43,374.24zm414.06 -1369.58c520.23,0 952.87,-180.48 1297.92,-541.46 345.05,-360.97 517.57,-817.5 517.57,-1369.57l0 -350.36 -541.46 0c-997.99,0 -1690.74,76.97 -2078.26,230.92 -387.51,153.94 -581.27,432.63 -581.27,836.08 0,350.35 122.09,637.01 366.28,859.96 244.19,222.96 583.93,334.43 1019.22,334.43z"/>
   <path id="3" class="fil2" d="M80267.7 17769.69c-923.67,0 -1605.8,-252.15 -2046.4,-756.45 -440.6,-504.3 -660.9,-1244.83 -660.9,-2221.58l0 -8408.58 1990.66 0 0 8313.02c0,955.52 403.44,1433.28 1210.33,1433.28 116.78,0 233.57,-5.3 350.36,-15.92 116.78,-10.62 228.26,-31.85 334.43,-63.7l-31.85 1576.61c-382.21,95.55 -764.42,143.32 -1146.63,143.32z"/>
   <path id="4" class="fil2" d="M85411.58 17769.69c-658.25,0 -1274.03,-79.62 -1847.34,-238.88 -573.31,-159.25 -1051.07,-387.51 -1433.28,-684.79l509.61 -1305.87c392.83,265.42 833.43,469.79 1321.81,613.12 488.37,143.33 976.75,214.99 1465.13,214.99 509.61,0 889.16,-87.59 1138.66,-262.76 249.49,-175.18 374.24,-406.1 374.24,-692.76 0,-445.9 -329.12,-732.56 -987.37,-859.96l-1592.53 -302.58c-1348.35,-254.81 -2022.52,-955.52 -2022.52,-2102.15 0,-509.61 140.68,-950.21 422.02,-1321.8 281.35,-371.59 671.52,-658.25 1170.51,-859.97 499,-201.72 1072.31,-302.58 1719.94,-302.58 552.08,0 1082.92,76.97 1592.53,230.92 509.61,153.94 944.91,384.86 1305.88,692.75l-541.46 1305.88c-307.89,-254.81 -676.83,-456.53 -1106.81,-605.17 -429.99,-148.63 -841.39,-222.95 -1234.21,-222.95 -520.23,0 -905.09,90.24 -1154.59,270.73 -249.5,180.49 -374.25,419.37 -374.25,716.64 0,467.14 302.59,753.8 907.75,859.97l1592.53 302.58c690.1,127.4 1212.98,360.97 1568.65,700.71 355.66,339.74 533.49,796.27 533.49,1369.58 0,775.03 -302.58,1382.85 -907.74,1823.45 -605.16,440.6 -1412.05,660.9 -2420.65,660.9z"/>
   <path id="5" class="fil2" d="M93820.15 17769.69c-2059.68,0 -3089.51,-1019.22 -3089.51,-3057.66l0 -3392.1 -1496.98 0 0 -1496.98 1496.98 0 0 -2325.09 1990.66 0 0 2325.09 2356.95 0 0 1496.98 -2356.95 0 0 3280.62c0,509.61 111.48,891.82 334.43,1146.63 222.96,254.8 583.93,382.2 1082.93,382.2 148.63,0 302.58,-18.58 461.83,-55.73 159.25,-37.16 323.82,-76.98 493.69,-119.44l302.58 1465.13c-191.11,106.16 -432.64,191.1 -724.6,254.8 -291.97,63.7 -575.97,95.55 -852.01,95.55z"/>
   <path id="6" class="fil2" d="M96368.21 17610.44l0 -7787.49 1942.89 0 0 1369.58c382.2,-923.67 1199.7,-1433.28 2452.5,-1528.83l605.16 -47.78 127.4 1688.09 -1146.62 111.48c-1305.88,127.4 -1958.82,796.26 -1958.82,2006.59l0 4188.36 -2022.51 0z"/>
   <path id="7" class="fil2" d="M105254.54 17769.69c-615.78,0 -1154.59,-108.82 -1616.42,-326.47 -461.84,-217.64 -820.16,-512.26 -1074.96,-883.85 -254.81,-371.59 -382.21,-790.96 -382.21,-1258.1 0,-573.31 148.64,-1027.19 445.91,-1361.62 297.27,-334.43 782.99,-575.96 1457.17,-724.6 674.17,-148.64 1584.57,-222.96 2731.19,-222.96l509.61 0 0 -334.43c0,-530.84 -119.44,-913.05 -358.32,-1146.62 -238.88,-233.57 -623.74,-350.36 -1154.59,-350.36 -445.9,0 -897.12,63.7 -1353.65,191.11 -456.52,127.4 -918.36,334.43 -1385.5,621.08l-573.31 -1353.65c276.03,-191.1 602.5,-358.32 979.4,-501.65 376.9,-143.33 775.04,-254.8 1194.4,-334.43 419.37,-79.63 820.16,-119.44 1202.37,-119.44 1305.87,0 2192.38,408.75 2659.53,1226.25 307.89,-403.44 703.36,-708.68 1186.43,-915.71 483.07,-207.03 974.1,-310.54 1473.1,-310.54 1082.92,0 1942.89,350.36 2579.9,1051.07 637.01,700.72 955.52,1656.24 955.52,2866.56l0 557.39 -5478.31 0c138.02,1412.04 913.05,2118.07 2325.09,2118.07 902.44,0 1725.25,-281.35 2468.43,-844.05l557.39 1353.66c-371.59,307.89 -836.08,552.08 -1393.47,732.56 -557.39,180.49 -1112.12,270.73 -1664.2,270.73 -785.65,0 -1475.74,-143.32 -2070.29,-429.98 -594.55,-286.66 -1045.76,-721.95 -1353.65,-1305.88 -233.57,552.08 -597.2,979.41 -1090.89,1281.99 -493.68,302.58 -1085.57,453.87 -1775.67,453.87zm5987.92 -6752.34c-552.08,0 -1000.64,169.87 -1345.69,509.61 -345.05,339.74 -554.73,828.12 -629.05,1465.13l3806.15 0c-42.46,-637.01 -217.64,-1125.39 -525.53,-1465.13 -307.89,-339.74 -743.18,-509.61 -1305.88,-509.61zm-5717.19 5382.76c530.84,0 963.48,-183.14 1297.91,-549.42 334.43,-366.28 501.65,-841.39 501.65,-1425.32l0 -286.65 -541.46 0c-997.99,0 -1690.74,76.97 -2078.26,230.92 -387.51,153.94 -581.27,432.63 -581.27,836.08 0,350.35 122.09,637.01 366.28,859.96 244.19,222.96 589.24,334.43 1035.15,334.43z"/>
   <path id="8" class="fil2" d="M119842.14 17769.69c-2059.68,0 -3089.51,-1019.22 -3089.51,-3057.66l0 -3392.1 -1496.98 0 0 -1496.98 1496.98 0 0 -2325.09 1990.66 0 0 2325.09 2356.95 0 0 1496.98 -2356.95 0 0 3280.62c0,509.61 111.48,891.82 334.43,1146.63 222.96,254.8 583.93,382.2 1082.93,382.2 148.63,0 302.58,-18.58 461.83,-55.73 159.25,-37.16 323.82,-76.98 493.69,-119.44l302.58 1465.13c-191.11,106.16 -432.64,191.1 -724.6,254.8 -291.97,63.7 -575.97,95.55 -852.01,95.55z"/>
   <path id="9" class="fil2" d="M122262.79 8150.79l0 -1942.89 2229.55 0 0 1942.89 -2229.55 0zm127.41 9459.65l0 -7787.49 1990.66 0 0 7787.49 -1990.66 0z"/>
  </g>
 </g>
</svg>
