<?xml version="1.0" encoding="UTF-8"?>
<!DOCTYPE svg PUBLIC "-//W3C//DTD SVG 1.1//EN" "http://www.w3.org/Graphics/SVG/1.1/DTD/svg11.dtd">
<!-- Creator: CorelDRAW 2019 (64-Bit) -->
<svg xmlns="http://www.w3.org/2000/svg" xml:space="preserve" width="1505mm" height="240mm" version="1.1" style="shape-rendering:geometricPrecision; text-rendering:geometricPrecision; image-rendering:optimizeQuality; fill-rule:evenodd; clip-rule:evenodd"
viewBox="0 0 150500 24000"
 xmlns:xlink="http://www.w3.org/1999/xlink"
 xmlns:xodm="http://www.corel.com/coreldraw/odm/2003">
 <defs>
  <style type="text/css">
   <![CDATA[
    .fil0 {fill:#FFFFFF}
    .fil4 {fill:#FFFFFF;fill-rule:nonzero}
    .fil3 {fill:#FFFFFF;fill-rule:nonzero}
    .fil2 {fill:#FFFFFF;fill-rule:nonzero}
    .fil1 {fill:#FFFFFF;fill-rule:nonzero}
   ]]>
  </style>
 </defs>
 <g id="Warstwa_x0020_1">
  <metadata id="CorelCorpID_0Corel-Layer"/>
  <g id="_2027181129088">
   <g>
    <path class="fil0" d="M38226.82 187.53c0,0 830.89,0 830.89,0 0,0 0,23632.02 0,23632.02 0,0 -830.89,0 -830.89,0 0,0 0,-23632.02 0,-23632.02zm-17403.26 6256.52c0,0 -6026.64,5954.55 -6026.64,5954.55 0,0 -3168.75,-3130.92 -3168.75,-3130.92 0,0 9195.39,-9087.23 9195.39,-9087.23 0,0 9196.56,9086.64 9196.56,9086.64 0,0 -3169.33,3132.1 -3169.33,3132.1 0,0 -6027.23,-5955.14 -6027.23,-5955.14zm-5357.08 17374.91c0,0 -6026.64,-5954.54 -6026.64,-5954.54 0,0 -6027.23,5955.13 -6027.23,5955.13 0,0 -3168.74,-3132.11 -3168.74,-3132.11 0,0 9195.97,-9086.05 9195.97,-9086.05 0,0 9195.98,9086.64 9195.98,9086.64 0,0 -3169.34,3130.93 -3169.34,3130.93z"/>
    <path id="1" class="fil1" d="M39175.9 187.53l-236.38 0 118.19 118.19 -2.38 0 -6.95 0 -11.21 0 -15.16 0 -18.82 0 -22.16 0 -25.2 0 -27.95 0 -30.37 0 -32.51 0 -34.33 0 -35.86 0 -37.07 0 -37.98 0 -38.6 0 -38.9 0 -38.89 0 -38.6 0 -37.98 0 -37.07 0 -35.86 0 -34.33 0 -32.51 0 -30.37 0 -27.95 0 -25.2 0 -22.16 0 -18.82 0 -15.16 0 -11.21 0 -6.95 0 -2.38 0 0 -236.38 2.38 0 6.95 0 11.21 0 15.16 0 18.82 0 22.16 0 25.2 0 27.95 0 30.37 0 32.51 0 34.33 0 35.86 0 37.07 0 37.98 0 38.6 0 38.89 0 38.9 0 38.6 0 37.98 0 37.07 0 35.86 0 34.33 0 32.51 0 30.37 0 27.95 0 25.2 0 22.16 0 18.82 0 15.16 0 11.21 0 6.95 0 2.38 0 118.19 118.19zm-118.19 -118.19l118.19 0 0 118.19 -118.19 -118.19zm0 23868.4l0 -236.38 -118.19 118.19 0 -67.79 0 -197.61 0 -318.77 0 -431.27 0 -535.12 0 -630.32 0 -716.87 0 -794.75 0 -863.99 0 -924.57 0 -976.49 0 -1019.77 0 -1054.38 0 -1080.35 0 -1097.65 0 -1106.31 0 -1106.31 0 -1097.65 0 -1080.35 0 -1054.38 0 -1019.77 0 -976.49 0 -924.57 0 -863.99 0 -794.75 0 -716.87 0 -630.32 0 -535.12 0 -431.27 0 -318.77 0 -197.61 0 -67.79 236.38 0 0 67.79 0 197.61 0 318.77 0 431.27 0 535.12 0 630.32 0 716.87 0 794.75 0 863.99 0 924.57 0 976.49 0 1019.77 0 1054.38 0 1080.35 0 1097.65 0 1106.31 0 1106.31 0 1097.65 0 1080.35 0 1054.38 0 1019.77 0 976.49 0 924.57 0 863.99 0 794.75 0 716.87 0 630.32 0 535.12 0 431.27 0 318.77 0 197.61 0 67.79 -118.19 118.19zm118.19 -118.19l0 118.19 -118.19 0 118.19 -118.19zm-1067.27 0l236.38 0 -118.19 -118.19 2.38 0 6.95 0 11.21 0 15.16 0 18.82 0 22.16 0 25.2 0 27.95 0 30.37 0 32.51 0 34.33 0 35.86 0 37.07 0 37.98 0 38.6 0 38.89 0 38.9 0 38.6 0 37.98 0 37.07 0 35.86 0 34.33 0 32.51 0 30.37 0 27.95 0 25.2 0 22.16 0 18.82 0 15.16 0 11.21 0 6.95 0 2.38 0 0 236.38 -2.38 0 -6.95 0 -11.21 0 -15.16 0 -18.82 0 -22.16 0 -25.2 0 -27.95 0 -30.37 0 -32.51 0 -34.33 0 -35.86 0 -37.07 0 -37.98 0 -38.6 0 -38.9 0 -38.89 0 -38.6 0 -37.98 0 -37.07 0 -35.86 0 -34.33 0 -32.51 0 -30.37 0 -27.95 0 -25.2 0 -22.16 0 -18.82 0 -15.16 0 -11.21 0 -6.95 0 -2.38 0 -118.19 -118.19zm118.19 118.19l-118.19 0 0 -118.19 118.19 118.19zm0 -23868.4l0 236.38 118.19 -118.19 0 67.79 0 197.61 0 318.77 0 431.27 0 535.12 0 630.32 0 716.87 0 794.75 0 863.99 0 924.57 0 976.49 0 1019.77 0 1054.38 0 1080.35 0 1097.65 0 1106.31 0 1106.31 0 1097.65 0 1080.35 0 1054.38 0 1019.77 0 976.49 0 924.57 0 863.99 0 794.75 0 716.87 0 630.32 0 535.12 0 431.27 0 318.77 0 197.61 0 67.79 -236.38 0 0 -67.79 0 -197.61 0 -318.77 0 -431.27 0 -535.12 0 -630.32 0 -716.87 0 -794.75 0 -863.99 0 -924.57 0 -976.49 0 -1019.77 0 -1054.38 0 -1080.35 0 -1097.65 0 -1106.31 0 -1106.31 0 -1097.65 0 -1080.35 0 -1054.38 0 -1019.77 0 -976.49 0 -924.57 0 -863.99 0 -794.75 0 -716.87 0 -630.32 0 -535.12 0 -431.27 0 -318.77 0 -197.61 0 -67.79 118.19 -118.19zm-118.19 118.19l0 -118.19 118.19 0 -118.19 118.19zm-23394.78 12295.14l166.14 -168.14 -166.14 -0.01 17.29 -17.08 50.39 -49.78 81.29 -80.33 109.99 -108.67 136.46 -134.82 160.75 -158.84 182.81 -180.61 202.68 -200.27 220.34 -217.7 235.78 -232.96 249.03 -246.05 260.06 -256.95 268.89 -265.67 275.51 -272.2 279.92 -276.58 282.13 -278.77 282.13 -278.74 279.92 -276.58 275.51 -272.22 268.89 -265.67 260.06 -256.95 249.03 -246.05 235.78 -232.96 220.34 -217.7 202.68 -200.25 182.81 -180.63 160.75 -158.82 136.46 -134.84 109.99 -108.67 81.29 -80.31 50.39 -49.8 17.29 -17.08 166.14 168.16 -17.29 17.08 -50.39 49.78 -81.29 80.33 -109.99 108.67 -136.46 134.82 -160.75 158.84 -182.81 180.61 -202.68 200.27 -220.34 217.7 -235.78 232.96 -249.03 246.05 -260.06 256.95 -268.89 265.67 -275.51 272.2 -279.92 276.58 -282.13 278.76 -282.13 278.75 -279.92 276.58 -275.51 272.22 -268.89 265.67 -260.06 256.95 -249.03 246.05 -235.78 232.96 -220.34 217.7 -202.68 200.25 -182.81 180.63 -160.75 158.82 -136.46 134.84 -109.99 108.67 -81.29 80.31 -50.39 49.8 -17.29 17.08 -166.14 -0.01zm166.14 0.01l-83.07 82.07 -83.07 -82.08 166.14 0.01zm-3334.9 -3299.07l166.16 168.14 -0.01 -168.14 9.08 8.97 26.51 26.18 42.74 42.24 57.83 57.14 71.75 70.9 84.52 83.51 96.12 94.97 106.57 105.3 115.85 114.46 123.97 122.5 130.93 129.37 136.74 135.09 141.38 139.7 144.86 143.14 147.18 145.42 148.34 146.56 148.35 146.57 147.18 145.43 144.86 143.14 141.38 139.68 136.74 135.11 130.93 129.37 123.97 122.5 115.85 114.46 106.57 105.3 96.12 94.97 84.52 83.51 71.75 70.9 57.83 57.14 42.74 42.22 26.49 26.18 9.1 8.99 -166.14 168.14 -9.08 -8.97 -26.51 -26.18 -42.74 -42.24 -57.83 -57.14 -71.75 -70.9 -84.52 -83.51 -96.12 -94.97 -106.57 -105.3 -115.85 -114.46 -123.97 -122.5 -130.93 -129.37 -136.74 -135.09 -141.38 -139.7 -144.86 -143.14 -147.18 -145.41 -148.35 -146.57 -148.34 -146.58 -147.18 -145.42 -144.86 -143.14 -141.38 -139.68 -136.74 -135.11 -130.93 -129.37 -123.97 -122.5 -115.85 -114.46 -106.57 -105.3 -96.12 -94.97 -84.52 -83.51 -71.75 -70.9 -57.83 -57.14 -42.74 -42.22 -26.49 -26.18 -9.1 -8.99 -0.01 -168.14zm0.01 168.14l-85.08 -84.07 85.07 -84.07 0.01 168.14zm9361.53 -9255.37l-166.14 168.14 166.15 0 -26.38 26.07 -76.89 75.98 -124.03 122.57 -167.81 165.85 -208.23 205.77 -245.26 242.38 -278.94 275.65 -309.24 305.61 -336.18 332.23 -359.76 355.52 -379.96 375.5 -396.8 392.13 -410.27 405.44 -420.37 415.42 -427.1 422.09 -430.48 425.4 -430.47 425.41 -427.1 422.09 -420.37 415.42 -410.27 405.44 -396.8 392.13 -379.96 375.5 -359.76 355.52 -336.18 332.23 -309.24 305.61 -278.94 275.65 -245.26 242.38 -208.23 205.77 -167.81 165.83 -124.03 122.59 -76.89 75.98 -26.38 26.07 -166.16 -168.14 26.38 -26.07 76.89 -75.98 124.03 -122.57 167.81 -165.85 208.23 -205.77 245.26 -242.38 278.94 -275.65 309.24 -305.61 336.18 -332.23 359.76 -355.52 379.96 -375.5 396.8 -392.13 410.27 -405.44 420.37 -415.42 427.1 -422.09 430.47 -425.41 430.48 -425.4 427.1 -422.09 420.37 -415.42 410.27 -405.44 396.8 -392.13 379.96 -375.5 359.76 -355.52 336.18 -332.23 309.24 -305.61 278.94 -275.65 245.26 -242.38 208.23 -205.77 167.81 -165.83 124.03 -122.59 76.89 -75.98 26.38 -26.07 166.15 0zm-166.15 0l83.07 -82.09 83.08 82.09 -166.15 0zm9362.72 9254.78l-166.16 -168.14 0.01 168.14 -26.38 -26.07 -76.9 -75.97 -124.05 -122.57 -167.83 -165.83 -208.25 -205.75 -245.3 -242.37 -278.97 -275.64 -309.28 -305.59 -336.23 -332.21 -359.8 -355.49 -380.01 -375.47 -396.85 -392.11 -410.32 -405.42 -420.42 -415.39 -427.16 -422.06 -430.53 -425.37 -430.53 -425.39 -427.16 -422.06 -420.42 -415.39 -410.32 -405.42 -396.85 -392.11 -380.01 -375.45 -359.8 -355.51 -336.23 -332.21 -309.28 -305.59 -278.97 -275.64 -245.3 -242.35 -208.25 -205.77 -167.83 -165.83 -124.05 -122.55 -76.9 -75.99 -26.38 -26.07 166.14 -168.14 26.38 26.07 76.9 75.97 124.05 122.57 167.83 165.83 208.25 205.75 245.3 242.37 278.97 275.64 309.28 305.59 336.23 332.21 359.8 355.49 380.01 375.47 396.85 392.11 410.32 405.42 420.42 415.39 427.16 422.06 430.53 425.37 430.53 425.39 427.16 422.06 420.42 415.39 410.32 405.42 396.85 392.11 380.01 375.45 359.8 355.51 336.23 332.21 309.28 305.59 278.97 275.64 245.3 242.35 208.25 205.77 167.83 165.83 124.05 122.55 76.9 75.99 26.38 26.07 0.01 168.14zm-0.01 -168.14l85.08 84.07 -85.07 84.07 -0.01 -168.14zm-3335.47 3300.24l166.14 -168.14 -166.15 0 9.09 -8.98 26.5 -26.18 42.75 -42.26 57.84 -57.16 71.77 -70.92 84.53 -83.55 96.14 -95.01 106.59 -105.33 115.87 -114.5 123.99 -122.55 130.96 -129.42 136.77 -135.16 141.4 -139.74 144.89 -143.18 147.21 -145.47 148.36 -146.63 148.37 -146.64 147.21 -145.48 144.89 -143.18 141.4 -139.74 136.77 -135.16 130.96 -129.42 123.99 -122.53 115.87 -114.52 106.59 -105.33 96.14 -95.01 84.53 -83.53 71.77 -70.94 57.84 -57.16 42.75 -42.24 26.5 -26.2 9.09 -8.98 166.16 168.14 -9.09 8.98 -26.5 26.18 -42.75 42.26 -57.84 57.16 -71.77 70.92 -84.53 83.55 -96.14 95.01 -106.59 105.33 -115.87 114.5 -123.99 122.55 -130.96 129.42 -136.77 135.16 -141.4 139.74 -144.89 143.18 -147.21 145.48 -148.37 146.62 -148.36 146.63 -147.21 145.49 -144.89 143.18 -141.4 139.74 -136.77 135.16 -130.96 129.42 -123.99 122.53 -115.87 114.52 -106.59 105.33 -96.14 95.01 -84.53 83.53 -71.77 70.94 -57.84 57.16 -42.75 42.24 -26.5 26.2 -9.09 8.98 -166.15 0zm166.15 0l-83.07 82.09 -83.08 -82.09 166.15 0zm-6027.24 -5955.13l-166.14 -168.16 166.14 0.01 17.29 17.07 50.4 49.81 81.3 80.32 109.99 108.67 136.48 134.86 160.76 158.83 182.84 180.66 202.69 200.27 220.36 217.71 235.81 232.99 249.05 246.07 260.08 256.97 268.92 265.7 275.54 272.25 279.95 276.61 282.15 278.77 282.16 278.79 279.95 276.61 275.54 272.23 268.92 265.7 260.08 256.97 249.05 246.07 235.81 232.99 220.36 217.73 202.69 200.27 182.84 180.64 160.76 158.85 136.48 134.84 109.99 108.67 81.3 80.34 50.4 49.79 17.29 17.09 -166.14 168.14 -17.29 -17.07 -50.4 -49.81 -81.3 -80.32 -109.99 -108.67 -136.48 -134.86 -160.76 -158.83 -182.84 -180.66 -202.69 -200.27 -220.36 -217.71 -235.81 -232.99 -249.05 -246.07 -260.08 -256.97 -268.92 -265.7 -275.54 -272.25 -279.95 -276.61 -282.16 -278.77 -282.15 -278.79 -279.95 -276.61 -275.54 -272.23 -268.92 -265.7 -260.08 -256.97 -249.05 -246.07 -235.81 -232.99 -220.36 -217.73 -202.69 -200.27 -182.84 -180.64 -160.76 -158.85 -136.48 -134.84 -109.99 -108.67 -81.3 -80.34 -50.4 -49.79 -17.29 -17.09 166.14 0.01zm-166.14 -168.16l83.06 -82.07 83.08 82.08 -166.14 -0.01zm-11217.58 11588.53l-166.14 -168.16 166.14 0 17.29 17.08 50.39 49.8 81.29 80.31 109.99 108.67 136.46 134.84 160.75 158.82 182.81 180.63 202.68 200.25 220.34 217.7 235.78 232.96 249.03 246.04 260.06 256.96 268.89 265.68 275.51 272.2 279.92 276.58 282.13 278.76 282.13 278.76 279.92 276.56 275.51 272.22 268.89 265.68 260.06 256.94 249.03 246.04 235.78 232.96 220.34 217.7 202.68 200.27 182.81 180.61 160.75 158.84 136.46 134.82 109.99 108.67 81.29 80.33 50.39 49.78 17.29 17.08 -166.14 168.16 -17.29 -17.08 -50.39 -49.8 -81.29 -80.31 -109.99 -108.67 -136.46 -134.84 -160.75 -158.82 -182.81 -180.63 -202.68 -200.25 -220.34 -217.7 -235.78 -232.96 -249.03 -246.04 -260.06 -256.96 -268.89 -265.68 -275.51 -272.2 -279.92 -276.58 -282.13 -278.76 -282.13 -278.76 -279.92 -276.56 -275.51 -272.22 -268.89 -265.68 -260.06 -256.94 -249.03 -246.04 -235.78 -232.96 -220.34 -217.7 -202.68 -200.27 -182.81 -180.61 -160.75 -158.84 -136.46 -134.82 -109.99 -108.67 -81.29 -80.33 -50.39 -49.78 -17.29 -17.08 166.14 0zm-166.14 -168.16l83.07 -82.08 83.07 82.08 -166.14 0zm-6027.25 6123.27l166.18 -168.12 -166.16 -0.02 17.29 -17.08 50.4 -49.79 81.3 -80.34 109.99 -108.67 136.48 -134.84 160.76 -158.85 182.84 -180.64 202.69 -200.27 220.36 -217.73 235.81 -232.98 249.05 -246.07 260.08 -256.98 268.92 -265.7 275.54 -272.24 279.95 -276.59 282.15 -278.78 282.16 -278.79 279.95 -276.61 275.54 -272.24 268.92 -265.7 260.08 -256.96 249.05 -246.09 235.81 -232.98 220.36 -217.71 202.69 -200.27 182.84 -180.66 160.76 -158.83 136.48 -134.86 109.99 -108.67 81.3 -80.32 50.4 -49.81 17.29 -17.08 166.14 168.16 -17.29 17.08 -50.4 49.79 -81.3 80.34 -109.99 108.67 -136.48 134.84 -160.76 158.85 -182.84 180.64 -202.69 200.27 -220.36 217.73 -235.81 232.98 -249.05 246.07 -260.08 256.98 -268.92 265.7 -275.54 272.24 -279.95 276.59 -282.16 278.79 -282.15 278.78 -279.95 276.61 -275.54 272.24 -268.92 265.7 -260.08 256.96 -249.05 246.09 -235.81 232.98 -220.36 217.71 -202.69 200.27 -182.84 180.66 -160.76 158.83 -136.48 134.86 -109.99 108.67 -81.3 80.32 -50.4 49.81 -17.29 17.08 -166.16 -0.02zm166.16 0.02l-83.09 82.09 -83.07 -82.11 166.16 0.02zm-3334.88 -3300.26l166.14 168.14 0.02 -168.13 9.09 8.98 26.5 26.2 42.73 42.24 57.84 57.16 71.75 70.93 84.52 83.54 96.11 95.01 106.58 105.33 115.84 114.51 123.98 122.54 130.93 129.42 136.74 135.16 141.38 139.74 144.86 143.19 147.18 145.48 148.34 146.63 148.34 146.62 147.18 145.48 144.86 143.19 141.38 139.74 136.74 135.16 130.93 129.42 123.98 122.54 115.84 114.51 106.56 105.33 96.13 95.01 84.52 83.54 71.75 70.93 57.82 57.16 42.75 42.24 26.5 26.2 9.09 8.98 -166.18 168.12 -9.09 -8.98 -26.5 -26.2 -42.73 -42.24 -57.84 -57.16 -71.75 -70.93 -84.52 -83.54 -96.11 -95.01 -106.58 -105.33 -115.84 -114.51 -123.98 -122.54 -130.93 -129.42 -136.74 -135.16 -141.38 -139.74 -144.86 -143.19 -147.18 -145.48 -148.34 -146.62 -148.34 -146.63 -147.18 -145.48 -144.86 -143.19 -141.38 -139.74 -136.74 -135.16 -130.93 -129.42 -123.98 -122.54 -115.84 -114.51 -106.56 -105.33 -96.13 -95.01 -84.52 -83.54 -71.75 -70.93 -57.82 -57.16 -42.75 -42.24 -26.5 -26.2 -9.09 -8.98 0.02 -168.13zm-0.02 168.13l-85.06 -84.07 85.08 -84.06 -0.02 168.13zm9362.13 -9254.18l-166.14 168.14 166.14 0 -26.38 26.07 -76.9 75.97 -124.04 122.56 -167.82 165.82 -208.23 205.74 -245.28 242.35 -278.96 275.62 -309.26 305.57 -336.21 332.18 -359.77 355.48 -379.99 375.44 -396.82 392.08 -410.3 405.39 -420.39 415.37 -427.14 422.03 -430.5 425.36 -430.49 425.35 -427.14 422.03 -420.39 415.37 -410.3 405.39 -396.82 392.08 -379.99 375.44 -359.77 355.48 -336.21 332.18 -309.26 305.57 -278.96 275.62 -245.28 242.35 -208.23 205.74 -167.82 165.82 -124.04 122.56 -76.9 75.99 -26.38 26.05 -166.14 -168.14 26.38 -26.07 76.9 -75.97 124.04 -122.56 167.82 -165.82 208.23 -205.74 245.28 -242.35 278.96 -275.62 309.26 -305.57 336.21 -332.18 359.77 -355.48 379.99 -375.44 396.82 -392.08 410.3 -405.39 420.39 -415.37 427.14 -422.03 430.49 -425.35 430.5 -425.36 427.14 -422.03 420.39 -415.37 410.3 -405.39 396.82 -392.08 379.99 -375.44 359.77 -355.48 336.21 -332.18 309.26 -305.57 278.96 -275.62 245.28 -242.35 208.23 -205.74 167.82 -165.82 124.04 -122.56 76.9 -75.99 26.38 -26.05 166.14 0zm-166.14 0l83.07 -82.08 83.07 82.08 -166.14 0zm9362.11 9254.79l-166.12 -168.16 -0.01 168.15 -26.38 -26.07 -76.9 -75.98 -124.04 -122.56 -167.82 -165.83 -208.23 -205.76 -245.28 -242.36 -278.96 -275.64 -309.26 -305.59 -336.21 -332.21 -359.78 -355.5 -379.98 -375.46 -396.83 -392.11 -410.29 -405.42 -420.4 -415.39 -427.13 -422.06 -430.5 -425.38 -430.5 -425.38 -427.13 -422.06 -420.4 -415.39 -410.29 -405.42 -396.83 -392.11 -379.98 -375.46 -359.78 -355.5 -336.21 -332.21 -309.26 -305.59 -278.96 -275.64 -245.28 -242.36 -208.23 -205.76 -167.82 -165.83 -124.04 -122.56 -76.9 -75.98 -26.38 -26.07 166.14 -168.14 26.38 26.07 76.9 75.98 124.04 122.56 167.82 165.83 208.23 205.76 245.28 242.36 278.96 275.64 309.26 305.59 336.21 332.21 359.78 355.5 379.98 375.46 396.83 392.11 410.29 405.42 420.4 415.39 427.13 422.06 430.5 425.38 430.5 425.38 427.13 422.06 420.4 415.39 410.29 405.42 396.83 392.11 379.98 375.46 359.78 355.5 336.21 332.21 309.26 305.59 278.96 275.64 245.28 242.36 208.23 205.76 167.82 165.83 124.04 122.56 76.9 75.98 26.38 26.07 -0.01 168.15zm0.01 -168.15l85.09 84.08 -85.1 84.07 0.01 -168.15zm-3335.48 3299.08l166.14 -168.16 -166.13 0 9.09 -8.98 26.5 -26.18 42.75 -42.23 57.84 -57.14 71.77 -70.9 84.53 -83.51 96.14 -94.97 106.59 -105.3 115.87 -114.46 124 -122.5 130.96 -129.37 136.76 -135.11 141.4 -139.69 144.89 -143.13 147.21 -145.42 148.37 -146.57 148.37 -146.58 147.21 -145.42 144.89 -143.13 141.4 -139.69 136.76 -135.11 130.96 -129.37 124 -122.5 115.87 -114.46 106.59 -105.3 96.14 -94.97 84.53 -83.51 71.77 -70.9 57.84 -57.14 42.75 -42.23 26.5 -26.18 9.09 -8.98 166.12 168.16 -9.09 8.98 -26.5 26.18 -42.75 42.23 -57.84 57.14 -71.77 70.9 -84.53 83.51 -96.14 94.97 -106.59 105.3 -115.87 114.46 -124 122.5 -130.96 129.37 -136.76 135.11 -141.4 139.69 -144.89 143.13 -147.21 145.42 -148.37 146.58 -148.37 146.57 -147.21 145.42 -144.89 143.13 -141.4 139.69 -136.76 135.11 -130.96 129.37 -124 122.5 -115.87 114.46 -106.59 105.3 -96.14 94.97 -84.53 83.51 -71.77 70.9 -57.84 57.14 -42.75 42.23 -26.5 26.18 -9.09 8.98 -166.13 0zm166.13 0l-83.07 82.06 -83.06 -82.06 166.13 0z"/>
   </g>
   <g id="_2027181129472">
    <g>
     <path class="fil2" d="M47103.09 17483.71l5040.35 -10967.44 1944.58 0 5040.36 10967.44 -2426.84 0 -1026.74 -2380.17 -5118.14 0 -1011.18 2380.17 -2442.39 0zm5989.31 -8400.6l-1726.8 4138.08 3515.81 0 -1757.91 -4138.08 -31.1 0zm17501.24 8400.6l5040.35 -10967.44 1944.59 0 5040.36 10967.44 -2426.84 0 -1026.74 -2380.17 -5118.14 0 -1011.19 2380.17 -2442.39 0zm5989.31 -8400.6l-1726.79 4138.08 3515.81 0 -1757.91 -4138.08 -31.11 0zm6984.94 8400.6l0 -10967.44 2411.28 0 0 8929.52 5071.47 0 0 2037.92 -7482.75 0zm12632.01 171.13c-860.8,0 -1672.35,-108.9 -2434.62,-326.69 -762.27,-217.8 -1397.51,-513.37 -1905.69,-886.73l700.05 -1897.91c487.44,342.24 1044.89,611.89 1672.34,808.94 627.45,197.05 1283.42,295.58 1967.92,295.58 746.72,0 1283.42,-116.68 1610.11,-350.03 326.69,-233.35 490.04,-526.33 490.04,-878.95 0,-300.76 -114.09,-539.29 -342.25,-715.6 -228.17,-176.31 -627.45,-326.69 -1197.86,-451.15l-1757.91 -373.36c-1960.13,-414.84 -2940.2,-1431.21 -2940.2,-3049.1 0,-694.86 186.68,-1304.17 560.03,-1827.91 373.36,-523.75 894.52,-930.81 1563.45,-1221.2 668.93,-290.39 1444.18,-435.59 2325.72,-435.59 757.09,0 1467.51,108.9 2131.26,326.69 663.75,217.8 1213.42,523.75 1649.01,917.84l-700.05 1773.47c-850.43,-674.13 -1882.36,-1011.19 -3095.78,-1011.19 -653.38,0 -1158.96,127.05 -1516.77,381.14 -357.8,254.1 -536.71,583.38 -536.71,987.85 0,300.76 108.9,544.49 326.69,731.17 217.8,186.67 596.34,337.05 1135.64,451.13l1757.9 373.36c2011.99,435.59 3018,1420.84 3018,2955.77 0,684.49 -184.09,1283.42 -552.26,1796.79 -368.18,513.37 -886.74,912.66 -1555.67,1197.87 -668.94,285.2 -1459.74,427.81 -2372.39,427.81zm8431.7 -171.13l0 -8976.19 -3624.7 0 0 -1991.25 9660.68 0 0 1991.25 -3624.69 0 0 8976.19 -2411.29 0zm7218.29 0l0 -10967.44 5009.25 0c1223.79,0 2167.56,295.57 2831.31,886.72 663.75,591.16 995.62,1415.66 995.62,2473.52 0,819.31 -210.01,1501.21 -630.04,2045.7 -420.03,544.48 -1018.96,915.25 -1796.79,1112.29 549.67,165.95 1000.81,565.23 1353.43,1197.87l1773.45 3251.34 -2660.18 0 -1897.91 -3500.25c-155.58,-280.01 -347.44,-474.48 -575.6,-583.38 -228.16,-108.89 -497.82,-163.34 -808.95,-163.34l-1182.31 0 0 4246.97 -2411.28 0zm2411.28 -5989.31l2162.39 0c1296.38,0 1944.58,-518.56 1944.58,-1555.66 0,-1026.74 -648.2,-1540.11 -1944.58,-1540.11l-2162.39 0 0 3095.77zm6347.12 5989.31l6907.16 -10967.44 8571.72 0 0 1882.36 -5989.31 0 560.04 2566.84 5102.58 0 0 1897.92 -4698.11 0 606.71 2737.97 4418.09 0 0 1882.35 -6160.44 0 -513.37 -2380.17 -4838.11 0 -1415.66 2380.17 -2551.3 0zm7482.76 -8322.81l-2411.28 4060.29 3329.12 0 -886.73 -4060.29 -31.11 0zm12523.11 8322.81l0 -8976.19 -3624.71 0 0 -1991.25 9660.69 0 0 1991.25 -3624.7 0 0 8976.19 -2411.28 0zm7218.29 0l0 -10967.44 2411.28 0 0 10967.44 -2411.28 0z"/>
     <path id="1" class="fil1" d="M52257.99 6568.92l-5040.35 10967.44 -229.1 -105.3 5040.35 -10967.44 114.55 -73.42 114.55 178.72zm-229.1 -105.3l33.74 -73.42 80.81 0 -114.55 73.42zm2059.13 178.72l-1944.58 0 0 -252.14 1944.58 0 114.55 73.42 -114.55 178.72zm0 -252.14l80.81 0 33.74 73.42 -114.55 -73.42zm4925.81 11146.16l-5040.36 -10967.44 229.1 -105.3 5040.36 10967.44 -114.55 178.72 -114.55 -73.42zm229.1 -105.3l82.14 178.72 -196.69 0 114.55 -178.72zm-2541.39 -73.42l2426.84 0 0 252.14 -2426.84 0 -115.76 -76.13 115.76 -176.01zm0 252.14l-82.92 0 -32.84 -76.13 115.76 76.13zm-910.98 -2556.18l1026.74 2380.17 -231.52 99.88 -1026.74 -2380.17 115.76 -176.01 115.76 76.13zm-115.76 -76.13l82.92 0 32.84 76.13 -115.76 -76.13zm-5118.14 0l5118.14 0 0 252.14 -5118.14 0 -116.03 -175.37 116.03 -76.77zm-116.03 76.77l32.61 -76.77 83.42 0 -116.03 76.77zm-1011.18 2380.17l1011.18 -2380.17 232.06 98.6 -1011.18 2380.17 -116.03 76.77 -116.03 -175.37zm232.06 98.6l-32.61 76.77 -83.42 0 116.03 -76.77zm-2558.42 -175.37l2442.39 0 0 252.14 -2442.39 0 -114.55 -178.72 114.55 -73.42zm0 252.14l-196.69 0 82.14 -178.72 114.55 178.72zm4146.16 -4437.14l1726.8 -4138.08 232.7 97.1 -1726.8 4138.08 -116.35 77.52 -116.35 -174.62zm116.35 174.62l-189.22 0 72.87 -174.62 116.35 174.62zm3515.81 0l-3515.81 0 0 -252.14 3515.81 0 116.03 76.78 -116.03 175.36zm116.03 -175.36l74.5 175.36 -190.53 0 116.03 -175.36zm-1757.91 -4138.08l1757.91 4138.08 -232.06 98.58 -1757.91 -4138.08 116.03 -175.36 116.03 76.78zm-116.03 -76.78l83.41 0 32.62 76.78 -116.03 -76.78zm-31.1 0l31.1 0 0 252.14 -31.1 0 -116.35 -174.62 116.35 -77.52zm-116.35 77.52l32.35 -77.52 84 0 -116.35 77.52zm22772.49 -2465.64l-5040.35 10967.44 -229.1 -105.3 5040.35 -10967.44 114.55 -73.42 114.55 178.72zm-229.1 -105.3l33.74 -73.42 80.81 0 -114.55 73.42zm2059.14 178.72l-1944.59 0 0 -252.14 1944.59 0 114.55 73.42 -114.55 178.72zm0 -252.14l80.81 0 33.74 73.42 -114.55 -73.42zm4925.81 11146.16l-5040.36 -10967.44 229.1 -105.3 5040.36 10967.44 -114.55 178.72 -114.55 -73.42zm229.1 -105.3l82.14 178.72 -196.69 0 114.55 -178.72zm-2541.39 -73.42l2426.84 0 0 252.14 -2426.84 0 -115.76 -76.13 115.76 -176.01zm0 252.14l-82.92 0 -32.84 -76.13 115.76 76.13zm-910.98 -2556.18l1026.74 2380.17 -231.52 99.88 -1026.74 -2380.17 115.76 -176.01 115.76 76.13zm-115.76 -76.13l82.92 0 32.84 76.13 -115.76 -76.13zm-5118.14 0l5118.14 0 0 252.14 -5118.14 0 -116.03 -175.37 116.03 -76.77zm-116.03 76.77l32.61 -76.77 83.42 0 -116.03 76.77zm-1011.19 2380.17l1011.19 -2380.17 232.06 98.6 -1011.19 2380.17 -116.03 76.77 -116.03 -175.37zm232.06 98.6l-32.61 76.77 -83.42 0 116.03 -76.77zm-2558.42 -175.37l2442.39 0 0 252.14 -2442.39 0 -114.55 -178.72 114.55 -73.42zm0 252.14l-196.69 0 82.14 -178.72 114.55 178.72zm4146.17 -4437.14l1726.79 -4138.08 232.7 97.1 -1726.79 4138.08 -116.35 77.52 -116.35 -174.62zm116.35 174.62l-189.22 0 72.87 -174.62 116.35 174.62zm3515.81 0l-3515.81 0 0 -252.14 3515.81 0 116.03 76.78 -116.03 175.36zm116.03 -175.36l74.5 175.36 -190.53 0 116.03 -175.36zm-1757.91 -4138.08l1757.91 4138.08 -232.06 98.58 -1757.91 -4138.08 116.03 -175.36 116.03 76.78zm-116.03 -76.78l83.41 0 32.62 76.78 -116.03 -76.78zm-31.11 0l31.11 0 0 252.14 -31.11 0 -116.35 -174.62 116.35 -77.52zm-116.35 77.52l32.35 -77.52 84 0 -116.35 77.52zm7227.36 -2518.29l0 10967.44 -252.14 0 0 -10967.44 126.07 -126.07 126.07 126.07zm-252.14 0l0 -126.07 126.07 0 -126.07 126.07zm2537.35 126.07l-2411.28 0 0 -252.14 2411.28 0 126.07 126.07 -126.07 126.07zm0 -252.14l126.07 0 0 126.07 -126.07 -126.07zm-126.07 9055.59l0 -8929.52 252.14 0 0 8929.52 -126.07 126.07 -126.07 -126.07zm126.07 126.07l-126.07 0 0 -126.07 126.07 126.07zm5071.47 0l-5071.47 0 0 -252.14 5071.47 0 126.07 126.07 -126.07 126.07zm0 -252.14l126.07 0 0 126.07 -126.07 -126.07zm-126.07 2163.99l0 -2037.92 252.14 0 0 2037.92 -126.07 126.07 -126.07 -126.07zm252.14 0l0 126.07 -126.07 0 126.07 -126.07zm-7608.82 -126.07l7482.75 0 0 252.14 -7482.75 0 -126.07 -126.07 126.07 -126.07zm0 252.14l-126.07 0 0 -126.07 126.07 126.07zm10162.75 -160.41l69.28 -242.44 -0.01 0 70.49 19.78 70.75 19.16 71.07 18.52 71.34 17.91 71.63 17.27 71.93 16.65 72.22 16.02 72.5 15.4 72.8 14.76 73.09 14.15 73.39 13.5 73.67 12.9 73.96 12.25 74.26 11.63 74.55 11.01 74.85 10.38 75.14 9.75 75.42 9.12 75.73 8.49 76.02 7.86 76.31 7.24 76.6 6.61 76.9 5.98 77.19 5.35 77.49 4.72 77.78 4.09 78.1 3.46 78.37 2.84 78.66 2.2 78.97 1.57 79.25 0.95 79.56 0.32 0 252.14 -81.56 -0.32 -81.27 -0.97 -80.99 -1.61 -80.72 -2.26 -80.43 -2.92 -80.14 -3.56 -79.86 -4.19 -79.59 -4.86 -79.29 -5.49 -79.02 -6.14 -78.74 -6.79 -78.45 -7.44 -78.16 -8.1 -77.89 -8.73 -77.6 -9.38 -77.32 -10.03 -77.03 -10.68 -76.75 -11.33 -76.46 -11.97 -76.18 -12.63 -75.89 -13.28 -75.61 -13.92 -75.31 -14.57 -75.04 -15.22 -74.76 -15.88 -74.46 -16.52 -74.17 -17.17 -73.89 -17.81 -73.6 -18.47 -73.31 -19.12 -73.03 -19.76 -72.73 -20.42 -0.01 0zm-1989.33 -1051.58l236.56 87.26 -43.64 -145.23 46.63 33.77 47.37 33.34 48.13 32.93 48.86 32.48 49.63 32.07 50.36 31.63 51.12 31.21 51.88 30.78 52.64 30.36 53.36 29.93 54.13 29.48 54.89 29.07 55.65 28.64 56.39 28.2 57.15 27.77 57.91 27.34 58.68 26.9 59.42 26.48 60.17 26.03 60.94 25.6 61.7 25.17 62.46 24.73 63.2 24.3 63.96 23.85 64.74 23.41 65.48 23 66.24 22.53 67 22.1 67.76 21.66 68.52 21.23 69.28 20.78 70.04 20.34 -69.28 242.44 -72.14 -20.96 -71.42 -21.42 -70.68 -21.89 -69.96 -22.36 -69.22 -22.84 -68.5 -23.31 -67.76 -23.78 -67.02 -24.25 -66.32 -24.73 -65.58 -25.2 -64.84 -25.69 -64.1 -26.15 -63.38 -26.62 -62.65 -27.11 -61.92 -27.58 -61.18 -28.06 -60.45 -28.54 -59.73 -29.01 -58.99 -29.5 -58.25 -29.98 -57.51 -30.45 -56.79 -30.94 -56.06 -31.43 -55.3 -31.9 -54.58 -32.38 -53.84 -32.87 -53.1 -33.35 -52.37 -33.85 -51.62 -34.32 -50.89 -34.81 -50.15 -35.3 -49.39 -35.77 -43.64 -145.23zm43.64 145.23l-76.48 -56.19 32.84 -89.04 43.64 145.23zm892.97 -1955.88l-700.05 1897.91 -236.56 -87.26 700.05 -1897.91 190.72 -59.55 45.84 146.81zm-236.56 -87.26l56.68 -153.66 134.04 94.11 -190.72 59.55zm1828.39 732.29l-75.54 240.56 0 0 -59.66 -19.02 -59.24 -19.45 -58.85 -19.89 -58.43 -20.33 -58.04 -20.76 -57.64 -21.21 -57.22 -21.64 -56.81 -22.08 -56.41 -22.52 -56.01 -22.95 -55.6 -23.4 -55.2 -23.84 -54.79 -24.27 -54.37 -24.72 -53.96 -25.14 -53.57 -25.59 -53.16 -26.04 -52.74 -26.46 -52.33 -26.91 -51.94 -27.35 -51.52 -27.8 -51.09 -28.22 -50.7 -28.66 -50.29 -29.11 -49.88 -29.55 -49.46 -29.99 -49.04 -30.41 -48.65 -30.87 -48.22 -31.31 -47.81 -31.74 -47.4 -32.19 -46.98 -32.62 144.88 -206.36 44.82 31.12 45.24 30.71 45.63 30.3 46.04 29.89 46.45 29.47 46.86 29.07 47.26 28.65 47.68 28.25 48.07 27.83 48.5 27.42 48.91 27.02 49.3 26.6 49.72 26.17 50.15 25.79 50.54 25.36 50.96 24.96 51.35 24.53 51.8 24.14 52.19 23.72 52.61 23.31 53.02 22.9 53.42 22.48 53.85 22.07 54.27 21.66 54.67 21.24 55.1 20.84 55.5 20.43 55.92 20 56.35 19.61 56.73 19.17 57.18 18.77 57.58 18.36 0 0zm1930.15 289.79l0 252.14 0 0 -65.22 -0.29 -65.07 -0.88 -64.9 -1.48 -64.74 -2.05 -64.58 -2.65 -64.4 -3.23 -64.27 -3.82 -64.09 -4.41 -63.94 -5 -63.75 -5.59 -63.6 -6.18 -63.43 -6.76 -63.27 -7.35 -63.11 -7.95 -62.93 -8.53 -62.77 -9.13 -62.61 -9.7 -62.44 -10.3 -62.28 -10.89 -62.13 -11.48 -61.93 -12.07 -61.77 -12.66 -61.61 -13.25 -61.43 -13.83 -61.27 -14.42 -61.11 -15.02 -60.92 -15.6 -60.78 -16.19 -60.6 -16.79 -60.42 -17.37 -60.24 -17.96 -60.08 -18.54 75.54 -240.56 57.74 17.82 57.9 17.26 58.06 16.69 58.22 16.13 58.38 15.55 58.56 15 58.71 14.42 58.89 13.86 59.05 13.31 59.21 12.73 59.39 12.16 59.55 11.61 59.71 11.04 59.88 10.47 60.04 9.9 60.23 9.34 60.39 8.77 60.57 8.21 60.71 7.65 60.89 7.07 61.07 6.52 61.24 5.94 61.41 5.39 61.56 4.82 61.75 4.25 61.91 3.68 62.1 3.11 62.26 2.55 62.44 1.99 62.6 1.42 62.77 0.84 62.96 0.29 0 0zm1536.83 -326.55l146.56 205.18 0 0 -34.69 23.91 -35.89 23.05 -37.05 22.16 -38.22 21.33 -39.41 20.48 -40.53 19.63 -41.68 18.82 -42.84 18.01 -43.98 17.19 -45.11 16.39 -46.24 15.61 -47.39 14.84 -48.54 14.07 -49.68 13.3 -50.83 12.54 -51.95 11.79 -53.12 11.06 -54.28 10.31 -55.4 9.58 -56.58 8.85 -57.74 8.13 -58.89 7.41 -60.05 6.68 -61.22 5.97 -62.39 5.27 -63.57 4.55 -64.74 3.85 -65.91 3.15 -67.09 2.44 -68.27 1.75 -69.46 1.04 -70.65 0.35 0 -252.14 68.13 -0.33 66.86 -1.02 65.59 -1.67 64.31 -2.34 63.01 -3.01 61.74 -3.67 60.45 -4.33 59.15 -4.99 57.88 -5.65 56.57 -6.3 55.27 -6.95 53.98 -7.59 52.66 -8.25 51.38 -8.88 50.06 -9.51 48.74 -10.14 47.45 -10.77 46.11 -11.38 44.8 -12 43.48 -12.59 42.15 -13.2 40.86 -13.79 39.53 -14.37 38.2 -14.93 36.86 -15.49 35.58 -16.06 34.25 -16.59 32.93 -17.12 31.64 -17.65 30.35 -18.16 29.07 -18.67 27.79 -19.15 0 0zm437.25 -776.36l252.14 0 0 0 -0.53 36.56 -1.6 36.31 -2.68 36.01 -3.76 35.68 -4.84 35.41 -5.93 35.09 -7.02 34.75 -8.12 34.39 -9.2 34.06 -10.31 33.69 -11.38 33.28 -12.47 32.92 -13.56 32.51 -14.63 32.07 -15.69 31.65 -16.74 31.2 -17.8 30.77 -18.85 30.32 -19.88 29.85 -20.88 29.36 -21.9 28.92 -22.92 28.43 -23.88 27.95 -24.88 27.49 -25.85 26.99 -26.8 26.53 -27.78 26.06 -28.71 25.59 -29.66 25.11 -30.59 24.65 -31.54 24.2 -32.45 23.74 -146.56 -205.18 27.85 -20.36 26.84 -20.6 25.87 -20.85 24.9 -21.09 23.93 -21.31 22.96 -21.54 22 -21.77 21.05 -21.99 20.1 -22.21 19.2 -22.45 18.24 -22.65 17.34 -22.88 16.44 -23.12 15.54 -23.33 14.65 -23.58 13.78 -23.81 12.92 -24.08 12.07 -24.33 11.21 -24.61 10.38 -24.87 9.53 -25.16 8.72 -25.5 7.89 -25.79 7.06 -26.12 6.24 -26.47 5.42 -26.83 4.61 -27.19 3.76 -27.55 2.94 -28 2.12 -28.35 1.26 -28.77 0.43 -29.2 0 0zm-293.26 -615.84l154.16 -199.52 0.01 0 23.64 18.76 22.96 19.24 22.27 19.7 21.59 20.18 20.94 20.68 20.22 21.18 19.48 21.6 18.78 22.08 18.06 22.57 17.33 23.03 16.57 23.48 15.83 23.92 15.07 24.39 14.3 24.8 13.53 25.23 12.77 25.66 11.97 26.07 11.19 26.44 10.39 26.81 9.61 27.19 8.84 27.57 8.04 27.93 7.26 28.26 6.47 28.61 5.69 28.91 4.93 29.25 4.14 29.56 3.38 29.84 2.63 30.17 1.86 30.45 1.12 30.76 0.37 31.04 -252.14 0 -0.29 -24.98 -0.9 -24.54 -1.48 -24.13 -2.05 -23.67 -2.64 -23.26 -3.2 -22.82 -3.77 -22.41 -4.33 -22.01 -4.89 -21.59 -5.44 -21.2 -6 -20.81 -6.54 -20.43 -7.11 -20.09 -7.65 -19.73 -8.19 -19.38 -8.75 -19.03 -9.29 -18.7 -9.87 -18.39 -10.44 -18.12 -10.99 -17.77 -11.59 -17.52 -12.17 -17.24 -12.75 -16.95 -13.36 -16.69 -13.98 -16.44 -14.6 -16.2 -15.2 -15.9 -15.84 -15.66 -16.51 -15.42 -17.17 -15.18 -17.8 -14.92 -18.48 -14.66 0.01 0zm-1146.97 -427.59l52.38 -246.64 0.69 0.15 53.79 11.92 52.85 12.1 51.85 12.26 50.87 12.42 49.92 12.59 48.95 12.76 47.99 12.93 46.99 13.11 46.06 13.26 45.09 13.46 44.11 13.62 43.19 13.81 42.23 14 41.25 14.17 40.32 14.36 39.37 14.55 38.42 14.75 37.47 14.94 36.56 15.15 35.59 15.36 34.68 15.56 33.73 15.79 32.82 16.01 31.9 16.25 30.96 16.48 30.04 16.73 29.13 16.99 28.23 17.27 27.31 17.55 26.37 17.82 25.46 18.13 24.56 18.46 -154.16 199.52 -19.22 -14.44 -20.34 -14.47 -21.41 -14.48 -22.49 -14.45 -23.59 -14.43 -24.67 -14.39 -25.78 -14.35 -26.86 -14.3 -27.92 -14.23 -29.02 -14.15 -30.11 -14.09 -31.16 -14 -32.25 -13.9 -33.3 -13.81 -34.39 -13.7 -35.44 -13.61 -36.49 -13.49 -37.56 -13.38 -38.63 -13.27 -39.65 -13.14 -40.71 -13.01 -41.79 -12.9 -42.81 -12.78 -43.84 -12.64 -44.91 -12.51 -45.93 -12.39 -46.97 -12.24 -48.02 -12.11 -49.05 -11.98 -50.09 -11.84 -51.11 -11.7 -52.15 -11.56 0.69 0.15zm-1705.53 -620l1757.91 373.36 -52.38 246.64 -1757.91 -373.36 52.29 -246.66 0.09 0.02zm-3092.46 -2925.78l252.14 0 0 0 2.78 145.03 8.32 141.3 13.81 137.56 19.31 133.86 24.76 130.17 30.22 126.52 35.62 122.91 41.03 119.32 46.43 115.8 51.84 112.31 57.26 108.87 62.69 105.51 68.14 102.17 73.63 98.87 79.16 95.6 84.73 92.38 90.34 89.18 96.01 85.96 101.71 82.79 107.43 79.58 113.21 76.38 119.02 73.16 124.83 69.92 130.69 66.68 136.56 63.4 142.43 60.11 148.31 56.8 154.21 53.46 160.1 50.12 165.99 46.74 171.89 43.35 177.77 39.95 -52.2 246.68 -184.01 -41.35 -178.41 -45.01 -172.83 -48.66 -167.22 -52.34 -161.63 -56.04 -156.05 -59.76 -150.43 -63.49 -144.84 -67.26 -139.21 -71.02 -133.57 -74.82 -127.92 -78.64 -122.23 -82.46 -116.53 -86.32 -110.77 -90.17 -104.99 -94.02 -99.16 -97.88 -93.29 -101.7 -87.38 -105.54 -81.41 -109.33 -75.42 -113.07 -69.39 -116.79 -63.34 -120.45 -57.28 -124.09 -51.19 -127.64 -45.11 -131.16 -39.02 -134.63 -32.96 -138.06 -26.92 -141.47 -20.89 -144.82 -14.89 -148.16 -8.92 -151.5 -2.96 -154.79 0 0zm583.44 -1901.09l205.32 146.36 0 0 -33.04 47.32 -31.97 47.77 -30.91 48.25 -29.86 48.7 -28.79 49.16 -27.74 49.64 -26.7 50.11 -25.64 50.59 -24.6 51.05 -23.54 51.52 -22.5 52.02 -21.46 52.52 -20.41 52.97 -19.37 53.47 -18.32 53.98 -17.29 54.47 -16.25 54.97 -15.2 55.45 -14.15 55.98 -13.11 56.48 -12.08 57 -11.04 57.51 -9.98 58.01 -8.94 58.55 -7.89 59.06 -6.85 59.59 -5.8 60.11 -4.74 60.63 -3.7 61.17 -2.63 61.69 -1.59 62.24 -0.53 62.75 -252.14 0 0.57 -67.03 1.69 -66.54 2.83 -66.09 3.96 -65.61 5.1 -65.15 6.24 -64.67 7.37 -64.17 8.51 -63.7 9.66 -63.23 10.8 -62.75 11.94 -62.25 13.08 -61.76 14.23 -61.26 15.37 -60.78 16.52 -60.29 17.67 -59.79 18.81 -59.27 19.96 -58.76 21.09 -58.27 22.25 -57.75 23.4 -57.22 24.52 -56.72 25.68 -56.2 26.82 -55.67 27.96 -55.13 29.08 -54.61 30.22 -54.08 31.37 -53.56 32.5 -53 33.61 -52.47 34.77 -51.93 35.86 -51.38 0 0zm1615.91 -1263.66l100.4 231.28 0 0 -60.62 26.84 -59.75 27.49 -58.87 28.13 -57.99 28.78 -57.13 29.42 -56.23 30.07 -55.36 30.71 -54.5 31.36 -53.62 32 -52.75 32.64 -51.88 33.28 -51.01 33.94 -50.16 34.58 -49.3 35.21 -48.41 35.85 -47.58 36.51 -46.72 37.14 -45.85 37.78 -45 38.43 -44.15 39.07 -43.31 39.73 -42.45 40.35 -41.6 41.01 -40.79 41.67 -39.92 42.3 -39.08 42.95 -38.24 43.62 -37.42 44.26 -36.57 44.91 -35.73 45.57 -34.92 46.25 -34.08 46.89 -205.32 -146.36 36.8 -50.63 37.68 -49.91 38.59 -49.21 39.51 -48.51 40.38 -47.78 41.28 -47.06 42.18 -46.37 43.08 -45.64 43.95 -44.91 44.84 -44.21 45.75 -43.49 46.61 -42.75 47.51 -42.05 48.38 -41.31 49.27 -40.6 50.14 -39.86 51 -39.13 51.89 -38.43 52.76 -37.69 53.62 -36.96 54.49 -36.24 55.36 -35.52 56.23 -34.8 57.08 -34.06 57.94 -33.34 58.8 -32.63 59.67 -31.89 60.51 -31.18 61.37 -30.46 62.23 -29.73 63.07 -29.01 63.94 -28.3 0 0zm2375.92 -446.02l0 252.14 0 0 -81.02 0.42 -80.39 1.25 -79.73 2.1 -79.12 2.93 -78.45 3.75 -77.81 4.6 -77.17 5.43 -76.53 6.26 -75.89 7.1 -75.24 7.93 -74.61 8.75 -73.96 9.59 -73.33 10.42 -72.69 11.25 -72.04 12.06 -71.4 12.91 -70.77 13.73 -70.13 14.54 -69.48 15.38 -68.86 16.2 -68.21 17.03 -67.58 17.86 -66.96 18.67 -66.32 19.49 -65.67 20.31 -65.05 21.15 -64.43 21.95 -63.78 22.78 -63.17 23.61 -62.54 24.41 -61.9 25.24 -61.29 26.06 -100.4 -231.28 64.75 -27.54 65.4 -26.66 66 -25.77 66.61 -24.89 67.26 -24.02 67.85 -23.13 68.47 -22.25 69.09 -21.37 69.7 -20.49 70.3 -19.61 70.92 -18.74 71.55 -17.85 72.14 -16.98 72.76 -16.1 73.35 -15.22 73.97 -14.35 74.58 -13.47 75.18 -12.6 75.79 -11.73 76.39 -10.84 77 -9.99 77.61 -9.11 78.2 -8.23 78.81 -7.38 79.43 -6.5 80.01 -5.63 80.63 -4.76 81.23 -3.89 81.82 -3.03 82.45 -2.16 83.03 -1.29 83.64 -0.44 0 0zm2170.57 332.97l-78.62 239.58 0.01 0 -61.1 -19.69 -61.37 -19.07 -61.65 -18.44 -61.9 -17.83 -62.19 -17.18 -62.46 -16.58 -62.75 -15.95 -63 -15.33 -63.28 -14.69 -63.56 -14.08 -63.85 -13.45 -64.11 -12.84 -64.37 -12.2 -64.68 -11.57 -64.94 -10.96 -65.22 -10.33 -65.5 -9.71 -65.77 -9.08 -66.06 -8.45 -66.33 -7.84 -66.62 -7.21 -66.89 -6.58 -67.17 -5.95 -67.45 -5.32 -67.73 -4.71 -68.01 -4.07 -68.31 -3.45 -68.58 -2.83 -68.84 -2.2 -69.14 -1.56 -69.43 -0.94 -69.7 -0.32 0 -252.14 71.98 0.32 71.71 0.98 71.44 1.62 71.2 2.26 70.92 2.93 70.63 3.57 70.39 4.21 70.13 4.87 69.85 5.52 69.59 6.17 69.31 6.82 69.06 7.47 68.79 8.12 68.5 8.77 68.25 9.42 67.98 10.07 67.72 10.73 67.44 11.38 67.16 12.03 66.91 12.68 66.63 13.34 66.35 13.97 66.1 14.64 65.82 15.29 65.54 15.95 65.27 16.59 65 17.24 64.73 17.9 64.46 18.55 64.17 19.2 63.91 19.85 63.62 20.51 0.01 0zm1726.97 1083.92l-234.54 -92.58 32.69 139.78 -39.75 -35.43 -40.41 -34.93 -41.08 -34.45 -41.73 -33.96 -42.39 -33.48 -43.06 -33 -43.71 -32.49 -44.39 -32.02 -45.05 -31.53 -45.72 -31.04 -46.39 -30.56 -47.06 -30.07 -47.72 -29.58 -48.4 -29.09 -49.08 -28.62 -49.73 -28.11 -50.42 -27.63 -51.1 -27.14 -51.77 -26.66 -52.45 -26.17 -53.12 -25.67 -53.8 -25.18 -54.47 -24.69 -55.17 -24.2 -55.84 -23.71 -56.52 -23.22 -57.19 -22.72 -57.88 -22.23 -58.57 -21.73 -59.23 -21.24 -59.93 -20.74 -60.61 -20.25 78.62 -239.58 63.17 21.11 62.53 21.64 61.87 22.18 61.21 22.73 60.56 23.25 59.91 23.8 59.24 24.34 58.58 24.87 57.93 25.42 57.27 25.95 56.62 26.5 55.96 27.05 55.29 27.59 54.65 28.12 53.96 28.68 53.32 29.21 52.65 29.77 51.98 30.3 51.32 30.85 50.66 31.4 50 31.95 49.31 32.48 48.66 33.04 47.99 33.59 47.31 34.12 46.65 34.69 45.96 35.22 45.31 35.76 44.61 36.32 43.94 36.85 43.27 37.41 42.59 37.95 32.69 139.78zm-32.69 -139.78l64.74 58.58 -32.05 81.2 -32.69 -139.78zm-901.9 1820.67l700.05 -1773.47 234.54 92.58 -700.05 1773.47 -195.59 52.51 -38.95 -145.09zm234.54 92.58l-62.4 158.09 -133.19 -105.58 195.59 -52.51zm-3213.05 -931.41l0 -252.14 0 0 115.44 1.01 114.41 3.02 113.39 5.04 112.36 7.06 111.33 9.08 110.31 11.1 109.27 13.13 108.25 15.16 107.19 17.18 106.17 19.22 105.13 21.25 104.07 23.28 103.05 25.31 101.98 27.37 100.94 29.38 99.87 31.44 98.8 33.46 97.75 35.51 96.68 37.54 95.61 39.58 94.51 41.62 93.45 43.65 92.36 45.69 91.27 47.72 90.17 49.75 89.08 51.78 87.98 53.81 86.87 55.83 85.77 57.85 84.66 59.87 83.55 61.88 82.43 63.89 -156.64 197.6 -78.09 -60.53 -79.09 -58.6 -80.12 -56.65 -81.13 -54.73 -82.15 -52.79 -83.18 -50.87 -84.2 -48.94 -85.23 -47.03 -86.27 -45.1 -87.3 -43.19 -88.35 -41.27 -89.39 -39.36 -90.43 -37.44 -91.5 -35.52 -92.55 -33.63 -93.62 -31.7 -94.67 -29.8 -95.74 -27.88 -96.82 -25.97 -97.89 -24.05 -98.99 -22.14 -100.05 -20.23 -101.15 -18.3 -102.23 -16.4 -103.33 -14.46 -104.41 -12.55 -105.51 -10.62 -106.61 -8.7 -107.72 -6.76 -108.81 -4.84 -109.91 -2.9 -111.02 -0.97 0 0zm-1443.77 357.86l-146 -205.58 0.01 0 36.75 -25.37 37.63 -24.51 38.49 -23.67 39.36 -22.84 40.21 -21.98 41.05 -21.15 41.91 -20.3 42.74 -19.47 43.58 -18.64 44.4 -17.8 45.23 -16.98 46.07 -16.16 46.87 -15.33 47.68 -14.52 48.52 -13.71 49.33 -12.9 50.12 -12.09 50.96 -11.31 51.78 -10.49 52.58 -9.7 53.38 -8.91 54.21 -8.13 55.01 -7.33 55.84 -6.56 56.65 -5.77 57.46 -5 58.28 -4.22 59.09 -3.45 59.91 -2.69 60.74 -1.91 61.55 -1.15 62.38 -0.38 0 252.14 -59.26 0.36 -58.37 1.09 -57.44 1.81 -56.53 2.53 -55.63 3.25 -54.7 3.96 -53.78 4.68 -52.87 5.39 -51.96 6.1 -51.03 6.81 -50.13 7.51 -49.2 8.21 -48.28 8.9 -47.34 9.61 -46.44 10.29 -45.54 10.99 -44.61 11.66 -43.68 12.35 -42.78 13.02 -41.87 13.69 -40.93 14.36 -40.05 15.04 -39.14 15.7 -38.24 16.34 -37.32 17.01 -36.45 17.66 -35.55 18.31 -34.67 18.96 -33.8 19.6 -32.93 20.25 -32.05 20.89 -31.21 21.53 0.01 0zm-483.64 885.06l-252.14 0 0 0 0.57 -41.23 1.73 -40.87 2.88 -40.46 4.05 -40.1 5.2 -39.73 6.4 -39.32 7.56 -38.92 8.75 -38.5 9.92 -38.04 11.09 -37.62 12.3 -37.19 13.47 -36.68 14.63 -36.2 15.81 -35.72 16.98 -35.22 18.14 -34.7 19.28 -34.17 20.42 -33.63 21.56 -33.11 22.69 -32.54 23.78 -31.98 24.92 -31.45 25.99 -30.86 27.07 -30.29 28.15 -29.73 29.21 -29.18 30.28 -28.6 31.33 -28.04 32.36 -27.47 33.38 -26.91 34.44 -26.37 35.44 -25.81 146 205.58 -30.6 22.27 -29.5 22.59 -28.46 22.95 -27.4 23.25 -26.33 23.58 -25.28 23.88 -24.25 24.2 -23.21 24.51 -22.19 24.85 -21.19 25.14 -20.16 25.45 -19.18 25.8 -18.21 26.12 -17.22 26.43 -16.26 26.79 -15.32 27.13 -14.36 27.48 -13.42 27.84 -12.49 28.22 -11.57 28.62 -10.65 29.02 -9.72 29.41 -8.81 29.84 -7.9 30.32 -6.99 30.72 -6.06 31.2 -5.14 31.66 -4.22 32.15 -3.29 32.66 -2.36 33.16 -1.43 33.65 -0.47 34.17 0 0zm282.66 635.45l-164.08 191.44 -0.01 0 -22.47 -19.76 -21.84 -20.2 -21.17 -20.62 -20.51 -21.06 -19.85 -21.5 -19.17 -21.93 -18.48 -22.36 -17.81 -22.77 -17.1 -23.21 -16.41 -23.63 -15.66 -24 -14.98 -24.42 -14.27 -24.87 -13.5 -25.2 -12.79 -25.58 -12.06 -25.99 -11.32 -26.33 -10.58 -26.71 -9.83 -27.03 -9.09 -27.36 -8.35 -27.72 -7.61 -28.05 -6.87 -28.35 -6.12 -28.63 -5.4 -28.97 -4.66 -29.26 -3.93 -29.5 -3.21 -29.83 -2.49 -30.13 -1.77 -30.37 -1.06 -30.62 -0.35 -30.93 252.14 0 0.29 25.13 0.86 24.76 1.41 24.37 1.97 23.91 2.55 23.55 3.09 23.22 3.62 22.8 4.18 22.41 4.72 22.07 5.25 21.69 5.79 21.33 6.33 20.98 6.87 20.68 7.39 20.35 7.92 19.99 8.46 19.69 9 19.39 9.55 19.1 10.1 18.84 10.61 18.49 11.2 18.26 11.76 18.02 12.31 17.73 12.88 17.47 13.47 17.25 14.06 17 14.65 16.75 15.23 16.5 15.87 16.28 16.47 16.06 17.08 15.8 17.73 15.58 -0.01 0zm1079.79 423.53l-52.38 246.64 0.1 0.02 -51.08 -11.01 -50.14 -11.25 -49.24 -11.46 -48.35 -11.7 -47.44 -11.93 -46.54 -12.18 -45.63 -12.4 -44.72 -12.64 -43.83 -12.87 -42.95 -13.12 -42.05 -13.37 -41.15 -13.61 -40.26 -13.86 -39.36 -14.11 -38.49 -14.38 -37.61 -14.63 -36.71 -14.89 -35.84 -15.16 -34.99 -15.45 -34.08 -15.72 -33.2 -15.99 -32.35 -16.3 -31.48 -16.59 -30.61 -16.9 -29.74 -17.22 -28.85 -17.53 -27.99 -17.85 -27.14 -18.2 -26.26 -18.56 -25.39 -18.91 -24.51 -19.3 -23.61 -19.66 164.08 -191.44 18.17 15.12 19.15 15.08 20.15 15.01 21.18 14.96 22.18 14.88 23.21 14.81 24.23 14.71 25.22 14.6 26.23 14.48 27.26 14.37 28.27 14.24 29.3 14.11 30.3 13.98 31.27 13.81 32.32 13.66 33.33 13.53 34.31 13.35 35.31 13.18 36.32 13.01 37.32 12.86 38.29 12.67 39.29 12.49 40.27 12.3 41.29 12.13 42.26 11.94 43.25 11.76 44.22 11.56 45.2 11.37 46.17 11.18 47.18 10.98 48.14 10.79 49.1 10.59 0.1 0.02zm1705.52 620l-1757.9 -373.36 52.38 -246.64 1757.9 373.36 0.49 0.1 -52.87 246.54zm3170.26 2832.45l-252.14 0 0 0 -2.84 -137.01 -8.49 -133.58 -14.12 -130.15 -19.72 -126.76 -25.29 -123.41 -30.85 -120.08 -36.4 -116.81 -41.94 -113.59 -47.47 -110.43 -53.04 -107.3 -58.6 -104.23 -64.22 -101.23 -69.85 -98.25 -75.53 -95.32 -81.26 -92.41 -87.02 -89.51 -92.84 -86.63 -98.71 -83.76 -104.6 -80.87 -110.53 -77.98 -116.49 -75.08 -122.47 -72.13 -128.48 -69.2 -134.5 -66.24 -140.53 -63.24 -146.57 -60.23 -152.6 -57.2 -158.65 -54.15 -164.69 -51.08 -170.73 -48.01 -176.77 -44.89 -182.81 -41.79 53.36 -246.44 188.55 43.11 182.79 46.43 177.05 49.77 171.29 53.14 165.55 56.51 159.8 59.9 154.05 63.31 148.31 66.74 142.54 70.2 136.78 73.66 130.99 77.17 125.19 80.68 119.35 84.2 113.5 87.77 107.61 91.32 101.68 94.87 95.7 98.45 89.68 101.99 83.63 105.52 77.51 109.03 71.36 112.49 65.18 115.93 58.96 119.3 52.73 122.63 46.48 125.89 40.24 129.13 33.99 132.28 27.75 135.41 21.54 138.48 15.36 141.55 9.19 144.56 3.06 147.57 0 0zm-575.88 1870.26l-204.9 -146.94 0 0 32.54 -46.34 31.49 -46.79 30.46 -47.26 29.4 -47.72 28.38 -48.19 27.32 -48.64 26.3 -49.12 25.25 -49.6 24.23 -50.08 23.2 -50.55 22.16 -51.02 21.13 -51.53 20.12 -51.99 19.07 -52.49 18.06 -52.99 17.02 -53.47 16.01 -54 14.97 -54.48 13.95 -55 12.93 -55.49 11.89 -56.01 10.87 -56.53 9.83 -57.04 8.82 -57.56 7.77 -58.09 6.75 -58.61 5.72 -59.13 4.67 -59.66 3.65 -60.18 2.59 -60.72 1.57 -61.26 0.52 -61.78 252.14 0 -0.56 66.06 -1.67 65.58 -2.79 65.12 -3.91 64.64 -5.03 64.18 -6.16 63.69 -7.27 63.21 -8.41 62.75 -9.52 62.24 -10.65 61.78 -11.79 61.29 -12.91 60.81 -14.05 60.31 -15.17 59.8 -16.31 59.32 -17.43 58.82 -18.56 58.31 -19.7 57.81 -20.83 57.31 -21.96 56.79 -23.09 56.27 -24.22 55.76 -25.34 55.23 -26.47 54.7 -27.59 54.18 -28.72 53.66 -29.84 53.12 -30.96 52.59 -32.08 52.04 -33.18 51.5 -34.29 50.97 -35.42 50.42 0 0zm-1608.68 1240.37l-98.88 -231.94 -0.01 0 60.63 -26.36 59.74 -26.99 58.83 -27.62 57.94 -28.26 57.06 -28.89 56.15 -29.51 55.27 -30.15 54.37 -30.78 53.5 -31.4 52.6 -32.03 51.71 -32.64 50.83 -33.29 49.95 -33.9 49.05 -34.52 48.21 -35.18 47.32 -35.77 46.42 -36.4 45.58 -37.05 44.7 -37.66 43.83 -38.29 42.96 -38.91 42.09 -39.54 41.25 -40.18 40.38 -40.79 39.51 -41.44 38.68 -42.07 37.8 -42.69 36.96 -43.33 36.11 -43.97 35.26 -44.62 34.41 -45.26 33.57 -45.88 204.9 146.94 -36.35 49.7 -37.27 49 -38.18 48.3 -39.09 47.61 -40 46.91 -40.92 46.21 -41.82 45.49 -42.73 44.8 -43.64 44.09 -44.53 43.38 -45.43 42.68 -46.34 41.97 -47.23 41.27 -48.14 40.54 -49 39.83 -49.92 39.14 -50.8 38.41 -51.67 37.7 -52.57 37 -53.45 36.28 -54.33 35.57 -55.21 34.86 -56.08 34.15 -56.96 33.44 -57.83 32.72 -58.71 32.03 -59.57 31.31 -60.44 30.61 -61.32 29.9 -62.19 29.2 -63.04 28.49 -63.91 27.78 -0.01 0zm-2421.83 437.91l0 -252.14 0 0 83.96 -0.41 83.23 -1.24 82.5 -2.05 81.75 -2.88 81.02 -3.7 80.29 -4.52 79.55 -5.34 78.82 -6.16 78.08 -6.98 77.35 -7.79 76.62 -8.61 75.87 -9.42 75.14 -10.25 74.42 -11.06 73.68 -11.86 72.94 -12.68 72.2 -13.5 71.47 -14.3 70.75 -15.11 70 -15.93 69.29 -16.74 68.55 -17.53 67.8 -18.35 67.1 -19.15 66.36 -19.96 65.63 -20.75 64.91 -21.58 64.18 -22.36 63.45 -23.18 62.74 -23.97 62.01 -24.77 61.29 -25.58 98.88 231.94 -64.85 27.06 -65.55 26.19 -66.26 25.33 -66.97 24.46 -67.68 23.58 -68.37 22.72 -69.09 21.85 -69.76 20.98 -70.48 20.13 -71.18 19.25 -71.87 18.39 -72.57 17.52 -73.26 16.67 -73.97 15.81 -74.65 14.94 -75.36 14.08 -76.06 13.22 -76.74 12.36 -77.42 11.5 -78.12 10.65 -78.83 9.8 -79.52 8.93 -80.21 8.09 -80.9 7.22 -81.6 6.38 -82.29 5.52 -82.97 4.68 -83.68 3.82 -84.37 2.96 -85.06 2.13 -85.75 1.26 -86.44 0.43 0 0zm8557.77 -9273.39l0 8976.19 -252.14 0 0 -8976.19 126.07 -126.07 126.07 126.07zm-126.07 -126.07l126.07 0 0 126.07 -126.07 -126.07zm-3624.7 0l3624.7 0 0 252.14 -3624.7 0 -126.07 -126.07 126.07 -126.07zm0 252.14l-126.07 0 0 -126.07 126.07 126.07zm126.07 -2117.32l0 1991.25 -252.14 0 0 -1991.25 126.07 -126.07 126.07 126.07zm-252.14 0l0 -126.07 126.07 0 -126.07 126.07zm9786.75 126.07l-9660.68 0 0 -252.14 9660.68 0 126.07 126.07 -126.07 126.07zm0 -252.14l126.07 0 0 126.07 -126.07 -126.07zm-126.07 2117.32l0 -1991.25 252.14 0 0 1991.25 -126.07 126.07 -126.07 -126.07zm252.14 0l0 126.07 -126.07 0 126.07 -126.07zm-3750.76 -126.07l3624.69 0 0 252.14 -3624.69 0 -126.07 -126.07 126.07 -126.07zm-126.07 126.07l0 -126.07 126.07 0 -126.07 126.07zm0 8976.19l0 -8976.19 252.14 0 0 8976.19 -126.07 126.07 -126.07 -126.07zm252.14 0l0 126.07 -126.07 0 126.07 -126.07zm-2537.36 -126.07l2411.29 0 0 252.14 -2411.29 0 -126.07 -126.07 126.07 -126.07zm0 252.14l-126.07 0 0 -126.07 126.07 126.07zm7344.36 -11093.51l0 10967.44 -252.14 0 0 -10967.44 126.07 -126.07 126.07 126.07zm-252.14 0l0 -126.07 126.07 0 -126.07 126.07zm5135.32 126.07l-5009.25 0 0 -252.14 5009.25 0 0 0 0 252.14zm2915.16 666.51l-167.7 188.28 0 0.01 -60.33 -52.2 -61.9 -50.56 -63.49 -48.9 -65.1 -47.28 -66.7 -45.63 -68.32 -44.01 -69.94 -42.37 -71.58 -40.75 -73.21 -39.12 -74.85 -37.48 -76.52 -35.86 -78.16 -34.22 -79.84 -32.59 -81.49 -30.95 -83.18 -29.3 -84.86 -27.66 -86.54 -26.02 -88.23 -24.36 -89.91 -22.71 -91.61 -21.05 -93.3 -19.38 -95 -17.72 -96.7 -16.04 -98.39 -14.37 -100.1 -12.7 -101.79 -11.01 -103.5 -9.32 -105.18 -7.65 -106.89 -5.94 -108.58 -4.25 -110.29 -2.54 -111.98 -0.86 0 -252.14 115.84 0.88 114.25 2.64 112.68 4.41 111.09 6.18 109.5 7.95 107.92 9.72 106.33 11.51 104.76 13.28 103.17 15.07 101.6 16.86 100 18.66 98.42 20.44 96.83 22.25 95.25 24.05 93.65 25.86 92.06 27.68 90.46 29.48 88.86 31.32 87.25 33.13 85.64 34.95 84.02 36.8 82.4 38.6 80.77 40.46 79.13 42.28 77.5 44.11 75.84 45.95 74.18 47.79 72.52 49.61 70.84 51.44 69.17 53.28 67.46 55.1 65.77 56.9 0 0.01zm1037.84 2567.66l-252.14 0 0 0 -0.95 -95.98 -2.84 -94.55 -4.72 -93.12 -6.62 -91.68 -8.49 -90.25 -10.36 -88.82 -12.23 -87.38 -14.11 -85.97 -15.95 -84.54 -17.82 -83.13 -19.67 -81.7 -21.52 -80.31 -23.37 -78.91 -25.21 -77.5 -27.04 -76.12 -28.88 -74.73 -30.73 -73.37 -32.56 -72 -34.4 -70.64 -36.23 -69.29 -38.09 -67.97 -39.91 -66.62 -41.77 -65.31 -43.61 -63.98 -45.48 -62.68 -47.34 -61.4 -49.2 -60.09 -51.08 -58.82 -52.96 -57.53 -54.86 -56.27 -56.75 -55 -58.65 -53.72 167.7 -188.28 63.85 58.48 61.87 59.96 59.88 61.41 57.88 62.87 55.88 64.34 53.86 65.79 51.82 67.22 49.82 68.66 47.77 70.1 45.75 71.51 43.69 72.94 41.65 74.33 39.61 75.73 37.54 77.12 35.5 78.48 33.45 79.87 31.4 81.23 29.34 82.58 27.29 83.92 25.25 85.27 23.2 86.59 21.17 87.92 19.14 89.25 17.09 90.56 15.07 91.87 13.05 93.2 11.02 94.48 9.01 95.79 7 97.1 5 98.4 3 99.69 0.99 101 0 0zm-656.29 2122.7l-199.64 -154 0 0 37.03 -49.16 35.86 -49.92 34.68 -50.68 33.49 -51.44 32.32 -52.21 31.15 -53 29.98 -53.77 28.81 -54.56 27.65 -55.35 26.48 -56.14 25.32 -56.93 24.14 -57.73 22.99 -58.53 21.82 -59.35 20.66 -60.16 19.48 -60.96 18.32 -61.8 17.16 -62.62 15.98 -63.44 14.81 -64.27 13.64 -65.11 12.46 -65.93 11.29 -66.78 10.11 -67.61 8.92 -68.45 7.75 -69.3 6.56 -70.13 5.37 -70.98 4.17 -71.83 3 -72.67 1.79 -73.52 0.6 -74.37 252.14 0 -0.64 78.45 -1.89 77.68 -3.16 76.93 -4.43 76.15 -5.71 75.4 -6.98 74.63 -8.25 73.86 -9.54 73.09 -10.81 72.31 -12.09 71.56 -13.38 70.77 -14.66 69.99 -15.95 69.23 -17.24 68.44 -18.54 67.66 -19.82 66.86 -21.12 66.08 -22.42 65.28 -23.7 64.49 -25.01 63.69 -26.3 62.87 -27.6 62.07 -28.9 61.26 -30.19 60.43 -31.47 59.6 -32.78 58.79 -34.07 57.96 -35.36 57.13 -36.65 56.28 -37.94 55.44 -39.2 54.58 -40.49 53.74 0 0zm-1860.17 914.6l-72.88 241.38 5.48 -242.9 70.37 -18.45 69.27 -19.42 68.21 -20.39 67.11 -21.35 66.05 -22.33 64.98 -23.29 63.91 -24.25 62.82 -25.21 61.76 -26.17 60.7 -27.13 59.64 -28.09 58.58 -29.04 57.51 -30 56.48 -30.96 55.42 -31.9 54.36 -32.85 53.33 -33.81 52.28 -34.77 51.27 -35.72 50.22 -36.68 49.2 -37.62 48.17 -38.59 47.16 -39.55 46.13 -40.51 45.13 -41.47 44.13 -42.44 43.12 -43.41 42.11 -44.37 41.12 -45.37 40.13 -46.34 39.12 -47.3 38.14 -48.3 199.64 154 -41.66 52.78 -42.78 51.72 -43.87 50.66 -44.98 49.61 -46.07 48.55 -47.18 47.49 -48.25 46.42 -49.35 45.35 -50.43 44.27 -51.52 43.21 -52.59 42.13 -53.68 41.06 -54.74 39.96 -55.79 38.88 -56.86 37.81 -57.93 36.73 -58.98 35.65 -60.04 34.56 -61.06 33.46 -62.11 32.4 -63.16 31.32 -64.2 30.23 -65.22 29.15 -66.26 28.09 -67.3 26.99 -68.31 25.93 -69.34 24.85 -70.35 23.79 -71.39 22.71 -72.39 21.65 -73.43 20.58 -74.43 19.51 5.48 -242.9zm-72.88 241.38l-434.98 -131.32 440.46 -111.58 -5.48 242.9zm1500.55 1016.81l-221.36 120.74 0.56 1.01 -32.26 -56.72 -32.77 -55.32 -33.28 -53.9 -33.79 -52.52 -34.3 -51.13 -34.79 -49.74 -35.3 -48.34 -35.79 -46.97 -36.28 -45.57 -36.78 -44.21 -37.26 -42.82 -37.76 -41.45 -38.25 -40.09 -38.74 -38.74 -39.21 -37.38 -39.7 -36.01 -40.18 -34.69 -40.68 -33.35 -41.16 -32.01 -41.66 -30.69 -42.14 -29.36 -42.65 -28.05 -43.15 -26.76 -43.65 -25.45 -44.16 -24.14 -44.68 -22.86 -45.22 -21.58 -45.73 -20.29 -46.28 -19.02 -46.83 -17.74 -47.38 -16.47 -47.94 -15.19 72.88 -241.38 54.54 17.29 53.96 18.75 53.35 20.22 52.74 21.66 52.13 23.13 51.5 24.58 50.88 26.02 50.24 27.48 49.59 28.91 48.95 30.34 48.29 31.77 47.64 33.2 46.98 34.61 46.3 36.01 45.66 37.43 44.98 38.81 44.3 40.21 43.65 41.6 42.96 42.96 42.31 44.35 41.64 45.71 40.98 47.1 40.3 48.43 39.64 49.79 38.99 51.15 38.32 52.5 37.67 53.84 37.02 55.19 36.37 56.52 35.72 57.88 35.07 59.2 34.44 60.54 0.56 1.01zm1552.09 3372.08l-1773.45 -3251.34 221.36 -120.74 1773.45 3251.34 -110.68 186.44 -110.68 -65.7zm221.36 -120.74l101.69 186.44 -212.37 0 110.68 -186.44zm-2770.86 -65.7l2660.18 0 0 252.14 -2660.18 0 -110.83 -65.98 110.83 -186.16zm0 252.14l-75.05 0 -35.78 -65.98 110.83 65.98zm-1787.08 -3686.41l1897.91 3500.25 -221.66 120.18 -1897.91 -3500.25 221.03 -121.32 0.63 1.14zm-740.73 -409.51l108.6 -227.56 0 0 23.88 11.74 23.62 12.28 23.38 12.85 23.12 13.4 22.85 13.94 22.6 14.5 22.33 15.03 22.04 15.56 21.79 16.09 21.54 16.65 21.23 17.15 20.96 17.67 20.69 18.21 20.42 18.71 20.14 19.24 19.88 19.74 19.59 20.26 19.31 20.74 19.03 21.25 18.77 21.75 18.51 22.25 18.21 22.75 17.95 23.22 17.69 23.73 17.41 24.21 17.16 24.71 16.87 25.16 16.63 25.66 16.37 26.16 16.1 26.63 15.84 27.1 15.59 27.59 -220.4 122.46 -13.79 -24.41 -13.98 -23.9 -14.12 -23.37 -14.29 -22.82 -14.47 -22.34 -14.63 -21.82 -14.78 -21.29 -14.95 -20.77 -15.09 -20.25 -15.27 -19.76 -15.41 -19.23 -15.55 -18.71 -15.73 -18.23 -15.87 -17.71 -16.03 -17.22 -16.17 -16.72 -16.32 -16.22 -16.46 -15.72 -16.62 -15.23 -16.77 -14.75 -16.94 -14.27 -17.07 -13.81 -17.2 -13.29 -17.39 -12.85 -17.54 -12.38 -17.69 -11.91 -17.84 -11.44 -18.01 -10.98 -18.18 -10.54 -18.34 -10.07 -18.52 -9.64 -18.68 -9.18 0 0zm-754.65 -151.05l0 -252.14 0 0 30.44 0.17 30.22 0.5 29.98 0.84 29.79 1.17 29.55 1.51 29.35 1.85 29.13 2.19 28.87 2.53 28.68 2.87 28.45 3.21 28.25 3.55 28.01 3.9 27.8 4.24 27.55 4.59 27.35 4.93 27.12 5.28 26.89 5.62 26.69 5.98 26.45 6.34 26.19 6.67 26 7.03 25.75 7.37 25.53 7.73 25.33 8.1 25.05 8.44 24.83 8.79 24.61 9.15 24.33 9.5 24.14 9.86 23.88 10.22 23.64 10.57 23.4 10.93 -108.6 227.56 -19.62 -9.17 -19.88 -8.89 -20.1 -8.6 -20.36 -8.32 -20.63 -8.04 -20.85 -7.77 -21.11 -7.47 -21.37 -7.2 -21.59 -6.9 -21.87 -6.61 -22.13 -6.35 -22.38 -6.05 -22.67 -5.77 -22.89 -5.48 -23.13 -5.18 -23.43 -4.9 -23.68 -4.62 -23.95 -4.31 -24.21 -4.03 -24.48 -3.74 -24.73 -3.44 -24.99 -3.15 -25.27 -2.85 -25.52 -2.55 -25.81 -2.25 -26.05 -1.97 -26.33 -1.65 -26.59 -1.37 -26.85 -1.05 -27.14 -0.76 -27.38 -0.46 -27.66 -0.15 0 0zm-1182.31 -252.14l1182.31 0 0 252.14 -1182.31 0 -126.07 -126.07 126.07 -126.07zm-126.07 126.07l0 -126.07 126.07 0 -126.07 126.07zm0 4246.97l0 -4246.97 252.14 0 0 4246.97 -126.07 126.07 -126.07 -126.07zm252.14 0l0 126.07 -126.07 0 126.07 -126.07zm-2537.35 -126.07l2411.28 0 0 252.14 -2411.28 0 -126.07 -126.07 126.07 -126.07zm0 252.14l-126.07 0 0 -126.07 126.07 126.07zm4573.67 -5989.31l-2162.39 0 0 -252.14 2162.39 0 0 0 0 252.14zm1818.51 -1681.73l252.14 0 0 0 -2 100.79 -6.03 98.06 -10.1 95.32 -14.21 92.61 -18.39 89.81 -22.57 87.03 -26.83 84.19 -31.11 81.28 -35.4 78.3 -39.72 75.25 -44.02 72.11 -48.29 68.87 -52.52 65.55 -56.7 62.15 -60.78 58.69 -64.79 55.17 -68.72 51.66 -72.57 48.09 -76.33 44.57 -80.03 41.04 -83.69 37.57 -87.31 34.11 -90.88 30.69 -94.42 27.33 -97.98 24 -101.52 20.71 -105.07 17.44 -108.59 14.22 -112.16 11.02 -115.73 7.84 -119.3 4.7 -122.89 1.56 0 -252.14 116.39 -1.48 112.38 -4.42 108.35 -7.34 104.32 -10.26 100.29 -13.12 96.23 -15.98 92.18 -18.79 88.12 -21.58 84.08 -24.33 80.04 -27.03 76.01 -29.69 72.03 -32.33 68.09 -34.92 64.19 -37.47 60.37 -40.01 56.6 -42.54 52.95 -45.09 49.36 -47.65 45.86 -50.27 42.42 -52.95 39.07 -55.71 35.74 -58.55 32.44 -61.47 29.16 -64.5 25.87 -67.6 22.55 -70.77 19.19 -74.01 15.81 -77.29 12.37 -80.59 8.88 -83.94 5.37 -87.28 1.8 -90.63 0 0zm-1818.51 -1414.04l0 -252.14 0 0 122.86 1.54 119.27 4.65 115.68 7.77 112.12 10.9 108.56 14.07 105.03 17.26 101.48 20.5 97.93 23.75 94.39 27.04 90.84 30.37 87.27 33.76 83.66 37.17 80.02 40.63 76.31 44.11 72.57 47.61 68.72 51.14 64.8 54.64 60.81 58.12 56.73 61.57 52.56 64.95 48.34 68.24 44.07 71.46 39.77 74.6 35.45 77.62 31.15 80.58 26.87 83.47 22.6 86.28 18.41 89.04 14.23 91.79 10.11 94.48 6.04 97.19 2 99.88 -252.14 0 -1.8 -89.62 -5.36 -86.31 -8.87 -82.98 -12.35 -79.67 -15.79 -76.4 -19.16 -73.16 -22.51 -69.93 -25.83 -66.82 -29.11 -63.76 -32.39 -60.76 -35.69 -57.88 -39.02 -55.08 -42.38 -52.37 -45.83 -49.73 -49.33 -47.16 -52.94 -44.62 -56.6 -42.12 -60.37 -39.61 -64.21 -37.11 -68.1 -34.57 -72.06 -32.01 -76.05 -29.42 -80.08 -26.77 -84.11 -24.1 -88.17 -21.37 -92.22 -18.62 -96.27 -15.82 -100.32 -13.01 -104.36 -10.14 -108.4 -7.27 -112.41 -4.39 -116.42 -1.46 0 0zm-2162.39 -252.14l2162.39 0 0 252.14 -2162.39 0 -126.07 -126.07 126.07 -126.07zm-126.07 126.07l0 -126.07 126.07 0 -126.07 126.07zm0 3095.77l0 -3095.77 252.14 0 0 3095.77 -126.07 126.07 -126.07 -126.07zm126.07 126.07l-126.07 0 0 -126.07 126.07 126.07zm13360.96 -5037.02l-6907.16 10967.44 -213.36 -134.36 6907.16 -10967.44 106.68 -58.89 106.68 193.25zm-213.36 -134.36l37.09 -58.89 69.59 0 -106.68 58.89zm8678.4 193.25l-8571.72 0 0 -252.14 8571.72 0 126.07 126.07 -126.07 126.07zm0 -252.14l126.07 0 0 126.07 -126.07 -126.07zm-126.07 2008.43l0 -1882.36 252.14 0 0 1882.36 -126.07 126.07 -126.07 -126.07zm252.14 0l0 126.07 -126.07 0 126.07 -126.07zm-6115.38 -126.07l5989.31 0 0 252.14 -5989.31 0 -123.17 -99.2 123.17 -152.94zm-123.17 152.94l-33.37 -152.94 156.54 0 -123.17 152.94zm560.04 2566.84l-560.04 -2566.84 246.34 -53.74 560.04 2566.84 -123.17 152.94 -123.17 -99.2zm123.17 99.2l-101.53 0 -21.64 -99.2 123.17 99.2zm5102.58 0l-5102.58 0 0 -252.14 5102.58 0 126.07 126.07 -126.07 126.07zm0 -252.14l126.07 0 0 126.07 -126.07 -126.07zm-126.07 2023.99l0 -1897.92 252.14 0 0 1897.92 -126.07 126.07 -126.07 -126.07zm252.14 0l0 126.07 -126.07 0 126.07 -126.07zm-4824.18 -126.07l4698.11 0 0 252.14 -4698.11 0 -123.09 -98.8 123.09 -153.34zm-123.09 153.34l-33.98 -153.34 157.07 0 -123.09 153.34zm606.71 2737.97l-606.71 -2737.97 246.18 -54.54 606.71 2737.97 -123.09 153.34 -123.09 -98.8zm123.09 98.8l-101.2 0 -21.89 -98.8 123.09 98.8zm4418.09 0l-4418.09 0 0 -252.14 4418.09 0 126.07 126.07 -126.07 126.07zm0 -252.14l126.07 0 0 126.07 -126.07 -126.07zm-126.07 2008.42l0 -1882.35 252.14 0 0 1882.35 -126.07 126.07 -126.07 -126.07zm252.14 0l0 126.07 -126.07 0 126.07 -126.07zm-6286.51 -126.07l6160.44 0 0 252.14 -6160.44 0 -123.24 -99.49 123.24 -152.65zm0 252.14l-101.78 0 -21.46 -99.49 123.24 99.49zm-390.13 -2532.82l513.37 2380.17 -246.48 53.16 -513.37 -2380.17 123.24 -152.65 123.24 99.49zm-123.24 -99.49l101.78 0 21.46 99.49 -123.24 -99.49zm-4838.11 0l4838.11 0 0 252.14 -4838.11 0 -108.35 -190.52 108.35 -61.62zm-108.35 61.62l36.65 -61.62 71.7 0 -108.35 61.62zm-1415.66 2380.17l1415.66 -2380.17 216.7 128.9 -1415.66 2380.17 -108.35 61.62 -108.35 -190.52zm216.7 128.9l-36.65 61.62 -71.7 0 108.35 -61.62zm-2659.65 -190.52l2551.3 0 0 252.14 -2551.3 0 -106.68 -193.25 106.68 -58.89zm0 252.14l-228.39 0 121.71 -193.25 106.68 193.25zm4963.08 -4452.96l2411.28 -4060.29 216.8 128.74 -2411.28 4060.29 -108.4 61.7 -108.4 -190.44zm108.4 190.44l-221.5 0 113.1 -190.44 108.4 190.44zm3329.12 0l-3329.12 0 0 -252.14 3329.12 0 123.17 99.17 -123.17 152.97zm123.17 -152.97l33.41 152.97 -156.58 0 123.17 -152.97zm-886.73 -4060.29l886.73 4060.29 -246.34 53.8 -886.73 -4060.29 123.17 -152.97 123.17 99.17zm-123.17 -99.17l101.51 0 21.66 99.17 -123.17 -99.17zm-31.11 0l31.11 0 0 252.14 -31.11 0 -108.4 -190.44 108.4 -61.7zm-108.4 61.7l36.64 -61.7 71.76 0 -108.4 61.7zm12757.58 -589.01l0 8976.19 -252.14 0 0 -8976.19 126.07 -126.07 126.07 126.07zm-126.07 -126.07l126.07 0 0 126.07 -126.07 -126.07zm-3624.71 0l3624.71 0 0 252.14 -3624.71 0 -126.07 -126.07 126.07 -126.07zm0 252.14l-126.07 0 0 -126.07 126.07 126.07zm126.07 -2117.32l0 1991.25 -252.14 0 0 -1991.25 126.07 -126.07 126.07 126.07zm-252.14 0l0 -126.07 126.07 0 -126.07 126.07zm9786.76 126.07l-9660.69 0 0 -252.14 9660.69 0 126.07 126.07 -126.07 126.07zm0 -252.14l126.07 0 0 126.07 -126.07 -126.07zm-126.07 2117.32l0 -1991.25 252.14 0 0 1991.25 -126.07 126.07 -126.07 -126.07zm252.14 0l0 126.07 -126.07 0 126.07 -126.07zm-3750.77 -126.07l3624.7 0 0 252.14 -3624.7 0 -126.07 -126.07 126.07 -126.07zm-126.07 126.07l0 -126.07 126.07 0 -126.07 126.07zm0 8976.19l0 -8976.19 252.14 0 0 8976.19 -126.07 126.07 -126.07 -126.07zm252.14 0l0 126.07 -126.07 0 126.07 -126.07zm-2537.35 -126.07l2411.28 0 0 252.14 -2411.28 0 -126.07 -126.07 126.07 -126.07zm0 252.14l-126.07 0 0 -126.07 126.07 126.07zm7344.36 -11093.51l0 10967.44 -252.14 0 0 -10967.44 126.07 -126.07 126.07 126.07zm-252.14 0l0 -126.07 126.07 0 -126.07 126.07zm2537.35 126.07l-2411.28 0 0 -252.14 2411.28 0 126.07 126.07 -126.07 126.07zm0 -252.14l126.07 0 0 126.07 -126.07 -126.07zm-126.07 11093.51l0 -10967.44 252.14 0 0 10967.44 -126.07 126.07 -126.07 -126.07zm252.14 0l0 126.07 -126.07 0 126.07 -126.07zm-2537.35 -126.07l2411.28 0 0 252.14 -2411.28 0 -126.07 -126.07 126.07 -126.07zm0 252.14l-126.07 0 0 -126.07 126.07 126.07z"/>
    </g>
    <g>
     <path class="fil3" d="M60077.34 17483.71l0 -4682.55 -1337.88 0 0 -1726.79 1337.88 0 0 -4558.1 4293.63 0c1866.8,0 3313.57,474.48 4340.31,1423.43 1026.74,948.96 1540.11,2299.8 1540.11,4052.51 0,1752.72 -513.37,3106.15 -1540.11,4060.29 -1026.74,954.14 -2473.51,1431.21 -4340.31,1431.21l-4293.63 0zm2411.28 -6409.34l2893.54 0 0 1726.79 -2893.54 0 0 2706.86 1742.34 0c2333.5,0 3500.25,-1171.94 3500.25,-3515.81 0,-2333.5 -1166.75,-3500.25 -3500.25,-3500.25l-1742.34 0 0 2582.41z"/>
     <path id="1" class="fil4" d="M60203.41 12801.16l0 4682.55 -252.14 0 0 -4682.55 126.07 -126.07 126.07 126.07zm-126.07 -126.07l126.07 0 0 126.07 -126.07 -126.07zm-1337.88 0l1337.88 0 0 252.14 -1337.88 0 -126.07 -126.07 126.07 -126.07zm0 252.14l-126.07 0 0 -126.07 126.07 126.07zm126.07 -1852.86l0 1726.79 -252.14 0 0 -1726.79 126.07 -126.07 126.07 126.07zm-252.14 0l0 -126.07 126.07 0 -126.07 126.07zm1463.95 126.07l-1337.88 0 0 -252.14 1337.88 0 126.07 126.07 -126.07 126.07zm126.07 -126.07l0 126.07 -126.07 0 126.07 -126.07zm0 -4558.1l0 4558.1 -252.14 0 0 -4558.1 126.07 -126.07 126.07 126.07zm-252.14 0l0 -126.07 126.07 0 -126.07 126.07zm4419.7 126.07l-4293.63 0 0 -252.14 4293.63 0 0 0 0 252.14zm4425.88 1204.78l-171.14 185.16 0 0 -94.83 -85.18 -97.23 -82.49 -99.63 -79.78 -102.04 -77.1 -104.45 -74.4 -106.88 -71.72 -109.32 -69.04 -111.74 -66.35 -114.21 -63.67 -116.65 -61 -119.11 -58.31 -121.59 -55.63 -124.06 -52.95 -126.56 -50.27 -129.02 -47.58 -131.53 -44.89 -134.03 -42.19 -136.52 -39.51 -139.03 -36.8 -141.54 -34.1 -144.05 -31.39 -146.56 -28.68 -149.09 -25.97 -151.6 -23.25 -154.11 -20.53 -156.64 -17.8 -159.15 -15.07 -161.68 -12.33 -164.19 -9.6 -166.72 -6.87 -169.23 -4.12 -171.75 -1.37 0 -252.14 175.81 1.41 173.41 4.22 171 7.03 168.61 9.86 166.2 12.69 163.79 15.51 161.4 18.34 158.99 21.17 156.6 24.03 154.17 26.85 151.78 29.7 149.37 32.55 146.96 35.4 144.55 38.26 142.12 41.13 139.71 43.99 137.27 46.85 134.86 49.72 132.42 52.61 129.98 55.47 127.53 58.35 125.09 61.23 122.61 64.12 120.15 66.99 117.68 69.87 115.2 72.76 112.7 75.62 110.21 78.5 107.7 81.38 105.19 84.24 102.67 87.11 100.15 89.96 0 0zm1580.61 4145.09l-252.14 0 0 0 -1.48 -160.8 -4.45 -158.37 -7.4 -155.96 -10.35 -153.54 -13.31 -151.11 -16.25 -148.69 -19.2 -146.28 -22.13 -143.85 -25.06 -141.45 -27.99 -139.04 -30.92 -136.62 -33.83 -134.22 -36.74 -131.82 -39.66 -129.43 -42.56 -127.04 -45.48 -124.65 -48.37 -122.28 -51.27 -119.92 -54.18 -117.55 -57.07 -115.21 -59.97 -112.85 -62.87 -110.53 -65.77 -108.2 -68.68 -105.88 -71.59 -103.57 -74.5 -101.27 -77.43 -98.99 -80.34 -96.7 -83.28 -94.43 -86.2 -92.15 -89.17 -89.9 -92.11 -87.63 171.14 -185.16 97.39 92.65 94.33 95.1 91.26 97.55 88.18 99.99 85.1 102.42 82.01 104.85 78.9 107.27 75.81 109.67 72.7 112.08 69.59 114.48 66.47 116.85 63.35 119.23 60.25 121.59 57.12 123.97 54.01 126.3 50.89 128.64 47.78 130.99 44.66 133.3 41.56 135.63 38.46 137.94 35.35 140.26 32.26 142.56 29.15 144.86 26.08 147.15 22.99 149.45 19.92 151.76 16.83 154.03 13.77 156.33 10.69 158.62 7.64 160.9 4.59 163.19 1.52 165.48 0 0zm-1580.36 4152.64l-171.64 -184.7 0 0 92.13 -88.12 89.18 -90.36 86.23 -92.6 83.29 -94.87 80.37 -97.13 77.44 -99.4 74.51 -101.67 71.61 -103.96 68.69 -106.25 65.79 -108.55 62.88 -110.86 59.98 -113.19 57.08 -115.5 54.19 -117.85 51.28 -120.18 48.37 -122.55 45.49 -124.9 42.56 -127.26 39.66 -129.65 36.75 -132.02 33.84 -134.4 30.92 -136.79 27.98 -139.19 25.07 -141.58 22.13 -143.98 19.2 -146.37 16.25 -148.78 13.31 -151.19 10.35 -153.59 7.4 -155.99 4.45 -158.4 1.48 -160.81 252.14 0 -1.52 165.49 -4.59 163.22 -7.64 160.93 -10.69 158.67 -13.77 156.39 -16.83 154.12 -19.92 151.85 -22.99 149.56 -26.07 147.28 -29.16 145.01 -32.26 142.71 -35.34 140.42 -38.45 138.12 -41.56 135.83 -44.66 133.52 -47.77 131.2 -50.89 128.89 -54 126.56 -57.11 124.23 -60.24 121.88 -63.34 119.53 -66.46 117.16 -69.57 114.81 -72.69 112.43 -75.79 110.04 -78.89 107.63 -82 105.24 -85.07 102.83 -88.17 100.41 -91.23 98 -94.32 95.56 -97.37 93.12 0 0zm-4426.13 1464.93l0 -252.14 0 0 171.74 -1.38 169.22 -4.14 166.7 -6.9 164.19 -9.65 161.66 -12.41 159.13 -15.16 156.64 -17.89 154.1 -20.63 151.59 -23.38 149.06 -26.11 146.56 -28.83 144.03 -31.56 141.53 -34.29 139.03 -36.99 136.5 -39.71 134.02 -42.43 131.51 -45.14 129.02 -47.83 126.54 -50.54 124.06 -53.24 121.58 -55.92 119.11 -58.63 116.64 -61.33 114.2 -64.02 111.75 -66.71 109.31 -69.41 106.87 -72.11 104.46 -74.81 102.04 -77.52 99.63 -80.23 97.23 -82.94 94.84 -85.65 171.64 184.7 -100.14 90.45 -102.67 87.58 -105.19 84.69 -107.7 81.82 -110.2 78.93 -112.71 76.05 -115.21 73.15 -117.67 70.25 -120.16 67.36 -122.62 64.47 -125.09 61.57 -127.54 58.68 -129.98 55.78 -132.44 52.9 -134.86 49.99 -137.29 47.12 -139.72 44.23 -142.14 41.35 -144.55 38.47 -146.97 35.61 -149.39 32.72 -151.78 29.87 -154.2 27.01 -156.61 24.14 -159 21.29 -161.4 18.45 -163.81 15.6 -166.22 12.75 -168.61 9.91 -171.02 7.08 -173.42 4.24 -175.82 1.42 0 0zm-4293.63 -252.14l4293.63 0 0 252.14 -4293.63 0 -126.07 -126.07 126.07 -126.07zm0 252.14l-126.07 0 0 -126.07 126.07 126.07zm5304.82 -6409.34l-2893.54 0 0 -252.14 2893.54 0 126.07 126.07 -126.07 126.07zm0 -252.14l126.07 0 0 126.07 -126.07 -126.07zm-126.07 1852.86l0 -1726.79 252.14 0 0 1726.79 -126.07 126.07 -126.07 -126.07zm252.14 0l0 126.07 -126.07 0 126.07 -126.07zm-3019.61 -126.07l2893.54 0 0 252.14 -2893.54 0 -126.07 -126.07 126.07 -126.07zm-126.07 126.07l0 -126.07 126.07 0 -126.07 126.07zm0 2706.86l0 -2706.86 252.14 0 0 2706.86 -126.07 126.07 -126.07 -126.07zm126.07 126.07l-126.07 0 0 -126.07 126.07 126.07zm1742.34 0l-1742.34 0 0 -252.14 1742.34 0 0 0 0 252.14zm3374.18 -3641.88l252.14 0 0 0 -3.48 220.35 -10.47 213.74 -17.47 207.14 -24.53 200.54 -31.6 193.94 -38.71 187.34 -45.86 180.73 -53.07 174.1 -60.29 167.42 -67.55 160.71 -74.86 153.96 -82.17 147.13 -89.5 140.23 -96.8 133.24 -104.09 126.18 -111.34 119.06 -118.52 111.83 -125.65 104.57 -132.67 97.25 -139.65 89.92 -146.52 82.56 -153.33 75.21 -160.05 67.88 -166.75 60.59 -173.39 53.31 -179.99 46.1 -186.58 38.89 -193.15 31.75 -199.72 24.64 -206.28 17.56 -212.85 10.51 -219.43 3.5 0 -252.14 211.27 -3.36 204.17 -10.09 197.06 -16.78 189.96 -23.42 182.85 -30.07 175.76 -36.63 168.67 -43.18 161.59 -49.69 154.57 -56.15 147.57 -62.58 140.65 -68.99 133.76 -75.38 126.99 -81.76 120.27 -88.15 113.63 -94.57 107.08 -101.03 100.58 -107.56 94.17 -114.16 87.78 -120.82 81.42 -127.57 75.07 -134.41 68.7 -141.32 62.33 -148.29 55.93 -155.32 49.49 -162.38 43 -169.49 36.49 -176.6 29.94 -183.72 23.33 -190.88 16.71 -198 10.03 -205.14 3.36 -212.25 0 0zm-3374.18 -3374.18l0 -252.14 0 0 219.41 3.48 212.83 10.47 206.26 17.48 199.7 24.53 193.13 31.61 186.56 38.72 179.97 45.87 173.37 53.08 166.73 60.31 160.04 67.57 153.32 74.87 146.5 82.2 139.65 89.51 132.68 96.83 125.65 104.11 118.54 111.34 111.34 118.54 104.11 125.65 96.83 132.68 89.51 139.65 82.2 146.5 74.87 153.32 67.57 160.04 60.31 166.73 53.08 173.37 45.87 179.97 38.72 186.56 31.61 193.13 24.53 199.7 17.48 206.26 10.47 212.83 3.48 219.41 -252.14 0 -3.36 -211.29 -10.03 -204.19 -16.7 -197.08 -23.33 -189.98 -29.93 -182.87 -36.48 -175.78 -42.99 -168.69 -49.48 -161.61 -55.91 -154.59 -62.31 -147.58 -68.69 -140.66 -75.04 -133.78 -81.41 -126.99 -87.75 -120.26 -94.15 -113.63 -100.58 -107.06 -107.06 -100.58 -113.63 -94.15 -120.26 -87.75 -126.99 -81.41 -133.78 -75.04 -140.66 -68.69 -147.58 -62.31 -154.59 -55.91 -161.61 -49.48 -168.69 -42.99 -175.78 -36.48 -182.87 -29.93 -189.98 -23.33 -197.08 -16.7 -204.19 -10.03 -211.29 -3.36 0 0zm-1742.34 -252.14l1742.34 0 0 252.14 -1742.34 0 -126.07 -126.07 126.07 -126.07zm-126.07 126.07l0 -126.07 126.07 0 -126.07 126.07zm0 2582.41l0 -2582.41 252.14 0 0 2582.41 -126.07 126.07 -126.07 -126.07zm126.07 126.07l-126.07 0 0 -126.07 126.07 126.07z"/>
    </g>
   </g>
  </g>
 </g>
</svg>
